<svg class="logo" width="340" height="50" viewBox="0 0 340 50" xmlns="http://www.w3.org/2000/svg"><title>milanotoday-web</title><path d="M27.357 46.757h9.075V3.243H25.616l-6.03 18.835H19.4L12.935 3.243H1.56v43.514h8.703V34.51c0-9.2-.124-16.66-.124-16.722h.248c0 .062 1.182 4.662 2.611 9.573l2.798 9.635h6.03l2.859-9.697c1.367-4.786 2.548-9.449 2.61-9.51h.187c0 .061-.124 7.52-.124 16.72v12.247zm13.924 0h9.076V3.243H41.28v43.514zm13.924 0H78.02v-8.64H64.28V3.242h-9.076v43.514zm45.254-7.646l1.368 7.646h9.51L102.2 3.243H89.27l-9.138 43.514h9.2l1.306-7.646h9.821zm-1.491-8.392H92.13l1.927-10.878c.684-3.855 1.367-7.957 1.367-8.02h.249c.062.063.684 4.228 1.368 8.082l1.927 10.816zm35.93 16.038h9.2V3.243h-8.703v14.795c0 5.594.062 10.38.062 10.443h-.187L123.646 3.243h-9.2v43.514h8.703V32.895c0-5.098-.063-10.381-.063-10.444h.187l11.624 24.306zm12.929-21.82c0 16.722 6.03 22.628 15.976 22.628 10.07 0 16.038-6.092 16.038-22.503 0-16.66-6.03-22.627-16.038-22.627s-15.976 6.03-15.976 22.503zm9.324-.061c0-10.506 2.176-13.738 6.714-13.738 4.413 0 6.651 3.17 6.651 13.986 0 10.63-2.238 13.738-6.651 13.738-4.538 0-6.714-3.232-6.714-13.986z" class="logo-edition"/><path d="M210.29 6.243v-3h-26.793v8.64h8.89v34.874h9.013V11.884h5.423c.872-2.353 2.036-4.215 3.466-5.641zm109.59 24.973l11.003-27.973h-9.262l-4.165 11.998c-.933 2.673-1.616 5.097-1.679 5.159h-.248c-.062-.062-.746-2.486-1.616-5.222l-4.041-11.935h-10.257l11.19 27.973v15.54h9.075v-15.54zm-111.83-6.28c0 17.045 6.03 23.064 15.976 23.064 10.07 0 16.038-6.21 16.038-22.937 0-16.98-6.03-23.063-16.038-23.063S208.05 8.146 208.05 24.937zm9.325-.063c0-10.708 2.175-14.002 6.713-14.002 4.414 0 6.652 3.23 6.652 14.256 0 10.834-2.238 14.002-6.652 14.002-4.538 0-6.713-3.294-6.713-14.256zm26.419-21.63v43.514h13.862c11.127 0 15.789-8.081 15.789-21.57 0-13.738-4.973-21.944-16.162-21.944h-13.49zm9.075 34.873V11.884h3.668c4.973 0 7.646 3.108 7.646 13.551 0 9.324-2.673 12.681-7.77 12.681h-3.544zm40.716.995l1.368 7.646h9.51l-9.137-43.514h-12.93l-9.138 43.514h9.2l1.306-7.646h9.821zm-1.491-8.392h-6.838l1.927-10.878c.684-3.855 1.367-7.957 1.367-8.02h.249c.062.063.684 4.228 1.368 8.082l1.927 10.816z" class="logo-network"/></svg>