<?xml version="1.0" standalone="no"?>
<!DOCTYPE svg PUBLIC "-//W3C//DTD SVG 20010904//EN"
 "http://www.w3.org/TR/2001/REC-SVG-20010904/DTD/svg10.dtd">
<svg version="1.0" xmlns="http://www.w3.org/2000/svg"
 width="300.000000pt" height="300.000000pt" viewBox="0 0 300.000000 300.000000"
 preserveAspectRatio="xMidYMid meet">
<metadata>
Created by potrace 1.11, written by Peter Selinger 2001-2013
</metadata>
<g transform="translate(0.000000,300.000000) scale(0.100000,-0.100000)"
fill="#000000" stroke="none">
<path d="M1333 2628 c-5 -7 -22 -38 -36 -69 -22 -46 -44 -70 -113 -125 -90
-71 -220 -211 -284 -304 -61 -90 -85 -146 -139 -325 -29 -93 -68 -217 -88
-274 -59 -176 -44 -223 126 -389 230 -225 387 -349 528 -421 51 -25 74 -31
128 -31 105 0 119 -10 246 -174 62 -80 114 -144 117 -141 9 9 -66 151 -112
212 -53 70 -86 97 -142 116 -22 7 -38 18 -37 24 2 8 -17 10 -65 6 -57 -5 -76
-2 -129 20 -86 35 -119 61 -160 124 -29 46 -44 59 -106 88 -82 38 -194 133
-287 244 -75 90 -100 138 -100 193 0 75 136 503 200 629 63 122 167 245 296
345 92 72 138 120 161 170 17 34 38 50 47 35 7 -11 -78 -124 -166 -222 -72
-81 -187 -266 -268 -434 -38 -79 -170 -429 -170 -450 0 -3 6 -5 14 -5 15 0 30
36 72 170 80 256 261 585 408 738 82 86 138 128 156 117 17 -10 13 -20 -54
-138 -131 -232 -266 -505 -300 -607 -39 -118 -59 -247 -47 -300 l8 -35 10 40
c6 22 15 77 21 122 6 45 25 125 43 177 35 108 219 489 252 524 11 12 38 25 59
29 25 4 47 16 63 35 36 43 19 56 -21 17 -19 -18 -37 -30 -40 -26 -7 7 46 147
55 147 3 0 16 -15 29 -33 30 -45 31 -158 0 -237 -54 -144 -109 -314 -129 -400
-11 -52 -41 -162 -65 -244 -24 -82 -44 -153 -44 -158 0 -4 7 -8 15 -8 12 0 15
-14 15 -68 0 -38 3 -72 7 -75 3 -4 17 3 30 15 28 26 28 23 2 -63 -27 -90 -19
-109 17 -36 30 61 52 70 65 27 4 -14 15 -52 25 -85 l18 -60 6 35 6 35 8 -30
c15 -57 16 -59 28 -47 22 22 -7 147 -57 249 -25 50 -45 93 -45 96 0 3 21 -1
47 -9 76 -23 78 -22 75 41 -4 63 16 106 87 187 23 25 41 49 41 53 0 4 -18 27
-40 52 -49 56 -60 93 -60 206 0 160 36 327 72 327 38 0 83 -113 104 -259 8
-58 21 -127 30 -153 8 -26 74 -144 145 -263 71 -120 139 -235 150 -257 25 -49
49 -156 49 -222 0 -67 19 -128 38 -121 50 19 59 17 83 -22 l24 -38 3 33 c5 46
27 41 61 -14 15 -26 31 -42 35 -36 3 6 -17 38 -46 72 -87 102 -97 121 -113
208 -8 45 -19 92 -26 104 -17 33 -152 229 -230 333 -66 88 -123 190 -141 250
-5 17 -19 84 -32 150 -29 147 -50 202 -106 284 -23 35 -58 96 -76 136 -26 56
-43 79 -71 96 -21 13 -56 43 -79 66 -42 44 -82 56 -101 31z m144 -804 c13 -73
4 -164 -19 -191 -15 -19 -48 -13 -63 12 -11 17 -8 38 11 125 14 58 27 111 29
118 11 31 31 1 42 -64z"/>
<path d="M1770 1223 c61 -64 106 -143 141 -247 24 -73 37 -71 38 5 2 103 -67
214 -166 267 -34 18 -63 32 -65 32 -2 0 21 -26 52 -57z"/>
</g>
</svg>
