<svg version="1" xmlns="http://www.w3.org/2000/svg" width="400" height="400" viewBox="0 0 300.000000 300.000000"><path d="M133.3 37.2c-.5.7-2.2 3.8-3.6 6.9-2.2 4.6-4.4 7-11.3 12.5-9 7.1-22 21.1-28.4 30.4-6.1 9-8.5 14.6-13.9 32.5-2.9 9.3-6.8 21.7-8.8 27.4-5.9 17.6-4.4 22.3 12.6 38.9 23 22.5 38.7 34.9 52.8 42.1 5.1 2.5 7.4 3.1 12.8 3.1 10.5 0 11.9 1 24.6 17.4 6.2 8 11.4 14.4 11.7 14.1.9-.9-6.6-15.1-11.2-21.2-5.3-7-8.6-9.7-14.2-11.6-2.2-.7-3.8-1.8-3.7-2.4.2-.8-1.7-1-6.5-.6-5.7.5-7.6.2-12.9-2-8.6-3.5-11.9-6.1-16-12.4-2.9-4.6-4.4-5.9-10.6-8.8-8.2-3.8-19.4-13.3-28.7-24.4-7.5-9-10-13.8-10-19.3 0-7.5 13.6-50.3 20-62.9 6.3-12.2 16.7-24.5 29.6-34.5 9.2-7.2 13.8-12 16.1-17 1.7-3.4 3.8-5 4.7-3.5.7 1.1-7.8 12.4-16.6 22.2-7.2 8.1-18.7 26.6-26.8 43.4-3.8 7.9-17 42.9-17 45 0 .3.6.5 1.4.5 1.5 0 3-3.6 7.2-17 8-25.6 26.1-58.5 40.8-73.8 8.2-8.6 13.8-12.8 15.6-11.7 1.7 1 1.3 2-5.4 13.8-13.1 23.2-26.6 50.5-30 60.7-3.9 11.8-5.9 24.7-4.7 30l.8 3.5 1-4c.6-2.2 1.5-7.7 2.1-12.2.6-4.5 2.5-12.5 4.3-17.7 3.5-10.8 21.9-48.9 25.2-52.4 1.1-1.2 3.8-2.5 5.9-2.9 2.5-.4 4.7-1.6 6.3-3.5 3.6-4.3 1.9-5.6-2.1-1.7-1.9 1.8-3.7 3-4 2.6-.7-.7 4.6-14.7 5.5-14.7.3 0 1.6 1.5 2.9 3.3 3 4.5 3.1 15.8 0 23.7-5.4 14.4-10.9 31.4-12.9 40-1.1 5.2-4.1 16.2-6.5 24.4-2.4 8.2-4.4 15.3-4.4 15.8 0 .4.7.8 1.5.8 1.2 0 1.5 1.4 1.5 6.8 0 3.8.3 7.2.7 7.5.3.4 1.7-.3 3-1.5 2.8-2.6 2.8-2.3.2 6.3-2.7 9-1.9 10.9 1.7 3.6 3-6.1 5.2-7 6.5-2.7.4 1.4 1.5 5.2 2.5 8.5l1.8 6 .6-3.5.6-3.5.8 3c1.5 5.7 1.6 5.9 2.8 4.7 2.2-2.2-.7-14.7-5.7-24.9-2.5-5-4.5-9.3-4.5-9.6 0-.3 2.1.1 4.7.9 7.6 2.3 7.8 2.2 7.5-4.1-.4-6.3 1.6-10.6 8.7-18.7 2.3-2.5 4.1-4.9 4.1-5.3 0-.4-1.8-2.7-4-5.2-4.9-5.6-6-9.3-6-20.6 0-16 3.6-32.7 7.2-32.7 3.8 0 8.3 11.3 10.4 25.9.8 5.8 2.1 12.7 3 15.3.8 2.6 7.4 14.4 14.5 26.3 7.1 12 13.9 23.5 15 25.7 2.5 4.9 4.9 15.6 4.9 22.2 0 6.7 1.9 12.8 3.8 12.1 5-1.9 5.9-1.7 8.3 2.2l2.4 3.8.3-3.3c.5-4.6 2.7-4.1 6.1 1.4 1.5 2.6 3.1 4.2 3.5 3.6.3-.6-1.7-3.8-4.6-7.2-8.7-10.2-9.7-12.1-11.3-20.8-.8-4.5-1.9-9.2-2.6-10.4-1.7-3.3-15.2-22.9-23-33.3-6.6-8.8-12.3-19-14.1-25-.5-1.7-1.9-8.4-3.2-15-2.9-14.7-5-20.2-10.6-28.4-2.3-3.5-5.8-9.6-7.6-13.6-2.6-5.6-4.3-7.9-7.1-9.6-2.1-1.3-5.6-4.3-7.9-6.6-4.2-4.4-8.2-5.6-10.1-3.1zm14.4 80.4c1.3 7.3.4 16.4-1.9 19.1-1.5 1.9-4.8 1.3-6.3-1.2-1.1-1.7-.8-3.8 1.1-12.5 1.4-5.8 2.7-11.1 2.9-11.8 1.1-3.1 3.1-.1 4.2 6.4z"/><path d="M177 177.7c6.1 6.4 10.6 14.3 14.1 24.7 2.4 7.3 3.7 7.1 3.8-.5.2-10.3-6.7-21.4-16.6-26.7-3.4-1.8-6.3-3.2-6.5-3.2-.2 0 2.1 2.6 5.2 5.7z"/></svg>