<?xml version="1.0" encoding="utf-8"?>
<!-- Generator: Adobe Illustrator 22.1.0, SVG Export Plug-In . SVG Version: 6.00 Build 0)  -->
<svg version="1.1" id="Livello_1" xmlns="http://www.w3.org/2000/svg" xmlns:xlink="http://www.w3.org/1999/xlink" x="0px" y="0px"
	 width="385.3px" height="75.9px" viewBox="0 0 385.3 75.9" style="enable-background:new 0 0 385.3 75.9;" xml:space="preserve">
<style type="text/css">
	.st0{fill:#FFFFFF;}
</style>
<polygon class="st0" points="134.2,66.4 129.7,66.4 129.7,57.5 134.2,57.5 134.2,58.9 131.3,58.9 131.3,61.2 133.6,61.2 133.6,62.6 
	131.3,62.6 131.3,64.9 134.2,64.9 "/>
<polygon class="st0" points="159.3,66.4 157.4,66.4 156.5,63.5 155.6,66.4 153.8,66.4 155.6,61.9 153.8,57.5 155.7,57.5 156.6,60.2 
	157.5,57.5 159.3,57.5 157.5,61.9 "/>
<polygon class="st0" points="184.1,57.5 182,62.8 182,66.4 180.4,66.4 180.4,62.8 178.2,57.5 180.1,57.5 181.2,60.7 182.3,57.5 "/>
<polygon class="st0" points="208.5,59 206.6,59 206.6,66.4 205,66.4 205,59 203,59 203,57.5 208.5,57.5 "/>
<path class="st0" d="M233,63.9c0,0.9-0.2,1.6-0.7,2c-0.5,0.4-1.1,0.6-1.9,0.6c-0.8,0-1.5-0.2-1.9-0.6c-0.5-0.4-0.7-1.1-0.7-2v-6.4
	h1.5v6.3c0,0.4,0.1,0.8,0.3,1c0.2,0.2,0.5,0.3,0.8,0.3c0.3,0,0.6-0.1,0.8-0.3c0.2-0.2,0.3-0.6,0.3-1v-6.3h1.5V63.9z"/>
<path class="st0" d="M257.6,63.8c0,0.8-0.2,1.5-0.7,2c-0.4,0.5-1.1,0.7-1.9,0.7c-0.8,0-1.5-0.2-1.9-0.6c-0.4-0.4-0.7-1-0.7-1.8h1.5
	c0,0.3,0.2,0.6,0.3,0.7c0.2,0.2,0.5,0.2,0.9,0.2c0.3,0,0.5-0.1,0.7-0.3c0.2-0.2,0.3-0.4,0.3-0.7c0-0.2-0.1-0.5-0.2-0.6
	c-0.1-0.2-0.4-0.4-0.7-0.5c-0.3-0.2-0.6-0.3-0.9-0.5c-0.3-0.2-0.6-0.4-0.9-0.6c-0.3-0.2-0.5-0.5-0.6-0.8c-0.1-0.3-0.2-0.7-0.2-1.1
	c0-0.8,0.2-1.4,0.7-1.8c0.4-0.4,1.1-0.7,1.8-0.7c0.8,0,1.4,0.2,1.8,0.6c0.4,0.4,0.6,1,0.6,1.7H256c0-0.3-0.1-0.6-0.3-0.7
	c-0.2-0.2-0.4-0.3-0.7-0.3c-0.3,0-0.6,0.1-0.8,0.2c-0.2,0.2-0.3,0.4-0.3,0.7c0,0.2,0,0.4,0.1,0.6c0.1,0.2,0.3,0.3,0.5,0.5
	c0.2,0.1,0.4,0.2,0.6,0.3c0.2,0.1,0.4,0.2,0.6,0.3c0.2,0.1,0.4,0.2,0.6,0.3c0.2,0.1,0.4,0.2,0.5,0.4c0.3,0.3,0.4,0.5,0.6,0.8
	C257.6,63.1,257.6,63.4,257.6,63.8"/>
<path class="st0" d="M28.1,40.9h-4.3c0,0-0.1,0-0.3,0c-0.2,0-0.3,0-0.4-0.1c-0.4-0.1-0.8-0.1-1.2-0.2c-0.4-0.1-0.8-0.2-1.2-0.4
	c-1.5-0.6-2.8-1.3-3.8-2.1c-1-0.9-1.9-1.8-2.6-2.9c-0.7-1-1.1-2.1-1.4-3.3c-0.3-1.1-0.4-2.2-0.4-3.3c0-0.2,0-0.6,0.1-1.2
	c0-0.6,0.1-1.1,0.2-1.6c0.2-0.6,0.4-1.3,0.7-2c0.3-0.7,0.7-1.4,1.2-2.1c0.5-0.7,1.1-1.4,1.7-2c0.6-0.6,1.4-1.2,2.2-1.6
	c1.1-0.7,2.2-1.1,3.3-1.3c0,0,0.1,0,0.3-0.1c0.2,0,0.4-0.1,0.6-0.1c0.2-0.1,0.4-0.1,0.6-0.1c0.2,0,0.4-0.1,0.5-0.1h4.3v5H24
	c0,0-0.2,0-0.4,0.1c-0.2,0.1-0.4,0.1-0.5,0.1c-0.4,0-0.8,0.2-1.3,0.4c-0.5,0.2-0.9,0.5-1.4,0.9c-0.5,0.4-0.9,0.8-1.3,1.2
	c-0.4,0.4-0.7,0.9-0.9,1.4c0,0.1-0.1,0.2-0.2,0.4c-0.1,0.1-0.1,0.3-0.2,0.4c-0.2,0.5-0.3,0.9-0.3,1.3c0,0.3-0.1,0.7-0.1,1.1
	c0,0.6,0.1,1.2,0.2,1.9c0.2,0.7,0.4,1.3,0.8,1.9c0.4,0.6,0.8,1.2,1.4,1.7c0.6,0.5,1.3,1,2.1,1.3c0.1,0,0.2,0.1,0.4,0.2
	c0.2,0.1,0.4,0.1,0.6,0.2c0.2,0.1,0.4,0.1,0.6,0.2c0.2,0,0.4,0.1,0.5,0.1h4V40.9z"/>
<path class="st0" d="M64.9,40.9h-5.6l-1.8-3.8H49l-1.8,3.8h-5.5l11.6-24.6L64.9,40.9z M55.2,32.1l-1.9-4l-1.9,4H55.2z"/>
<polygon class="st0" points="95.9,21.3 83.5,21.3 83.5,26.1 89.7,26.1 89.7,31.1 83.5,31.1 83.5,40.9 78.5,40.9 78.5,16.3 
	95.9,16.3 "/>
<polygon class="st0" points="127,21.3 114.6,21.3 114.6,26.1 120.8,26.1 120.8,31.1 114.6,31.1 114.6,40.9 109.6,40.9 109.6,16.3 
	127,16.3 "/>
<polygon class="st0" points="158,40.9 140.6,40.9 140.6,16.3 158,16.3 158,21.3 145.7,21.3 145.7,26.1 151.8,26.1 151.8,31.1 
	145.7,31.1 145.7,35.9 158,35.9 "/>
<polygon class="st0" points="216.5,40.9 211.5,40.9 200.7,25.2 200.7,40.9 195.7,40.9 195.7,16.3 200.7,16.3 211.5,32 211.5,16.3 
	216.5,16.3 "/>
<path class="st0" d="M253.3,40.9h-5.6l-1.8-3.8h-8.5l-1.8,3.8h-5.5l11.6-24.6L253.3,40.9z M243.6,32.1l-1.9-4l-1.9,4H243.6z"/>
<path class="st0" d="M283.9,24.6c0,1-0.2,1.9-0.5,2.8c-0.3,0.9-0.7,1.7-1.3,2.4c-0.6,0.7-1.2,1.3-1.9,1.8c-0.7,0.5-1.5,0.8-2.4,1.1
	c-0.2,0-0.5,0.1-0.9,0.2c-0.4,0.1-0.7,0.1-1,0.1h-4v7.9h-5V16.3h9c0.2,0,0.3,0,0.6,0.1c0.2,0,0.4,0.1,0.7,0.1
	c0.2,0.1,0.4,0.1,0.6,0.2c0.2,0.1,0.3,0.1,0.4,0.1c0.6,0.2,1.2,0.5,1.8,0.9c0.6,0.3,1.1,0.8,1.7,1.5c0.4,0.4,0.8,1,1.1,1.5
	c0.3,0.6,0.5,1.1,0.7,1.6c0.1,0.4,0.2,0.8,0.2,1.2C283.9,23.8,283.9,24.2,283.9,24.6 M278.9,24.6c0-0.3-0.1-0.6-0.1-1
	c-0.1-0.3-0.3-0.6-0.5-0.9c-0.2-0.3-0.5-0.6-0.8-0.8c-0.3-0.2-0.7-0.4-1.1-0.5c-0.1,0-0.3-0.1-0.5-0.1c-0.2,0-0.3,0-0.3,0H272V28
	h3.7c0,0,0.2,0,0.3-0.1c0.2,0,0.3-0.1,0.4-0.1c0.8-0.2,1.5-0.7,1.9-1.3C278.7,25.9,278.9,25.3,278.9,24.6"/>
<path class="st0" d="M321.8,28.6c0,1.7-0.3,3.3-1,4.8c-0.6,1.5-1.5,2.8-2.6,3.9c-1.1,1.1-2.4,2-3.9,2.6c-1.5,0.6-3.1,1-4.8,1
	c-1.7,0-3.3-0.3-4.8-1c-1.5-0.6-2.8-1.5-3.9-2.6c-1.1-1.1-2-2.4-2.6-3.9c-0.6-1.5-1-3.1-1-4.8c0-1.7,0.3-3.3,1-4.8
	c0.6-1.5,1.5-2.8,2.6-3.9c1.1-1.1,2.4-2,3.9-2.6c1.5-0.6,3.1-1,4.8-1c1.7,0,3.3,0.3,4.8,1c1.5,0.7,2.8,1.5,3.9,2.7
	c1.1,1.1,2,2.4,2.6,3.9C321.5,25.4,321.8,27,321.8,28.6 M316.8,28.6c0-0.6-0.1-1.3-0.3-2c-0.2-0.7-0.5-1.3-0.9-2
	c-0.4-0.6-0.9-1.2-1.5-1.7c-0.6-0.5-1.4-0.9-2.3-1.3c-0.2-0.1-0.4-0.1-0.6-0.1c-0.2,0-0.5-0.1-0.6-0.1c-0.2,0-0.4-0.1-0.7-0.1
	c-0.3,0-0.4,0-0.5,0c-0.5,0-1,0.1-1.6,0.2c-0.6,0.1-1.1,0.3-1.7,0.6c-0.6,0.3-1.1,0.7-1.6,1.1c-0.5,0.4-0.9,1-1.3,1.6
	c-0.5,0.8-0.8,1.5-0.9,2.3c0,0.2-0.1,0.5-0.1,0.7c0,0.2-0.1,0.5-0.1,0.8c0,1,0.2,1.9,0.6,2.8c0.4,0.9,0.9,1.6,1.6,2.3
	c0.7,0.7,1.4,1.2,2.3,1.6c0.9,0.4,1.8,0.6,2.8,0.6c1,0,1.9-0.2,2.8-0.6c0.9-0.4,1.7-0.9,2.3-1.5c0.7-0.7,1.2-1.4,1.6-2.3
	C316.6,30.6,316.8,29.7,316.8,28.6"/>
<polygon class="st0" points="353.5,40.9 336.1,40.9 336.1,16.3 341.2,16.3 341.2,35.9 353.5,35.9 "/>
<rect x="367.9" y="16.3" class="st0" width="5" height="24.6"/>
<polygon class="st0" points="147.4,5.4 150.7,10.8 148.4,10.8 143.8,5.4 "/>
</svg>
