<svg id="Livello_1" xmlns="http://www.w3.org/2000/svg" width="385.3" height="75.9" viewBox="0 0 385.3 75.9"><style>.st0{fill:#fff}</style><path class="st0" d="M134.2 66.4h-4.5v-8.9h4.5v1.4h-2.9v2.3h2.3v1.4h-2.3v2.3h2.9zm25.1 0h-1.9l-.9-2.9-.9 2.9h-1.8l1.8-4.5-1.8-4.4h1.9l.9 2.7.9-2.7h1.8l-1.8 4.4zm24.8-8.9l-2.1 5.3v3.6h-1.6v-3.6l-2.2-5.3h1.9l1.1 3.2 1.1-3.2zm24.4 1.5h-1.9v7.4H205V59h-2v-1.5h5.5zm24.5 4.9c0 .9-.2 1.6-.7 2-.5.4-1.1.6-1.9.6-.8 0-1.5-.2-1.9-.6-.5-.4-.7-1.1-.7-2v-6.4h1.5v6.3c0 .4.1.8.3 1 .2.2.5.3.8.3.3 0 .6-.1.8-.3.2-.2.3-.6.3-1v-6.3h1.5v6.4zm24.6-.1c0 .8-.2 1.5-.7 2-.4.5-1.1.7-1.9.7-.8 0-1.5-.2-1.9-.6-.4-.4-.7-1-.7-1.8h1.5c0 .3.2.6.3.7.2.2.5.2.9.2.3 0 .5-.1.7-.3.2-.2.3-.4.3-.7 0-.2-.1-.5-.2-.6-.1-.2-.4-.4-.7-.5-.3-.2-.6-.3-.9-.5l-.9-.6c-.3-.2-.5-.5-.6-.8-.1-.3-.2-.7-.2-1.1 0-.8.2-1.4.7-1.8.4-.4 1.1-.7 1.8-.7.8 0 1.4.2 1.8.6.4.4.6 1 .6 1.7H256c0-.3-.1-.6-.3-.7-.2-.2-.4-.3-.7-.3-.3 0-.6.1-.8.2-.2.2-.3.4-.3.7 0 .2 0 .4.1.6.1.2.3.3.5.5l.6.3.6.3.6.3c.2.1.4.2.5.4.3.3.4.5.6.8.2.3.2.6.2 1M28.1 40.9h-4.6c-.2 0-.3 0-.4-.1-.4-.1-.8-.1-1.2-.2-.4-.1-.8-.2-1.2-.4-1.5-.6-2.8-1.3-3.8-2.1-1-.9-1.9-1.8-2.6-2.9-.7-1-1.1-2.1-1.4-3.3-.3-1.1-.4-2.2-.4-3.3 0-.2 0-.6.1-1.2 0-.6.1-1.1.2-1.6.2-.6.4-1.3.7-2 .3-.7.7-1.4 1.2-2.1.5-.7 1.1-1.4 1.7-2 .6-.6 1.4-1.2 2.2-1.6 1.1-.7 2.2-1.1 3.3-1.3 0 0 .1 0 .3-.1.2 0 .4-.1.6-.1.2-.1.4-.1.6-.1.2 0 .4-.1.5-.1h4.3v5H24s-.2 0-.4.1-.4.1-.5.1c-.4 0-.8.2-1.3.4s-.9.5-1.4.9c-.5.4-.9.8-1.3 1.2-.4.4-.7.9-.9 1.4 0 .1-.1.2-.2.4-.1.1-.1.3-.2.4-.2.5-.3.9-.3 1.3 0 .3-.1.7-.1 1.1 0 .6.1 1.2.2 1.9.2.7.4 1.3.8 1.9.4.6.8 1.2 1.4 1.7.6.5 1.3 1 2.1 1.3.1 0 .2.1.4.2s.4.1.6.2c.2.1.4.1.6.2.2 0 .4.1.5.1h4v4.7zm36.8 0h-5.6l-1.8-3.8H49l-1.8 3.8h-5.5l11.6-24.6 11.6 24.6zm-9.7-8.8l-1.9-4-1.9 4h3.8zm40.7-10.8H83.5v4.8h6.2v5h-6.2v9.8h-5V16.3h17.4zm31.1 0h-12.4v4.8h6.2v5h-6.2v9.8h-5V16.3H127zm31 19.6h-17.4V16.3H158v5h-12.3v4.8h6.1v5h-6.1v4.8H158zm58.5 0h-5l-10.8-15.7v15.7h-5V16.3h5L211.5 32V16.3h5zm36.8 0h-5.6l-1.8-3.8h-8.5l-1.8 3.8h-5.5l11.6-24.6 11.6 24.6zm-9.7-8.8l-1.9-4-1.9 4h3.8zm40.3-7.5c0 1-.2 1.9-.5 2.8-.3.9-.7 1.7-1.3 2.4-.6.7-1.2 1.3-1.9 1.8s-1.5.8-2.4 1.1c-.2 0-.5.1-.9.2s-.7.1-1 .1h-4v7.9h-5V16.3h9c.2 0 .3 0 .6.1.2 0 .4.1.7.1.2.1.4.1.6.2.2.1.3.1.4.1.6.2 1.2.5 1.8.9.6.3 1.1.8 1.7 1.5.4.4.8 1 1.1 1.5.3.6.5 1.1.7 1.6.1.4.2.8.2 1.2.2.3.2.7.2 1.1m-5 0c0-.3-.1-.6-.1-1-.1-.3-.3-.6-.5-.9-.2-.3-.5-.6-.8-.8-.3-.2-.7-.4-1.1-.5-.1 0-.3-.1-.5-.1H272V28h3.7s.2 0 .3-.1c.2 0 .3-.1.4-.1.8-.2 1.5-.7 1.9-1.3.4-.6.6-1.2.6-1.9m42.9 4c0 1.7-.3 3.3-1 4.8-.6 1.5-1.5 2.8-2.6 3.9s-2.4 2-3.9 2.6c-1.5.6-3.1 1-4.8 1-1.7 0-3.3-.3-4.8-1-1.5-.6-2.8-1.5-3.9-2.6s-2-2.4-2.6-3.9c-.6-1.5-1-3.1-1-4.8 0-1.7.3-3.3 1-4.8.6-1.5 1.5-2.8 2.6-3.9s2.4-2 3.9-2.6c1.5-.6 3.1-1 4.8-1 1.7 0 3.3.3 4.8 1s2.8 1.5 3.9 2.7c1.1 1.1 2 2.4 2.6 3.9.7 1.5 1 3.1 1 4.7m-5 0c0-.6-.1-1.3-.3-2-.2-.7-.5-1.3-.9-2-.4-.6-.9-1.2-1.5-1.7s-1.4-.9-2.3-1.3c-.2-.1-.4-.1-.6-.1-.2 0-.5-.1-.6-.1-.2 0-.4-.1-.7-.1h-.5c-.5 0-1 .1-1.6.2-.6.1-1.1.3-1.7.6-.6.3-1.1.7-1.6 1.1-.5.4-.9 1-1.3 1.6-.5.8-.8 1.5-.9 2.3 0 .2-.1.5-.1.7 0 .2-.1.5-.1.8 0 1 .2 1.9.6 2.8.4.9.9 1.6 1.6 2.3.7.7 1.4 1.2 2.3 1.6.9.4 1.8.6 2.8.6 1 0 1.9-.2 2.8-.6.9-.4 1.7-.9 2.3-1.5.7-.7 1.2-1.4 1.6-2.3.5-.9.7-1.8.7-2.9m36.7 12.3h-17.4V16.3h5.1v19.6h12.3zm14.4-24.6h5v24.6h-5zM147.4 5.4l3.3 5.4h-2.3l-4.6-5.4z"/></svg>