<?xml version="1.0" encoding="utf-8"?>
<!-- Generator: Adobe Illustrator 22.1.0, SVG Export Plug-In . SVG Version: 6.00 Build 0)  -->
<svg version="1.1" id="Livello_1" xmlns="http://www.w3.org/2000/svg" xmlns:xlink="http://www.w3.org/1999/xlink" x="0px" y="0px"
	 width="385.3px" height="220.9px" viewBox="0 0 385.3 220.9" style="enable-background:new 0 0 385.3 220.9;" xml:space="preserve"
	>
<style type="text/css">
	.st0{fill:#FFFFFF;}
</style>
<polygon class="st0" points="134.2,206.8 129.7,206.8 129.7,197.9 134.2,197.9 134.2,199.3 131.3,199.3 131.3,201.6 133.6,201.6 
	133.6,203.1 131.3,203.1 131.3,205.3 134.2,205.3 "/>
<polygon class="st0" points="159.3,206.8 157.4,206.8 156.5,204 155.6,206.8 153.8,206.8 155.6,202.4 153.8,197.9 155.7,197.9 
	156.6,200.7 157.5,197.9 159.3,197.9 157.5,202.4 "/>
<polygon class="st0" points="184.1,197.9 182,203.3 182,206.8 180.4,206.8 180.4,203.3 178.2,197.9 180.1,197.9 181.2,201.2 
	182.3,197.9 "/>
<polygon class="st0" points="208.5,199.4 206.6,199.4 206.6,206.8 205,206.8 205,199.4 203,199.4 203,197.9 208.5,197.9 "/>
<path class="st0" d="M233,204.3c0,0.9-0.2,1.6-0.7,2c-0.5,0.4-1.1,0.6-1.9,0.6c-0.8,0-1.5-0.2-1.9-0.6c-0.5-0.4-0.7-1.1-0.7-2v-6.4
	h1.5v6.3c0,0.4,0.1,0.8,0.3,1c0.2,0.2,0.5,0.3,0.8,0.3c0.3,0,0.6-0.1,0.8-0.3c0.2-0.2,0.3-0.6,0.3-1v-6.3h1.5V204.3z"/>
<path class="st0" d="M257.6,204.3c0,0.8-0.2,1.5-0.7,2c-0.4,0.5-1.1,0.7-1.9,0.7c-0.8,0-1.5-0.2-1.9-0.6c-0.4-0.4-0.7-1-0.7-1.8h1.5
	c0,0.3,0.2,0.6,0.3,0.7c0.2,0.2,0.5,0.2,0.9,0.2c0.3,0,0.5-0.1,0.7-0.3c0.2-0.2,0.3-0.4,0.3-0.7c0-0.2-0.1-0.5-0.2-0.6
	c-0.1-0.2-0.4-0.4-0.7-0.5c-0.3-0.2-0.6-0.3-0.9-0.5c-0.3-0.2-0.6-0.4-0.9-0.6c-0.3-0.2-0.5-0.5-0.6-0.8c-0.1-0.3-0.2-0.7-0.2-1.1
	c0-0.8,0.2-1.4,0.7-1.8c0.4-0.4,1.1-0.7,1.8-0.7c0.8,0,1.4,0.2,1.8,0.6c0.4,0.4,0.6,1,0.6,1.7H256c0-0.3-0.1-0.6-0.3-0.7
	c-0.2-0.2-0.4-0.3-0.7-0.3c-0.3,0-0.6,0.1-0.8,0.2c-0.2,0.2-0.3,0.4-0.3,0.7c0,0.2,0,0.4,0.1,0.6c0.1,0.2,0.3,0.3,0.5,0.5
	c0.2,0.1,0.4,0.2,0.6,0.3c0.2,0.1,0.4,0.2,0.6,0.3c0.2,0.1,0.4,0.2,0.6,0.3c0.2,0.1,0.4,0.2,0.5,0.4c0.3,0.3,0.4,0.5,0.6,0.8
	C257.6,203.5,257.6,203.9,257.6,204.3"/>
<path class="st0" d="M28.1,181.3h-4.3c0,0-0.1,0-0.3,0c-0.2,0-0.3,0-0.4-0.1c-0.4-0.1-0.8-0.1-1.2-0.2c-0.4-0.1-0.8-0.2-1.2-0.4
	c-1.5-0.6-2.8-1.3-3.8-2.1c-1-0.9-1.9-1.8-2.6-2.9c-0.7-1-1.1-2.1-1.4-3.3c-0.3-1.1-0.4-2.2-0.4-3.3c0-0.2,0-0.6,0.1-1.2
	c0-0.6,0.1-1.1,0.2-1.6c0.2-0.6,0.4-1.3,0.7-2c0.3-0.7,0.7-1.4,1.2-2.1c0.5-0.7,1.1-1.4,1.7-2c0.6-0.6,1.4-1.2,2.2-1.6
	c1.1-0.7,2.2-1.1,3.3-1.3c0,0,0.1,0,0.3-0.1c0.2,0,0.4-0.1,0.6-0.1c0.2-0.1,0.4-0.1,0.6-0.1c0.2,0,0.4-0.1,0.5-0.1h4.3v5H24
	c0,0-0.2,0-0.4,0.1c-0.2,0.1-0.4,0.1-0.5,0.1c-0.4,0-0.8,0.2-1.3,0.4c-0.5,0.2-0.9,0.5-1.4,0.9c-0.5,0.4-0.9,0.8-1.3,1.2
	c-0.4,0.4-0.7,0.9-0.9,1.4c0,0.1-0.1,0.2-0.2,0.4c-0.1,0.1-0.1,0.3-0.2,0.4c-0.2,0.5-0.3,0.9-0.3,1.3c0,0.3-0.1,0.7-0.1,1.1
	c0,0.6,0.1,1.2,0.2,1.9c0.2,0.7,0.4,1.3,0.8,1.9c0.4,0.6,0.8,1.2,1.4,1.7c0.6,0.5,1.3,1,2.1,1.3c0.1,0,0.2,0.1,0.4,0.2
	c0.2,0.1,0.4,0.1,0.6,0.2c0.2,0.1,0.4,0.1,0.6,0.2c0.2,0,0.4,0.1,0.5,0.1h4V181.3z"/>
<path class="st0" d="M64.9,181.4h-5.6l-1.8-3.8H49l-1.8,3.8h-5.5l11.6-24.6L64.9,181.4z M55.2,172.5l-1.9-4l-1.9,4H55.2z"/>
<polygon class="st0" points="95.9,161.7 83.5,161.7 83.5,166.6 89.7,166.6 89.7,171.5 83.5,171.5 83.5,181.3 78.5,181.3 78.5,156.8 
	95.9,156.8 "/>
<polygon class="st0" points="127,161.7 114.6,161.7 114.6,166.6 120.8,166.6 120.8,171.5 114.6,171.5 114.6,181.3 109.6,181.3 
	109.6,156.8 127,156.8 "/>
<polygon class="st0" points="158,181.3 140.6,181.3 140.6,156.8 158,156.8 158,161.7 145.7,161.7 145.7,166.6 151.8,166.6 
	151.8,171.5 145.7,171.5 145.7,176.3 158,176.3 "/>
<polygon class="st0" points="216.5,181.3 211.5,181.3 200.7,165.6 200.7,181.3 195.7,181.3 195.7,156.8 200.7,156.8 211.5,172.5 
	211.5,156.8 216.5,156.8 "/>
<path class="st0" d="M253.3,181.4h-5.6l-1.8-3.8h-8.5l-1.8,3.8h-5.5l11.6-24.6L253.3,181.4z M243.6,172.5l-1.9-4l-1.9,4H243.6z"/>
<path class="st0" d="M283.9,165.1c0,1-0.2,1.9-0.5,2.8c-0.3,0.9-0.7,1.7-1.3,2.4c-0.6,0.7-1.2,1.3-1.9,1.8c-0.7,0.5-1.5,0.8-2.4,1.1
	c-0.2,0-0.5,0.1-0.9,0.2c-0.4,0.1-0.7,0.1-1,0.1h-4v7.9h-5v-24.6h9c0.2,0,0.3,0,0.6,0.1c0.2,0,0.4,0.1,0.7,0.1
	c0.2,0.1,0.4,0.1,0.6,0.2c0.2,0.1,0.3,0.1,0.4,0.1c0.6,0.2,1.2,0.5,1.8,0.9c0.6,0.3,1.1,0.8,1.7,1.5c0.4,0.4,0.8,1,1.1,1.5
	c0.3,0.6,0.5,1.1,0.7,1.6c0.1,0.4,0.2,0.8,0.2,1.2C283.9,164.3,283.9,164.7,283.9,165.1 M278.9,165.1c0-0.3-0.1-0.6-0.1-1
	c-0.1-0.3-0.3-0.6-0.5-0.9c-0.2-0.3-0.5-0.6-0.8-0.8c-0.3-0.2-0.7-0.4-1.1-0.5c-0.1,0-0.3-0.1-0.5-0.1c-0.2,0-0.3,0-0.3,0H272v6.8
	h3.7c0,0,0.2,0,0.3-0.1c0.2,0,0.3-0.1,0.4-0.1c0.8-0.2,1.5-0.7,1.9-1.3C278.7,166.4,278.9,165.7,278.9,165.1"/>
<path class="st0" d="M321.8,169.1c0,1.7-0.3,3.3-1,4.8c-0.6,1.5-1.5,2.8-2.6,3.9c-1.1,1.1-2.4,2-3.9,2.6c-1.5,0.6-3.1,1-4.8,1
	c-1.7,0-3.3-0.3-4.8-1c-1.5-0.6-2.8-1.5-3.9-2.6c-1.1-1.1-2-2.4-2.6-3.9c-0.6-1.5-1-3.1-1-4.8c0-1.7,0.3-3.3,1-4.8
	c0.6-1.5,1.5-2.8,2.6-3.9c1.1-1.1,2.4-2,3.9-2.6c1.5-0.6,3.1-1,4.8-1c1.7,0,3.3,0.3,4.8,1c1.5,0.7,2.8,1.5,3.9,2.7
	c1.1,1.1,2,2.4,2.6,3.9C321.5,165.8,321.8,167.4,321.8,169.1 M316.8,169.1c0-0.6-0.1-1.3-0.3-2c-0.2-0.7-0.5-1.3-0.9-2
	c-0.4-0.6-0.9-1.2-1.5-1.7c-0.6-0.5-1.4-0.9-2.3-1.3c-0.2-0.1-0.4-0.1-0.6-0.2c-0.2,0-0.5-0.1-0.6-0.1c-0.2,0-0.4-0.1-0.7-0.1
	c-0.3,0-0.4,0-0.5,0c-0.5,0-1,0.1-1.6,0.2c-0.6,0.1-1.1,0.3-1.7,0.6c-0.6,0.3-1.1,0.7-1.6,1.1c-0.5,0.4-0.9,1-1.3,1.6
	c-0.5,0.8-0.8,1.5-0.9,2.3c0,0.2-0.1,0.5-0.1,0.7c0,0.2-0.1,0.5-0.1,0.8c0,1,0.2,1.9,0.6,2.8c0.4,0.9,0.9,1.6,1.6,2.3
	c0.7,0.7,1.4,1.2,2.3,1.6c0.9,0.4,1.8,0.6,2.8,0.6c1,0,1.9-0.2,2.8-0.6c0.9-0.4,1.7-0.9,2.3-1.5c0.7-0.7,1.2-1.4,1.6-2.3
	C316.6,171.1,316.8,170.1,316.8,169.1"/>
<polygon class="st0" points="353.5,181.3 336.1,181.3 336.1,156.8 341.2,156.8 341.2,176.3 353.5,176.3 "/>
<rect x="367.9" y="156.8" class="st0" width="5" height="24.6"/>
<polygon class="st0" points="147.4,145.8 150.7,151.2 148.4,151.2 143.8,145.8 "/>
<g>
	<path class="st0" d="M202.6,80.5c8.6,2.1,14.2,10.9,11.4,18.5C211.8,91.2,209,84.7,202.6,80.5z"/>
	<path class="st0" d="M230.8,93.9c-2.5-2.5-3.9-5.3-3.9-8.9c0-1.8-0.7-3.8-1.7-5.3c-3.5-5.3-7.1-10.5-10.9-15.5
		c-3.6-4.7-6.5-9.5-7.7-15.5c-1.1-5.7-1.5-11.6-5.1-16.9c-2.5-3.6-3.9-5.8-5.5-10.1c-0.5-1.2-1.9-2.2-3.1-2.8
		c-2.6-1.2-2.5-3.3-5.2-4.6c-2.3-1.1-3.5-0.2-4,1.9c-1.4,5.5-7.3,7.7-11,11.6c-5.7,6.1-11.5,12.2-14.2,20.4
		c-2.4,7.2-4.2,14.6-7,21.7c-2.4,6.2-0.3,10.7,4,14.7c9.4,8.8,18.2,18.3,30.1,24c2.2,1.1,4,1.4,5.8,0.7c2.4,0,4.5,0.7,6.3,2.3
		c3.4,4.4,7,9.1,11,14.2c-1.9-7.9-9.8-17.3-12.9-16.8c-0.7-0.4-1.6-0.7-2.4-0.9c0.4-0.3,0.8-0.7,1.2-1.1c-2.8,0.3-5.4,1.4-7.2,0.6
		c-4.3-1.7-9.2-3.2-11.2-8.3c-0.3-0.7-0.9-1.4-1.5-1.8c-2.3-1.2-5-1.9-7-3.5c-3.9-3.3-7.9-6.7-11-10.7c-2.3-3-5.3-6.5-4.1-10.8
		c2.2-7.9,4.5-15.8,7.4-23.4c3.4-9.1,9.3-16.7,17.1-22.4c3.4-2.5,6.5-4.9,8.2-8.9c0.2-0.4,0.5-0.7,0.8-1c0.3-0.3,0.8-0.3,1.2,0
		c0.1,0.1,0.3,0.2,0.4,0.3c-2,2.7-4,5.4-6.1,8c-2.1,2.6-4.8,4.8-6.5,7.6c-3.7,6.1-7.4,12.3-10.3,18.7c-2.9,6.3-4.9,13.1-7.2,19.7
		c0,0.1,0.3,0.3,0.8,0.6c0.4-0.6,1.1-1.2,1.3-1.8c0.9-2.6,1.6-5.3,2.4-7.9c3.6-11.2,9.5-21.4,16.1-31.1c1.9-2.7,6.4-6.9,9.2-9.1
		c0,0,1.7-0.9,1.7-0.9c0.8,0.2,1.3,0.7,1.2,1.3c-4.8,7.7-10,18.2-14.2,26.1c-4.8,9.1-8,22.1-5.7,25.8c0.4-1.7,0.7-2.9,0.9-4.1
		c0.2-1.6,0.3-3.3,0.6-5c1.7-10.9,7.8-20.1,12.3-29.9c1.1-2.4,2.5-5.1,6.3-4.8c1,0.1,2.2-2.2,3.3-3.4c-0.2-0.2-0.5-0.4-0.7-0.6
		c-1.2,1.1-2.4,2.2-3.6,3.3c-0.3-0.2-0.3-0.2-0.6-0.4c0.9-2.2,1.8-4.5,3.2-7.9c1.3,2.1,2.5,3.2,2.6,4.5c0.2,2.6,0.1,5.3-0.5,7.8
		c-0.6,2.5-2.1,4.8-2.9,7.2c-1.4,4.1-2.6,8.2-3.8,12.3c-0.6,2.3-0.9,4.6-1.5,6.9c-1.3,4.5-2.7,9-4,13.5c-0.1,0.3-0.1,0.7-0.2,1.2
		h1.7c-0.1,2.4-0.3,4.7-0.4,7c0.4,0.2,0.4,0.2,0.8,0.4c0.7-0.7,1.5-1.4,2.6-2.3c-0.9,3.2-1.7,5.9-2.5,8.6c0.4,0.2,0.3,0.1,0.7,0.3
		c1-1.9,2-3.8,3-5.7c0.6,0.1,0.6,0.1,1.1,0.1c0.8,2.9,1.6,5.7,2.4,8.6l0.5-0.2c-0.1-1-0.2-2-0.3-3.1c0.5-0.1,0.3,0,0.7-0.1
		c0.3,1.4,0.5,2.7,0.8,4.1c0.5-0.1,0.9-0.2,1.4-0.3c-0.5-2.9-0.7-5.8-1.7-8.5c-1-2.8-2.7-5.4-4.4-8.7c2.6,0.7,4.6,1.2,6.7,1.8
		c-1.2-5.8-0.6-7.1,6.2-14.7c-1.6-2.2-4-4-4.6-6.2c-1.8-6.9,0-13.9,1.1-20.7c0.1-0.7,0.8-1.6,1.4-1.7c0.6-0.1,1.7,0.4,2,0.9
		c1.1,2.1,2.2,4.2,2.7,6.5c1,4.5,0.9,9.4,2.6,13.5c2.1,5.2,5.7,9.7,8.4,14.6c3.6,6.4,8.6,12.3,8,20.4c-0.2,2.1,0.8,4.4,1.3,6.8
		c1.7-0.6,2.7-1,3.5-1.2c0.9,1.3,1.8,2.5,2.6,3.6c0.2-0.1,0.2-0.1,0.4-0.2c-0.2-0.8-0.4-1.6-0.5-2.4c0.9-0.4,0.7-0.3,1.6-0.7
		c0.9,1.5,1.9,3,2.8,4.6c0.2-0.2,0.5-0.5,0.7-0.7C233.6,97.3,232.3,95.4,230.8,93.9z M191.9,58.9c-0.1,1-0.3,3.8-1.6,4.7
		c0,0,0,0,0,0c-0.9,0.7-2.2,0.4-2.8-0.6c-0.3-0.5-0.7-1.1-0.7-1.1c0.9-4,1.8-8,2.7-12c0.1,0,0.2,0,0.4,0c0.6,0,1.1,0.5,1.2,1.1
		C191.5,53.7,192.2,56.4,191.9,58.9z"/>
</g>
</svg>
