<svg id="Livello_1" xmlns="http://www.w3.org/2000/svg" width="385.3" height="220.9" viewBox="0 0 385.3 220.9"><style>.st0{fill:#fff}</style><path class="st0" d="M134.2 206.8h-4.5v-8.9h4.5v1.4h-2.9v2.3h2.3v1.5h-2.3v2.2h2.9zm25.1 0h-1.9l-.9-2.8-.9 2.8h-1.8l1.8-4.4-1.8-4.5h1.9l.9 2.8.9-2.8h1.8l-1.8 4.5zm24.8-8.9l-2.1 5.4v3.5h-1.6v-3.5l-2.2-5.4h1.9l1.1 3.3 1.1-3.3zm24.4 1.5h-1.9v7.4H205v-7.4h-2v-1.5h5.5zm24.5 4.9c0 .9-.2 1.6-.7 2-.5.4-1.1.6-1.9.6-.8 0-1.5-.2-1.9-.6-.5-.4-.7-1.1-.7-2v-6.4h1.5v6.3c0 .4.1.8.3 1 .2.2.5.3.8.3.3 0 .6-.1.8-.3.2-.2.3-.6.3-1v-6.3h1.5v6.4zm24.6 0c0 .8-.2 1.5-.7 2-.4.5-1.1.7-1.9.7-.8 0-1.5-.2-1.9-.6-.4-.4-.7-1-.7-1.8h1.5c0 .3.2.6.3.7.2.2.5.2.9.2.3 0 .5-.1.7-.3.2-.2.3-.4.3-.7 0-.2-.1-.5-.2-.6-.1-.2-.4-.4-.7-.5-.3-.2-.6-.3-.9-.5l-.9-.6c-.3-.2-.5-.5-.6-.8-.1-.3-.2-.7-.2-1.1 0-.8.2-1.4.7-1.8.4-.4 1.1-.7 1.8-.7.8 0 1.4.2 1.8.6.4.4.6 1 .6 1.7H256c0-.3-.1-.6-.3-.7-.2-.2-.4-.3-.7-.3-.3 0-.6.1-.8.2-.2.2-.3.4-.3.7 0 .2 0 .4.1.6.1.2.3.3.5.5l.6.3.6.3.6.3c.2.1.4.2.5.4.3.3.4.5.6.8.2.2.2.6.2 1m-229.5-23h-4.6c-.2 0-.3 0-.4-.1-.4-.1-.8-.1-1.2-.2-.4-.1-.8-.2-1.2-.4-1.5-.6-2.8-1.3-3.8-2.1-1-.9-1.9-1.8-2.6-2.9-.7-1-1.1-2.1-1.4-3.3-.3-1.1-.4-2.2-.4-3.3 0-.2 0-.6.1-1.2 0-.6.1-1.1.2-1.6.2-.6.4-1.3.7-2 .3-.7.7-1.4 1.2-2.1.5-.7 1.1-1.4 1.7-2 .6-.6 1.4-1.2 2.2-1.6 1.1-.7 2.2-1.1 3.3-1.3 0 0 .1 0 .3-.1.2 0 .4-.1.6-.1.2-.1.4-.1.6-.1.2 0 .4-.1.5-.1h4.3v5H24s-.2 0-.4.1-.4.1-.5.1c-.4 0-.8.2-1.3.4s-.9.5-1.4.9c-.5.4-.9.8-1.3 1.2-.4.4-.7.9-.9 1.4 0 .1-.1.2-.2.4-.1.1-.1.3-.2.4-.2.5-.3.9-.3 1.3 0 .3-.1.7-.1 1.1 0 .6.1 1.2.2 1.9.2.7.4 1.3.8 1.9.4.6.8 1.2 1.4 1.7.6.5 1.3 1 2.1 1.3.1 0 .2.1.4.2s.4.1.6.2c.2.1.4.1.6.2.2 0 .4.1.5.1h4v4.7zm36.8.1h-5.6l-1.8-3.8H49l-1.8 3.8h-5.5l11.6-24.6 11.6 24.6zm-9.7-8.9l-1.9-4-1.9 4h3.8zm40.7-10.8H83.5v4.9h6.2v4.9h-6.2v9.8h-5v-24.5h17.4zm31.1 0h-12.4v4.9h6.2v4.9h-6.2v9.8h-5v-24.5H127zm31 19.6h-17.4v-24.5H158v4.9h-12.3v4.9h6.1v4.9h-6.1v4.8H158zm58.5 0h-5l-10.8-15.7v15.7h-5v-24.5h5l10.8 15.7v-15.7h5zm36.8.1h-5.6l-1.8-3.8h-8.5l-1.8 3.8h-5.5l11.6-24.6 11.6 24.6zm-9.7-8.9l-1.9-4-1.9 4h3.8zm40.3-7.4c0 1-.2 1.9-.5 2.8-.3.9-.7 1.7-1.3 2.4-.6.7-1.2 1.3-1.9 1.8s-1.5.8-2.4 1.1c-.2 0-.5.1-.9.2s-.7.1-1 .1h-4v7.9h-5v-24.6h9c.2 0 .3 0 .6.1.2 0 .4.1.7.1.2.1.4.1.6.2.2.1.3.1.4.1.6.2 1.2.5 1.8.9.6.3 1.1.8 1.7 1.5.4.4.8 1 1.1 1.5.3.6.5 1.1.7 1.6.1.4.2.8.2 1.2.2.3.2.7.2 1.1m-5 0c0-.3-.1-.6-.1-1-.1-.3-.3-.6-.5-.9-.2-.3-.5-.6-.8-.8-.3-.2-.7-.4-1.1-.5-.1 0-.3-.1-.5-.1H272v6.8h3.7s.2 0 .3-.1c.2 0 .3-.1.4-.1.8-.2 1.5-.7 1.9-1.3.4-.7.6-1.4.6-2m42.9 4c0 1.7-.3 3.3-1 4.8-.6 1.5-1.5 2.8-2.6 3.9s-2.4 2-3.9 2.6c-1.5.6-3.1 1-4.8 1-1.7 0-3.3-.3-4.8-1-1.5-.6-2.8-1.5-3.9-2.6s-2-2.4-2.6-3.9c-.6-1.5-1-3.1-1-4.8 0-1.7.3-3.3 1-4.8.6-1.5 1.5-2.8 2.6-3.9s2.4-2 3.9-2.6c1.5-.6 3.1-1 4.8-1 1.7 0 3.3.3 4.8 1s2.8 1.5 3.9 2.7c1.1 1.1 2 2.4 2.6 3.9.7 1.4 1 3 1 4.7m-5 0c0-.6-.1-1.3-.3-2-.2-.7-.5-1.3-.9-2-.4-.6-.9-1.2-1.5-1.7s-1.4-.9-2.3-1.3c-.2-.1-.4-.1-.6-.2-.2 0-.5-.1-.6-.1-.2 0-.4-.1-.7-.1h-.5c-.5 0-1 .1-1.6.2-.6.1-1.1.3-1.7.6-.6.3-1.1.7-1.6 1.1-.5.4-.9 1-1.3 1.6-.5.8-.8 1.5-.9 2.3 0 .2-.1.5-.1.7 0 .2-.1.5-.1.8 0 1 .2 1.9.6 2.8.4.9.9 1.6 1.6 2.3.7.7 1.4 1.2 2.3 1.6.9.4 1.8.6 2.8.6 1 0 1.9-.2 2.8-.6.9-.4 1.7-.9 2.3-1.5.7-.7 1.2-1.4 1.6-2.3.5-.8.7-1.8.7-2.8m36.7 12.2h-17.4v-24.5h5.1v19.5h12.3zm14.4-24.5h5v24.6h-5zm-220.5-11l3.3 5.4h-2.3l-4.6-5.4zm55.2-65.3c8.6 2.1 14.2 10.9 11.4 18.5-2.2-7.8-5-14.3-11.4-18.5z"/><path class="st0" d="M230.8 93.9c-2.5-2.5-3.9-5.3-3.9-8.9 0-1.8-.7-3.8-1.7-5.3-3.5-5.3-7.1-10.5-10.9-15.5-3.6-4.7-6.5-9.5-7.7-15.5-1.1-5.7-1.5-11.6-5.1-16.9-2.5-3.6-3.9-5.8-5.5-10.1-.5-1.2-1.9-2.2-3.1-2.8-2.6-1.2-2.5-3.3-5.2-4.6-2.3-1.1-3.5-.2-4 1.9-1.4 5.5-7.3 7.7-11 11.6-5.7 6.1-11.5 12.2-14.2 20.4-2.4 7.2-4.2 14.6-7 21.7-2.4 6.2-.3 10.7 4 14.7 9.4 8.8 18.2 18.3 30.1 24 2.2 1.1 4 1.4 5.8.7 2.4 0 4.5.7 6.3 2.3 3.4 4.4 7 9.1 11 14.2-1.9-7.9-9.8-17.3-12.9-16.8-.7-.4-1.6-.7-2.4-.9.4-.3.8-.7 1.2-1.1-2.8.3-5.4 1.4-7.2.6-4.3-1.7-9.2-3.2-11.2-8.3-.3-.7-.9-1.4-1.5-1.8-2.3-1.2-5-1.9-7-3.5-3.9-3.3-7.9-6.7-11-10.7-2.3-3-5.3-6.5-4.1-10.8 2.2-7.9 4.5-15.8 7.4-23.4 3.4-9.1 9.3-16.7 17.1-22.4 3.4-2.5 6.5-4.9 8.2-8.9.2-.4.5-.7.8-1 .3-.3.8-.3 1.2 0 .1.1.3.2.4.3-2 2.7-4 5.4-6.1 8-2.1 2.6-4.8 4.8-6.5 7.6-3.7 6.1-7.4 12.3-10.3 18.7-2.9 6.3-4.9 13.1-7.2 19.7 0 .1.3.3.8.6.4-.6 1.1-1.2 1.3-1.8.9-2.6 1.6-5.3 2.4-7.9 3.6-11.2 9.5-21.4 16.1-31.1 1.9-2.7 6.4-6.9 9.2-9.1l1.7-.9c.8.2 1.3.7 1.2 1.3-4.8 7.7-10 18.2-14.2 26.1-4.8 9.1-8 22.1-5.7 25.8.4-1.7.7-2.9.9-4.1.2-1.6.3-3.3.6-5 1.7-10.9 7.8-20.1 12.3-29.9 1.1-2.4 2.5-5.1 6.3-4.8 1 .1 2.2-2.2 3.3-3.4-.2-.2-.5-.4-.7-.6l-3.6 3.3-.6-.4c.9-2.2 1.8-4.5 3.2-7.9 1.3 2.1 2.5 3.2 2.6 4.5.2 2.6.1 5.3-.5 7.8s-2.1 4.8-2.9 7.2c-1.4 4.1-2.6 8.2-3.8 12.3-.6 2.3-.9 4.6-1.5 6.9-1.3 4.5-2.7 9-4 13.5-.1.3-.1.7-.2 1.2h1.7c-.1 2.4-.3 4.7-.4 7l.8.4c.7-.7 1.5-1.4 2.6-2.3-.9 3.2-1.7 5.9-2.5 8.6.4.2.3.1.7.3l3-5.7c.6.1.6.1 1.1.1.8 2.9 1.6 5.7 2.4 8.6l.5-.2c-.1-1-.2-2-.3-3.1.5-.1.3 0 .7-.1.3 1.4.5 2.7.8 4.1.5-.1.9-.2 1.4-.3-.5-2.9-.7-5.8-1.7-8.5-1-2.8-2.7-5.4-4.4-8.7 2.6.7 4.6 1.2 6.7 1.8-1.2-5.8-.6-7.1 6.2-14.7-1.6-2.2-4-4-4.6-6.2-1.8-6.9 0-13.9 1.1-20.7.1-.7.8-1.6 1.4-1.7.6-.1 1.7.4 2 .9 1.1 2.1 2.2 4.2 2.7 6.5 1 4.5.9 9.4 2.6 13.5 2.1 5.2 5.7 9.7 8.4 14.6 3.6 6.4 8.6 12.3 8 20.4-.2 2.1.8 4.4 1.3 6.8 1.7-.6 2.7-1 3.5-1.2.9 1.3 1.8 2.5 2.6 3.6l.4-.2c-.2-.8-.4-1.6-.5-2.4.9-.4.7-.3 1.6-.7.9 1.5 1.9 3 2.8 4.6l.7-.7c-1.5-1.8-2.8-3.7-4.3-5.2zm-38.9-35c-.1 1-.3 3.8-1.6 4.7-.9.7-2.2.4-2.8-.6-.3-.5-.7-1.1-.7-1.1l2.7-12h.4c.6 0 1.1.5 1.2 1.1.4 2.7 1.1 5.4.8 7.9z"/></svg>