<svg id="Livello_1" xmlns="http://www.w3.org/2000/svg" width="500" height="500" viewBox="0 0 500 500"><style>.st0{fill:#e8ddc5}</style><path class="st0" d="M381.1 42.3c-.1.7.1 1.3.6 1.9 0 0 .8.9 2 1 1.1 0 2.3-.7 3.5-1.9l.1-.1c1.2-3 3-6.2 5.4-9.3l-3.5.2c-.8.4-7.6 4.8-8.1 8.2zM340.2 1.1c6.6 5.7 19.2 10.1 19.7 10.3.4.1.8.3 1.2.4l.9.3c.3.1.5.2.8.2.7.2 1.4.4 2.2.5.6.1 1.1.2 1.7.3l2.1.3c.8.1 1.7.2 2.8.3.5 0 .9.1 1.4.1 1.3.1 2.6.1 4.2 0h.3c7.9-.4 16-2.4 24.2-6.1C418.6 0 436.6 1.9 437.4 2c19.4 2.7 28.4 10.6 32.5 16.9 2.4 3.6 3 6.6 3.2 7.4v.3c0 .2 4.6 20.7-9.2 32.6-.5.5-12.5 12.2-25.1 2.3-10.1-12.8 1.6-24.8 2.1-25.3 4.8-5.6 11.4-8.8 19.8-9.7 1.5 2.2 2.7 4.5 3.4 7.2-3.8-.4-13.4-.4-19.3 6.9-.1.1-6.6 7.7-1 15.6l.2.2c7.9 5.6 15.4-1 15.5-1 9.3-7.4 6.8-20.7 6.8-20.8-4.9-22.9-31-19.4-31.3-19.4-11.5 2.1-17.4 7.2-17.1 14.9 0 1 .3 1.9.7 3 0 .1.1.2.2.3l.1.2c.2.5.5 1 .9 1.6.3.4.5.7.9 1.1.2.2.4.4.6.7l1.3 1.3.2.1c2.1 1.7 4.2 2.9 5.4 3.5-3.5 3.1-6.9 4.4-10.1 3.8-6.2-1.1-9.8-9-9.8-9-.1-.2-.4-.3-.6-.2l-.8.3c-.2.1-.4.4-.3.6.3.9.5 1.8.6 2.8v.1c.1 2.2-.6 3.7-1.1 4.5-1.3-.9-4.3-3.3-6.1-8.7-.2-.8-.4-1.5-.5-2.4v-.5c-.2-5.5 4.8-7.9 5-8l.7-.4c2.4-1.3 6.8-3.6 7.3-6.2.2-.8 0-1.6-.5-2.3-.8-1-1.7-1.5-2.7-1.4-2.6.1-4.8 3.6-6.1 5.5-.2.3-.4.6-.5.7-.2.3-.4.6-.7 1-1 1.5-2.7 4-4.9 5.6-8.7 6.4-14.8 5.8-17.2 5.1l7.1-9.5c.1-.2.1-.5 0-.6-.2-.2-.4-.2-.6 0l-2.7 2.2c-9.3 7.4-21.5 4.6-24.8 3.7 1.1-4.3 6-6 6.2-6.1.2-.1.4-.3.3-.6l-.3-.9c-.1-.3-.3-.4-.6-.3-12 3.4-18.4-1-20.1-2.5 2.1-2.4 7-2.4 7.2-2.4.2 0 .5-.2.5-.4l.1-.9c0-.2-.1-.5-.4-.5-10.2-2.4-11.6-9.6-11.6-12.9zM400 44.9c1.1 2.4 1.4 4.2.8 5.3-.4.7-1.1.9-1.1.9-2.4.3-3.5-2-3.9-3-1.5-4.9-1.1-9.7 1.1-14.5h.6v.6c.4 5.8 2.5 10.6 2.5 10.7zm75-17.6c1.4.4 2.8 1 4.3 1.8 1.2.7 2.4 1.4 3.6 2.3l.1.1c1.4 1.1 2.7 2.3 3.9 3.7l.4-.3-.2.5c.5.6 1 1.3 1.5 1.9.3.3.5.7.8 1.1.3.5.6.9.9 1.4.5.7.9 1.5 1.3 2.2.2.3.3.6.5.8.7 1.3 1.2 2.4 1.7 3.7 1.9 4.7 3.3 10.1 4.1 16 0 .2 2.1 18.7-5.7 35.8-9.6 21.1-5.8 36.1-3.7 41.6.1.2 2.1 6.2 5.2 12.1l.1.1c.6 1.1 1.1 2.1 1.7 3 .3.5.6.9.9 1.3l.5.7.6.9c.5.6.9 1.2 1.4 1.7-3.3 0-10.5-1.4-12.9-11.5-.1-.2-.2-.4-.5-.4h-.1l-.9.1c-.2 0-.4.2-.4.5 0 .1.1 5.1-2.4 7.2-1.5-1.8-5.9-8.1-2.5-20.1.1-.3-.1-.5-.3-.6l-.9-.3c-.2-.1-.5.1-.6.3-.1.2-1.7 5.1-6 6.2-.9-3.3-3.7-15.6 3.6-24.8l2.2-2.7c.2-.2.1-.5 0-.6-.2-.2-.4-.2-.6-.1l-9.5 7.1c-.7-2.4-1.4-8.4 5.1-17.2 1.6-2.2 4.1-3.9 5.6-4.9.4-.3.8-.5 1-.7.1-.1.4-.3.7-.5 1.9-1.2 5.4-3.5 5.5-6.1 0-1-.4-1.9-1.4-2.7-.7-.5-1.4-.7-2.3-.5-2.6.6-5 5-6.2 7.3l-.4.7c-.1.2-2.5 5-7.7 5h-.7c-.9-.1-1.6-.2-2.4-.5-5.4-1.7-7.8-4.7-8.7-6.1.4-.3 1.2-.6 2.2-.9l-.1-.5.3.4c.5-.1 1.1-.2 1.8-.1.9 0 1.9.1 3.2.6h.2c.2.1.5 0 .6-.3l.3-.8c.1-.2 0-.5-.2-.6-.3-.1-7.9-3.7-9-9.8-.6-3.2.7-6.6 3.9-10.1.3.5.7 1.3 1.2 2.2.1.1.2.3.3.4l.2.3c.2.3.4.7.7 1l.9 1.2c.2.2.3.4.5.6.3.4.7.8 1.2 1.3.1.1.3.3.5.4.5.4 1 .8 1.5 1.1.2.1.3.2.5.3l.2.1c.5.3 1 .5 1.5.7.6.2 1.3.4 2.2.5 0 0 .2.1.3.1h1.5c7-.4 11.7-6.3 13.6-17 .1-.7 2.3-17.6-9.3-26.6 0-5.1-.5-9.3-.9-11zm-19.7 84c-.1 0-.2.1-.2.1-1.5.3-4.2.6-5.5-1.9 0-.1-.3-.7 0-1.4.3-.8 1.2-1.4 2.6-2 5.3 1.4 9.9.6 13.4-.7-3.4 2.7-6.9 4.7-10.3 5.9zm.3 6.9s-.9-.8-.9-2c0-1.1.6-2.2 1.9-3.5l.1-.1c3.1-1.2 6.3-3 9.4-5.5l-.2 3.4v.3c-1.7 2.8-5.4 7.7-8.3 8.1-.8 0-1.4-.2-2-.7 0 0 .1 0 0 0zm10.9-15.2c-4.8 2.3-9.7 2.7-14.6 1.2-1-.4-3.4-1.5-3.1-3.9 0 0 .1-.7.9-1.1.4-.2 1.1-.3 1.9-.2.1 0 .3 0 .4.1.6.1 1.4.4 2.4.8.1 0 .2.1.3.1.1 0 .1 0 .2.1.2.1 5.1 2.2 11 2.5h.6v.4zm-72-68.7c-1.3 3.5-2.1 8.1-.7 13.4-.5 1.4-1.2 2.3-2 2.6-.7.3-1.3.1-1.4 0-2.5-1.4-2.3-4.1-2-5.5 0-.1.1-.1.1-.3 1.3-3.3 3.3-6.8 6-10.2zm17.7 159.4c-1.6-1.6-1.6-4.2 0-5.7.7-.7 1.7-1.2 2.8-1.2.2 0 .3 0 .5.1l.3.1c.9.2 1.7.5 2.2 1.1 1.6 1.6 1.6 4.2 0 5.7-1.6 1.4-4.2 1.4-5.8-.1zm-86.8-21.4c18.2-29.9 12.7-48.1 12.7-48.3l-.5.1.4-.3c-.6-2.8-1.9-12.4 5-18.2 0 0 2.6-2.1 6.4-2.2h.3c.9 0 1.9.2 2.8.4h.1c1.9.6 3.5 1.6 4.8 3.1 3.7 4.3 3.6 11.1 2.7 14.4v.1c0 .2-2.9 16.2-34.7 50.9zm69 38.4c.1-.7.1-1.3.1-2 8.3-5.8 13.8-12 15.9-14.4.2.2.3.5.5.7.2.2.4.3.5.4-1.8 2.1-9.5 10.8-17 15.3zm-20.8-29.2c-7.5 0-14.7-4-15.1-4.1-.2-.1-.4-.1-.5-.2-.1 0-.3-.1-.3-.1l-.4-.2h-.3c-5.4-2.1-10.7-3.2-15.6-3.2-4.1 0-8.1.7-12 2 26.3-15.7 43.2-12.7 45.6-12.1h.1s.2.1.6.1c5.9 1.4 8.8 6.7 8.8 6.7.9 2 1 3.9.4 5.5-1.1 2.8-4.2 4.1-4.3 4.2-2.1.9-4.4 1.4-7 1.4zm13.8-69c.2.3.4.6.7 1 1.4 2.8 1.5 7.1 1.5 7.1-.1 10.8-10.5 16.7-11.6 17.3-2 .4-16.5 3.8-47.4 31.3 27.5-30.9 30.9-45.4 31.3-47.4.5-1 6.4-11.5 17.2-11.6.3 0 1.6.1 3.1.3 2.4.5 4.2 1.2 5.2 2zm-6.5 49.9c-2.2 0-4-.3-4.8-.5h-.2c-.3-.1-2.9-.8-7.5-.8-7.1 0-21.6 1.9-41 13.7 16.5-15.2 28.4-23.5 35.7-27.9 6.4-3.8 10.7-5.6 13.2-6.5l2.3-.6c1.2-.3 2.7-.5 4.3-.5 1 0 3.7.1 6.4 1.1l.2.1c.1 0 .2.1.3.1.4.2.8.4 1.3.7.4.2.8.5 1.2.8l.1.1c.2.2.5.3.7.5.5.4.9.9 1.2 1.4l.3.3.3.3c.2.2.3.5.4.8.1.2.1.3.2.5.1.1.1.3.2.4.1.2.2.5.3.8 1.7 5.6-1.6 9.6-1.7 9.8-3.9 4.4-9.4 5.4-13.4 5.4zM484.6 232c.2.6 0 1.2-.5 1.7s-1.4.9-2.4.4c-1.9-.8-3.5-2.3-4-2.7-.2-.9-.5-1.7-.9-2.5-.3-.7-.8-1.4-1.5-2.1.2.1.5.1.7.2 0 0 .1.1.2.1 1 .3 3.5 1.3 5.6 2.6 0 0 .1 0 .1.1.7.3 2.4 1.3 2.7 2.2zm-27.1-58.5c.1-.3.1-.4 0-.6l-.1-.1c4.9-.5 12.9-.4 13.7 3 0 .1.2 1.1-.3 1.9-.5.7-1.3 1.1-2.6 1.3-.1.1-5.1.7-10.7-5.5zM336.4 125c.6 2.4 3.6 19.3-12.2 45.7 2.3-7 3.3-16.5-1.1-27.8 0-.1 0-.3-.1-.4l-.1-.2c-.1-.1-.1-.3-.1-.4-.1-.2-.1-.4-.2-.6-.1-.1-6.9-12.6-2.7-21.9.1-.2 2-4.6 6.3-4.7h.2c1.1 0 2.1.3 3.2.7.1 0 5.3 2.9 6.7 8.8.1.4.1.6.1.6v.2zm-17.7 40.8c-.9-8.2-6.9-12.7-11.8-14-.2-.1-.4-.1-.6-.1h-.2c-2.6-2.6-3.8-5.3-3.7-8 .2-4.1 3.7-7 3.7-7 2-1.2 4-1.6 6.1-1.1 4.7 1.2 8.3 6.5 8.9 7.5 5.3 13.5 2.8 24.2-.3 30.9-1.7 3.6-3.9 6.9-6.5 9.8l-.9.9-1.1 1.1s-3.4 2.6-8.6 5l-.2-3.3c8.3-3.1 16.4-10.5 15.2-21.7zm157.4 68.9c-.8 5.1-4.3 6.2-7.1 6.2-.8 0-1.3-.1-1.3-.1-3.1-.6-5.1-1.9-6.2-4-2.3-4.9 1.2-12.5 2.3-14.7 13.8 3.8 12.3 12.2 12.3 12.6zm-17 .9c.2 2.1.1 6-1.2 7.3-.4.4-.8.5-1.3.4-.2 0-.4-.1-.6-.6-.8-1.8.3-6.3 2.1-8.4 0-.1.1-.1.1-.2.2-.3.5-.6.7-1 0 .8.1 1.5.3 2.3-.1 0-.1.1-.1.2zM421 190.9c0-.1 0-.1 0 0 0-1.6-.6-3.1-1.7-4.2-.4-.4-.9-.8-1.5-1-.1-1.9 0-10.3 9.9-14.9.2-.1 18.6-6.9 21.4-8.1 1.4-.6 3.6-1.9 5.8-3.3.1 0 .2-.1.3-.2 3.3-2.3 6-4.7 8.1-7.1 0 1.6-.9 5-6.7 10.2l-1.7 1.5c-.2.2-.2.4-.1.6.1.2.4.3.6.2l3.8-1.3c-.6 2.2-2.5 5.7-8 6.2-.6 0-1 .1-1 .1-.2.1-.4.3-.4.5l.1.9c0 .3.3.4.5.4.3 0 .6 0 .8-.1.9 0 2.7.4 4.3 2.2-.9 1.2-4.1 4.5-13.3 1.8-.3-.1-7.3-1.5-11.1 1.1-1.3.9-2.1 2.2-2.3 3.9 0 .1-.1 2 1.2 3.3.9.9 2.2 1.2 3.9.9.2 0 5.3-.8 7.2-7.6.4.1.7.1.7.1 1.8.5 3.4.8 5.2.9-.3 4.3-4.3 5.3-4.3 5.3l-1.3.3c-.2 0-.3.2-.4.4 0 .2.1.4.3.5l1.2.5c3.1 1.3 4.8 3 5.2 4.9.4 1.8-.6 3.6-1.3 4.7-.9-1.4-2.7-3.8-5.6-4.9-2-.8-3.9-1.1-5.6-1.1-2.3 0-4.3.6-5.6 1.3-.2.1-5.3 2.5-8.6 1.1zm-129.7-85.5c-.6 0-1.3 0-2 .1 4.5-7.5 13.3-15.3 15.2-17 .1.2.2.4.4.5.2.2.5.4.7.6-2.3 2-8.4 7.5-14.3 15.8zm193.3 81.5c-.1.2 0 .4.1.5l.9.8s2.3 2.3 2.2 5c-.1 1.1-.5 2.1-1.3 3-.2-2.7-1.4-7.1-6-9.5-.3-.2-2.2-1.1-5-2-2.5-.7-4.6-2.9-4.5-4.6.6-.4 1.1-.8 1.5-1.3.2-.3.4-.7.5-1.1.8-.3 3.4-.8 6.7 2.1 4.3 3.8 8.4 5.2 12.1 4.3-.1.4-.4.9-.8 1.3-1 1-2.5 1.4-4.6 1.3l-1.2-.1c-.3 0-.5.1-.6.3zM317.7 238c-1.5 1.3-4.2 3.1-7.7 3.1-3.2 0-6.4-1.5-9.6-4.5-.1-.1-9.7-9.1 0-24.1.1-.2.1-.5-.1-.6l-.7-.5c-.1-.1-.2-.1-.3-.1-.1 0-.3.1-.4.2-4.4 4.8-5.8 7.4-8.5 11.9l-.2.4c-.6 1-1.2 2.1-2 3.4-4 6.7-12.6 10.2-25.5 10.2 0-12.9 3.4-21.5 10.2-25.5 1.4-.8 2.6-1.5 3.7-2.1l.1-.1c4.6-2.6 7.1-4.1 11.9-8.5.2-.2.2-.5.1-.7l-.5-.7c-.2-.2-.4-.2-.6-.1-4.5 2.9-8.8 4.4-13 4.4-6.7 0-10.6-3.9-11.1-4.4-3.2-3.4-4.7-6.9-4.5-10.3.2-3.2 1.9-5.7 3.1-7.1 1.5 5.8 7.5 9.5 7.7 9.6 5.2 3.3 11 5 17.1 5 10.2 0 19.3-4.8 23.7-7.5-1.9 3-4.6 8.1-6.2 14.2-2.5 9.8-1.3 18.8 3.7 26.6.1.3 3.8 6.3 9.6 7.8zm99.6-.8c1.7 2.3 1.8 5.1 1.7 6.7-1.8-1.4-5.5-4-11.2-5.9-3.8-1.3-8.8-2.3-15.1-2.3-6.2 0-13.5 1-22 4-16.4 5.7-30.2 5.4-40.8-1.1-7.3-4.4-20.5-17.4-17.9-34.8 1.7-11.3 9.7-22 21.8-20.7 7.3.8 11.2 6.1 12.4 10.4 1.2 4.3-.1 8.4-3.2 10.7-1.7 1.3-3.6 1.9-5.5 1.9-3 0-5.4-1.6-6.6-2.9-1.7-2.1-1.2-4.4.2-5.6 1-.9 2.7-1.2 4.2.6.1.1.2.2.3.2.1 0 .3 0 .4-.1l.7-.6c.2-.2.2-.5 0-.7-2.3-2.6-5.1-2.3-6.8-.8-1 .9-1.7 2.1-1.9 3.5-3.1 3-4.7 6.3-4.7 10 0 7.2 6 12.8 6.3 13.1 13.9 11.8 27.2 4.3 27.3 4.3 18-10.3 15.8-29.9 14.8-34.9 1.3-.1 2.6.2 3.6 1 3.7 2.7 4.5 10 4.6 10 0 .2.2.4.4.4h.2c.1 0 .1 0 .2-.1h.5c.3 0 .5-.2.5-.5.1-9.2 4.1-12.5 5.9-13.5 5.9 10-2.9 19.7-3.2 20.1-.1.2-.2.4-.1.6-.1.2 0 .4.1.5.1.1.3.2.5.1l.1.1c.2.2.5.2.7 0 2.3-2 5.3-2.3 6.9-2.4.2 3.3-.5 5.7-2 7.3-2.2 2.2-5.5 2-5.5 2-4.1-.1-6.8.7-8.1 2.3-1.1 1.3-.8 2.7-.8 2.9.1.3.3.5.4.6l.1.1c.2.3.4.6.5.7 0 0 .1.1.1.2.1.2.2.5.5.6 2.3 1.1 5.9-.7 5.9-.7 2-.8 8.6-6.4 8.6-6.4 4.8-3.3 10.8-2.9 13.2-2.5-1.6 6.2-6.2 7.8-6.7 8-.2.1-.4.3-.3.6-.2.1-.2.3-.1.5s.2.3.4.3v.1c0 .1.2.2.3.3.1.1.3.1.4 0 9.3-2.8 15 .6 17.1 2.3-3.7 1.9-10.7 2.7-10.8 2.7-.3 0-.4.2-.4.5-.2.1-.3.3-.3.5s.1.3.3.4c0 .2.2.4.4.5 5.6.3 9.4 2 11.5 4.9zm81.9-21.9c-3.3 12.1-14.5 12.7-16.3 12.8h-.1c-.6-.4-1.3-.7-2.1-1.1.9-.3 1.7-.7 2.4-1.2h.2c3.6 0 7.3-1.7 10.1-4.7 3.3-3.5 4.8-8.1 4.4-13.1-.9-9.9-7.2-15.7-8.4-16.7-.3-1.1-.8-2.1-1.3-2.7.7-.1 1.3-.3 1.9-.5 2.2 1.9 13 13.3 9.2 27.2zm-172-170.2c.3.4.6.8 1 1.3l.3.6.1.1c.2.6.3 1.1.3 1.5 0 .3 0 .6-.1.9 0 .3.2.5.4.5l.9.1c.3 0 .5-.1.5-.4 0 0 .1-.4.1-1 .5-5.6 4-7.4 6.2-8.1l-1.3 3.8c-.1.2 0 .5.2.6.2.1.5.1.6-.1l1.5-1.7c5.2-5.8 8.5-6.8 10.1-6.7-2.5 2.1-4.9 4.8-7.1 8.1l-.2.2c-1.5 2.2-2.8 4.4-3.4 5.9-1.2 2.8-8 21.2-8 21.3-4.7 10.1-13.1 10.1-14.9 10-.3-.6-.6-1.1-1-1.5-1.1-1.1-2.6-1.7-4.2-1.7-1.4-3.3 1.1-8.5 1.1-8.5 1.3-2.5 2.1-6.7.2-11.3-1.2-2.9-3.5-4.7-4.9-5.6.9-.6 2.6-1.5 4.3-1.3 1.3.2 2.5 1 3.5 2.3.6.8 1.2 1.9 1.8 3.1l.4.9c.1.2.3.3.5.3s.4-.2.4-.4l.3-1.3c0-.2 1-4 5.3-4.4.1 1.8.4 3.5.9 5.2 0 0 .1.3.1.8-6.5 1.9-7.5 6.7-7.6 7.3-.1 1 0 1.9.4 2.8.1.3.2.6.4.8 0 .1.1.2.2.3.1.1.2.2.4.3.5.4 1.1.7 1.6.8h.5c.4.1.8.1.9 0 1.6-.2 2.9-1 3.8-2.3 2.7-3.9 1.1-11.1 1.1-11.2-2.6-9.1.6-12.3 1.8-13.2l.5.5.1.4c0-.1 0 0 0 0zm39.6 2.3c12.8 3.2 22.4 10.3 28.4 21.1.8 1.4 1.5 2.8 2 4.2 4 9.8 2.2 17.1 0 21.5-3.7 7.5-11.4 12.3-17 13.1-7.5 1.1-13.6-1.3-18.2-7-3.5-4.3-3.8-12.7-.7-17.9 1-1.6 2.8-3.7 5.9-4.3.5-.1.9-.1 1.4-.1.5 0 1.1 0 1.6.1h.7c.4.1.7.2 1 .3.2.1.4.1.6.2l.3.1c.6.2 1.2.4 1.7.6.7.4 1.3.9 1.8 1.3l.3.2c.2.2.4.3.6.5.4.5.8 1 1.1 1.5.3.5.5.9.7 1.4l.3.9c.3 1 .4 1.8.4 2.5 0 3.2-1.5 5.6-3.8 6.1-1.6.3-3.7-.3-4.8-1.5-.8-.9-1.1-2-.7-3.2v-.4c-.1-.1-.2-.2-.3-.2l-.9-.2c-.3-.1-.5.1-.6.3-.7 2.4.3 4 1.1 5 1.5 1.6 4.2 2.5 6.5 2.1.3-.1.5-.2.7-.3 1.3.6 2.5.9 3.7.8 3.8-.1 6.1-3.4 6.2-3.5.3-.3 7-7.8-2.8-22.9-8.9-13.6-21.6-16.7-23.9-17.2-.4-.6-.8-1.4-1.3-2.1-.1-.1-.2-.2-.3-.2-.1 0-.3 0-.4.1l-.7.5c-.2.2-.3.5-.1.7.6.8 1.1 1.6 1.5 2.3v.1l.1.3c.1.1.1.2.1.3 0 .1.1.2.1.3.4.8.5 1.5.7 2.1.3 1.4.2 2.6-.1 3.6-1 3.1-4.2 5-6.1 5.8.2-4.2-.9-7.4-3.3-9.6-3.7-3.4-9.4-3.2-12.4-2.9.5-1.2.8-2.1 1-2.6.5-1.2 1.7-3.3 3.1-5.4 1.2-.2 8.2-1.2 16.9-.2.4 0 .8.1 1.3.2h.3c.7.1 1.5.2 2.2.3 1 .2 2 .4 3.1.7l.4.1c.3.4.5.4.6.5zm-44.6-18.3c.7-.4 1.4-.4 1.7-.4.6.1 1.1.4 1.6 1 .3.4.6.9.9 1.6.1.3.3.6.4 1l.1.2c.7 2.9.6 6.8.3 9.9l-.1-.1c-.1-.1-.2-.1-.3-.1h-.3c-6.2-5.5-5.6-10.6-5.6-10.7.2-1 .6-1.9 1.3-2.4zm-50.2-12c0-.1 0-.1 0 0 0-1.3.4-13 12.8-16.4 2.4-.7 5-.8 8-.6.3 0 .6.1.9.1.5 0 1 .1 1.5.2h.1c.1 0 .1 0 .2.1 8.8 1.9 15.1 8 16.5 9.4-.2.6-.4 1.2-.5 1.9-.7-.4-1.6-.8-2.5-1.1-.4-.4-6.3-7.7-16.9-8.6-4.9-.4-9.7 1.1-13.1 4.4-3 2.9-4.8 6.7-4.7 10.3-.6.8-1 1.6-1.2 2.4-.4-.8-.8-1.5-1.1-2.1zM462.3 219v-.3c0-.2-.1-.4-.4-.5l-.3-.1s-.2-.1-.6-.1c.1-.1.1-.2.1-.3v-.3s.1-1.7 0-4.1c.5 1 1.2 2.1 1.9 3.1l.2.3c.1.2.4.2.6.2l.3-.1s.6-.2 1.5-.6c-.4.5-.8 1-1.2 1.6l-.2.3c-.1.2-.1.4 0 .6l.2.3s.8.9 2 2.2c-.9-.3-1.8-.6-2.8-.9l-.3-.1c-.2-.1-.4 0-.5.2l-.2.3s-.1.2-.3.5c-.1-.8 0-1.5 0-2.2zm15.3-10.4c-.8.1-1.5.2-2.3.4.6-.8 1.1-1.7 1.5-2.6l.1-.1c2.5-3.2 3.7-3.3 4.1-3.3.5.1.8.7.8.7.6 2.8-3.7 4.7-4.2 4.9zm-23 10.6c2.5 0 4.7.4 5.7.6-.2 15.6-8.5 16.5-8.9 16.6-.4.1-.9.1-1.3.1-5.7 0-6.4-6.3-6.4-7-.2-3.2.5-5.6 2-7.3 1.9-2 4.9-3 8.9-3zm11.7-1.1c4.9-6.3 9.3-7.7 12.1-7.7 2.3 0 3.8.9 3.9 1 1.9 1.1 3.1 2.5 3.5 4.2.7 2.9-1 5.7-1.1 5.7-1.7 2.8-3.9 4.2-6.4 4.2-5.1 0-10.5-5.6-12-7.4zm-2.2-3.5c-7.4-10.8-1-16-.7-16.2 1.6-1.4 3.2-2 4.9-2 3 0 5.1 2.4 5.2 2.5 1.8 2.1 2.4 4.1 1.9 6.2-1.4 4.9-9 8.5-11.3 9.5zm-25.9-23.8c-16.5 18.4-27.2 25.2-31.5 27.5.5-1 .8-2.1 1-3.2l.1-.3c3.6-2.1 12.4-8.3 23.6-23.7 2-.8 4.4-.9 6.8-.3zm21.1 10.5s0 .1-.1.1c-.1.2-.1.3-.2.5-.2.6-.3 1.3-.3 2.1-.5-.8-1-1.6-1.6-2.2-.8-.9-1.8-1.6-3.1-2-.2-1.1.3-2.5 1-3.3.5-.6 1-.5 1.3-.5 2.8.8 3 4.9 3 5.3zm-150.2-5.2c2.4-5.2 5-8.5 5-8.5l1.3-1.3c.3-.3.6-.6 1-.9 4.1-3.7 12.8-9.8 25-9.8 4.9 0 10.1 1.1 15.4 3.2 1.5.9 6.4 4.4 7.5 8.9.5 2.1.2 4.1-1 6 0 0-2.9 3.5-7 3.8-2.7.1-5.4-1.1-8-3.7v-.2c0-.2 0-.4-.1-.6-1.3-4.9-5.7-10.9-14-11.8-.7-.1-1.5-.1-2.2-.1-8.5 0-15.8 5.7-19.6 15.2l-3.3-.2zm136.8 23.5c-.1 0-5.1 1.8-6-.5-.4-.8-.3-1.5.2-2.1.6-.7 1.8-1.1 3.1-1.1.7 0 1.4.1 2 .3 1.2.8 2.7 1.4 4.4 1.8-1.3.4-2.4.8-3.3 1.5-.2.1-.3.1-.4.1zm-3.2-9.2c-.6-2.1-.5-4 .3-5.5 1.5-2.6 4.7-3.5 4.8-3.5 1.1-.3 2.1-.4 3-.4 2.1 0 3.8.7 5.1 2.1 3.4 3.7 3.5 11.1 3.5 13.4-1.7.3-3.3.4-4.8.4-10.1 0-11.8-6.2-11.9-6.5zm11-52.6c-2.1 1.4-4.1 2.6-5.4 3.1-.5.2-1.4.6-2.6 1 .4-3 .5-8.6-2.9-12.4-2-2.2-4.9-3.3-8.6-3.3h-1c.9-1.9 2.7-5 5.8-6.1 2.6-.9 5.7 0 9.1 2.5.2.2.5.1.7-.1l.5-.7c.1-.1.1-.2.1-.4 0-.1-.1-.2-.2-.3-.6-.4-1.1-.7-1.6-1-.1-.1-.3-.2-.4-.2-.4-2-3.4-15-17.2-24-5.4-3.6-10.5-5.4-15-5.4-5.2 0-7.8 2.4-7.8 2.4-.1 0-5.7 3.9-2.8 9.9v.1c-.1.2-.2.4-.3.7-.4 2.2.4 5 2.1 6.5 1 .9 2.6 1.8 5 1.2.1 0 .2-.1.3-.2.1-.1.1-.2 0-.4l-.2-.9c0-.1-.1-.2-.2-.3-.1-.1-.2-.1-.4 0-1.3.3-2.4.1-3.2-.7-1.2-1.1-1.8-3.1-1.5-4.8.4-2.3 2.9-3.8 6.1-3.8 3.7 0 8.4 2.2 9.6 8.5 1 5.4-1.7 8.3-4.2 9.8-5.2 3.1-13.5 2.8-17.8-.7-5.7-4.6-8-10.7-7-18.2.8-5.6 5.5-13.3 13-17 5.3-2.6 14.1-4.4 25.9 2.2 27.5 15.3 22.6 50 22.1 53zM259.2 32.3s-.6-3.3 1.2-5.7c1-1.4 2.7-2.4 5-2.7 0 0 .3-.1.9-.1.2 0 .5 0 .8.1.2 0 .4.1.6.1l.5.1h.1c3.2.8 7.2 3.6 9.6 12.1-1.6.8-6.5 3-10.8 3-4.5 0-7-2.3-7.9-6.9zm-2.4 10.9c-.1-.5.1-1 .4-1.3.9-.9 3.1-1.3 5.2-1.3.6 0 1.3 0 1.8.1l.7.1h.4c.5.1 1 .2 1.5.2l-.9.6c-.1 0-.1 0-.2.1-2.2 1.8-6.6 2.9-8.4 2.1-.4-.1-.5-.4-.5-.6zm23.4-3.7c.5 2.2 1.6 9.6-1.6 13.8-1.7 2.2-4.4 3.1-8.1 2.9-.2 0-3.8-.3-5.8-2.7-1-1.3-1.4-3-1.1-5.1.1-.4 1-8.6 16.6-8.9zm-14.3-21.3c-.4-1-.1-1.9.4-2.4.2-.2.5-.4.7-.5h.2c.2 0 .5-.1.7 0 .6.2 1.5 1 2.9 3.4v.1c.9 1.7 1.7 3.6 2.1 4.9v.1c.1.2.1.5.2.7a11.8 11.8 0 0 0-4.5-2.2c-.4-.5-1.9-2.1-2.7-4.1zM280.4 54c.7-1 1.2-2.1 1.6-3.4.4 1.5 1 2.9 1.7 4v.1c.6 1.9.3 4.2-.7 5.1-.5.5-1.2.6-2.1.2-2.3-.9-.5-5.9-.5-6zm-20.1 75.1c9.5-27.4-.8-43.8-4.2-48.2 1.2-.1 2.8 0 4.6.6.8.3 1.5.7 2.1 1.1 2.9 2.1 4.6 5.9 5 11.4 0 .3.2.4.5.4 0 .2.2.4.5.4.2 0 .4-.2.5-.4.2 0 .4-.2.4-.4 0-.3.8-7.2 2.7-10.8 1.7 2.1 5.1 7.7 2.3 17.1-.1.3.1.5.3.6h.1c0 .2.1.4.3.5.2.1.5 0 .6-.3.2 0 .4-.2.4-.4.2-.5 1.8-5 8-6.7.3 2.4.8 8.4-2.5 13.1-.1.1-5.7 6.6-6.4 8.6-.3.6-1.8 3.8-.7 6 .2.3.4.5.6.6.1 0 .2.1.2.1.2.3.5.5 1 .7.1.1.2.3.5.3.2 0 .8 0 1.5-.1.2 0 .4-.1.5-.2.1 0 .1 0 .2-.1.2-.1.4-.1.7-.3 1.7-1.3 2.4-4.1 2.3-8.2 0 0-.2-3.3 2-5.5.6-.6 1.5-1.1 2.8-1.5l.3-.1c.1-.1.3-.1.5-.1 1.2-.3 2.4-.4 3.8-.3 0 1.4-.3 4.6-2.4 6.9-.2.2-.2.5 0 .7l.2.2c-.1.2 0 .4.1.5.2.2.4.2.6.1.1 0 .3 0 .4-.1.1-.1 9.9-9.2 20.1-3.2-1 1.7-4.4 5.7-13.5 5.9-.3 0-.5.2-.5.5v.9c0 .3.2.5.4.5.1 0 7.3.8 10 4.6.8 1 1.1 2.3 1 3.6-5-.9-24.6-3.2-34.9 14.8-.1.1-7.5 13.5 4.3 27.4.2.3 5.9 6.3 13 6.3 3.7 0 7-1.6 10-4.7 1.4-.2 2.6-.9 3.5-1.9 1.5-1.7 1.8-4.5-.8-6.8-.2-.2-.5-.2-.7 0l-.6.7c-.1.1-.1.2-.1.4 0 .1.1.2.2.3 1.8 1.6 1.5 3.2.6 4.2-1.2 1.4-3.6 1.9-5.6.2-2.4-2-4.7-7-1-12.1 2.3-3.1 6.4-4.4 10.7-3.2 4.3 1.2 9.6 5.1 10.4 12.4 1.3 12.1-9.4 20.1-20.7 21.8-17.4 2.6-30.3-10.6-34.8-17.9-6.7-10.8-7-24.5-1.3-40.9zm51.4-114.8l.8.9c.1.1.4.2.5.1.2-.1.3-.3.3-.5l-.1-1.2c-.1-2.1.3-3.6 1.3-4.6.4-.4.9-.7 1.4-.8-.6 2.3-.2 4.8 1.2 7.5.9 1.8 1.8 3.3 3.1 4.7.1.1.2.2.3.4.1.1.1.2.2.3.4.5.8 1 1 1.6l.3.6c.8 1.9.5 3.3.3 3.8-.4.1-.8.3-1.1.5-.5.3-1 .8-1.3 1.5-1.7.1-3.9-2-4.6-4.5-.9-3.2-2-5-2-5-2.4-4.7-6.9-5.8-9.5-6.1 1-.8 2-1.3 3-1.3 2.6-.2 4.8 2 4.9 2.1zm-31.9 23c.2-.1.3-.3.2-.5l-.1-.3c-.3-1-.5-1.9-.9-2.9 1.2 1.3 2.2 2 2.2 2l.3.2c.2.1.4.1.6 0l.3-.2c.6-.4 1.1-.8 1.6-1.3-.4.9-.6 1.5-.6 1.5l-.1.3c-.1.2 0 .4.2.6l.3.2c1 .7 2 1.4 3 1.9-1-.1-1.8-.1-2.3-.1h-2c-.1 0-.2.1-.3.1-.1-.3-.1-.5-.1-.6l-.1-.3c-.1-.2-.3-.4-.5-.4h-.4c-.7 0-1.3 0-1.9.1.3-.2.5-.3.5-.3h.1zm5.1 54.9c-1.1.2-2.1.5-3.2 1 2.5-4.7 9.4-15.2 27.4-31.5.6 2.4.5 4.8-.2 6.8-15.4 11.2-21.6 20-23.7 23.6l-.3.1zm14-44.2v.2c.1 1.2 0 2.6-.3 4-.1.2-1.5 5.5-6.4 5.5-.8 0-1.7-.1-2.6-.4-.1 0-8.4-2.4-6.1-16.6h.9c3 0 10.3.4 13.3 4.3.6.8 1 1.8 1.2 3zm7.4 39.7c-1.6-1.6-1.6-4.2 0-5.7.8-.8 1.8-1.2 2.9-1.2 1.1 0 2.1.4 2.9 1.2.3.3.6.8.8 1.3.3.5.3 1.1.3 1.7v.1c-.1 1-.5 1.9-1.1 2.6-1.6 1.5-4.3 1.5-5.8 0zm-10.1-63.3h.4c.3 0 .7.1 1 .2l.3.1c1.2.4 2.3.9 3.3 1.8 0 0 1.4 1.2 2.1 3 .8 2.3.3 4.7-1.7 7-.1.1-2.3 2.8-6.7 2.8-2.9 0-6.1-1.2-9.5-3.6.9-2 5.2-11 10.8-11.3zm-7.4-6.3c.8 1.8 2.7 8.1-6.9 15.5-1.8-1.6-7.7-7.2-7.3-12.4.1-2.3 1.5-4.3 4.2-6 0 0 1.9-1.1 4.2-1.2h.2c.8 0 1.7.3 2.6.8l.9.6c.6.5 1.1 1.1 1.6 1.8l.3.3.3.3c-.2 0-.1.1-.1.3zm2.1 6.6c.3-.8.4-1.6.5-2.2v-.1c.2-.6 2-4.6 4.6-4.1.1.1.4.2.7.5.1.1.2.2.2.3.1.3 0 1.6-3.3 4.1-.9.3-1.8.8-2.7 1.5zm8.2 19.1c-.9-1.2-2.1-2-3.3-2.6.8-.1 1.4-.3 2.1-.5h.4c.1 0 .3 0 .4-.1h.5c1.2.1 4 .7 4.7 2.9.1.5-.1.8-.4 1.2-.8.8-2.4 1.2-3.5 1 0-.1 0-.1-.1-.2-.2-.5-.4-1.2-.8-1.7zm-265 67.1l-.2-3.5c3.1 2.4 6.3 4.2 9.3 5.4l.1.1c1.3 1.2 1.9 2.3 1.9 3.5 0 1.2-.9 2-1 2-.6.5-1.1.7-1.9.6-3.4-.6-7.8-7.4-8.2-8.1zm-33 48.9c5.7-6.6 10.1-19.2 10.3-19.7.1-.4.3-.8.4-1.2l.3-.9c.1-.3.2-.5.2-.8.2-.7.4-1.4.5-2.2.1-.6.2-1.1.3-1.7l.3-2.1c.1-.8.2-1.7.3-2.8 0-.5.1-.9.1-1.4.1-1.3.1-2.6 0-4.2v-.3c-.4-7.9-2.4-16-6.1-24.2C0 81.4 1.9 63.4 2 62.6c2.7-19.4 10.6-28.4 16.9-32.5 3.6-2.4 6.6-3 7.4-3.2h.3c.2 0 20.7-4.6 32.6 9.2.5.5 12.2 12.5 2.3 25.1-12.9 10.2-24.9-1.5-25.5-2-5.6-4.8-8.8-11.4-9.7-19.8 2.2-1.5 4.5-2.7 7.2-3.4-.4 3.8-.4 13.4 6.9 19.3.1.1 7.7 6.6 15.6 1l.2-.2c5.6-7.9-1-15.4-1-15.5-7.4-9.3-20.7-6.8-20.8-6.8C11.5 38.7 15 64.8 15 65.1c2.1 11.5 7.2 17.4 14.9 17.1 1 0 1.9-.3 3-.7.1 0 .2-.1.3-.2l.2-.1c.5-.2 1-.5 1.6-.9.4-.3.7-.5 1.1-.9.2-.2.4-.4.7-.6l1.3-1.3.1-.2c1.7-2.1 2.9-4.2 3.5-5.4 3.1 3.5 4.4 6.9 3.8 10.1-1.1 6.2-9 9.8-9 9.8-.2.1-.3.4-.2.6l.3.8c.1.2.4.4.6.3.9-.3 1.8-.5 2.8-.6h.1c2.2-.1 3.7.6 4.5 1.1-.9 1.3-3.3 4.3-8.7 6.1-.8.2-1.5.4-2.4.5H33c-5.5.2-7.9-4.8-8-5l-.2-.6c-1.3-2.4-3.6-6.8-6.2-7.3-.8-.2-1.6 0-2.3.5-1 .8-1.5 1.7-1.4 2.7.1 2.6 3.6 4.8 5.5 6.1.3.2.6.4.7.5.3.2.6.4 1 .7 1.5 1 4 2.7 5.6 4.9 6.4 8.7 5.8 14.8 5.1 17.1l-9.5-7.1c-.2-.1-.5-.1-.6 0-.2.2-.2.4 0 .6l2.2 2.7c7.4 9.3 4.6 21.5 3.7 24.8-4.3-1.1-6-6-6.1-6.2-.1-.2-.3-.4-.6-.3l-.9.3c-.3.1-.4.3-.3.6 3.4 12-1 18.4-2.5 20.1-2.4-2.1-2.4-7-2.4-7.2 0-.2-.2-.5-.4-.5l-.9-.1c-.2 0-.5.1-.5.4-2.4 10.1-9.6 11.5-12.9 11.5zM44.9 100c2.4-1.1 4.2-1.4 5.3-.8.7.4.9 1.1.9 1.1.3 2.4-2 3.5-3 3.9-4.9 1.5-9.7 1.1-14.5-1.1v-.6h.6c5.8-.4 10.6-2.5 10.7-2.5zM27.3 25c.4-1.4 1-2.8 1.8-4.3.7-1.2 1.4-2.4 2.3-3.6l.1-.1c1.1-1.4 2.3-2.7 3.7-3.9l-.3-.4.5.2c.6-.5 1.3-1 1.9-1.5.3-.3.7-.5 1.1-.8.5-.3.9-.6 1.4-.9.7-.5 1.5-.9 2.2-1.3.3-.2.6-.3.8-.5 1.3-.7 2.4-1.2 3.7-1.7 4.7-1.9 10.1-3.3 16.1-4.1.1-.1 18.7-2.1 35.7 5.6 21.1 9.6 36.1 5.8 41.6 3.7.2-.1 6.2-2.1 12.1-5.2l.1-.1c1.1-.6 2.1-1.1 3-1.7.5-.3.9-.6 1.3-.9l.7-.5.9-.6c.6-.5 1.2-.9 1.7-1.4 0 3.3-1.4 10.5-11.5 12.9-.2.1-.4.2-.4.5v.1l.1.9c0 .2.2.4.5.4.1 0 5.1-.1 7.2 2.4-1.8 1.5-8.1 5.9-20.1 2.5-.3-.1-.5.1-.6.3l-.3.9c-.1.2.1.5.3.6.2.1 5.1 1.7 6.2 6-3.3.9-15.6 3.7-24.8-3.6l-2.7-2.2c-.2-.2-.5-.1-.6 0-.2.2-.2.4-.1.6l7.1 9.5c-2.4.7-8.4 1.4-17.2-5.1-2.2-1.6-3.9-4.1-4.9-5.6-.3-.4-.5-.8-.7-1-.1-.1-.3-.4-.5-.7-1.2-1.9-3.5-5.4-6.1-5.5-1 0-1.9.4-2.7 1.4-.5.7-.7 1.4-.5 2.3.6 2.6 5 5 7.3 6.2l.7.4c.2.1 5 2.5 5 7.7v.7c-.1.9-.2 1.6-.5 2.4-1.7 5.4-4.7 7.8-6.1 8.7-.3-.4-.6-1.2-.9-2.2l-.5.1.4-.3c.2-.3.2-.9.2-1.6 0-.9.1-1.9.6-3.2v-.2c.1-.2 0-.5-.3-.6l-.8-.3c-.2-.1-.5 0-.6.2-.1.3-3.7 7.9-9.8 9-3.2.6-6.6-.7-10.1-3.9.5-.3 1.3-.7 2.2-1.2.1-.1.3-.2.4-.3l.3-.2c.3-.2.7-.4 1-.7l1.2-.9c.2-.2.4-.3.6-.5.4-.3.8-.7 1.3-1.2.1-.1.3-.3.4-.5.4-.5.8-1 1.1-1.5.1-.2.2-.3.3-.5l.1-.2c.3-.5.5-1 .7-1.5.2-.6.4-1.3.5-2.2 0 0 .1-.2.1-.3v-1.5c-.4-7-6.3-11.7-17-13.6-.7-.1-17.6-2.3-26.6 9.3-5.4-.1-9.6.4-11.3.8zm84 19.7c0 .1.1.2.1.2.3 1.5.6 4.2-1.9 5.5-.1 0-.7.2-1.4 0-.8-.3-1.4-1.2-2-2.6 1.4-5.3.6-9.9-.7-13.4 2.7 3.4 4.7 6.9 5.9 10.3zm6.9-.3s-.8.9-2 .9c-1.1 0-2.2-.6-3.5-1.9l-.1-.1c-1.2-3.1-3-6.3-5.5-9.4l3.4.2h.3c2.8 1.7 7.7 5.4 8.1 8.3 0 .8-.2 1.4-.7 2 0 0 0-.1 0 0zM103 33.5c2.3 4.8 2.7 9.7 1.2 14.6-.4 1-1.5 3.4-3.9 3.1 0 0-.7-.1-1.1-.9-.2-.4-.3-1.1-.2-1.9 0-.1 0-.3.1-.4.1-.6.4-1.4.8-2.4 0-.1.1-.2.1-.3 0-.1 0-.1.1-.2.1-.2 2.2-5.1 2.5-11v-.6h.4zm-68.7 72c3.5 1.3 8.1 2.1 13.4.7 1.4.5 2.3 1.2 2.6 2 .3.7.1 1.3 0 1.4-1.4 2.5-4.1 2.3-5.5 2-.1 0-.1-.1-.3-.1-3.3-1.3-6.8-3.3-10.2-6zm159.4-17.7c-1.6 1.6-4.2 1.6-5.7 0-.7-.7-1.2-1.7-1.2-2.8 0-.2 0-.3.1-.5l.1-.3c.2-.9.5-1.7 1.1-2.2 1.6-1.6 4.2-1.6 5.7 0 1.4 1.6 1.4 4.2-.1 5.8zm-21.4 86.8c-29.9-18.2-48.1-12.7-48.3-12.7l.1.5-.3-.4c-2.8.6-12.4 1.9-18.2-5 0 0-2.1-2.6-2.2-6.4v-.3c0-.9.2-1.9.4-2.8v-.1c.6-1.9 1.6-3.5 3.1-4.8 4.3-3.7 11.1-3.6 14.4-2.7h.1c.2 0 16.2 2.9 50.9 34.7zm38.4-69c-.7-.1-1.3-.1-2-.1-5.8-8.3-12-13.8-14.4-15.9.2-.2.5-.3.7-.5.2-.2.3-.4.4-.5 2.1 1.8 10.8 9.5 15.3 17zm-29.2 20.8c0 7.5-4 14.7-4.1 15.1-.1.2-.1.4-.2.5 0 .1-.1.3-.1.3l-.2.4v.3c-2.1 5.4-3.2 10.7-3.2 15.6 0 4.1.7 8.1 2 12-15.7-26.3-12.7-43.2-12.1-45.6v-.1s.1-.2.1-.6c1.4-5.9 6.7-8.8 6.7-8.8 2-.9 3.9-1 5.5-.4 2.8 1.1 4.1 4.2 4.2 4.3.9 2.1 1.4 4.4 1.4 7zm-69-13.8c.3-.2.6-.4 1-.7 2.8-1.4 7.1-1.5 7.1-1.5 10.8.1 16.7 10.5 17.3 11.6.4 2 3.8 16.5 31.3 47.4-30.9-27.5-45.4-30.9-47.4-31.3-1-.5-11.5-6.4-11.6-17.2 0-.3.1-1.6.3-3.1.5-2.4 1.2-4.2 2-5.2zm49.9 6.5c0 2.2-.3 4-.5 4.8v.2c-.1.3-.8 2.9-.8 7.5 0 7.1 1.9 21.6 13.7 41-15.2-16.5-23.5-28.4-27.9-35.7-3.8-6.4-5.6-10.7-6.5-13.2l-.6-2.3c-.3-1.2-.5-2.7-.5-4.3 0-1 .1-3.7 1.1-6.4l.1-.2c0-.1.1-.2.1-.3.2-.4.4-.8.7-1.3.2-.4.5-.8.8-1.2l.1-.1c.2-.2.3-.5.5-.7.4-.5.9-.9 1.4-1.2l.3-.3.3-.3c.2-.2.5-.3.8-.4.2-.1.3-.1.5-.2.1-.1.3-.1.4-.2.2-.1.5-.2.8-.3 5.6-1.7 9.6 1.6 9.8 1.7 4.4 3.9 5.4 9.4 5.4 13.4zM232 15.4c.6-.2 1.2 0 1.7.5s.9 1.4.4 2.4c-.8 1.9-2.3 3.5-2.7 4-.9.2-1.7.5-2.5.9-.7.3-1.4.8-2.1 1.5.1-.2.1-.5.2-.7 0 0 .1-.1.1-.2.3-1 1.3-3.5 2.6-5.6 0 0 0-.1.1-.1.3-.7 1.3-2.4 2.2-2.7zm-58.5 27.1c-.3-.1-.4-.1-.6 0l-.1.1c-.5-4.9-.4-12.9 3-13.7.1 0 1.1-.2 1.9.3.7.5 1.1 1.3 1.3 2.6.1.1.7 5.1-5.5 10.7zM125 163.6c2.4-.6 19.3-3.6 45.7 12.2-7-2.3-16.5-3.3-27.8 1.1-.1 0-.3 0-.4.1l-.2.1c-.1.1-.3.1-.4.1-.2.1-.4.1-.6.2-.1.1-12.6 6.9-21.9 2.7-.2-.1-4.6-2-4.7-6.3v-.2c0-1.1.3-2.1.7-3.2 0-.1 2.9-5.3 8.8-6.7.4-.1.6-.1.6-.1h.2zm40.8 17.7c-8.2.9-12.7 6.9-14 11.8-.1.2-.1.4-.1.6v.2c-2.6 2.6-5.3 3.8-8 3.7-4.1-.2-7-3.7-7-3.7-1.2-2-1.6-4-1.1-6.1 1.2-4.7 6.5-8.3 7.5-8.9 13.5-5.3 24.2-2.8 30.9.3 3.6 1.7 6.9 3.9 9.8 6.5l.9.9 1.1 1.1s2.6 3.4 5 8.6l-3.3.2c-3.1-8.3-10.5-16.4-21.7-15.2zm68.9-157.4c5.1.8 6.2 4.3 6.2 7.1 0 .8-.1 1.3-.1 1.3-.6 3.1-1.9 5.1-4 6.2-4.9 2.3-12.5-1.2-14.7-2.3 3.8-13.8 12.2-12.3 12.6-12.3zm.9 17c2.1-.2 6-.1 7.3 1.2.4.4.5.8.4 1.3 0 .2-.1.4-.6.6-1.8.8-6.3-.3-8.4-2.1-.1 0-.1-.1-.2-.1-.3-.2-.6-.5-1-.7.8 0 1.5-.1 2.3-.3 0 .1.1.1.2.1zM190.9 79c-.1 0-.1 0 0 0-1.6 0-3.1.6-4.2 1.7-.4.4-.8.9-1 1.5-1.9.1-10.3 0-14.9-9.9-.1-.2-6.9-18.6-8.1-21.4-.6-1.4-1.9-3.6-3.3-5.8 0-.1-.1-.2-.2-.3-2.3-3.3-4.7-6-7.1-8.1 1.6 0 5 .9 10.2 6.7l1.5 1.7c.2.2.4.2.6.1.2-.1.3-.4.2-.6l-1.3-3.8c2.2.6 5.7 2.5 6.2 8 0 .6.1 1 .1 1 .1.2.3.4.5.4l.9-.1c.3 0 .4-.3.4-.5 0-.3 0-.6-.1-.8 0-.9.4-2.7 2.2-4.3 1.2.9 4.5 4.1 1.8 13.3-.1.3-1.5 7.3 1.1 11.1.9 1.3 2.2 2.1 3.9 2.3.1 0 2 .1 3.3-1.2.9-.9 1.2-2.2.9-3.9 0-.2-.8-5.3-7.6-7.2.1-.4.1-.7.1-.7.5-1.8.8-3.4.9-5.2 4.3.3 5.3 4.3 5.3 4.3l.3 1.3c.1.2.2.3.4.4.2 0 .4-.1.5-.3l.5-1.2c1.3-3.1 3-4.8 4.9-5.2 1.8-.4 3.6.6 4.7 1.3-1.4.9-3.8 2.7-4.9 5.6-.8 2-1.1 3.9-1.1 5.6 0 2.3.6 4.3 1.3 5.6.1.2 2.5 5.3 1.1 8.6zm-85.5 129.7c0 .6 0 1.3.1 2-7.5-4.5-15.3-13.3-17-15.2.2-.1.4-.2.5-.4.2-.2.4-.5.6-.7 2 2.3 7.5 8.4 15.8 14.3zm81.5-193.3c.2.1.4 0 .5-.1l.8-.9s2.3-2.3 5-2.2c1.1.1 2.1.5 3 1.3-2.7.2-7.1 1.4-9.5 6-.2.3-1.1 2.2-2 5-.7 2.5-2.9 4.6-4.6 4.5-.4-.6-.8-1.1-1.3-1.5-.3-.2-.7-.4-1.1-.5-.3-.8-.8-3.4 2.1-6.7 3.8-4.3 5.2-8.4 4.3-12.1.4.1.9.4 1.3.8 1 1 1.4 2.5 1.3 4.6l-.1 1.2c0 .3.1.5.3.6zM238 182.3c1.3 1.5 3.1 4.2 3.1 7.7 0 3.2-1.5 6.4-4.5 9.6-.1.1-9.1 9.7-24.1 0-.2-.1-.5-.1-.6.1l-.5.7c-.1.1-.1.2-.1.3 0 .1.1.3.2.4 4.8 4.4 7.4 5.8 11.9 8.5l.4.2c1 .6 2.1 1.2 3.4 2 6.7 4 10.2 12.6 10.2 25.5-12.9 0-21.5-3.4-25.5-10.2-.8-1.4-1.5-2.6-2.1-3.7l-.1-.1c-2.6-4.6-4.1-7.1-8.5-11.9-.2-.2-.5-.2-.7-.1l-.7.5c-.2.2-.2.4-.1.7 2.9 4.5 4.4 8.8 4.4 13 0 6.7-3.9 10.6-4.4 11.1-3.4 3.2-6.9 4.7-10.3 4.5-3.2-.2-5.7-1.9-7.1-3.1 5.8-1.5 9.5-7.5 9.6-7.7 3.3-5.2 5-11 5-17.1 0-10.2-4.8-19.3-7.5-23.7 3 1.9 8.1 4.6 14.2 6.2 9.8 2.5 18.8 1.3 26.6-3.7.3-.2 6.3-3.9 7.8-9.7zm-.8-99.6c2.3-1.7 5.1-1.8 6.7-1.7-1.4 1.8-4 5.5-5.9 11.2-1.3 3.8-2.3 8.8-2.3 15.1 0 6.2 1 13.5 4 22 5.7 16.4 5.4 30.2-1.1 40.8-4.4 7.3-17.4 20.5-34.8 17.9-11.3-1.7-22-9.7-20.7-21.8.8-7.3 6.1-11.2 10.4-12.4 4.3-1.2 8.4.1 10.7 3.2 1.3 1.7 1.9 3.6 1.9 5.5 0 3-1.6 5.4-2.9 6.6-2.1 1.7-4.4 1.2-5.6-.2-.9-1-1.2-2.7.6-4.2.1-.1.2-.2.2-.3 0-.1 0-.3-.1-.4l-.6-.7c-.2-.2-.5-.2-.7 0-2.6 2.3-2.3 5.1-.8 6.8.9 1 2.1 1.7 3.5 1.9 3 3.1 6.3 4.7 10 4.7 7.2 0 12.8-6 13.1-6.3 11.8-13.9 4.3-27.2 4.3-27.3-10.3-18-29.9-15.8-34.9-14.8-.1-1.3.2-2.6 1-3.6 2.7-3.7 10-4.5 10-4.6.2 0 .4-.2.4-.4v-.2c0-.1 0-.1-.1-.2v-.5c0-.3-.2-.5-.5-.5-9.2-.1-12.5-4.1-13.5-5.9 10-5.9 19.7 2.9 20.1 3.2.2.1.4.2.6.1.2.1.4 0 .5-.1.1-.1.2-.3.1-.5l.1-.1c.2-.2.2-.5 0-.7-2-2.3-2.3-5.3-2.4-6.9 3.3-.2 5.7.5 7.3 2 2.2 2.2 2 5.5 2 5.5-.1 4.1.7 6.8 2.3 8.1 1.3 1.1 2.7.8 2.9.8.3-.1.5-.3.6-.4l.1-.1c.3-.2.6-.4.7-.5 0 0 .1-.1.2-.1.2-.1.5-.2.6-.5 1.1-2.3-.7-5.9-.7-5.9-.8-2-6.4-8.6-6.4-8.6-3.3-4.8-2.9-10.8-2.5-13.2 6.2 1.6 7.8 6.2 8 6.7.1.2.3.4.6.3.1.2.3.2.5.1s.3-.2.3-.4c.1 0 .2-.2.3-.3.1-.1.1-.3 0-.4-2.8-9.3.6-15 2.3-17.1 1.9 3.7 2.7 10.7 2.7 10.8 0 .3.2.4.5.4.1.2.3.3.5.3s.3-.1.4-.3c.2 0 .4-.2.4-.4.5-5.6 2.2-9.4 5.1-11.5zM215.3.8C227.4 4.1 228 15.3 228 17.1v.1c-.4.6-.7 1.3-1.1 2.1-.3-.9-.7-1.7-1.2-2.4v-.2c0-3.6-1.7-7.3-4.7-10.1-3.5-3.3-8.1-4.8-13.1-4.4-9.9.9-15.7 7.2-16.7 8.4-1.1.3-2.1.8-2.7 1.3-.1-.7-.3-1.3-.5-1.9 2-2.2 13.4-13 27.3-9.2zm-170.2 172c.4-.3.8-.6 1.3-1l.6-.3.1-.1c.6-.2 1.1-.3 1.5-.3.3 0 .6 0 .9.1.3 0 .5-.2.5-.4l.1-.9c0-.3-.1-.5-.4-.5 0 0-.4-.1-1-.1-5.6-.5-7.4-4-8.1-6.2l3.8 1.3c.2.1.5 0 .6-.2.1-.2.1-.5-.1-.6l-1.7-1.5c-5.8-5.2-6.8-8.5-6.7-10.1 2.1 2.5 4.8 4.9 8.1 7.1l.2.2c2.2 1.5 4.4 2.8 5.9 3.4 2.8 1.2 21.2 8 21.3 8 10.1 4.7 10.1 13.1 10 14.9-.6.3-1.1.6-1.5 1-1.1 1.1-1.7 2.6-1.7 4.2-3.3 1.4-8.5-1.1-8.5-1.1-2.5-1.3-6.7-2.1-11.3-.2-2.9 1.2-4.7 3.5-5.6 4.9-.6-.9-1.5-2.6-1.3-4.3.2-1.3 1-2.5 2.3-3.5.8-.6 1.9-1.2 3.1-1.8h.1l.9-.4c.2-.1.3-.3.3-.5s-.2-.4-.4-.4l-1.3-.3c-.2 0-4-1-4.4-5.3 1.8-.1 3.5-.4 5.2-.9 0 0 .3-.1.8-.1 1.9 6.5 6.7 7.5 7.3 7.6 1 .1 1.9 0 2.8-.4.3-.1.6-.2.8-.4.1 0 .2-.1.3-.2.1-.1.2-.2.3-.4.4-.5.7-1.1.8-1.6v-.5c.1-.4.1-.8 0-.9-.2-1.6-1-2.9-2.3-3.8-3.9-2.7-11.1-1.1-11.2-1.1-9.1 2.6-12.3-.6-13.2-1.8l.5-.5.3-.1c-.1 0 0 0 0 0zm2.3-39.6c3.2-12.8 10.3-22.4 21.1-28.4 1.4-.8 2.8-1.5 4.2-2 9.8-4 17.1-2.2 21.5 0 7.5 3.7 12.3 11.4 13.1 17 1.1 7.5-1.3 13.6-7 18.2-4.3 3.5-12.7 3.8-17.9.7-1.6-1-3.7-2.8-4.3-5.9-.1-.5-.1-.9-.1-1.4 0-.5 0-1.1.1-1.6v-.7c.1-.4.2-.7.3-1 .1-.2.1-.4.2-.6l.1-.3c.2-.6.4-1.2.6-1.7.4-.7.9-1.3 1.3-1.8l.2-.3c.2-.2.3-.4.5-.6.5-.4 1-.8 1.5-1.1.5-.3.9-.5 1.4-.7l.9-.3c1-.3 1.8-.4 2.5-.4 3.2 0 5.6 1.5 6.1 3.8.3 1.6-.3 3.7-1.5 4.8-.9.8-2 1.1-3.2.7h-.4c-.1.1-.2.2-.2.3l-.2.9c-.1.3.1.5.3.6 2.4.7 4-.3 5-1.1 1.6-1.5 2.5-4.2 2.1-6.5-.1-.3-.2-.5-.3-.7.6-1.3.9-2.5.8-3.7-.1-3.8-3.4-6.1-3.5-6.2-.3-.3-7.8-7-22.9 2.8-13.6 8.9-16.7 21.6-17.2 23.9-.6.4-1.4.8-2.1 1.3-.1.1-.2.2-.2.3 0 .1 0 .3.1.4l.5.7c.2.2.5.3.7.1.8-.6 1.6-1.1 2.3-1.5h.1l.3-.1c.1-.1.2-.1.3-.1.1 0 .2-.1.3-.1.8-.4 1.5-.5 2.1-.7 1.4-.3 2.6-.2 3.6.1 3.1 1 5 4.2 5.8 6.1-4.2-.2-7.4.9-9.6 3.3-3.4 3.7-3.2 9.4-2.9 12.4-1.2-.5-2.1-.8-2.6-1-1.2-.5-3.3-1.7-5.4-3.1-.2-1.2-1.2-8.2-.2-16.9 0-.4.1-.8.2-1.3v-.3c.1-.7.2-1.5.3-2.2.2-1 .4-2 .7-3.1l.1-.4c.4-.3.4-.5.5-.6zm-18.3 44.6c-.4-.7-.4-1.4-.4-1.7.1-.6.4-1.1 1-1.6.4-.3.9-.6 1.6-.9.3-.1.6-.3 1-.4l.2-.1c2.9-.7 6.8-.6 9.9-.3l-.1.1c-.1.1-.1.2-.1.3v.3c-5.5 6.2-10.6 5.6-10.7 5.6-1-.2-1.9-.6-2.4-1.3zm-12 50.2c-.1 0-.1 0 0 0-1.3 0-13-.4-16.4-12.8-.7-2.4-.8-5-.6-8 0-.3.1-.6.1-.9 0-.5.1-1 .2-1.5v-.1c0-.1 0-.1.1-.2 1.9-8.8 8-15.1 9.4-16.5.6.2 1.2.4 1.9.5-.4.7-.8 1.6-1.1 2.5-.4.4-7.7 6.3-8.6 16.9-.4 4.9 1.1 9.7 4.4 13.1 2.9 3 6.7 4.8 10.3 4.7.8.6 1.6 1 2.4 1.2-.8.4-1.5.8-2.1 1.1zM219 37.7h-.3c-.2 0-.4.1-.5.4l-.1.3s-.1.2-.1.6c-.1-.1-.2-.1-.3-.1h-.3s-1.7-.1-4.1 0c1-.5 2.1-1.2 3.1-1.9l.3-.2c.2-.1.2-.4.2-.6l-.1-.3s-.2-.6-.6-1.5c.5.4 1 .8 1.6 1.2l.3.2c.2.1.4.1.6 0l.3-.2s.9-.8 2.2-2c-.3.9-.6 1.8-.9 2.8l-.1.3c-.1.2 0 .4.2.5l.3.2s.2.1.5.3c-.8.1-1.5 0-2.2 0zm-10.4-15.3c.1.8.2 1.5.4 2.3-.8-.6-1.7-1.1-2.6-1.5l-.1-.1c-3.2-2.5-3.3-3.7-3.3-4.1.1-.5.7-.8.7-.8 2.8-.6 4.7 3.7 4.9 4.2zm10.6 23c0-2.5.4-4.7.6-5.7 15.6.2 16.5 8.5 16.6 8.9.1.4.1.9.1 1.3 0 5.7-6.3 6.4-7 6.4-3.2.2-5.6-.5-7.3-2-2-1.9-3-4.9-3-8.9zm-1.1-11.7c-6.3-4.9-7.7-9.3-7.7-12.1 0-2.3.9-3.8 1-3.9 1.1-1.9 2.5-3.1 4.2-3.5 2.9-.7 5.7 1 5.7 1.1 2.8 1.7 4.2 3.9 4.2 6.4 0 5.1-5.6 10.5-7.4 12zm-3.5 2.2c-10.8 7.4-16 1-16.2.7-1.4-1.6-2-3.2-2-4.9 0-3 2.4-5.1 2.5-5.2 2.1-1.8 4.1-2.4 6.2-1.9 4.9 1.4 8.5 9 9.5 11.3zm-23.8 25.9C209.1 78.3 216 89 218.2 93.3c-1-.5-2.1-.8-3.2-1l-.3-.1c-2.1-3.6-8.3-12.4-23.7-23.6-.7-2-.8-4.4-.2-6.8zm10.5-21.1s.1 0 .1.1c.2.1.3.1.5.2.6.2 1.3.3 2.1.3-.8.5-1.6 1-2.2 1.6-.9.8-1.6 1.8-2 3.1-1.1.2-2.5-.3-3.3-1-.6-.5-.5-1-.5-1.3.8-2.8 4.9-3 5.3-3zm-5.2 150.2c-5.2-2.4-8.5-5-8.5-5l-1.3-1.3c-.3-.3-.6-.6-.9-1-3.7-4.1-9.8-12.8-9.8-25 0-4.9 1.1-10.1 3.2-15.4.9-1.5 4.4-6.4 8.9-7.5 2.1-.5 4.1-.2 6 1 0 0 3.5 2.9 3.8 7 .1 2.7-1.1 5.4-3.7 8h-.2c-.2 0-.4 0-.6.1-4.9 1.3-10.9 5.7-11.8 14-.1.7-.1 1.5-.1 2.2 0 8.5 5.7 15.8 15.2 19.6l-.2 3.3zm23.5-136.8c0 .1 1.8 5.1-.5 6-.8.4-1.5.3-2.1-.2-.7-.6-1.1-1.8-1.1-3.1 0-.7.1-1.4.3-2 .8-1.2 1.4-2.7 1.8-4.4.4 1.3.8 2.4 1.5 3.3.1.2.1.3.1.4zm-9.2 3.2c-2.1.6-4 .5-5.5-.3-2.6-1.5-3.5-4.7-3.5-4.8-.3-1.1-.4-2.1-.4-3 0-2.1.7-3.8 2.1-5.1 3.7-3.4 11.1-3.5 13.4-3.5.3 1.7.4 3.3.4 4.8 0 10.1-6.2 11.8-6.5 11.9zm-52.6-11c1.4 2.1 2.6 4.1 3.1 5.4.2.5.6 1.4 1 2.6-3-.4-8.6-.5-12.4 2.9-2.2 2-3.3 4.9-3.3 8.6v1c-1.9-.9-5-2.7-6.1-5.8-.9-2.6 0-5.7 2.5-9.1.2-.2.1-.5-.1-.7l-.7-.5c-.1-.1-.2-.1-.4-.1-.1 0-.2.1-.3.2-.4.6-.7 1.1-1 1.6-.1.1-.2.3-.2.4-2 .4-15 3.4-24 17.2-3.6 5.4-5.4 10.5-5.4 15 0 5.2 2.4 7.8 2.4 7.8 0 .1 3.9 5.7 9.9 2.8h.1c.2.1.4.2.7.3 2.2.4 5-.4 6.5-2.1.9-1 1.8-2.6 1.2-5 0-.1-.1-.2-.2-.3-.1-.1-.2-.1-.4 0l-.9.2c-.1 0-.2.1-.3.2-.1.1-.1.2 0 .4.3 1.3.1 2.4-.7 3.2-1.1 1.2-3.1 1.8-4.8 1.5-2.3-.4-3.8-2.9-3.8-6.1 0-3.7 2.2-8.4 8.5-9.6 5.4-1 8.3 1.7 9.8 4.2 3.1 5.2 2.8 13.5-.7 17.8-4.6 5.7-10.7 8-18.2 7-5.6-.8-13.3-5.5-17-13-2.6-5.3-4.4-14.1 2.2-25.9 15.3-27.5 50-22.6 53-22.1zM32.3 240.8s-3.3.6-5.7-1.2c-1.4-1-2.4-2.7-2.7-5 0 0-.1-.3-.1-.9 0-.2 0-.5.1-.8 0-.2.1-.4.1-.6l.1-.5v-.1c.8-3.2 3.6-7.2 12.1-9.6.8 1.6 3 6.5 3 10.8 0 4.5-2.3 7-6.9 7.9zm10.9 2.4c-.5.1-1-.1-1.3-.4-.9-.9-1.3-3.1-1.3-5.2 0-.6 0-1.3.1-1.8l.1-.7v-.4c.1-.5.2-1 .2-1.5l.6.9c0 .1 0 .1.1.2 1.8 2.2 2.9 6.6 2.1 8.4-.1.4-.4.5-.6.5zm-3.7-23.4c2.2-.5 9.6-1.6 13.8 1.6 2.2 1.7 3.1 4.4 2.9 8.1 0 .2-.3 3.8-2.7 5.8-1.3 1-3 1.4-5.1 1.1-.4-.1-8.6-1-8.9-16.6zm-21.3 14.3c-1 .4-1.9.1-2.4-.4-.2-.2-.4-.5-.5-.7v-.2c0-.2-.1-.5 0-.7.2-.6 1-1.5 3.4-2.9h.1c1.7-.9 3.6-1.7 4.9-2.1h.1c.2-.1.5-.1.7-.2a11.8 11.8 0 0 0-2.2 4.5c-.5.4-2.1 1.9-4.1 2.7zM54 219.6c-1-.7-2.1-1.2-3.4-1.6 1.5-.4 2.9-1 4-1.7h.1c1.9-.6 4.2-.3 5.1.7.5.5.6 1.2.2 2.1-.9 2.3-5.9.5-6 .5zm75.1 20.1c-27.4-9.5-43.8.8-48.2 4.2-.1-1.2 0-2.8.6-4.6.3-.8.7-1.5 1.1-2.1 2.1-2.9 5.9-4.6 11.4-5 .3 0 .4-.2.4-.5.2 0 .4-.2.4-.5 0-.2-.2-.4-.4-.5 0-.2-.2-.4-.4-.4-.3 0-7.2-.8-10.8-2.7 2.1-1.7 7.7-5.1 17.1-2.3.3.1.5-.1.6-.3v-.1c.2 0 .4-.1.5-.3.1-.2 0-.5-.3-.6 0-.2-.2-.4-.4-.4-.5-.2-5-1.8-6.7-8 2.4-.3 8.4-.8 13.1 2.5.1.1 6.6 5.7 8.6 6.4.6.3 3.8 1.8 6 .7.3-.2.5-.4.6-.6 0-.1.1-.2.1-.2.3-.2.5-.5.7-1 .1-.1.3-.2.3-.5 0-.2 0-.8-.1-1.5 0-.2-.1-.4-.2-.5 0-.1 0-.1-.1-.2-.1-.2-.1-.4-.3-.7-1.3-1.7-4.1-2.4-8.2-2.3 0 0-3.3.2-5.5-2-.6-.6-1.1-1.5-1.5-2.8l-.1-.3c-.1-.1-.1-.3-.1-.5-.3-1.2-.4-2.4-.3-3.8 1.4 0 4.6.3 6.9 2.4.2.2.5.2.7 0l.2-.2c.2.1.4 0 .5-.1.2-.2.2-.4.1-.6 0-.1 0-.3-.1-.4-.1-.1-9.2-9.9-3.2-20.1 1.7 1 5.7 4.4 5.9 13.5 0 .3.2.5.5.5h.9c.3 0 .5-.2.5-.4 0-.1.8-7.3 4.6-10 1-.8 2.3-1.1 3.6-1-.9 5-3.2 24.6 14.8 34.9.1.1 13.5 7.5 27.4-4.3.3-.2 6.3-5.9 6.3-13 0-3.7-1.6-7-4.7-10-.2-1.4-.9-2.6-1.9-3.5-1.7-1.5-4.5-1.8-6.8.8-.2.2-.2.5 0 .7l.7.6c.1.1.2.1.4.1.1 0 .2-.1.3-.2 1.6-1.8 3.2-1.5 4.2-.6 1.4 1.2 1.9 3.6.2 5.6-2 2.4-7 4.7-12.1 1-3.1-2.3-4.4-6.4-3.2-10.7 1.2-4.3 5.1-9.6 12.4-10.4 12.1-1.3 20.1 9.4 21.8 20.7 2.6 17.4-10.6 30.3-17.9 34.8-10.8 6.7-24.5 7-40.9 1.3zM14.3 188.3l.9-.8c.1-.1.2-.4.1-.5-.1-.2-.3-.3-.5-.3l-1.2.1c-2.1.1-3.6-.3-4.6-1.3-.4-.4-.7-.9-.8-1.4 2.3.6 4.8.2 7.5-1.2 1.8-.9 3.3-1.8 4.7-3.1.1-.1.2-.2.4-.3.1-.1.2-.1.3-.2.5-.4 1-.8 1.6-1l.6-.3c1.9-.8 3.3-.5 3.8-.3.1.4.3.8.5 1.1.3.5.8 1 1.5 1.3.1 1.7-2 3.9-4.5 4.6-3.2.9-5 2-5 2-4.7 2.4-5.8 6.9-6.1 9.5-.8-1-1.3-2-1.3-3-.2-2.6 2-4.8 2.1-4.9zm23 31.9c-.1-.2-.3-.3-.5-.2l-.3.1c-1 .3-1.9.5-2.9.9 1.3-1.2 2-2.2 2-2.2l.2-.3c.1-.2.1-.4 0-.6l-.2-.3c-.4-.6-.8-1.1-1.3-1.6.9.4 1.5.6 1.5.6l.3.1c.2.1.4 0 .6-.2l.2-.3c.7-1 1.4-2 1.9-3-.1 1-.1 1.8-.1 2.3v2c0 .1.1.2.1.3-.3.1-.5.1-.6.1l-.3.1c-.2.1-.4.3-.4.5v.4c0 .7 0 1.3.1 1.9-.2-.3-.3-.5-.3-.5v-.1zm54.9-5.1c.2 1.1.5 2.1 1 3.2-4.7-2.5-15.2-9.4-31.5-27.4 2.4-.6 4.8-.5 6.8.2 11.2 15.4 20 21.6 23.6 23.7l.1.3zm-44.2-14h.2c1.2-.1 2.6 0 4 .3.2.1 5.5 1.5 5.5 6.4 0 .8-.1 1.7-.4 2.6 0 .1-2.4 8.4-16.6 6.1v-.9c0-3 .4-10.3 4.3-13.3.8-.6 1.8-1 3-1.2zm39.7-7.4c-1.6 1.6-4.2 1.6-5.7 0-.8-.8-1.2-1.8-1.2-2.9s.4-2.1 1.2-2.9c.3-.3.8-.6 1.3-.8.5-.3 1.1-.3 1.7-.3h.1c1 .1 1.9.5 2.6 1.1 1.5 1.6 1.5 4.3 0 5.8zm-63.3 10.1v-.4c0-.3.1-.6.2-1l.1-.3c.4-1.2.9-2.3 1.8-3.3 0 0 1.2-1.4 3-2.1 2.3-.8 4.7-.3 7 1.7.1.1 2.8 2.3 2.8 6.7 0 2.9-1.2 6.1-3.6 9.5-2-.9-11-5.2-11.3-10.8zm-6.3 7.4c1.8-.8 8.1-2.7 15.5 6.9-1.6 1.8-7.2 7.7-12.4 7.3-2.3-.1-4.3-1.5-6-4.2 0 0-1.1-1.9-1.2-4.2v-.2c0-.8.3-1.7.8-2.6l.6-.9c.5-.6 1.1-1.1 1.8-1.6l.3-.3.3-.3c0 .2.1.1.3.1zm6.6-2.1c-.8-.3-1.6-.4-2.2-.5h-.1c-.6-.2-4.6-2-4.1-4.6.1-.1.2-.4.5-.7.1-.1.2-.2.3-.2.3-.1 1.6 0 4.1 3.3.3.9.8 1.8 1.5 2.7zm19.1-8.2c-1.2.9-2 2.1-2.6 3.3-.1-.8-.3-1.4-.5-2.1v-.4c0-.1 0-.3-.1-.4v-.5c.1-1.2.7-4 2.9-4.7.5-.1.8.1 1.2.4.8.8 1.2 2.4 1 3.5-.1 0-.1 0-.2.1-.5.2-1.2.4-1.7.8zm67.1 265l-3.5.2c2.4-3.1 4.2-6.3 5.4-9.3l.1-.1c1.2-1.3 2.3-1.9 3.5-1.9 1.2 0 2 .9 2 1 .5.6.7 1.1.6 1.9-.6 3.4-7.4 7.8-8.1 8.2zm48.9 33c-6.6-5.7-19.2-10.1-19.7-10.3-.4-.1-.8-.3-1.2-.4l-.9-.3c-.3-.1-.5-.2-.8-.2-.7-.2-1.4-.4-2.2-.5-.6-.1-1.1-.2-1.7-.3l-2.1-.3c-.8-.1-1.7-.2-2.8-.3-.5 0-.9-.1-1.4-.1-1.3-.1-2.6-.1-4.2 0h-.3c-7.9.4-16 2.4-24.2 6.1-16.9 7.7-34.9 5.8-35.7 5.7-19.4-2.7-28.4-10.6-32.5-16.9-2.4-3.6-3-6.6-3.2-7.4v-.3c0-.2-4.6-20.7 9.2-32.6.5-.5 12.5-12.2 25.1-2.3 10.1 12.8-1.6 24.8-2.1 25.3-4.8 5.6-11.4 8.8-19.8 9.7-1.5-2.2-2.7-4.5-3.4-7.2 3.8.4 13.4.4 19.3-6.9.1-.1 6.6-7.7 1-15.6l-.2-.2c-7.9-5.6-15.4 1-15.5 1-9.3 7.4-6.8 20.7-6.8 20.8 4.9 22.9 31 19.4 31.3 19.4 11.5-2.1 17.4-7.2 17.1-14.9 0-1-.3-1.9-.7-3 0-.1-.1-.2-.2-.3l-.1-.2c-.2-.5-.5-1-.9-1.6-.3-.4-.5-.7-.9-1.1-.2-.2-.4-.4-.6-.7l-1.3-1.3-.2-.1c-2.1-1.7-4.2-2.9-5.4-3.5 3.5-3.1 6.9-4.4 10.1-3.8 6.2 1.1 9.8 9 9.8 9 .1.2.4.3.6.2l.8-.3c.2-.1.4-.4.3-.6-.3-.9-.5-1.8-.6-2.8v-.1c-.1-2.2.6-3.7 1.1-4.5 1.3.9 4.3 3.3 6.1 8.7.2.8.4 1.5.5 2.4v.5c.2 5.5-4.8 7.9-5 8l-.7.4c-2.4 1.3-6.8 3.6-7.3 6.2-.2.8 0 1.6.5 2.3.8 1 1.7 1.5 2.7 1.4 2.6-.1 4.8-3.6 6.1-5.5.2-.3.4-.6.5-.7.2-.3.4-.6.7-1 1-1.5 2.7-4 4.9-5.6 8.7-6.4 14.8-5.8 17.1-5.1l-7.1 9.5c-.1.2-.1.5.1.6.2.2.4.2.6 0l2.7-2.2c9.3-7.4 21.5-4.6 24.8-3.7-1.1 4.3-6 6-6.2 6.1-.2.1-.4.3-.3.6l.3.9c.1.3.3.4.6.3 12-3.4 18.4 1 20.1 2.5-2.1 2.4-7 2.4-7.2 2.4-.2 0-.5.2-.5.4l-.1.9c0 .2.1.5.4.5 10.2 2.4 11.6 9.6 11.6 12.9zM100 455.1c-1.1-2.4-1.4-4.2-.8-5.3.4-.7 1.1-.9 1.1-.9 2.4-.3 3.5 2 3.9 3 1.5 4.9 1.1 9.7-1.1 14.5h-.6v-.6c-.4-5.8-2.5-10.6-2.5-10.7zm-75 17.6c-1.4-.4-2.8-1-4.3-1.8-1.2-.7-2.4-1.4-3.6-2.3l-.1-.1c-1.4-1.1-2.7-2.3-3.9-3.7l-.4.3.2-.5c-.5-.6-1-1.3-1.5-1.9-.3-.3-.5-.7-.8-1.1-.3-.5-.6-.9-.9-1.4-.5-.7-.9-1.5-1.3-2.2-.2-.3-.3-.6-.5-.8-.7-1.3-1.2-2.4-1.7-3.7-1.9-4.7-3.3-10.1-4.1-16.1 0-.2-2.1-18.7 5.7-35.8 9.6-21.1 5.8-36.1 3.7-41.6-.1-.2-2.1-6.2-5.2-12.1l-.1-.1c-.6-1.1-1.1-2.1-1.7-3-.3-.5-.6-.9-.9-1.3l-.5-.7-.6-.9c-.5-.6-.9-1.2-1.4-1.7 3.3 0 10.5 1.4 12.9 11.5.1.2.2.4.5.4h.1l.9-.1c.2 0 .4-.2.4-.5 0-.1-.1-5.1 2.4-7.2 1.5 1.8 5.9 8.1 2.5 20.1-.1.3.1.5.3.6l.9.3c.2.1.5-.1.6-.3.1-.2 1.7-5.1 6-6.2.9 3.3 3.7 15.6-3.6 24.8l-2.2 2.7c-.2.2-.1.5 0 .6.2.2.4.2.6.1l9.5-7.1c.7 2.4 1.4 8.4-5.1 17.2-1.6 2.2-4.1 3.9-5.6 4.9-.4.3-.8.5-1 .7-.1.1-.4.3-.7.5-1.9 1.2-5.4 3.5-5.5 6.1 0 1 .4 1.9 1.4 2.7.7.5 1.4.7 2.3.5 2.6-.6 5-5 6.2-7.3l.4-.7c.1-.2 2.5-5 7.7-5h.7c.9.1 1.6.2 2.4.5 5.4 1.7 7.8 4.7 8.7 6.1-.4.3-1.2.6-2.2.9l.1.5-.3-.4c-.5.1-1.1.2-1.8.1-.9 0-1.9-.1-3.2-.6h-.2c-.2-.1-.5 0-.6.3l-.3.8c-.1.2 0 .5.2.6.3.1 7.9 3.7 9 9.8.6 3.2-.7 6.6-3.9 10.1-.3-.5-.7-1.3-1.2-2.2-.1-.1-.2-.3-.3-.4l-.2-.3c-.2-.3-.4-.7-.7-1l-.9-1.2c-.2-.2-.3-.4-.5-.6-.3-.4-.7-.8-1.2-1.3-.1-.1-.3-.3-.5-.4-.5-.4-1-.8-1.5-1.1-.2-.1-.3-.2-.5-.3l-.2-.1c-.5-.3-1-.5-1.5-.7-.6-.2-1.3-.4-2.2-.5 0 0-.2-.1-.3-.1h-1.5c-7 .4-11.7 6.3-13.6 17-.1.7-2.3 17.6 9.3 26.6 0 5.2.5 9.4.9 11.1zm19.7-84c.1 0 .2-.1.2-.1 1.5-.3 4.2-.6 5.5 1.9 0 .1.3.7 0 1.4-.3.8-1.2 1.4-2.6 2-5.3-1.4-9.9-.6-13.4.7 3.4-2.7 6.9-4.7 10.3-5.9zm-.3-6.9s.9.8.9 2c0 1.1-.6 2.2-1.9 3.5l-.1.1c-3.1 1.2-6.3 3-9.4 5.5l.2-3.4v-.3c1.7-2.8 5.4-7.7 8.3-8.1.8 0 1.4.2 2 .7 0 0-.1 0 0 0zM33.5 397c4.8-2.3 9.7-2.7 14.6-1.2 1 .4 3.4 1.5 3.1 3.9 0 0-.1.7-.9 1.1-.4.2-1.1.3-1.9.2-.1 0-.3 0-.4-.1-.6-.1-1.4-.4-2.4-.8-.1 0-.2-.1-.3-.1-.1 0-.1 0-.2-.1-.2-.1-5.1-2.2-11-2.5h-.6v-.4zm72 68.7c1.3-3.5 2.1-8.1.7-13.4.5-1.4 1.2-2.3 2-2.6.7-.3 1.2-.1 1.4 0 2.5 1.4 2.3 4.1 2 5.5 0 .1-.1.1-.1.3-1.3 3.3-3.3 6.8-6 10.2zM87.8 306.3c1.6 1.6 1.6 4.2 0 5.7-.7.7-1.7 1.2-2.8 1.2-.2 0-.3 0-.5-.1l-.3-.1c-.9-.2-1.7-.5-2.2-1.1-1.6-1.6-1.6-4.2 0-5.7 1.6-1.4 4.2-1.4 5.8.1zm86.8 21.4c-18.2 29.9-12.7 48.1-12.7 48.3l.5-.1-.4.3c.6 2.8 1.9 12.4-5 18.2 0 0-2.6 2.1-6.4 2.2h-.3c-.9 0-1.9-.2-2.8-.4h-.1c-1.9-.6-3.5-1.6-4.8-3.1-3.7-4.3-3.6-11.1-2.7-14.4v-.1c0-.2 2.9-16.2 34.7-50.9zm-69-38.4c-.1.7-.1 1.3-.1 2-8.3 5.8-13.8 12-15.9 14.4-.2-.2-.3-.5-.5-.7-.2-.2-.4-.3-.5-.4 1.8-2.1 9.5-10.8 17-15.3zm20.8 29.2c7.5 0 14.7 4 15.1 4.1.2.1.4.1.5.2.1 0 .3.1.3.1l.4.2h.3c5.4 2.1 10.7 3.2 15.6 3.2 4.1 0 8.1-.7 12-2-26.3 15.7-43.2 12.7-45.6 12.1h-.1s-.2-.1-.6-.1c-5.9-1.4-8.8-6.7-8.8-6.7-.9-2-1-3.9-.4-5.5 1.1-2.8 4.2-4.1 4.3-4.2 2.1-.9 4.4-1.4 7-1.4zm-13.8 69c-.2-.3-.4-.6-.7-1-1.4-2.8-1.5-7.1-1.5-7.1.1-10.8 10.5-16.7 11.6-17.3 2-.4 16.5-3.8 47.4-31.3-27.5 30.9-30.9 45.4-31.3 47.4-.5 1-6.4 11.5-17.2 11.6-.3 0-1.6-.1-3.1-.3-2.4-.5-4.2-1.2-5.2-2zm6.5-49.9c2.2 0 4 .3 4.8.5h.2c.3.1 2.9.8 7.5.8 7.1 0 21.6-1.9 41-13.7-16.5 15.2-28.4 23.5-35.7 27.9-6.4 3.8-10.7 5.6-13.2 6.5l-2.3.6c-1.2.3-2.7.5-4.3.5-1 0-3.7-.1-6.4-1.1l-.2-.1c-.1 0-.2-.1-.3-.1-.4-.2-.8-.4-1.3-.7-.4-.2-.8-.5-1.2-.8l-.1-.1c-.2-.2-.5-.3-.7-.5-.5-.4-.9-.9-1.2-1.4l-.3-.3-.3-.3c-.2-.2-.3-.5-.4-.8-.1-.2-.1-.3-.2-.5-.1-.1-.1-.3-.2-.4-.1-.2-.2-.5-.3-.8-1.7-5.6 1.6-9.6 1.7-9.8 3.9-4.4 9.4-5.4 13.4-5.4zM15.4 268c-.2-.6 0-1.2.5-1.7s1.4-.9 2.4-.4c1.9.8 3.5 2.3 4 2.7.2.9.5 1.7.9 2.5.3.7.8 1.4 1.5 2.1-.2-.1-.5-.1-.7-.2 0 0-.1-.1-.2-.1-1-.3-3.5-1.3-5.6-2.6 0 0-.1 0-.1-.1-.7-.3-2.4-1.3-2.7-2.2zm27.1 58.5c-.1.3-.1.4 0 .6l.1.1c-4.9.5-12.9.4-13.7-3 0-.1-.2-1.1.3-1.9.5-.7 1.3-1.1 2.6-1.3.1-.1 5.1-.7 10.7 5.5zM163.6 375c-.6-2.4-3.6-19.3 12.2-45.7-2.3 7-3.3 16.5 1.1 27.8 0 .1 0 .3.1.4l.1.2c.1.1.1.3.1.4.1.2.1.4.2.6.1.1 6.9 12.6 2.7 21.9-.1.2-2 4.6-6.3 4.7h-.2c-1.1 0-2.1-.3-3.2-.7-.1 0-5.3-2.9-6.7-8.8-.1-.4-.1-.6-.1-.6v-.2zm17.7-40.8c.9 8.2 6.9 12.7 11.8 14 .2.1.4.1.6.1h.2c2.6 2.6 3.8 5.3 3.7 8-.2 4.1-3.7 7-3.7 7-2 1.2-4 1.6-6.1 1.1-4.7-1.2-8.3-6.5-8.9-7.5-5.3-13.5-2.8-24.2.3-30.9 1.7-3.6 3.9-6.9 6.5-9.8l.9-.9 1.1-1.1s3.4-2.6 8.6-5l.2 3.3c-8.3 3.1-16.4 10.5-15.2 21.7zM23.9 265.3c.8-5.1 4.3-6.2 7.1-6.2.8 0 1.3.1 1.3.1 3.1.6 5.1 1.9 6.2 4 2.3 4.9-1.2 12.5-2.3 14.7-13.8-3.8-12.3-12.2-12.3-12.6zm17-.9c-.2-2.1-.1-6 1.2-7.3.4-.4.8-.5 1.3-.4.2 0 .4.1.6.6.8 1.8-.3 6.3-2.1 8.4 0 .1-.1.1-.1.2-.2.3-.5.6-.7 1 0-.8-.1-1.5-.3-2.3.1 0 .1-.1.1-.2zM79 309.1c0 .1 0 .1 0 0 0 1.6.6 3.1 1.7 4.2.4.4.9.8 1.5 1 .1 1.9 0 10.3-9.9 14.9-.2.1-18.6 6.9-21.4 8.1-1.4.6-3.6 1.9-5.8 3.3-.1 0-.2.1-.3.2-3.3 2.3-6 4.7-8.1 7.1 0-1.6.9-5 6.7-10.2l1.7-1.5c.2-.2.2-.4.1-.6-.1-.2-.4-.3-.6-.2l-3.8 1.3c.6-2.2 2.5-5.7 8-6.2.6 0 1-.1 1-.1.2-.1.4-.3.4-.5l-.1-.9c0-.3-.3-.4-.5-.4-.3 0-.6 0-.8.1-.9 0-2.7-.4-4.3-2.2.9-1.2 4.1-4.5 13.3-1.8.3.1 7.3 1.5 11.1-1.1 1.3-.9 2.1-2.2 2.3-3.9 0-.1.1-2-1.2-3.3-.9-.9-2.2-1.2-3.9-.9-.2 0-5.3.8-7.2 7.6-.4-.1-.7-.1-.7-.1-1.8-.5-3.4-.8-5.2-.9.3-4.3 4.3-5.3 4.3-5.3l1.3-.3c.2 0 .3-.2.4-.4 0-.2-.1-.4-.3-.5l-1.2-.5c-3.1-1.3-4.8-3-5.2-4.9-.4-1.8.6-3.6 1.3-4.7.9 1.4 2.7 3.8 5.6 4.9 2 .8 3.9 1.1 5.6 1.1 2.3 0 4.3-.6 5.6-1.3.2-.1 5.3-2.5 8.6-1.1zm129.7 85.5c.6 0 1.3 0 2-.1-4.5 7.5-13.3 15.3-15.2 17-.1-.2-.2-.4-.4-.5-.2-.2-.5-.4-.7-.6 2.3-2 8.4-7.5 14.3-15.8zM15.4 313.1c.1-.2 0-.4-.1-.5l-.9-.8s-2.3-2.3-2.2-5c.1-1.1.5-2.1 1.3-3 .2 2.7 1.4 7.1 6 9.5.3.2 2.2 1.1 5 2 2.5.7 4.6 2.9 4.5 4.6-.6.4-1.1.8-1.5 1.3-.2.3-.4.7-.5 1.1-.8.3-3.4.8-6.7-2.1-4.3-3.8-8.4-5.2-12.1-4.3.1-.4.4-.9.8-1.3 1-1 2.5-1.4 4.6-1.3l1.2.1c.3 0 .5-.1.6-.3zM182.3 262c1.5-1.3 4.2-3.1 7.7-3.1 3.2 0 6.4 1.5 9.6 4.5.1.1 9.7 9.1 0 24.1-.1.2-.1.5.1.6l.7.5c.1.1.2.1.3.1.1 0 .3-.1.4-.2 4.4-4.8 5.8-7.4 8.5-11.9l.2-.4c.6-1 1.2-2.1 2-3.4 4-6.7 12.6-10.2 25.5-10.2 0 12.9-3.4 21.5-10.2 25.5-1.4.8-2.6 1.5-3.7 2.1l-.1.1c-4.6 2.6-7.1 4.1-11.9 8.5-.2.2-.2.5-.1.7l.5.7c.2.2.4.2.7.1 4.5-2.9 8.8-4.4 13-4.4 6.7 0 10.6 3.9 11.1 4.4 3.2 3.4 4.7 6.9 4.5 10.3-.2 3.2-1.9 5.7-3.1 7.1-1.5-5.8-7.5-9.5-7.7-9.6-5.2-3.3-11-5-17.1-5-10.2 0-19.3 4.8-23.7 7.5 1.9-3 4.6-8.1 6.2-14.2 2.5-9.8 1.3-18.8-3.7-26.6-.2-.3-3.9-6.3-9.7-7.8zm-99.6.8c-1.7-2.3-1.8-5.1-1.7-6.7 1.8 1.4 5.5 4 11.2 5.9 3.8 1.3 8.8 2.3 15.1 2.3 6.2 0 13.5-1 22-4 16.4-5.7 30.2-5.4 40.8 1.1 7.3 4.4 20.5 17.4 17.9 34.8-1.7 11.3-9.7 22-21.8 20.7-7.3-.8-11.2-6.1-12.4-10.4-1.2-4.3.1-8.4 3.2-10.7 1.7-1.3 3.6-1.9 5.5-1.9 3 0 5.4 1.6 6.6 2.9 1.7 2.1 1.2 4.4-.2 5.6-1 .9-2.7 1.2-4.2-.6-.1-.1-.2-.2-.3-.2-.1 0-.3 0-.4.1l-.7.6c-.2.2-.2.5 0 .7 2.3 2.6 5.1 2.3 6.8.8 1-.9 1.7-2.1 1.9-3.5 3.1-3 4.7-6.3 4.7-10 0-7.2-6-12.8-6.3-13.1-13.9-11.8-27.2-4.3-27.3-4.3-18 10.3-15.8 29.9-14.8 34.9-1.3.1-2.6-.2-3.6-1-3.7-2.7-4.5-10-4.6-10 0-.2-.2-.4-.4-.4h-.2c-.1 0-.1 0-.2.1h-.5c-.3 0-.5.2-.5.5-.1 9.2-4.1 12.5-5.9 13.5-5.9-10 2.9-19.7 3.2-20.1.1-.2.2-.4.1-.6.1-.2 0-.4-.1-.5-.1-.1-.3-.2-.5-.1l-.1-.1c-.2-.2-.5-.2-.7 0-2.3 2-5.3 2.3-6.9 2.4-.2-3.3.5-5.7 2-7.3 2.2-2.2 5.5-2 5.5-2 4.1.1 6.8-.7 8.1-2.3 1.1-1.3.8-2.7.8-2.9-.1-.3-.3-.5-.4-.6l-.1-.1c-.2-.3-.4-.6-.5-.7 0 0-.1-.1-.1-.2-.1-.2-.2-.5-.5-.6-2.3-1.1-5.9.7-5.9.7-2 .8-8.6 6.4-8.6 6.4-4.8 3.3-10.8 2.9-13.2 2.5 1.6-6.2 6.2-7.8 6.7-8 .2-.1.4-.3.3-.6.2-.1.2-.3.1-.5s-.2-.3-.4-.3v-.1c0-.1-.2-.2-.3-.3-.1-.1-.3-.1-.4 0-9.3 2.8-15-.6-17.1-2.3 3.7-1.9 10.7-2.7 10.8-2.7.3 0 .4-.2.4-.5.2-.1.3-.3.3-.5s-.1-.3-.3-.4c0-.2-.2-.4-.4-.4-5.6-.4-9.4-2.1-11.5-5zM.8 284.7C4.1 272.6 15.3 272 17.1 272h.1c.6.4 1.3.7 2.1 1.1-.9.3-1.7.7-2.4 1.2h-.2c-3.6 0-7.3 1.7-10.1 4.7-3.3 3.5-4.8 8.1-4.4 13.1.9 9.9 7.2 15.7 8.4 16.7.3 1.1.8 2.1 1.3 2.7-.7.1-1.3.3-1.9.5-2.2-2-13-13.4-9.2-27.3zm172 170.2c-.3-.4-.6-.8-1-1.3l-.3-.6-.1-.1c-.2-.6-.3-1.1-.3-1.5 0-.3 0-.6.1-.9 0-.3-.2-.5-.4-.5l-.9-.1c-.3 0-.5.1-.5.4 0 0-.1.4-.1 1-.5 5.6-4 7.4-6.2 8.1l1.3-3.8c.1-.2 0-.5-.2-.6-.2-.1-.5-.1-.6.1l-1.5 1.7c-5.2 5.8-8.5 6.8-10.1 6.7 2.5-2.1 4.9-4.8 7.1-8.1l.2-.2c1.5-2.2 2.8-4.4 3.4-5.9 1.2-2.8 8-21.2 8-21.3 4.7-10.1 13.1-10.1 14.9-10 .3.6.6 1.1 1 1.5 1.1 1.1 2.6 1.7 4.2 1.7 1.4 3.3-1.1 8.5-1.1 8.5-1.3 2.5-2.1 6.7-.2 11.3 1.2 2.9 3.5 4.7 4.9 5.6-.9.6-2.6 1.5-4.3 1.3-1.3-.2-2.5-1-3.5-2.3-.6-.8-1.2-1.9-1.8-3.1v-.1l-.4-.9c-.1-.2-.3-.3-.5-.3s-.4.2-.4.4l-.3 1.3c0 .2-1 4-5.3 4.4-.1-1.8-.4-3.5-.9-5.2 0 0-.1-.3-.1-.8 6.5-1.9 7.5-6.7 7.6-7.2.1-1 0-1.9-.4-2.8-.1-.3-.2-.6-.4-.8 0-.1-.1-.2-.2-.3-.1-.1-.2-.2-.4-.3-.5-.4-1.1-.7-1.6-.8h-.5c-.4-.1-.8-.1-.9 0-1.6.2-2.9 1-3.8 2.3-2.7 3.9-1.1 11.1-1.1 11.2 2.6 9.1-.6 12.3-1.8 13.2l-.5-.5-.1-.4c0 .1 0 0 0 0zm-39.6-2.3c-12.8-3.2-22.4-10.3-28.4-21.1-.8-1.4-1.5-2.8-2-4.2-4-9.8-2.2-17.1 0-21.5 3.7-7.5 11.4-12.3 17-13.1 7.5-1.1 13.6 1.3 18.2 7 3.5 4.3 3.8 12.7.7 17.9-1 1.6-2.8 3.7-5.9 4.3-.5.1-.9.1-1.4.1-.5 0-1.1 0-1.6-.1h-.7c-.4-.1-.7-.2-1-.3-.2-.1-.4-.1-.6-.2l-.3-.1c-.6-.2-1.2-.4-1.7-.6-.7-.4-1.3-.9-1.8-1.3l-.3-.2c-.2-.2-.4-.3-.6-.5-.4-.5-.8-1-1.1-1.5-.3-.5-.5-.9-.7-1.4l-.3-.9c-.3-1-.4-1.8-.4-2.5 0-3.2 1.5-5.6 3.8-6.1 1.6-.3 3.7.3 4.8 1.5.8.9 1.1 2 .7 3.2v.4c.1.1.2.2.3.2l.9.2c.3.1.5-.1.6-.3.7-2.4-.3-4-1.1-5-1.5-1.6-4.2-2.5-6.5-2.1-.3.1-.5.2-.7.3-1.3-.6-2.5-.9-3.7-.8-3.8.1-6.1 3.4-6.2 3.5-.3.3-7 7.8 2.8 22.9 8.9 13.6 21.6 16.7 23.9 17.2.4.6.8 1.4 1.3 2.1.1.1.2.2.3.2.1 0 .3 0 .4-.1l.7-.5c.2-.2.3-.5.1-.7-.6-.8-1.1-1.6-1.5-2.3v-.1l-.1-.3c-.1-.1-.1-.2-.1-.3 0-.1-.1-.2-.1-.3-.4-.8-.5-1.5-.7-2.1-.3-1.4-.2-2.6.1-3.6 1-3.1 4.2-5 6.1-5.8-.2 4.2.9 7.4 3.3 9.6 3.7 3.4 9.4 3.2 12.4 2.9-.5 1.2-.8 2.1-1 2.6-.5 1.2-1.7 3.3-3.1 5.4-1.2.2-8.2 1.2-16.9.2-.4 0-.8-.1-1.3-.2h-.3c-.7-.1-1.5-.2-2.2-.3-1-.2-2-.4-3.1-.7l-.4-.1c-.3-.4-.5-.4-.6-.5zm44.6 18.3c-.7.4-1.4.4-1.7.4-.6-.1-1.1-.4-1.6-1-.3-.4-.6-.9-.9-1.6-.1-.3-.3-.6-.4-1l-.1-.2c-.7-2.9-.6-6.8-.3-9.9l.1.1c.1.1.2.1.3.1h.3c6.2 5.5 5.6 10.6 5.6 10.7-.2 1-.6 1.9-1.3 2.4zm50.2 12c0 .1 0 .1 0 0 0 1.3-.4 13-12.8 16.4-2.4.7-5 .8-8 .6-.3 0-.6-.1-.9-.1-.5 0-1-.1-1.5-.2h-.1c-.1 0-.1 0-.2-.1-8.8-1.9-15.1-8-16.5-9.4.2-.6.4-1.2.5-1.9.7.4 1.6.8 2.5 1.1.4.4 6.3 7.7 16.9 8.6 4.9.4 9.7-1.1 13.1-4.4 3-2.9 4.8-6.7 4.7-10.3.6-.8 1-1.6 1.2-2.4.4.8.8 1.5 1.1 2.1zM37.7 281v.3c0 .2.1.4.4.5l.3.1s.2.1.6.1c-.1.1-.1.2-.1.3v.3s-.1 1.7 0 4.1c-.5-1-1.2-2.1-1.9-3.1l-.2-.3c-.1-.2-.4-.2-.6-.2l-.3.1s-.6.2-1.5.6c.4-.5.8-1 1.2-1.6l.2-.3c.1-.2.1-.4 0-.6l-.2-.3s-.8-.9-2-2.2c.9.3 1.8.6 2.8.9l.3.1c.2.1.4 0 .5-.2l.2-.3s.1-.2.3-.5c.1.8 0 1.5 0 2.2zm-15.3 10.4c.8-.1 1.5-.2 2.3-.4-.6.8-1.1 1.7-1.5 2.6l-.1.1c-2.5 3.2-3.7 3.3-4.1 3.3-.5-.1-.8-.7-.8-.7-.6-2.8 3.7-4.7 4.2-4.9zm23-10.6c-2.5 0-4.7-.4-5.7-.6.2-15.6 8.5-16.5 8.9-16.6.4-.1.9-.1 1.3-.1 5.7 0 6.4 6.3 6.4 7 .2 3.2-.5 5.6-2 7.3-1.9 2-4.9 3-8.9 3zm-11.7 1.1c-4.9 6.3-9.3 7.7-12.1 7.7-2.3 0-3.8-.9-3.9-1-1.9-1.1-3.1-2.5-3.5-4.2-.7-2.9 1-5.7 1.1-5.7 1.7-2.8 3.9-4.2 6.4-4.2 5.1 0 10.5 5.6 12 7.4zm2.2 3.5c7.4 10.8 1 16 .7 16.2-1.6 1.4-3.2 2-4.9 2-3 0-5.1-2.4-5.2-2.5-1.8-2.1-2.4-4.1-1.9-6.2 1.4-4.9 9-8.5 11.3-9.5zm25.9 23.8C78.3 290.9 89 284 93.3 281.8c-.5 1-.8 2.1-1 3.2l-.1.3c-3.6 2.1-12.4 8.3-23.6 23.7-2 .7-4.4.8-6.8.2zm-21.1-10.5s0-.1.1-.1c.1-.2.1-.3.2-.5.2-.6.3-1.3.3-2.1.5.8 1 1.6 1.6 2.2.8.9 1.8 1.6 3.1 2 .2 1.1-.3 2.5-1 3.3-.5.6-1 .5-1.3.5-2.8-.8-3-4.9-3-5.3zm150.2 5.2c-2.4 5.2-5 8.5-5 8.5l-1.3 1.3c-.3.3-.6.6-1 .9-4.1 3.7-12.8 9.8-25 9.8-4.9 0-10.1-1.1-15.4-3.2-1.5-.9-6.4-4.4-7.5-8.9-.5-2.1-.2-4.1 1-6 0 0 2.9-3.5 7-3.8 2.7-.1 5.4 1.1 8 3.7v.2c0 .2 0 .4.1.6 1.3 4.9 5.7 10.9 14 11.8.7.1 1.5.1 2.2.1 8.5 0 15.8-5.7 19.6-15.2l3.3.2zM54.1 280.4c.1 0 5.1-1.8 6 .5.4.8.3 1.5-.2 2.1-.6.7-1.8 1.1-3.1 1.1-.7 0-1.4-.1-2-.3-1.2-.8-2.7-1.4-4.4-1.8 1.3-.4 2.4-.8 3.3-1.5.2-.1.3-.1.4-.1zm3.2 9.2c.6 2.1.5 4-.3 5.5-1.5 2.6-4.7 3.5-4.8 3.5-1.1.3-2.1.4-3 .4-2.1 0-3.8-.7-5.1-2.1-3.4-3.7-3.5-11.1-3.5-13.4 1.7-.3 3.3-.4 4.8-.4 10.1 0 11.8 6.2 11.9 6.5zm-11 52.6c2.1-1.4 4.1-2.6 5.4-3.1.5-.2 1.4-.6 2.6-1-.4 3-.5 8.6 2.9 12.4 2 2.2 4.9 3.3 8.6 3.3h1c-.9 1.9-2.7 5-5.8 6.1-2.6.9-5.7 0-9.1-2.5-.2-.2-.5-.1-.7.1l-.5.7c-.1.1-.1.2-.1.4 0 .1.1.2.2.3.6.4 1.1.7 1.6 1 .1.1.3.2.4.2.4 2 3.4 15 17.2 24 5.4 3.6 10.5 5.4 15 5.4 5.2 0 7.8-2.4 7.8-2.4.1 0 5.7-3.9 2.8-9.9v-.1c.1-.2.2-.4.3-.7.4-2.2-.4-5-2.1-6.5-1-.9-2.6-1.8-5-1.2-.1 0-.2.1-.3.2-.1.1-.1.2 0 .4l.2.9c0 .1.1.2.2.3.1.1.2.1.4 0 1.3-.3 2.4-.1 3.2.7 1.2 1.1 1.8 3.1 1.5 4.8-.4 2.3-2.9 3.8-6.1 3.8-3.7 0-8.4-2.2-9.6-8.5-1-5.4 1.7-8.3 4.2-9.8 5.2-3.1 13.5-2.8 17.8.7 5.7 4.6 8 10.7 7 18.2-.8 5.6-5.5 13.3-13 17-5.3 2.6-14.1 4.4-25.9-2.2-27.5-15.3-22.6-50-22.1-53zm194.5 125.5s.6 3.3-1.2 5.7c-1 1.4-2.7 2.4-5 2.7 0 0-.3.1-.9.1-.2 0-.5 0-.8-.1-.2 0-.4-.1-.6-.1l-.5-.1h-.1c-3.2-.8-7.2-3.6-9.6-12.1 1.6-.8 6.5-3 10.8-3 4.5 0 7 2.3 7.9 6.9zm2.4-10.9c.1.5-.1 1-.4 1.3-.9.9-3.1 1.3-5.2 1.3-.6 0-1.3 0-1.8-.1l-.7-.1h-.4c-.5-.1-1-.2-1.5-.2l.9-.6c.1 0 .1 0 .2-.1 2.2-1.8 6.6-2.9 8.4-2.1.4.1.5.4.5.6zm-23.4 3.7c-.5-2.2-1.6-9.6 1.6-13.8 1.7-2.2 4.4-3.1 8.1-2.9.2 0 3.8.3 5.8 2.7 1 1.3 1.4 3 1.1 5.1-.1.4-1 8.6-16.6 8.9zm14.3 21.3c.4 1 .1 1.9-.4 2.4-.2.2-.5.4-.7.5h-.2c-.2 0-.5.1-.7 0-.6-.2-1.5-1-2.9-3.4v-.1c-.9-1.7-1.7-3.6-2.1-4.9v-.1c0-.2-.1-.5-.2-.7 1.4 1.1 2.9 1.8 4.5 2.2.4.5 1.9 2.1 2.7 4.1zM219.6 446c-.7 1-1.2 2.1-1.6 3.4-.4-1.5-1-2.9-1.7-4v-.1c-.6-1.9-.3-4.2.7-5.1.5-.5 1.2-.6 2.1-.2 2.3.9.5 5.9.5 6zm20.1-75.1c-9.5 27.4.8 43.8 4.2 48.2-1.2.1-2.8 0-4.6-.6-.8-.3-1.5-.7-2.1-1.1-2.9-2.1-4.6-5.9-5-11.4 0-.3-.2-.4-.5-.5 0-.2-.2-.4-.5-.4-.2 0-.4.2-.5.4-.2 0-.4.2-.4.4 0 .3-.8 7.2-2.7 10.8-1.7-2.1-5.1-7.7-2.3-17.1.1-.3-.1-.5-.3-.6h-.1c0-.2-.1-.4-.3-.5-.2-.1-.5 0-.6.3-.2 0-.4.2-.4.4-.2.5-1.8 5-8 6.7-.3-2.4-.8-8.4 2.5-13.1.1-.1 5.7-6.6 6.4-8.6.3-.6 1.8-3.8.7-6-.2-.3-.4-.5-.6-.6-.1 0-.2-.1-.2-.1-.2-.3-.5-.5-1-.7-.1-.1-.2-.3-.5-.3-.2 0-.8 0-1.5.1-.2 0-.4.1-.5.2-.1 0-.1 0-.2.1-.2.1-.4.1-.7.3-1.7 1.3-2.4 4.1-2.3 8.2 0 0 .2 3.3-2 5.5-.6.6-1.5 1.1-2.8 1.5l-.3.1c-.1.1-.3.1-.5.1-1.2.3-2.4.4-3.8.3 0-1.4.3-4.6 2.4-6.9.2-.2.2-.5 0-.7l-.2-.2c.1-.2 0-.4-.1-.5-.2-.2-.4-.2-.6-.1-.1 0-.3 0-.4.1-.1.1-9.9 9.2-20.1 3.2 1-1.7 4.4-5.7 13.5-5.9.3 0 .5-.2.5-.5v-.9c0-.3-.2-.5-.4-.5-.1 0-7.3-.8-10-4.6-.8-1-1.1-2.3-1-3.6 5 .9 24.6 3.2 34.9-14.8.1-.1 7.5-13.5-4.3-27.4-.2-.3-5.9-6.3-13-6.3-3.7 0-7 1.6-10 4.7-1.4.2-2.6.9-3.5 1.9-1.5 1.7-1.8 4.5.8 6.8.2.2.5.2.7 0l.6-.7c.1-.1.1-.2.1-.4 0-.1-.1-.2-.2-.3-1.8-1.6-1.5-3.2-.6-4.2 1.2-1.4 3.6-1.9 5.6-.2 2.4 2 4.7 7 1 12.1-2.3 3.1-6.4 4.4-10.7 3.2-4.3-1.2-9.6-5.1-10.4-12.4-1.3-12.1 9.4-20.1 20.7-21.8 17.4-2.6 30.3 10.6 34.8 17.9 6.7 10.9 7 24.6 1.3 41zm-51.4 114.8l-.8-.9c-.1-.1-.4-.2-.5-.1-.2.1-.3.3-.3.5l.1 1.2c.1 2.1-.3 3.6-1.3 4.6-.4.4-.9.7-1.4.8.6-2.3.2-4.8-1.2-7.5-.9-1.8-1.8-3.3-3.1-4.7-.1-.1-.2-.2-.3-.4-.1-.1-.1-.2-.2-.3-.4-.5-.8-1-1-1.6l-.3-.6c-.8-1.9-.5-3.3-.3-3.8.4-.1.8-.3 1.1-.5.5-.3 1-.8 1.3-1.5 1.7-.1 3.9 2 4.6 4.5.9 3.2 2 5 2 5 2.4 4.7 6.9 5.8 9.5 6.1-1 .8-2 1.3-3 1.3-2.6.2-4.8-2-4.9-2.1zm31.9-23c-.2.1-.3.3-.2.5l.1.3c.3 1 .5 1.9.9 2.9-1.2-1.3-2.2-2-2.2-2l-.3-.2c-.2-.1-.4-.1-.6 0l-.3.2c-.6.4-1.1.8-1.6 1.3.4-.9.6-1.5.6-1.5l.1-.3c.1-.2 0-.4-.2-.6l-.3-.2c-1-.7-2-1.4-3-1.9 1 .1 1.8.1 2.3.1h2c.1 0 .2-.1.3-.1.1.3.1.5.1.6l.1.3c.1.2.3.4.5.4h.4c.7 0 1.3 0 1.9-.1-.3.2-.5.3-.5.3h-.1zm-5.1-54.9c1.1-.2 2.1-.5 3.2-1-2.5 4.7-9.4 15.2-27.4 31.5-.6-2.4-.5-4.8.2-6.8 15.4-11.2 21.6-20 23.7-23.6l.3-.1zm-14 44.2v-.2c-.1-1.2 0-2.6.3-4 .1-.2 1.5-5.5 6.4-5.5.8 0 1.7.1 2.6.4.1 0 8.4 2.4 6.1 16.6h-.9c-3 0-10.3-.4-13.3-4.3-.6-.8-1-1.8-1.2-3zm-7.4-39.7c1.6 1.6 1.6 4.2 0 5.7-.8.8-1.8 1.2-2.9 1.2-1.1 0-2.1-.4-2.9-1.2-.3-.3-.6-.8-.8-1.3-.3-.5-.3-1.1-.3-1.7v-.1c.1-1 .5-1.9 1.1-2.6 1.6-1.5 4.3-1.5 5.8 0zm10.1 63.3h-.4c-.3 0-.6-.1-1-.2l-.3-.1c-1.2-.4-2.3-.9-3.3-1.8 0 0-1.4-1.2-2.1-3-.8-2.3-.3-4.7 1.7-7 .1-.1 2.3-2.8 6.7-2.8 2.9 0 6.1 1.2 9.5 3.6-.9 2-5.2 11-10.8 11.3zm7.4 6.3c-.8-1.8-2.7-8.1 6.9-15.5 1.8 1.6 7.7 7.2 7.3 12.4-.1 2.3-1.5 4.3-4.2 6 0 0-1.9 1.1-4.2 1.2h-.2c-.8 0-1.7-.3-2.6-.8l-.9-.6c-.6-.5-1.1-1.1-1.6-1.8l-.3-.3-.3-.3c.2 0 .1-.1.1-.3zm-2.1-6.6c-.3.8-.4 1.6-.5 2.2v.1c-.2.6-2 4.6-4.6 4.1-.1-.1-.4-.2-.7-.5-.1-.1-.2-.2-.2-.3-.1-.3 0-1.6 3.3-4.1.9-.3 1.8-.8 2.7-1.5zm-8.2-19.1c.9 1.2 2.1 2 3.3 2.6-.8.1-1.4.3-2.1.5h-.4c-.1 0-.3 0-.4.1h-.5c-1.2-.1-4-.7-4.7-2.9-.1-.5.1-.8.4-1.2.8-.8 2.4-1.2 3.5-1 0 .1 0 .1.1.2.2.5.4 1.2.8 1.7zm265-67.1l.2 3.5c-3.1-2.4-6.3-4.2-9.3-5.4l-.1-.1c-1.3-1.2-1.9-2.3-1.9-3.5 0-1.2.9-2 1-2 .6-.5 1.1-.7 1.9-.6 3.4.6 7.8 7.4 8.2 8.1zm33-48.9c-5.7 6.6-10.1 19.2-10.3 19.7-.1.4-.3.8-.4 1.2l-.3.9c-.1.3-.2.5-.2.8-.2.7-.4 1.4-.5 2.2-.1.6-.2 1.1-.3 1.7l-.3 2.1c-.1.8-.2 1.7-.3 2.8 0 .5-.1.9-.1 1.4-.1 1.3-.1 2.6 0 4.2v.3c.4 7.9 2.4 16 6.1 24.2 7.7 16.9 5.8 34.9 5.7 35.7-2.7 19.4-10.6 28.4-16.9 32.5-3.6 2.4-6.6 3-7.4 3.2h-.3c-.2 0-20.7 4.6-32.6-9.2-.5-.5-12.2-12.5-2.3-25.1 12.8-10.1 24.8 1.6 25.3 2.1 5.6 4.8 8.8 11.4 9.7 19.8-2.2 1.5-4.5 2.7-7.2 3.4.4-3.8.4-13.4-6.9-19.3-.1-.1-7.7-6.6-15.6-1l-.2.2c-5.6 7.9 1 15.4 1 15.5 7.4 9.3 20.7 6.8 20.8 6.8 22.9-4.9 19.4-31 19.4-31.3-2.1-11.5-7.2-17.4-14.9-17.1-1 0-1.9.3-3 .7-.1 0-.2.1-.3.2l-.2.1c-.5.2-1 .5-1.6.9-.4.3-.7.5-1.1.9-.2.2-.4.4-.7.6l-1.3 1.3-.1.2c-1.7 2.1-2.9 4.2-3.5 5.4-3.1-3.5-4.4-6.9-3.8-10.1 1.1-6.2 9-9.8 9-9.8.2-.1.3-.4.2-.6l-.3-.8c-.1-.2-.4-.4-.6-.3-.9.3-1.8.5-2.8.6h-.1c-2.2.1-3.7-.6-4.5-1.1.9-1.3 3.3-4.3 8.7-6.1.8-.2 1.5-.4 2.4-.5h.5c5.5-.2 7.9 4.8 8 5l.4.7c1.3 2.4 3.6 6.8 6.2 7.3.8.2 1.6 0 2.3-.5 1-.8 1.5-1.7 1.4-2.7-.1-2.6-3.6-4.8-5.5-6.1-.3-.2-.6-.4-.7-.5-.3-.2-.6-.4-1-.7-1.5-1-4-2.7-5.6-4.9-6.4-8.7-5.8-14.8-5.1-17.1l9.5 7.1c.2.1.5.1.6 0 .2-.2.2-.4 0-.6l-2.2-2.7c-7.4-9.3-4.6-21.5-3.7-24.8 4.3 1.1 6 6 6 6.2.1.2.3.4.6.3l.9-.3c.3-.1.4-.3.3-.6-3.4-12 1-18.4 2.5-20.1 2.4 2.1 2.4 7 2.4 7.2 0 .2.2.5.4.5l.9.1c.2 0 .5-.1.5-.4 2.5-10.3 9.7-11.7 13-11.7zM455.1 400c-2.4 1.1-4.2 1.4-5.3.8-.7-.4-.9-1.1-.9-1.1-.3-2.4 2-3.5 3-3.9 4.9-1.5 9.7-1.1 14.5 1.1v.6h-.6c-5.8.4-10.6 2.5-10.7 2.5zm17.6 75c-.4 1.4-1 2.8-1.8 4.3-.7 1.2-1.4 2.4-2.3 3.6l-.1.1c-1.1 1.4-2.3 2.7-3.7 3.9l.3.4-.5-.2c-.6.5-1.3 1-1.9 1.5-.4.3-.7.5-1.1.8-.5.3-.9.6-1.4.9-.7.5-1.5.9-2.2 1.3-.3.2-.6.3-.8.5-1.3.7-2.4 1.2-3.7 1.7-4.7 1.9-10.1 3.3-16.1 4.1-.2 0-18.7 2.1-35.8-5.7-21.1-9.6-36.1-5.8-41.6-3.7-.2.1-6.2 2.1-12.1 5.2l-.1.1c-1.1.6-2.1 1.1-3 1.7-.5.3-.9.6-1.3.9l-.7.5-.9.6c-.6.5-1.2.9-1.7 1.4 0-3.3 1.4-10.5 11.5-12.9.2-.1.4-.2.4-.5v-.1l-.1-.9c0-.2-.2-.4-.5-.4-.1 0-5.1.1-7.2-2.4 1.8-1.5 8.1-5.9 20.1-2.5.3.1.5-.1.6-.3l.3-.9c.1-.2-.1-.5-.3-.6-.2-.1-5.1-1.7-6.2-6 3.3-.9 15.6-3.7 24.8 3.6l2.7 2.2c.2.2.5.1.6 0 .2-.2.2-.4.1-.6l-7.1-9.5c2.4-.7 8.4-1.4 17.2 5.1 2.2 1.6 3.9 4.1 4.9 5.6.3.4.5.8.7 1 .1.1.3.4.5.7 1.2 1.9 3.5 5.4 6.1 5.5 1 0 1.9-.4 2.7-1.4.5-.7.7-1.4.5-2.3-.6-2.6-5-5-7.3-6.2l-.7-.4c-.2-.1-5-2.5-5-7.7v-.7c.1-.9.2-1.6.5-2.4 1.7-5.4 4.7-7.8 6.1-8.7.3.4.6 1.2.9 2.2l.5-.1-.4.3c.1.5.2 1.1.1 1.8 0 .9-.1 1.9-.6 3.2v.2c-.1.2.1.5.3.6l.8.3c.2.1.5 0 .6-.2.1-.3 3.7-7.9 9.8-9 3.2-.6 6.6.7 10.1 3.9-.5.3-1.3.7-2.2 1.2-.1.1-.3.2-.4.3l-.3.2c-.3.2-.7.4-1 .7l-1.2.9c-.2.2-.4.3-.6.5-.4.3-.8.7-1.3 1.2-.1.1-.3.3-.4.5-.4.5-.8 1-1.1 1.5-.1.2-.2.3-.3.5l-.1.2c-.3.5-.5 1-.7 1.5-.2.6-.4 1.3-.5 2.2 0 0-.1.2-.1.3v1.5c.4 7 6.3 11.7 17 13.6.7.1 17.6 2.3 26.6-9.3 5.2 0 9.4-.5 11.1-.9zm-84-19.7c0-.1-.1-.2-.1-.2-.3-1.5-.6-4.2 1.9-5.5.1 0 .7-.3 1.4 0 .8.3 1.4 1.2 2 2.6-1.4 5.3-.6 9.9.7 13.4-2.7-3.4-4.7-6.9-5.9-10.3zm-6.9.3s.8-.9 2-.9c1.1 0 2.2.6 3.5 1.9l.1.1c1.2 3.1 3 6.3 5.5 9.4l-3.4-.2h-.3c-2.8-1.7-7.7-5.4-8.1-8.3 0-.8.2-1.4.7-2 0 0 0 .1 0 0zm15.2 10.9c-2.3-4.8-2.7-9.7-1.2-14.6.4-1 1.5-3.4 3.9-3.1 0 0 .7.1 1.1.9.2.4.3 1.1.2 1.9 0 .1 0 .3-.1.4-.1.6-.4 1.4-.8 2.4 0 .1-.1.2-.1.3 0 .1 0 .1-.1.2-.1.2-2.2 5.1-2.5 11v.6h-.4zm68.7-72c-3.5-1.3-8.1-2.1-13.4-.7-1.4-.5-2.3-1.2-2.6-2-.3-.7-.1-1.3 0-1.4 1.4-2.5 4.1-2.3 5.5-2 .1 0 .1.1.3.1 3.3 1.3 6.8 3.3 10.2 6zm-159.4 17.7c1.6-1.6 4.2-1.6 5.7 0 .7.7 1.2 1.7 1.2 2.8 0 .2 0 .3-.1.5l-.1.3c-.2.9-.5 1.7-1.1 2.2-1.6 1.6-4.2 1.6-5.7 0-1.4-1.6-1.4-4.2.1-5.8zm21.4-86.8c29.9 18.2 48.1 12.7 48.3 12.7l-.1-.5.3.4c2.8-.6 12.4-1.9 18.2 5 0 0 2.1 2.6 2.2 6.4v.3c0 .9-.2 1.9-.4 2.8v.1c-.6 1.9-1.6 3.5-3.1 4.8-4.3 3.7-11.1 3.6-14.4 2.7h-.1c-.2 0-16.2-2.9-50.9-34.7zm-38.4 69c.7.1 1.3.1 2 .1 5.8 8.3 12 13.8 14.4 15.9-.2.2-.5.3-.7.5-.2.2-.3.4-.4.5-2.1-1.8-10.8-9.5-15.3-17zm29.2-20.8c0-7.5 4-14.7 4.1-15.1.1-.2.1-.4.2-.5 0-.1.1-.3.1-.3l.2-.4v-.3c2.1-5.4 3.2-10.7 3.2-15.6 0-4.1-.7-8.1-2-12 15.7 26.3 12.7 43.2 12.1 45.6v.1s-.1.2-.1.6c-1.4 5.9-6.7 8.8-6.7 8.8-2 .9-3.9 1-5.5.4-2.8-1.1-4.1-4.2-4.2-4.3-.9-2.1-1.4-4.4-1.4-7zm69 13.8c-.3.2-.6.4-1 .7-2.8 1.4-7.1 1.5-7.1 1.5-10.8-.1-16.7-10.5-17.3-11.6-.4-2-3.8-16.5-31.3-47.4 30.9 27.5 45.4 30.9 47.4 31.3 1 .5 11.5 6.4 11.6 17.2 0 .3-.1 1.6-.3 3.1-.5 2.4-1.2 4.2-2 5.2zm-49.9-6.5c0-2.2.3-4 .5-4.8v-.2c.1-.3.8-2.9.8-7.5 0-7.1-1.9-21.6-13.7-41 15.2 16.5 23.5 28.4 27.9 35.7 3.8 6.4 5.6 10.7 6.5 13.2l.6 2.3c.3 1.2.5 2.7.5 4.3 0 1-.1 3.7-1.1 6.4l-.1.2c0 .1-.1.2-.1.3-.2.4-.4.8-.7 1.3-.2.4-.5.8-.8 1.2l-.1.1c-.2.2-.3.5-.5.7-.4.5-.9.9-1.4 1.2l-.3.3-.3.3c-.2.2-.5.3-.8.4-.2.1-.3.1-.5.2-.1.1-.3.1-.4.2-.2.1-.5.2-.8.3-5.6 1.7-9.6-1.6-9.8-1.7-4.4-3.9-5.4-9.4-5.4-13.4zM268 484.6c-.6.2-1.2 0-1.7-.5s-.9-1.4-.4-2.4c.8-1.9 2.3-3.5 2.7-4 .9-.2 1.7-.5 2.5-.9.7-.3 1.4-.8 2.1-1.5-.1.2-.1.5-.2.7 0 0-.1.1-.1.2-.3 1-1.3 3.5-2.6 5.6 0 0 0 .1-.1.1-.3.7-1.3 2.4-2.2 2.7zm58.5-27.1c.3.1.4.1.6 0l.1-.1c.5 4.9.4 12.9-3 13.7-.1 0-1.1.2-1.9-.3-.7-.5-1.1-1.3-1.3-2.6-.1-.1-.7-5.1 5.5-10.7zM375 336.4c-2.4.6-19.3 3.6-45.7-12.2 7 2.3 16.5 3.3 27.8-1.1.1 0 .3 0 .4-.1l.2-.1c.1-.1.3-.1.4-.1.2-.1.4-.1.6-.2.1-.1 12.6-6.9 21.9-2.7.2.1 4.6 2 4.7 6.3v.2c0 1.1-.3 2.1-.7 3.2 0 .1-2.9 5.3-8.8 6.7-.4.1-.6.1-.6.1h-.2zm-40.8-17.7c8.2-.9 12.7-6.9 14-11.8.1-.2.1-.4.1-.6v-.2c2.6-2.6 5.3-3.8 8-3.7 4.1.2 7 3.7 7 3.7 1.2 2 1.6 4 1.1 6.1-1.2 4.7-6.5 8.3-7.5 8.9-13.5 5.3-24.2 2.8-30.9-.3-3.6-1.7-6.9-3.9-9.8-6.5l-.9-.9-1.1-1.1s-2.6-3.4-5-8.6l3.3-.2c3.1 8.3 10.5 16.4 21.7 15.2zm-68.9 157.4c-5.1-.8-6.2-4.3-6.2-7.1 0-.8.1-1.3.1-1.3.6-3.1 1.9-5.1 4-6.2 4.9-2.3 12.5 1.2 14.7 2.3-3.8 13.8-12.2 12.3-12.6 12.3zm-.9-17c-2.1.2-6 .1-7.3-1.2-.4-.4-.5-.8-.4-1.3 0-.2.1-.4.6-.6 1.8-.8 6.3.3 8.4 2.1.1 0 .1.1.2.1.3.2.6.5 1 .7-.8 0-1.5.1-2.3.3 0-.1-.1-.1-.2-.1zm44.7-38.1c.1 0 .1 0 0 0 1.6 0 3.1-.6 4.2-1.7.4-.4.8-.9 1-1.5 1.9-.1 10.3 0 14.9 9.9.1.2 6.9 18.6 8.1 21.4.6 1.4 1.9 3.6 3.3 5.8 0 .1.1.2.2.3 2.3 3.3 4.7 6 7.1 8.1-1.6 0-5-.9-10.2-6.7l-1.5-1.7c-.2-.2-.4-.2-.6-.1-.2.1-.3.4-.2.6l1.3 3.8c-2.2-.6-5.7-2.5-6.2-8 0-.6-.1-1-.1-1-.1-.2-.3-.4-.5-.4l-.9.1c-.3 0-.4.3-.4.5 0 .3 0 .6.1.8 0 .9-.4 2.7-2.2 4.3-1.2-.9-4.5-4.1-1.8-13.3.1-.3 1.5-7.3-1.1-11.1-.9-1.3-2.2-2.1-3.9-2.3-.1 0-2-.1-3.3 1.2-.9.9-1.2 2.2-.9 3.9 0 .2.8 5.3 7.6 7.2-.1.4-.1.7-.1.7-.5 1.8-.8 3.4-.9 5.2-4.3-.3-5.3-4.3-5.3-4.3l-.3-1.3c-.1-.2-.2-.3-.4-.4-.2 0-.4.1-.5.3l-.5 1.2c-1.3 3.1-3 4.8-4.9 5.2-1.8.4-3.6-.6-4.7-1.3 1.4-.9 3.8-2.7 4.9-5.6.8-2 1.1-3.9 1.1-5.6 0-2.3-.6-4.3-1.3-5.6-.1-.2-2.5-5.3-1.1-8.6zm85.5-129.7c0-.6 0-1.3-.1-2 7.5 4.5 15.3 13.3 17 15.2-.2.1-.4.2-.5.4-.2.2-.4.5-.6.7-2-2.3-7.5-8.4-15.8-14.3zm-81.5 193.3c-.2-.1-.4 0-.5.1l-.8.9s-2.3 2.3-5 2.2c-1.1-.1-2.1-.5-3-1.3 2.7-.2 7.1-1.4 9.5-6 .2-.3 1.1-2.2 2-5 .7-2.5 2.9-4.6 4.6-4.5.4.6.8 1.1 1.3 1.5.3.2.7.4 1.1.5.3.8.8 3.4-2.1 6.7-3.8 4.3-5.2 8.4-4.3 12.1-.4-.1-.9-.4-1.3-.8-1-1-1.4-2.5-1.3-4.6l.1-1.2c0-.3-.1-.5-.3-.6zM262 317.7c-1.3-1.5-3.1-4.2-3.1-7.7 0-3.2 1.5-6.4 4.5-9.6.1-.1 9.1-9.7 24.1 0 .2.1.5.1.6-.1l.5-.7c.1-.1.1-.2.1-.3 0-.1-.1-.3-.2-.4-4.8-4.4-7.4-5.8-11.9-8.5l-.4-.2c-1-.6-2.1-1.2-3.4-2-6.7-4-10.2-12.6-10.2-25.5 12.9 0 21.5 3.4 25.5 10.2.8 1.4 1.5 2.6 2.1 3.7l.1.1c2.6 4.6 4.1 7.1 8.5 11.9.2.2.5.2.7.1l.7-.5c.2-.2.2-.4.1-.6-2.9-4.5-4.4-8.8-4.4-13 0-6.7 3.9-10.6 4.4-11.1 3.4-3.2 6.9-4.7 10.3-4.5 3.2.2 5.7 1.9 7.1 3.1-5.8 1.5-9.5 7.5-9.6 7.7-3.3 5.2-5 11-5 17.1 0 10.2 4.8 19.3 7.5 23.7-3-1.9-8.1-4.6-14.2-6.2-9.8-2.5-18.8-1.3-26.6 3.7-.3.1-6.3 3.8-7.8 9.6zm.8 99.6c-2.3 1.7-5.1 1.8-6.7 1.7 1.4-1.8 4-5.5 5.9-11.2 1.3-3.8 2.3-8.8 2.3-15.1 0-6.2-1-13.5-4-22-5.7-16.4-5.4-30.2 1.1-40.8 4.4-7.3 17.4-20.5 34.8-17.9 11.3 1.7 22 9.7 20.7 21.8-.8 7.3-6.1 11.2-10.4 12.4-4.3 1.2-8.4-.1-10.7-3.2-1.3-1.7-1.9-3.6-1.9-5.5 0-3 1.6-5.4 2.9-6.6 2.1-1.7 4.4-1.2 5.6.2.9 1 1.2 2.7-.6 4.2-.1.1-.2.2-.2.3 0 .1 0 .3.1.4l.6.7c.2.2.5.2.7 0 2.6-2.3 2.3-5.1.8-6.8-.9-1-2.1-1.7-3.5-1.9-3-3.1-6.3-4.7-10-4.7-7.2 0-12.8 6-13.1 6.3-11.8 13.9-4.3 27.2-4.3 27.3 10.3 18 29.9 15.8 34.9 14.8.1 1.3-.2 2.6-1 3.6-2.7 3.7-10 4.5-10 4.6-.2 0-.4.2-.4.4v.2c0 .1 0 .1.1.2v.5c0 .3.2.5.5.5 9.2.1 12.5 4.1 13.5 5.9-10 5.9-19.7-2.9-20.1-3.2-.2-.1-.4-.2-.6-.1-.2-.1-.4 0-.5.1-.1.1-.2.3-.1.5l-.1.1c-.2.2-.2.5 0 .7 2 2.3 2.3 5.3 2.4 6.9-3.3.2-5.7-.5-7.3-2-2.2-2.2-2-5.5-2-5.5.1-4.1-.7-6.8-2.3-8.1-1.3-1.1-2.7-.8-2.9-.8-.3.1-.5.3-.6.4l-.1.1c-.3.2-.6.4-.7.5 0 0-.1.1-.2.1-.2.1-.5.2-.6.5-1.1 2.3.7 5.9.7 5.9.8 2 6.4 8.6 6.4 8.6 3.3 4.8 2.9 10.8 2.5 13.2-6.2-1.6-7.8-6.2-8-6.7-.1-.2-.3-.4-.5-.3-.1-.2-.3-.2-.5-.1s-.3.2-.3.4h-.1c-.1 0-.2.2-.3.3-.1.1-.1.3 0 .4 2.8 9.3-.6 15-2.3 17.1-1.9-3.7-2.7-10.7-2.7-10.8 0-.3-.2-.4-.5-.4-.1-.2-.3-.3-.5-.3s-.3.1-.4.3c-.2 0-.4.2-.4.4-.5 5.6-2.2 9.4-5.1 11.5zm21.9 81.9c-12.1-3.3-12.7-14.5-12.8-16.3v-.1c.4-.6.7-1.3 1.1-2.1.3.9.7 1.7 1.2 2.4v.2c0 3.6 1.7 7.3 4.7 10.1 3.5 3.3 8.1 4.8 13.1 4.4 9.9-.9 15.7-7.2 16.7-8.4 1.1-.3 2.1-.8 2.7-1.3.1.7.3 1.3.5 1.9-1.9 2.2-13.3 13-27.2 9.2zm170.2-172c-.4.3-.8.6-1.3 1l-.6.3-.1.1c-.6.2-1.1.3-1.5.3-.3 0-.6 0-.9-.1-.3 0-.5.2-.5.4l-.1.9c0 .3.1.5.4.5 0 0 .4.1 1 .1 5.6.5 7.4 4 8.1 6.2l-3.8-1.3c-.2-.1-.5 0-.6.2-.1.2-.1.5.1.6l1.7 1.5c5.8 5.2 6.8 8.5 6.7 10.1-2.1-2.5-4.8-4.9-8.1-7.1l-.2-.2c-2.2-1.5-4.4-2.8-5.9-3.4-2.8-1.2-21.2-8-21.3-8-10.1-4.7-10.1-13.1-10-14.9.6-.3 1.1-.6 1.5-1 1.1-1.1 1.7-2.6 1.7-4.2 3.3-1.4 8.5 1.1 8.5 1.1 2.5 1.3 6.7 2.1 11.3.2 2.9-1.2 4.7-3.5 5.6-4.9.6.9 1.5 2.6 1.3 4.3-.2 1.3-1 2.5-2.3 3.5-.8.6-1.9 1.2-3.1 1.8l-.9.4c-.2.1-.3.3-.3.5s.2.4.4.4l1.3.3c.2 0 4 1 4.4 5.3-1.8.1-3.5.4-5.2.9 0 0-.3.1-.8.1-1.9-6.5-6.7-7.5-7.2-7.6-1-.1-1.9 0-2.8.4-.3.1-.6.2-.8.4-.1 0-.2.1-.3.2-.1.1-.2.2-.3.4-.4.5-.7 1.1-.8 1.6v.5c-.1.4-.1.8 0 .9.2 1.6 1 2.9 2.3 3.8 3.9 2.7 11.1 1.1 11.2 1.1 9.1-2.6 12.3.6 13.2 1.8l-.5.5-.5.1c.1 0 0 0 0 0zm-2.3 39.6c-3.2 12.8-10.3 22.4-21.1 28.4-1.4.8-2.8 1.5-4.2 2-9.8 4-17.1 2.2-21.5 0-7.5-3.7-12.3-11.4-13.1-17-1.1-7.5 1.3-13.6 7-18.2 4.3-3.5 12.7-3.8 17.9-.7 1.6 1 3.7 2.8 4.3 5.9.1.5.1.9.1 1.4 0 .5 0 1.1-.1 1.6v.7c-.1.4-.2.7-.3 1-.1.2-.1.4-.2.6l-.1.3c-.2.6-.4 1.2-.6 1.7-.4.7-.9 1.3-1.3 1.8l-.2.3c-.2.2-.3.4-.5.6-.5.4-1 .8-1.5 1.1-.5.3-.9.5-1.4.7l-.9.3c-1 .3-1.8.4-2.5.4-3.2 0-5.6-1.5-6.1-3.8-.3-1.6.3-3.7 1.5-4.8.9-.8 2-1.1 3.2-.7h.4c.1-.1.2-.2.2-.3l.2-.9c.1-.3-.1-.5-.3-.6-2.4-.7-4 .3-5 1.1-1.6 1.5-2.5 4.2-2.1 6.5.1.3.2.5.3.7-.6 1.3-.9 2.5-.8 3.7.1 3.8 3.4 6.1 3.5 6.2.3.3 7.8 7 22.9-2.8 13.6-8.9 16.7-21.6 17.2-23.9.6-.4 1.4-.8 2.1-1.3.1-.1.2-.2.2-.3 0-.1 0-.3-.1-.4l-.5-.7c-.2-.2-.5-.3-.7-.1-.8.6-1.6 1.1-2.3 1.5h-.1l-.3.1c-.1.1-.2.1-.3.1-.1 0-.2.1-.3.1-.8.4-1.5.5-2.1.7-1.4.3-2.6.2-3.6-.1-3.1-1-5-4.2-5.8-6.1 4.2.2 7.4-.9 9.6-3.3 3.4-3.7 3.2-9.4 2.9-12.4 1.2.5 2.1.8 2.6 1 1.2.5 3.3 1.7 5.4 3.1.2 1.2 1.2 8.2.2 16.9 0 .4-.1.8-.2 1.3v.3c-.1.7-.2 1.5-.3 2.2-.2 1-.4 2-.7 3.1l-.1.4c-.4.3-.4.5-.5.6zm18.3-44.6c.5.7.4 1.4.4 1.7-.1.6-.4 1.1-1 1.6-.4.3-.9.6-1.6.9-.3.1-.6.3-1 .4l-.2.1c-2.9.7-6.8.6-9.9.3l.1-.1c.1-.1.1-.2.1-.3v-.3c5.5-6.2 10.6-5.6 10.7-5.6 1 .2 1.9.6 2.4 1.3zm12-50.2c.1 0 .1 0 0 0 1.3 0 13 .4 16.4 12.8.7 2.4.8 5 .6 8 0 .3-.1.6-.1.9 0 .5-.1 1-.2 1.5v.1c0 .1 0 .1-.1.2-1.9 8.8-8 15.1-9.4 16.5-.6-.2-1.2-.4-1.9-.5.4-.7.8-1.6 1.1-2.5.4-.4 7.7-6.3 8.6-16.9.4-4.9-1.1-9.7-4.4-13.1-2.9-3-6.7-4.8-10.3-4.7-.8-.6-1.6-1-2.4-1.2.8-.4 1.5-.8 2.1-1.1zM281 462.3h.3c.2 0 .4-.1.5-.4l.1-.3s.1-.2.1-.6c.1.1.2.1.3.1h.3s1.7.1 4.1 0c-1 .5-2.1 1.2-3.1 1.9l-.3.2c-.2.1-.2.4-.2.6l.1.3s.2.6.6 1.5c-.5-.4-1-.8-1.6-1.2l-.3-.2c-.2-.1-.4-.1-.6 0l-.3.2s-.9.8-2.2 2c.3-.9.6-1.8.9-2.8l.1-.3c.1-.2 0-.4-.2-.5l-.3-.2s-.2-.1-.5-.3c.8-.1 1.5 0 2.2 0zm10.4 15.3c-.1-.8-.2-1.5-.4-2.3.8.6 1.7 1.1 2.6 1.5l.1.1c3.2 2.5 3.3 3.7 3.3 4.1-.1.5-.7.8-.7.8-2.8.6-4.7-3.7-4.9-4.2zm-10.6-23c0 2.5-.4 4.7-.6 5.7-15.6-.2-16.5-8.5-16.6-8.9-.1-.4-.1-.9-.1-1.3 0-5.7 6.3-6.4 7-6.4 3.2-.2 5.6.5 7.3 2 2 1.9 3 4.9 3 8.9zm1.1 11.7c6.3 4.9 7.7 9.3 7.7 12.1 0 2.3-.9 3.8-1 3.9-1.1 1.9-2.5 3.1-4.2 3.5-2.9.7-5.7-1-5.7-1.1-2.8-1.7-4.2-3.9-4.2-6.4 0-5.1 5.6-10.5 7.4-12zm3.5-2.2c10.8-7.4 16-1 16.2-.7 1.4 1.6 2 3.2 2 4.9 0 3-2.4 5.1-2.5 5.2-2.1 1.8-4.1 2.4-6.2 1.9-4.9-1.4-8.5-9-9.5-11.3zm23.8-25.9c-18.4-16.5-25.2-27.3-27.5-31.5 1 .5 2.1.8 3.2 1l.3.1c2.1 3.6 8.3 12.4 23.7 23.6.8 2 .9 4.4.3 6.8zm-10.5 21.1s-.1 0-.1-.1c-.2-.1-.3-.1-.5-.2-.6-.2-1.3-.3-2.1-.3.8-.5 1.6-1 2.2-1.6.9-.8 1.6-1.8 2-3.1 1-.2 2.5.3 3.3 1 .6.5.5 1 .5 1.3-.8 2.8-4.9 3-5.3 3zm5.2-150.2c5.2 2.4 8.5 5 8.5 5l1.3 1.3c.3.3.6.6.9 1 3.7 4.1 9.8 12.8 9.8 25 0 4.9-1.1 10.1-3.2 15.4-.9 1.5-4.4 6.4-8.9 7.5-2.1.5-4.1.2-6-1 0 0-3.5-2.9-3.8-7-.1-2.7 1.1-5.4 3.7-8h.2c.2 0 .4 0 .6-.1 4.9-1.3 10.9-5.7 11.8-14 .1-.7.1-1.5.1-2.2 0-8.5-5.7-15.8-15.2-19.6l.2-3.3zm-23.5 136.8c0-.1-1.8-5.1.5-6 .8-.4 1.5-.3 2.1.2.7.6 1.1 1.8 1.1 3.1 0 .7-.1 1.4-.3 2-.8 1.2-1.4 2.7-1.8 4.4-.4-1.3-.8-2.4-1.5-3.3-.1-.2-.1-.3-.1-.4zm9.2-3.2c2.1-.6 4-.5 5.5.3 2.6 1.5 3.5 4.7 3.5 4.8.3 1.1.4 2.1.4 3 0 2.1-.7 3.8-2.1 5.1-3.7 3.4-11.1 3.5-13.4 3.5-.3-1.7-.4-3.3-.4-4.8 0-10.1 6.2-11.8 6.5-11.9zm52.6 11c-1.4-2.1-2.6-4.1-3.1-5.4-.2-.5-.6-1.4-1-2.6 3 .4 8.6.5 12.4-2.9 2.2-2 3.3-4.9 3.3-8.6v-1c1.9.9 5 2.7 6.1 5.8.9 2.6 0 5.7-2.5 9.1-.2.2-.1.5.1.7l.7.5c.1.1.2.1.4.1.1 0 .2-.1.3-.2.4-.6.7-1.1 1-1.6.1-.1.2-.3.2-.4 2-.4 15-3.4 24-17.2 3.6-5.4 5.4-10.5 5.4-15 0-5.2-2.4-7.8-2.4-7.8 0-.1-3.9-5.7-9.9-2.8h-.1c-.2-.1-.4-.2-.7-.3-2.2-.4-5 .4-6.5 2.1-.9 1-1.8 2.6-1.2 5 0 .1.1.2.2.3.1.1.2.1.4 0l.9-.2c.1 0 .2-.1.3-.2.1-.1.1-.2 0-.4-.3-1.3-.1-2.4.7-3.2 1.1-1.2 3.1-1.8 4.8-1.5 2.3.4 3.8 2.9 3.8 6.1 0 3.7-2.2 8.4-8.5 9.6-5.4 1-8.3-1.7-9.8-4.2-3.1-5.2-2.8-13.5.7-17.8 4.6-5.7 10.7-8 18.2-7 5.6.8 13.3 5.5 17 13 2.6 5.3 4.4 14.1-2.2 25.9-15.3 27.5-50 22.6-53 22.1zm125.5-194.5s3.3-.6 5.7 1.2c1.4 1 2.4 2.7 2.7 5 0 0 .1.3.1.9 0 .2 0 .5-.1.8 0 .2-.1.4-.1.6l-.1.5v.1c-.8 3.2-3.6 7.2-12.1 9.6-.8-1.6-3-6.5-3-10.8 0-4.5 2.3-7 6.9-7.9zm-10.9-2.4c.5-.1 1 .1 1.3.4.9.9 1.3 3.1 1.3 5.2 0 .6 0 1.3-.1 1.8l-.1.7v.4c-.1.5-.2 1-.2 1.5l-.6-.9c0-.1 0-.1-.1-.2-1.8-2.2-2.8-6.6-2.1-8.4.1-.4.4-.5.6-.5zm3.7 23.4c-2.2.5-9.6 1.6-13.8-1.6-2.2-1.7-3.1-4.4-2.9-8.1 0-.2.3-3.8 2.7-5.8 1.3-1 3-1.4 5.1-1.1.4.1 8.6 1 8.9 16.6zm21.3-14.3c1-.4 1.9-.1 2.4.4.2.2.4.5.5.7v.2c0 .2.1.5 0 .7-.2.6-1 1.5-3.4 2.9h-.1c-1.7.9-3.6 1.7-4.9 2.1h-.1c-.2.1-.5.1-.7.2 1.1-1.4 1.8-2.9 2.2-4.5.5-.4 2.1-1.9 4.1-2.7zM446 280.4c1 .7 2.1 1.2 3.4 1.6-1.5.4-2.9 1-4 1.7h-.1c-1.9.6-4.2.3-5.1-.7-.5-.5-.6-1.2-.2-2.1.9-2.3 5.9-.5 6-.5zm-75.1-20.1c27.4 9.5 43.8-.8 48.2-4.2.1 1.2 0 2.8-.6 4.6-.3.8-.7 1.5-1.1 2.1-2.1 2.9-5.9 4.6-11.4 5-.3 0-.4.2-.5.5-.2 0-.4.2-.4.5 0 .2.2.4.4.5 0 .2.2.4.4.4.3 0 7.2.8 10.8 2.7-2.1 1.7-7.7 5.1-17.1 2.3-.3-.1-.5.1-.6.3v.1c-.2 0-.4.1-.5.3-.1.2 0 .5.3.6 0 .2.2.4.4.4.5.2 5 1.8 6.7 8-2.4.3-8.4.8-13.1-2.5-.1-.1-6.6-5.7-8.6-6.4-.6-.3-3.8-1.8-6-.7-.3.2-.5.4-.6.6 0 .1-.1.2-.1.2-.3.2-.5.5-.7 1-.1.1-.3.2-.3.5 0 .2 0 .8.1 1.5 0 .2.1.4.2.5 0 .1 0 .1.1.2.1.2.1.4.3.7 1.3 1.7 4.1 2.4 8.2 2.3 0 0 3.3-.2 5.5 2 .6.6 1.1 1.5 1.5 2.8l.1.3c.1.1.1.3.1.5.3 1.2.4 2.4.3 3.8-1.4 0-4.6-.3-6.9-2.4-.2-.2-.5-.2-.7 0l-.2.2c-.2-.1-.4 0-.5.1-.2.2-.2.4-.1.6 0 .1 0 .3.1.4.1.1 9.2 9.9 3.2 20.1-1.7-1-5.7-4.4-5.9-13.5 0-.3-.2-.5-.5-.5h-.9c-.3 0-.5.2-.5.4 0 .1-.8 7.3-4.6 10-1 .8-2.3 1.1-3.6 1 .9-5 3.2-24.6-14.8-34.9-.1-.1-13.5-7.5-27.4 4.3-.3.2-6.3 5.9-6.3 13 0 3.7 1.6 7 4.7 10 .2 1.4.9 2.6 1.9 3.5 1.7 1.5 4.5 1.8 6.8-.8.2-.2.2-.5 0-.7l-.7-.6c-.1-.1-.2-.1-.4-.1-.1 0-.2.1-.3.2-1.6 1.8-3.2 1.5-4.2.6-1.4-1.2-1.9-3.6-.2-5.6 2-2.4 7-4.7 12.1-1 3.1 2.3 4.4 6.4 3.2 10.7-1.2 4.3-5.1 9.6-12.4 10.4-12.1 1.3-20.1-9.4-21.8-20.7-2.6-17.4 10.6-30.3 17.9-34.8 10.9-6.7 24.6-7 41-1.3zm114.8 51.4l-.9.8c-.1.1-.2.4-.1.5.1.2.3.3.5.3l1.2-.1c2.1-.1 3.6.3 4.6 1.3.4.4.7.9.8 1.4-2.3-.6-4.8-.2-7.5 1.2-1.8.9-3.3 1.8-4.7 3.1-.1.1-.2.2-.4.3-.1.1-.2.1-.3.2-.5.4-1 .8-1.6 1l-.6.3c-1.9.8-3.3.5-3.8.3-.1-.4-.3-.8-.5-1.1-.3-.5-.8-1-1.5-1.3-.1-1.7 2-3.9 4.5-4.6 3.2-.9 5-2 5-2 4.7-2.4 5.8-6.9 6.1-9.5.8 1 1.3 2 1.3 3 .2 2.6-2 4.8-2.1 4.9zm-23-31.9c.1.2.3.3.5.2l.3-.1c1-.3 1.9-.5 2.9-.9-1.3 1.2-2 2.2-2 2.2l-.2.3c-.1.2-.1.4 0 .6l.2.3c.4.6.8 1.1 1.3 1.6-.9-.4-1.5-.6-1.5-.6l-.3-.1c-.2-.1-.4 0-.6.2l-.2.3c-.7 1-1.4 2-1.9 3 .1-1 .1-1.8.1-2.3v-2c0-.1-.1-.2-.1-.3.3-.1.5-.1.6-.1l.3-.1c.2-.1.4-.3.4-.5v-.4c0-.7 0-1.3-.1-1.9.2.3.3.5.3.5v.1zm-54.9 5.1c-.2-1.1-.5-2.1-1-3.2 4.7 2.5 15.2 9.4 31.5 27.4-2.4.6-4.8.5-6.8-.2-11.2-15.4-20-21.6-23.6-23.7l-.1-.3zm44.2 14h-.2c-1.2.1-2.6 0-4-.3-.2-.1-5.5-1.5-5.5-6.4 0-.8.1-1.7.4-2.6 0-.1 2.4-8.4 16.6-6.1v.9c0 3-.4 10.3-4.3 13.3-.8.6-1.8 1-3 1.2zm-39.7 7.4c1.6-1.6 4.2-1.6 5.7 0 .8.8 1.2 1.8 1.2 2.9 0 1.1-.4 2.1-1.2 2.9-.3.3-.8.6-1.3.8-.5.3-1.1.3-1.7.3h-.1c-1-.1-1.9-.5-2.6-1.1-1.5-1.6-1.5-4.3 0-5.8zm63.3-10.1v.4c0 .3-.1.7-.2 1l-.1.3c-.4 1.2-.9 2.3-1.8 3.3 0 0-1.2 1.4-3 2.1-2.3.8-4.7.3-7-1.7-.1-.1-2.8-2.3-2.8-6.7 0-2.9 1.2-6.1 3.6-9.5 2 .9 11 5.2 11.3 10.8zm6.3-7.4c-1.8.8-8.1 2.7-15.5-6.9 1.6-1.8 7.2-7.7 12.4-7.3 2.3.1 4.3 1.5 6 4.2 0 0 1.1 1.9 1.2 4.2v.2c0 .8-.3 1.7-.8 2.6l-.6.9c-.5.6-1.1 1.1-1.8 1.6l-.3.3-.3.3c0-.2-.1-.1-.3-.1zm-6.6 2.1c.8.3 1.6.4 2.2.5h.1c.6.2 4.6 2 4.1 4.6-.1.1-.2.4-.5.7-.1.1-.2.2-.3.2-.3.1-1.6 0-4.1-3.3-.3-.9-.8-1.8-1.5-2.7zm-19.1 8.2c1.2-.9 2-2.1 2.6-3.3.1.8.3 1.4.5 2.1v.4c0 .1 0 .3.1.4v.5c-.1 1.2-.7 4-2.9 4.7-.5.1-.8-.1-1.2-.4-.8-.8-1.2-2.4-1-3.5.1 0 .1 0 .2-.1.5-.2 1.2-.4 1.7-.8z"/></svg>