<?xml version="1.0" encoding="utf-8"?>
<!-- Generator: Adobe Illustrator 22.1.0, SVG Export Plug-In . SVG Version: 6.00 Build 0)  -->
<svg version="1.1" id="Livello_1" xmlns="http://www.w3.org/2000/svg" xmlns:xlink="http://www.w3.org/1999/xlink" x="0px" y="0px"
	 width="500px" height="500px" viewBox="0 0 500 500" style="enable-background:new 0 0 500 500;" xml:space="preserve">
<style type="text/css">
	.st0{fill:#E8DDC5;}
</style>
<path class="st0" d="M381.1,42.3c-0.1,0.7,0.1,1.3,0.6,1.9c0,0,0.8,0.9,2,1c1.1,0,2.3-0.7,3.5-1.9l0.1-0.1c1.2-3,3-6.2,5.4-9.3
	l-3.5,0.2C388.4,34.5,381.6,38.9,381.1,42.3z M340.2,1.1c6.6,5.7,19.2,10.1,19.7,10.3c0.4,0.1,0.8,0.3,1.2,0.4l0.9,0.3
	c0.3,0.1,0.5,0.2,0.8,0.2c0.7,0.2,1.4,0.4,2.2,0.5c0.6,0.1,1.1,0.2,1.7,0.3c0.7,0.1,1.4,0.2,2.1,0.3c0.8,0.1,1.7,0.2,2.8,0.3
	c0.5,0,0.9,0.1,1.4,0.1c1.3,0.1,2.6,0.1,4.2,0l0.3,0c7.9-0.4,16-2.4,24.2-6.1c16.9-7.7,34.9-5.8,35.7-5.7
	c19.4,2.7,28.4,10.6,32.5,16.9c2.4,3.6,3,6.6,3.2,7.4l0,0.2c0,0,0,0.1,0,0.1c0,0.2,4.6,20.7-9.2,32.6c-0.5,0.5-12.5,12.2-25.1,2.3
	c-10.1-12.8,1.6-24.8,2.1-25.3c4.8-5.6,11.4-8.8,19.8-9.7c1.5,2.2,2.7,4.5,3.4,7.2c-3.8-0.4-13.4-0.4-19.3,6.9
	c-0.1,0.1-6.6,7.7-1,15.6l0.2,0.2c7.9,5.6,15.4-1,15.5-1c9.3-7.4,6.8-20.7,6.8-20.8c-4.9-22.9-31-19.4-31.3-19.4
	c-11.5,2.1-17.4,7.2-17.1,14.9c0,1,0.3,1.9,0.7,3c0,0.1,0.1,0.2,0.2,0.3l0.1,0.2c0.2,0.5,0.5,1,0.9,1.6c0.3,0.4,0.5,0.7,0.9,1.1
	c0.2,0.2,0.4,0.4,0.6,0.7c0.5,0.5,0.9,0.9,1.3,1.3c0,0,0.2,0.1,0.2,0.1c2.1,1.7,4.2,2.9,5.4,3.5c-3.5,3.1-6.9,4.4-10.1,3.8
	c-6.2-1.1-9.8-9-9.8-9c-0.1-0.2-0.4-0.3-0.6-0.2l-0.8,0.3c-0.2,0.1-0.4,0.4-0.3,0.6c0.3,0.9,0.5,1.8,0.6,2.8c0,0,0,0.1,0,0.1
	c0.1,2.2-0.6,3.7-1.1,4.5c-1.3-0.9-4.3-3.3-6.1-8.7c-0.2-0.8-0.4-1.5-0.5-2.4l0-0.5c-0.2-5.5,4.8-7.9,5-8l0.7-0.4
	c2.4-1.3,6.8-3.6,7.3-6.2c0.2-0.8,0-1.6-0.5-2.3c-0.8-1-1.7-1.5-2.7-1.4c-2.6,0.1-4.8,3.6-6.1,5.5c-0.2,0.3-0.4,0.6-0.5,0.7
	c-0.2,0.3-0.4,0.6-0.7,1c-1,1.5-2.7,4-4.9,5.6c-8.7,6.4-14.8,5.8-17.2,5.1l7.1-9.5c0.1-0.2,0.1-0.5,0-0.6c-0.2-0.2-0.4-0.2-0.6,0
	l-2.7,2.2c-9.3,7.4-21.5,4.6-24.8,3.7c1.1-4.3,6-6,6.2-6.1c0.2-0.1,0.4-0.3,0.3-0.6l-0.3-0.9c-0.1-0.3-0.3-0.4-0.6-0.3
	c-12,3.4-18.4-1-20.1-2.5c2.1-2.4,7-2.4,7.2-2.4c0.2,0,0.5-0.2,0.5-0.4l0.1-0.9c0-0.2-0.1-0.5-0.4-0.5
	C341.6,11.6,340.2,4.4,340.2,1.1z M400,44.9c1.1,2.4,1.4,4.2,0.8,5.3c-0.4,0.7-1.1,0.9-1.1,0.9c-2.4,0.3-3.5-2-3.9-3
	c-1.5-4.9-1.1-9.7,1.1-14.5l0.6,0c0,0.1,0,0.2,0,0.4l0,0.2C397.9,40,400,44.8,400,44.9z M475,27.3c1.4,0.4,2.8,1,4.3,1.8
	c1.2,0.7,2.4,1.4,3.6,2.3l0.1,0.1c1.4,1.1,2.7,2.3,3.9,3.7l0.4-0.3v0l-0.2,0.5c0.5,0.6,1,1.3,1.5,1.9c0.3,0.3,0.5,0.7,0.8,1.1
	c0.3,0.5,0.6,0.9,0.9,1.4c0.5,0.7,0.9,1.5,1.3,2.2c0.2,0.3,0.3,0.6,0.5,0.8c0.7,1.3,1.2,2.4,1.7,3.7c1.9,4.7,3.3,10.1,4.1,16
	c0,0.2,2.1,18.7-5.7,35.8c-9.6,21.1-5.8,36.1-3.7,41.6c0.1,0.2,2.1,6.2,5.2,12.1c0,0,0.1,0.1,0.1,0.1c0.6,1.1,1.1,2.1,1.7,3
	c0.3,0.5,0.6,0.9,0.9,1.3l0.5,0.7c0.2,0.3,0.4,0.6,0.6,0.9c0.5,0.6,0.9,1.2,1.4,1.7c-3.3,0-10.5-1.4-12.9-11.5
	c-0.1-0.2-0.2-0.4-0.5-0.4c0,0,0,0-0.1,0l-0.9,0.1c-0.2,0-0.4,0.2-0.4,0.5c0,0.1,0.1,5.1-2.4,7.2c-1.5-1.8-5.9-8.1-2.5-20.1
	c0.1-0.3-0.1-0.5-0.3-0.6l-0.9-0.3c-0.2-0.1-0.5,0.1-0.6,0.3c-0.1,0.2-1.7,5.1-6,6.2c-0.9-3.3-3.7-15.6,3.6-24.8l2.2-2.7
	c0.2-0.2,0.1-0.5,0-0.6c-0.2-0.2-0.4-0.2-0.6-0.1l-9.5,7.1c-0.7-2.4-1.4-8.4,5.1-17.2c1.6-2.2,4.1-3.9,5.6-4.9
	c0.4-0.3,0.8-0.5,1-0.7c0.1-0.1,0.4-0.3,0.7-0.5c1.9-1.2,5.4-3.5,5.5-6.1c0-1-0.4-1.9-1.4-2.7c-0.7-0.5-1.4-0.7-2.3-0.5
	c-2.6,0.6-5,5-6.2,7.3l-0.4,0.7c-0.1,0.2-2.5,5-7.7,5c-0.1,0-0.2,0-0.2,0l-0.5,0c-0.9-0.1-1.6-0.2-2.4-0.5c-5.4-1.7-7.8-4.7-8.7-6.1
	c0.4-0.3,1.2-0.6,2.2-0.9l-0.1-0.5l0.3,0.4c0.5-0.1,1.1-0.2,1.8-0.1c0.9,0,1.9,0.1,3.2,0.6c0.1,0,0.1,0,0.2,0c0.2,0.1,0.5,0,0.6-0.3
	l0.3-0.8c0.1-0.2,0-0.5-0.2-0.6c-0.3-0.1-7.9-3.7-9-9.8c-0.6-3.2,0.7-6.6,3.9-10.1c0.3,0.5,0.7,1.3,1.2,2.2c0.1,0.1,0.2,0.3,0.3,0.4
	l0.2,0.3c0.2,0.3,0.4,0.7,0.7,1c0.3,0.4,0.6,0.8,0.9,1.2c0.2,0.2,0.3,0.4,0.5,0.6c0.3,0.4,0.7,0.8,1.2,1.3c0.1,0.1,0.3,0.3,0.5,0.4
	c0.5,0.4,1,0.8,1.5,1.1c0.2,0.1,0.3,0.2,0.5,0.3l0.2,0.1c0.5,0.3,1,0.5,1.5,0.7c0.6,0.2,1.3,0.4,2.2,0.5c0,0,0.2,0.1,0.3,0.1
	c0.1,0,0.1,0,0.2,0c0.2,0,0.3,0,0.5,0c0.1,0,0.2,0,0.3,0c0.1,0,0.3,0,0.5,0c7-0.4,11.7-6.3,13.6-17c0.1-0.7,2.3-17.6-9.3-26.6
	C475.9,33.2,475.4,29,475,27.3z M455.3,111.3c-0.1,0-0.2,0.1-0.2,0.1c-1.5,0.3-4.2,0.6-5.5-1.9c0-0.1-0.3-0.7,0-1.4
	c0.3-0.8,1.2-1.4,2.6-2c5.3,1.4,9.9,0.6,13.4-0.7C462.2,108.1,458.7,110.1,455.3,111.3z M455.6,118.2c0,0-0.9-0.8-0.9-2
	c0-1.1,0.6-2.2,1.9-3.5l0.1-0.1c3.1-1.2,6.3-3,9.4-5.5l-0.2,3.4c0,0,0,0,0,0.1c0,0,0,0,0,0.1c0,0,0,0,0,0.1
	c-1.7,2.8-5.4,7.7-8.3,8.1C456.8,118.9,456.2,118.7,455.6,118.2C455.6,118.2,455.7,118.2,455.6,118.2z M466.5,103
	c-4.8,2.3-9.7,2.7-14.6,1.2c-1-0.4-3.4-1.5-3.1-3.9c0,0,0.1-0.7,0.9-1.1c0.4-0.2,1.1-0.3,1.9-0.2c0.1,0,0.3,0,0.4,0.1
	c0.6,0.1,1.4,0.4,2.4,0.8c0.1,0,0.2,0.1,0.3,0.1c0.1,0,0.1,0,0.2,0.1c0.2,0.1,5.1,2.2,11,2.5c0.1,0,0.1,0,0.2,0c0.1,0,0.3,0,0.4,0
	L466.5,103z M394.5,34.3c-1.3,3.5-2.1,8.1-0.7,13.4c-0.5,1.4-1.2,2.3-2,2.6c-0.7,0.3-1.3,0.1-1.4,0c-2.5-1.4-2.3-4.1-2-5.5
	c0-0.1,0.1-0.1,0.1-0.3C389.8,41.2,391.8,37.7,394.5,34.3z M412.2,193.7c-1.6-1.6-1.6-4.2,0-5.7c0.7-0.7,1.7-1.2,2.8-1.2
	c0.2,0,0.3,0,0.5,0.1l0.3,0.1c0.9,0.2,1.7,0.5,2.2,1.1c1.6,1.6,1.6,4.2,0,5.7C416.4,195.2,413.8,195.2,412.2,193.7z M325.4,172.3
	c18.2-29.9,12.7-48.1,12.7-48.3l-0.5,0.1l0.4-0.3c-0.6-2.8-1.9-12.4,5-18.2c0,0,2.6-2.1,6.4-2.2c0.1,0,0.2,0,0.3,0
	c0.9,0,1.9,0.2,2.8,0.4c0,0,0.1,0,0.1,0c1.9,0.6,3.5,1.6,4.8,3.1c3.7,4.3,3.6,11.1,2.7,14.4c0,0,0,0,0,0.1c0,0,0,0,0,0
	C360.1,121.6,357.2,137.6,325.4,172.3z M394.4,210.7c0.1-0.7,0.1-1.3,0.1-2c8.3-5.8,13.8-12,15.9-14.4c0.2,0.2,0.3,0.5,0.5,0.7
	c0.2,0.2,0.4,0.3,0.5,0.4C409.6,197.5,401.9,206.2,394.4,210.7z M373.6,181.5c-7.5,0-14.7-4-15.1-4.1c-0.2-0.1-0.4-0.1-0.5-0.2
	c-0.1,0-0.3-0.1-0.3-0.1c-0.2-0.1-0.4-0.2-0.4-0.2c-0.1,0-0.1,0-0.2,0c0,0-0.1,0-0.1,0c-5.4-2.1-10.7-3.2-15.6-3.2
	c-4.1,0-8.1,0.7-12,2c26.3-15.7,43.2-12.7,45.6-12.1c0,0,0.1,0,0.1,0c0,0,0.2,0.1,0.6,0.1c5.9,1.4,8.8,6.7,8.8,6.7
	c0.9,2,1,3.9,0.4,5.5c-1.1,2.8-4.2,4.1-4.3,4.2C378.5,181,376.2,181.5,373.6,181.5z M387.4,112.5c0.2,0.3,0.4,0.6,0.7,1
	c1.4,2.8,1.5,7.1,1.5,7.1c-0.1,10.8-10.5,16.7-11.6,17.3c-2,0.4-16.5,3.8-47.4,31.3c27.5-30.9,30.9-45.4,31.3-47.4
	c0.5-1,6.4-11.5,17.2-11.6c0.3,0,1.6,0.1,3.1,0.3C384.6,111,386.4,111.7,387.4,112.5z M380.9,162.4c-2.2,0-4-0.3-4.8-0.5l-0.2,0
	c0,0,0,0,0,0c-0.3-0.1-2.9-0.8-7.5-0.8c-7.1,0-21.6,1.9-41,13.7c16.5-15.2,28.4-23.5,35.7-27.9c6.4-3.8,10.7-5.6,13.2-6.5l2.3-0.6
	c1.2-0.3,2.7-0.5,4.3-0.5c1,0,3.7,0.1,6.4,1.1l0.2,0.1c0.1,0,0.2,0.1,0.3,0.1c0.4,0.2,0.8,0.4,1.3,0.7c0.4,0.2,0.8,0.5,1.2,0.8
	l0.1,0.1c0.2,0.2,0.5,0.3,0.7,0.5c0.5,0.4,0.9,0.9,1.2,1.4c0.1,0.1,0.2,0.2,0.3,0.3c0.1,0.1,0.2,0.2,0.3,0.3
	c0.2,0.2,0.3,0.5,0.4,0.8c0.1,0.2,0.1,0.3,0.2,0.5c0.1,0.1,0.1,0.3,0.2,0.4c0.1,0.2,0.2,0.5,0.3,0.8c1.7,5.6-1.6,9.6-1.7,9.8
	C390.4,161.4,384.9,162.4,380.9,162.4z M484.6,232c0.2,0.6,0,1.2-0.5,1.7c-0.5,0.5-1.4,0.9-2.4,0.4c-1.9-0.8-3.5-2.3-4-2.7
	c-0.2-0.9-0.5-1.7-0.9-2.5c-0.3-0.7-0.8-1.4-1.5-2.1c0.2,0.1,0.5,0.1,0.7,0.2c0,0,0.1,0.1,0.2,0.1c1,0.3,3.5,1.3,5.6,2.6
	c0,0,0.1,0,0.1,0.1C482.6,230.1,484.3,231.1,484.6,232z M457.5,173.5L457.5,173.5c0.1-0.3,0.1-0.4,0-0.6l-0.1-0.1
	c4.9-0.5,12.9-0.4,13.7,3c0,0.1,0.2,1.1-0.3,1.9c-0.5,0.7-1.3,1.1-2.6,1.3C468.1,179.1,463.1,179.7,457.5,173.5z M336.4,125
	c0.6,2.4,3.6,19.3-12.2,45.7c2.3-7,3.3-16.5-1.1-27.8c0,0,0,0,0,0c0-0.1,0-0.3-0.1-0.4l-0.1-0.2c-0.1-0.1-0.1-0.3-0.1-0.4
	c-0.1-0.2-0.1-0.4-0.2-0.6c-0.1-0.1-6.9-12.6-2.7-21.9c0.1-0.2,2-4.6,6.3-4.7l0.2,0c1.1,0,2.1,0.3,3.2,0.7c0.1,0,5.3,2.9,6.7,8.8
	c0.1,0.4,0.1,0.6,0.1,0.6C336.4,124.9,336.4,124.9,336.4,125z M318.7,165.8c-0.9-8.2-6.9-12.7-11.8-14c-0.2-0.1-0.4-0.1-0.6-0.1
	c-0.1,0-0.1,0-0.2,0c-2.6-2.6-3.8-5.3-3.7-8c0.2-4.1,3.7-7,3.7-7c2-1.2,4-1.6,6.1-1.1c4.7,1.2,8.3,6.5,8.9,7.5
	c5.3,13.5,2.8,24.2-0.3,30.9c-1.7,3.6-3.9,6.9-6.5,9.8c-0.3,0.3-0.6,0.6-0.9,0.9c-0.4,0.4-0.7,0.7-1.1,1.1c0,0-3.4,2.6-8.6,5
	l-0.2-3.3C311.8,184.4,319.9,177,318.7,165.8z M476.1,234.7c-0.8,5.1-4.3,6.2-7.1,6.2c-0.8,0-1.3-0.1-1.3-0.1
	c-3.1-0.6-5.1-1.9-6.2-4c-2.3-4.9,1.2-12.5,2.3-14.7C477.6,225.9,476.1,234.3,476.1,234.7z M459.1,235.6c0.2,2.1,0.1,6-1.2,7.3
	c-0.4,0.4-0.8,0.5-1.3,0.4c-0.2,0-0.4-0.1-0.6-0.6c-0.8-1.8,0.3-6.3,2.1-8.4c0-0.1,0.1-0.1,0.1-0.2c0.2-0.3,0.5-0.6,0.7-1
	c0,0.8,0.1,1.5,0.3,2.3C459.1,235.4,459.1,235.5,459.1,235.6z M421,190.9C421,190.8,421,190.8,421,190.9c0-1.6-0.6-3.1-1.7-4.2
	c-0.4-0.4-0.9-0.8-1.5-1c-0.1-1.9,0-10.3,9.9-14.9c0.2-0.1,18.6-6.9,21.4-8.1c1.4-0.6,3.6-1.9,5.8-3.3c0.1,0,0.2-0.1,0.3-0.2
	c0,0,0,0,0,0c3.3-2.3,6-4.7,8.1-7.1c0,1.6-0.9,5-6.7,10.2l-1.7,1.5c-0.2,0.2-0.2,0.4-0.1,0.6c0.1,0.2,0.4,0.3,0.6,0.2l3.8-1.3
	c-0.6,2.2-2.5,5.7-8,6.2c-0.6,0-1,0.1-1,0.1c-0.2,0.1-0.4,0.3-0.4,0.5l0.1,0.9c0,0.3,0.3,0.4,0.5,0.4c0.3,0,0.6,0,0.8-0.1
	c0.9,0,2.7,0.4,4.3,2.2c-0.9,1.2-4.1,4.5-13.3,1.8c-0.3-0.1-7.3-1.5-11.1,1.1c-1.3,0.9-2.1,2.2-2.3,3.9c0,0.1-0.1,2,1.2,3.3
	c0.9,0.9,2.2,1.2,3.9,0.9c0.2,0,5.3-0.8,7.2-7.6c0.4,0.1,0.7,0.1,0.7,0.1c1.8,0.5,3.4,0.8,5.2,0.9c-0.3,4.3-4.3,5.3-4.3,5.3
	l-1.3,0.3c-0.2,0-0.3,0.2-0.4,0.4c0,0.2,0.1,0.4,0.3,0.5l1.2,0.5c3.1,1.3,4.8,3,5.2,4.9c0.4,1.8-0.6,3.6-1.3,4.7
	c-0.9-1.4-2.7-3.8-5.6-4.9c-2-0.8-3.9-1.1-5.6-1.1c-2.3,0-4.3,0.6-5.6,1.3C429.4,189.9,424.3,192.3,421,190.9z M291.3,105.4
	c-0.6,0-1.3,0-2,0.1c4.5-7.5,13.3-15.3,15.2-17c0.1,0.2,0.2,0.4,0.4,0.5c0.2,0.2,0.5,0.4,0.7,0.6C303.3,91.6,297.2,97.1,291.3,105.4
	z M484.6,186.9c-0.1,0.2,0,0.4,0.1,0.5l0.9,0.8c0,0,2.3,2.3,2.2,5c-0.1,1.1-0.5,2.1-1.3,3c-0.2-2.7-1.4-7.1-6-9.5
	c-0.3-0.2-2.2-1.1-5-2c-2.5-0.7-4.6-2.9-4.5-4.6c0.6-0.4,1.1-0.8,1.5-1.3c0.2-0.3,0.4-0.7,0.5-1.1c0.8-0.3,3.4-0.8,6.7,2.1
	c4.3,3.8,8.4,5.2,12.1,4.3c-0.1,0.4-0.4,0.9-0.8,1.3c-1,1-2.5,1.4-4.6,1.3l-1.2-0.1C484.9,186.6,484.7,186.7,484.6,186.9z
	 M317.7,238c-1.5,1.3-4.2,3.1-7.7,3.1c-3.2,0-6.4-1.5-9.6-4.5c-0.1-0.1-9.7-9.1,0-24.1c0.1-0.2,0.1-0.5-0.1-0.6l-0.7-0.5
	c-0.1-0.1-0.2-0.1-0.3-0.1c-0.1,0-0.3,0.1-0.4,0.2c-4.4,4.8-5.8,7.4-8.5,11.9l-0.2,0.4c-0.6,1-1.2,2.1-2,3.4
	c-4,6.7-12.6,10.2-25.5,10.2c0-12.9,3.4-21.5,10.2-25.5c1.4-0.8,2.6-1.5,3.7-2.1l0.1-0.1c4.6-2.6,7.1-4.1,11.9-8.5
	c0.2-0.2,0.2-0.5,0.1-0.7l-0.5-0.7c-0.2-0.2-0.4-0.2-0.6-0.1c-4.5,2.9-8.8,4.4-13,4.4c-6.7,0-10.6-3.9-11.1-4.4
	c-3.2-3.4-4.7-6.9-4.5-10.3c0.2-3.2,1.9-5.7,3.1-7.1c1.5,5.8,7.5,9.5,7.7,9.6c5.2,3.3,11,5,17.1,5c10.2,0,19.3-4.8,23.7-7.5
	c-1.9,3-4.6,8.1-6.2,14.2c-2.5,9.8-1.3,18.8,3.7,26.6C308.2,230.5,311.9,236.5,317.7,238z M417.3,237.2c1.7,2.3,1.8,5.1,1.7,6.7
	c-1.8-1.4-5.5-4-11.2-5.9c-3.8-1.3-8.8-2.3-15.1-2.3c-6.2,0-13.5,1-22,4c-16.4,5.7-30.2,5.4-40.8-1.1c-7.3-4.4-20.5-17.4-17.9-34.8
	c1.7-11.3,9.7-22,21.8-20.7c7.3,0.8,11.2,6.1,12.4,10.4c1.2,4.3-0.1,8.4-3.2,10.7c-1.7,1.3-3.6,1.9-5.5,1.9c-3,0-5.4-1.6-6.6-2.9
	c-1.7-2.1-1.2-4.4,0.2-5.6c1-0.9,2.7-1.2,4.2,0.6c0.1,0.1,0.2,0.2,0.3,0.2c0.1,0,0.3,0,0.4-0.1l0.7-0.6c0.2-0.2,0.2-0.5,0-0.7
	c-2.3-2.6-5.1-2.3-6.8-0.8c-1,0.9-1.7,2.1-1.9,3.5c-3.1,3-4.7,6.3-4.7,10c0,7.2,6,12.8,6.3,13.1c13.9,11.8,27.2,4.3,27.3,4.3
	c18-10.3,15.8-29.9,14.8-34.9c1.3-0.1,2.6,0.2,3.6,1c3.7,2.7,4.5,10,4.6,10c0,0.2,0.2,0.4,0.4,0.4c0.1,0,0.1,0,0.2,0
	c0.1,0,0.1,0,0.2-0.1l0.5,0c0.3,0,0.5-0.2,0.5-0.5c0.1-9.2,4.1-12.5,5.9-13.5c5.9,10-2.9,19.7-3.2,20.1c-0.1,0.2-0.2,0.4-0.1,0.6
	c-0.1,0.2,0,0.4,0.1,0.5c0.1,0.1,0.3,0.2,0.5,0.1l0.1,0.1c0.2,0.2,0.5,0.2,0.7,0c2.3-2,5.3-2.3,6.9-2.4c0.2,3.3-0.5,5.7-2,7.3
	c-2.2,2.2-5.5,2-5.5,2c-4.1-0.1-6.8,0.7-8.1,2.3c-1.1,1.3-0.8,2.7-0.8,2.9c0.1,0.3,0.3,0.5,0.4,0.6c0,0,0.1,0.1,0.1,0.1
	c0.2,0.3,0.4,0.6,0.5,0.7c0,0,0.1,0.1,0.1,0.2c0.1,0.2,0.2,0.5,0.5,0.6c2.3,1.1,5.9-0.7,5.9-0.7c2-0.8,8.6-6.4,8.6-6.4
	c4.8-3.3,10.8-2.9,13.2-2.5c-1.6,6.2-6.2,7.8-6.7,8c-0.2,0.1-0.4,0.3-0.3,0.6c-0.2,0.1-0.2,0.3-0.1,0.5c0.1,0.2,0.2,0.3,0.4,0.3
	l0,0.1c0,0.1,0.2,0.2,0.3,0.3c0.1,0.1,0.3,0.1,0.4,0c9.3-2.8,15,0.6,17.1,2.3c-3.7,1.9-10.7,2.7-10.8,2.7c-0.3,0-0.4,0.2-0.4,0.5v0
	c-0.2,0.1-0.3,0.3-0.3,0.5c0,0.2,0.1,0.3,0.3,0.4c0,0.2,0.2,0.4,0.4,0.5C411.4,232.6,415.2,234.3,417.3,237.2z M499.2,215.3
	c-3.3,12.1-14.5,12.7-16.3,12.8c0,0-0.1,0-0.1,0c-0.6-0.4-1.3-0.7-2.1-1.1c0.9-0.3,1.7-0.7,2.4-1.2c0.1,0,0.1,0,0.2,0
	c3.6,0,7.3-1.7,10.1-4.7c3.3-3.5,4.8-8.1,4.4-13.1c-0.9-9.9-7.2-15.7-8.4-16.7c-0.3-1.1-0.8-2.1-1.3-2.7c0.7-0.1,1.3-0.3,1.9-0.5
	C492.2,190,503,201.4,499.2,215.3z M327.2,45.1c0.3,0.4,0.6,0.8,1,1.3c0.1,0.2,0.2,0.4,0.3,0.6l0.1,0.1c0.2,0.6,0.3,1.1,0.3,1.5
	c0,0.3,0,0.6-0.1,0.9c0,0.3,0.2,0.5,0.4,0.5l0.9,0.1c0.3,0,0.5-0.1,0.5-0.4c0,0,0.1-0.4,0.1-1c0.5-5.6,4-7.4,6.2-8.1l-1.3,3.8
	c-0.1,0.2,0,0.5,0.2,0.6c0.2,0.1,0.5,0.1,0.6-0.1l1.5-1.7c5.2-5.8,8.5-6.8,10.1-6.7c-2.5,2.1-4.9,4.8-7.1,8.1
	c-0.1,0.1-0.1,0.1-0.2,0.2c-1.5,2.2-2.8,4.4-3.4,5.9c-1.2,2.8-8,21.2-8,21.3c-4.7,10.1-13.1,10.1-14.9,10c-0.3-0.6-0.6-1.1-1-1.5
	c-1.1-1.1-2.6-1.7-4.2-1.7c0,0,0,0,0,0c-1.4-3.3,1.1-8.5,1.1-8.5c1.3-2.5,2.1-6.7,0.2-11.3c-1.2-2.9-3.5-4.7-4.9-5.6
	c0.9-0.6,2.6-1.5,4.3-1.3c1.3,0.2,2.5,1,3.5,2.3c0.6,0.8,1.2,1.9,1.8,3.1c0,0,0,0,0,0l0.4,0.9c0.1,0.2,0.3,0.3,0.5,0.3
	c0.2,0,0.4-0.2,0.4-0.4l0.3-1.3c0-0.2,1-4,5.3-4.4c0.1,1.8,0.4,3.5,0.9,5.2c0,0,0.1,0.3,0.1,0.8c-6.5,1.9-7.5,6.7-7.6,7.3
	c-0.1,1,0,1.9,0.4,2.8c0.1,0.3,0.2,0.6,0.4,0.8c0,0.1,0.1,0.2,0.2,0.3c0.1,0.1,0.2,0.2,0.4,0.3c0.5,0.4,1.1,0.7,1.6,0.8
	c0.1,0,0.1,0,0.2,0c0,0,0.1,0,0.1,0c0.1,0,0.2,0,0.2,0c0.4,0.1,0.8,0.1,0.9,0c1.6-0.2,2.9-1,3.8-2.3c2.7-3.9,1.1-11.1,1.1-11.2
	c-2.6-9.1,0.6-12.3,1.8-13.2c0.2,0.2,0.3,0.3,0.5,0.5L327.2,45.1C327.2,45,327.2,45.1,327.2,45.1z M366.8,47.4
	c12.8,3.2,22.4,10.3,28.4,21.1c0.8,1.4,1.5,2.8,2,4.2c4,9.8,2.2,17.1,0,21.5c-3.7,7.5-11.4,12.3-17,13.1c-7.5,1.1-13.6-1.3-18.2-7
	c-3.5-4.3-3.8-12.7-0.7-17.9c1-1.6,2.8-3.7,5.9-4.3c0.5-0.1,0.9-0.1,1.4-0.1c0.5,0,1.1,0,1.6,0.1c0.1,0,0.3,0,0.4,0
	c0.1,0,0.2,0,0.3,0c0.4,0.1,0.7,0.2,1,0.3c0.2,0.1,0.4,0.1,0.6,0.2l0.3,0.1c0.6,0.2,1.2,0.4,1.7,0.6c0.7,0.4,1.3,0.9,1.8,1.3
	l0.3,0.2c0.2,0.2,0.4,0.3,0.6,0.5c0.4,0.5,0.8,1,1.1,1.5c0.3,0.5,0.5,0.9,0.7,1.4c0.1,0.3,0.2,0.6,0.3,0.9c0.3,1,0.4,1.8,0.4,2.5
	c0,3.2-1.5,5.6-3.8,6.1c-1.6,0.3-3.7-0.3-4.8-1.5c-0.8-0.9-1.1-2-0.7-3.2c0-0.1,0-0.3,0-0.4c-0.1-0.1-0.2-0.2-0.3-0.2l-0.9-0.2
	c-0.3-0.1-0.5,0.1-0.6,0.3c-0.7,2.4,0.3,4,1.1,5c1.5,1.6,4.2,2.5,6.5,2.1c0.3-0.1,0.5-0.2,0.7-0.3l0,0c1.3,0.6,2.5,0.9,3.7,0.8
	c3.8-0.1,6.1-3.4,6.2-3.5c0.3-0.3,7-7.8-2.8-22.9c-8.9-13.6-21.6-16.7-23.9-17.2c-0.4-0.6-0.8-1.4-1.3-2.1c-0.1-0.1-0.2-0.2-0.3-0.2
	c-0.1,0-0.3,0-0.4,0.1l-0.7,0.5c-0.2,0.2-0.3,0.5-0.1,0.7c0.6,0.8,1.1,1.6,1.5,2.3c0,0,0,0.1,0,0.1l0.1,0.3c0.1,0.1,0.1,0.2,0.1,0.3
	c0,0.1,0.1,0.2,0.1,0.3c0.4,0.8,0.5,1.5,0.7,2.1c0.3,1.4,0.2,2.6-0.1,3.6c-1,3.1-4.2,5-6.1,5.8c0.2-4.2-0.9-7.4-3.3-9.6
	c-3.7-3.4-9.4-3.2-12.4-2.9c0.5-1.2,0.8-2.1,1-2.6c0.5-1.2,1.7-3.3,3.1-5.4c1.2-0.2,8.2-1.2,16.9-0.2c0.4,0,0.8,0.1,1.3,0.2l0.3,0
	c0.7,0.1,1.5,0.2,2.2,0.3c1,0.2,2,0.4,3.1,0.7l0.4,0.1C366.5,47.3,366.7,47.3,366.8,47.4z M322.2,29.1c0.7-0.4,1.4-0.4,1.7-0.4
	c0.6,0.1,1.1,0.4,1.6,1c0.3,0.4,0.6,0.9,0.9,1.6c0.1,0.3,0.3,0.6,0.4,1l0.1,0.2c0.7,2.9,0.6,6.8,0.3,9.9l-0.1-0.1
	c-0.1-0.1-0.2-0.1-0.3-0.1c-0.1,0-0.1,0-0.2,0l-0.1,0c-6.2-5.5-5.6-10.6-5.6-10.7C321.1,30.5,321.5,29.6,322.2,29.1z M272,17.1
	C272,17,272,17,272,17.1c0-1.3,0.4-13,12.8-16.4c2.4-0.7,5-0.8,8-0.6c0.3,0,0.6,0.1,0.9,0.1c0.5,0,1,0.1,1.5,0.2c0,0,0.1,0,0.1,0
	c0.1,0,0.1,0,0.2,0.1c8.8,1.9,15.1,8,16.5,9.4c-0.2,0.6-0.4,1.2-0.5,1.9c-0.7-0.4-1.6-0.8-2.5-1.1c-0.4-0.4-6.3-7.7-16.9-8.6
	c-4.9-0.4-9.7,1.1-13.1,4.4c-3,2.9-4.8,6.7-4.7,10.3c-0.6,0.8-1,1.6-1.2,2.4C272.7,18.4,272.3,17.7,272,17.1z M462.3,219v-0.3
	c0-0.2-0.1-0.4-0.4-0.5l-0.3-0.1c0,0-0.2-0.1-0.6-0.1c0.1-0.1,0.1-0.2,0.1-0.3l0-0.3c0,0,0.1-1.7,0-4.1c0.5,1,1.2,2.1,1.9,3.1
	l0.2,0.3c0.1,0.2,0.4,0.2,0.6,0.2l0.3-0.1c0,0,0.6-0.2,1.5-0.6c-0.4,0.5-0.8,1-1.2,1.6l-0.2,0.3c-0.1,0.2-0.1,0.4,0,0.6l0.2,0.3
	c0,0,0.8,0.9,2,2.2c-0.9-0.3-1.8-0.6-2.8-0.9c0,0,0,0,0,0l-0.3-0.1c-0.2-0.1-0.4,0-0.5,0.2l-0.2,0.3c0,0-0.1,0.2-0.3,0.5
	C462.2,220.4,462.3,219.7,462.3,219z M477.6,208.6c-0.8,0.1-1.5,0.2-2.3,0.4c0.6-0.8,1.1-1.7,1.5-2.6c0,0,0,0,0.1-0.1
	c2.5-3.2,3.7-3.3,4.1-3.3c0.5,0.1,0.8,0.7,0.8,0.7v0C482.4,206.5,478.1,208.4,477.6,208.6z M454.6,219.2c2.5,0,4.7,0.4,5.7,0.6
	c-0.2,15.6-8.5,16.5-8.9,16.6c-0.4,0.1-0.9,0.1-1.3,0.1c-5.7,0-6.4-6.3-6.4-7c-0.2-3.2,0.5-5.6,2-7.3
	C447.6,220.2,450.6,219.2,454.6,219.2z M466.3,218.1c4.9-6.3,9.3-7.7,12.1-7.7c2.3,0,3.8,0.9,3.9,1c1.9,1.1,3.1,2.5,3.5,4.2
	c0.7,2.9-1,5.7-1.1,5.7c-1.7,2.8-3.9,4.2-6.4,4.2C473.2,225.5,467.8,219.9,466.3,218.1z M464.1,214.6c-7.4-10.8-1-16-0.7-16.2
	c1.6-1.4,3.2-2,4.9-2c3,0,5.1,2.4,5.2,2.5c1.8,2.1,2.4,4.1,1.9,6.2C474,210,466.4,213.6,464.1,214.6z M438.2,190.8
	c-16.5,18.4-27.2,25.2-31.5,27.5c0.5-1,0.8-2.1,1-3.2l0.1-0.3c3.6-2.1,12.4-8.3,23.6-23.7C433.4,190.3,435.8,190.2,438.2,190.8z
	 M459.3,201.3c0,0,0,0.1-0.1,0.1c-0.1,0.2-0.1,0.3-0.2,0.5c-0.2,0.6-0.3,1.3-0.3,2.1c-0.5-0.8-1-1.6-1.6-2.2c-0.8-0.9-1.8-1.6-3.1-2
	c-0.2-1.1,0.3-2.5,1-3.3c0.5-0.6,1-0.5,1.3-0.5C459.1,196.8,459.3,200.9,459.3,201.3z M309.1,196.1c2.4-5.2,5-8.5,5-8.5
	c0.5-0.5,0.9-0.9,1.3-1.3c0.3-0.3,0.6-0.6,1-0.9c4.1-3.7,12.8-9.8,25-9.8c4.9,0,10.1,1.1,15.4,3.2c1.5,0.9,6.4,4.4,7.5,8.9
	c0.5,2.1,0.2,4.1-1,6c0,0-2.9,3.5-7,3.8c-2.7,0.1-5.4-1.1-8-3.7c0-0.1,0-0.1,0-0.2c0-0.2,0-0.4-0.1-0.6c-1.3-4.9-5.7-10.9-14-11.8
	c-0.7-0.1-1.5-0.1-2.2-0.1c-8.5,0-15.8,5.7-19.6,15.2L309.1,196.1z M445.9,219.6c-0.1,0-5.1,1.8-6-0.5c-0.4-0.8-0.3-1.5,0.2-2.1
	c0.6-0.7,1.8-1.1,3.1-1.1c0.7,0,1.4,0.1,2,0.3c1.2,0.8,2.7,1.4,4.4,1.8c-1.3,0.4-2.4,0.8-3.3,1.5c0,0,0,0,0,0
	C446.1,219.6,446,219.6,445.9,219.6z M442.7,210.4c-0.6-2.1-0.5-4,0.3-5.5c1.5-2.6,4.7-3.5,4.8-3.5c1.1-0.3,2.1-0.4,3-0.4
	c2.1,0,3.8,0.7,5.1,2.1c3.4,3.7,3.5,11.1,3.5,13.4c-1.7,0.3-3.3,0.4-4.8,0.4C444.5,216.9,442.8,210.7,442.7,210.4z M453.7,157.8
	c-2.1,1.4-4.1,2.6-5.4,3.1c-0.5,0.2-1.4,0.6-2.6,1c0.4-3,0.5-8.6-2.9-12.4c-2-2.2-4.9-3.3-8.6-3.3c-0.3,0-0.6,0-1,0
	c0.9-1.9,2.7-5,5.8-6.1c2.6-0.9,5.7,0,9.1,2.5c0.2,0.2,0.5,0.1,0.7-0.1l0.5-0.7c0.1-0.1,0.1-0.2,0.1-0.4c0-0.1-0.1-0.2-0.2-0.3
	c-0.6-0.4-1.1-0.7-1.6-1c-0.1-0.1-0.3-0.2-0.4-0.2c-0.4-2-3.4-15-17.2-24c-5.4-3.6-10.5-5.4-15-5.4c-5.2,0-7.8,2.4-7.8,2.4
	c-0.1,0-5.7,3.9-2.8,9.9c0,0,0,0.1,0,0.1c-0.1,0.2-0.2,0.4-0.3,0.7c-0.4,2.2,0.4,5,2.1,6.5c1,0.9,2.6,1.8,5,1.2
	c0.1,0,0.2-0.1,0.3-0.2c0.1-0.1,0.1-0.2,0-0.4l-0.2-0.9c0-0.1-0.1-0.2-0.2-0.3c-0.1-0.1-0.2-0.1-0.4,0c-1.3,0.3-2.4,0.1-3.2-0.7
	c-1.2-1.1-1.8-3.1-1.5-4.8c0.4-2.3,2.9-3.8,6.1-3.8c3.7,0,8.4,2.2,9.6,8.5c1,5.4-1.7,8.3-4.2,9.8c-5.2,3.1-13.5,2.8-17.8-0.7
	c-5.7-4.6-8-10.7-7-18.2c0.8-5.6,5.5-13.3,13-17c5.3-2.6,14.1-4.4,25.9,2.2C459.1,120.1,454.2,154.8,453.7,157.8z M259.2,32.3
	c0,0-0.6-3.3,1.2-5.7c1-1.4,2.7-2.4,5-2.7c0,0,0.3-0.1,0.9-0.1c0.2,0,0.5,0,0.8,0.1c0.2,0,0.4,0.1,0.6,0.1c0,0,0,0,0,0l0.5,0.1
	c0,0,0.1,0,0.1,0c3.2,0.8,7.2,3.6,9.6,12.1c-1.6,0.8-6.5,3-10.8,3C262.6,39.2,260.1,36.9,259.2,32.3
	C259.2,32.3,259.2,32.3,259.2,32.3z M256.8,43.2c-0.1-0.5,0.1-1,0.4-1.3c0.9-0.9,3.1-1.3,5.2-1.3c0.6,0,1.3,0,1.8,0.1l0.7,0.1
	c0,0,0.1,0,0.1,0c0.1,0,0.2,0,0.3,0c0.5,0.1,1,0.2,1.5,0.2c-0.3,0.2-0.6,0.4-0.9,0.6c-0.1,0-0.1,0-0.2,0.1c-2.2,1.8-6.6,2.9-8.4,2.1
	h0C256.9,43.7,256.8,43.4,256.8,43.2z M280.2,39.5c0.5,2.2,1.6,9.6-1.6,13.8c-1.7,2.2-4.4,3.1-8.1,2.9c-0.2,0-3.8-0.3-5.8-2.7
	c-1-1.3-1.4-3-1.1-5.1C263.7,48,264.6,39.8,280.2,39.5z M265.9,18.2c-0.4-1-0.1-1.9,0.4-2.4c0.2-0.2,0.5-0.4,0.7-0.5l0.2,0
	c0.2,0,0.5-0.1,0.7,0c0.6,0.2,1.5,1,2.9,3.4c0,0,0,0,0,0.1c0.9,1.7,1.7,3.6,2.1,4.9c0,0,0,0.1,0,0.1c0.1,0.2,0.1,0.5,0.2,0.7
	c-1.4-1.1-2.9-1.8-4.5-2.2C268.2,21.8,266.7,20.2,265.9,18.2z M280.4,54C280.4,54,280.4,54,280.4,54c0.7-1,1.2-2.1,1.6-3.4
	c0.4,1.5,1,2.9,1.7,4c0,0,0,0.1,0,0.1c0.6,1.9,0.3,4.2-0.7,5.1c-0.5,0.5-1.2,0.6-2.1,0.2C278.6,59.1,280.4,54.1,280.4,54z
	 M260.3,129.1c9.5-27.4-0.8-43.8-4.2-48.2c1.2-0.1,2.8,0,4.6,0.6c0.8,0.3,1.5,0.7,2.1,1.1c2.9,2.1,4.6,5.9,5,11.4
	c0,0.3,0.2,0.4,0.5,0.4h0c0,0.2,0.2,0.4,0.5,0.4c0,0,0,0,0,0c0.2,0,0.4-0.2,0.5-0.4c0.2,0,0.4-0.2,0.4-0.4c0-0.3,0.8-7.2,2.7-10.8
	c1.7,2.1,5.1,7.7,2.3,17.1c-0.1,0.3,0.1,0.5,0.3,0.6l0.1,0c0,0.2,0.1,0.4,0.3,0.5c0.2,0.1,0.5,0,0.6-0.3c0.2,0,0.4-0.2,0.4-0.4
	c0.2-0.5,1.8-5,8-6.7c0.3,2.4,0.8,8.4-2.5,13.1c-0.1,0.1-5.7,6.6-6.4,8.6c-0.3,0.6-1.8,3.8-0.7,6c0.2,0.3,0.4,0.5,0.6,0.6
	c0.1,0,0.2,0.1,0.2,0.1c0.2,0.3,0.5,0.5,1,0.7c0.1,0.1,0.2,0.3,0.5,0.3c0.2,0,0.8,0,1.5-0.1c0.2,0,0.4-0.1,0.5-0.2
	c0.1,0,0.1,0,0.2-0.1c0.2-0.1,0.4-0.1,0.7-0.3c1.7-1.3,2.4-4.1,2.3-8.2c0,0-0.2-3.3,2-5.5c0.6-0.6,1.5-1.1,2.8-1.5l0.3-0.1
	c0.1-0.1,0.3-0.1,0.5-0.1c1.2-0.3,2.4-0.4,3.8-0.3c0,1.4-0.3,4.6-2.4,6.9c-0.2,0.2-0.2,0.5,0,0.7l0.2,0.2c-0.1,0.2,0,0.4,0.1,0.5
	c0.2,0.2,0.4,0.2,0.6,0.1c0.1,0,0.3,0,0.4-0.1c0.1-0.1,9.9-9.2,20.1-3.2c-1,1.7-4.4,5.7-13.5,5.9c-0.3,0-0.5,0.2-0.5,0.5l0,0.9
	c0,0.3,0.2,0.5,0.4,0.5c0.1,0,7.3,0.8,10,4.6c0.8,1,1.1,2.3,1,3.6c-5-0.9-24.6-3.2-34.9,14.8c-0.1,0.1-7.5,13.5,4.3,27.4
	c0.2,0.3,5.9,6.3,13,6.3c3.7,0,7-1.6,10-4.7c1.4-0.2,2.6-0.9,3.5-1.9c1.5-1.7,1.8-4.5-0.8-6.8c-0.2-0.2-0.5-0.2-0.7,0l-0.6,0.7
	c-0.1,0.1-0.1,0.2-0.1,0.4c0,0.1,0.1,0.2,0.2,0.3c1.8,1.6,1.5,3.2,0.6,4.2c-1.2,1.4-3.6,1.9-5.6,0.2c-2.4-2-4.7-7-1-12.1
	c2.3-3.1,6.4-4.4,10.7-3.2c4.3,1.2,9.6,5.1,10.4,12.4c1.3,12.1-9.4,20.1-20.7,21.8c-17.4,2.6-30.3-10.6-34.8-17.9
	C254.9,159.2,254.6,145.5,260.3,129.1z M311.7,14.3l0.8,0.9c0.1,0.1,0.4,0.2,0.5,0.1c0.2-0.1,0.3-0.3,0.3-0.5l-0.1-1.2
	c-0.1-2.1,0.3-3.6,1.3-4.6c0.4-0.4,0.9-0.7,1.4-0.8c-0.6,2.3-0.2,4.8,1.2,7.5c0.9,1.8,1.8,3.3,3.1,4.7c0.1,0.1,0.2,0.2,0.3,0.4
	c0.1,0.1,0.1,0.2,0.2,0.3c0.4,0.5,0.8,1,1,1.6c0.1,0.2,0.2,0.4,0.3,0.6c0.8,1.9,0.5,3.3,0.3,3.8c-0.4,0.1-0.8,0.3-1.1,0.5
	c-0.5,0.3-1,0.8-1.3,1.5c-1.7,0.1-3.9-2-4.6-4.5c-0.9-3.2-2-5-2-5c-2.4-4.7-6.9-5.8-9.5-6.1c1-0.8,2-1.3,3-1.3
	C309.4,12,311.6,14.2,311.7,14.3z M279.8,37.3c0.2-0.1,0.3-0.3,0.2-0.5l-0.1-0.3c-0.3-1-0.5-1.9-0.9-2.9c1.2,1.3,2.2,2,2.2,2
	l0.3,0.2c0.2,0.1,0.4,0.1,0.6,0l0.3-0.2c0.6-0.4,1.1-0.8,1.6-1.3c-0.4,0.9-0.6,1.5-0.6,1.5l-0.1,0.3c-0.1,0.2,0,0.4,0.2,0.6l0.3,0.2
	c1,0.7,2,1.4,3,1.9c-1-0.1-1.8-0.1-2.3-0.1c-1.1,0-1.7,0-1.7,0l-0.3,0c-0.1,0-0.2,0.1-0.3,0.1c-0.1-0.3-0.1-0.5-0.1-0.6l-0.1-0.3
	c-0.1-0.2-0.3-0.4-0.5-0.4h-0.4c-0.7,0-1.3,0-1.9,0.1c0.3-0.2,0.5-0.3,0.5-0.3L279.8,37.3z M284.9,92.2c-1.1,0.2-2.1,0.5-3.2,1
	c2.5-4.7,9.4-15.2,27.4-31.5c0.6,2.4,0.5,4.8-0.2,6.8c-15.4,11.2-21.6,20-23.7,23.6L284.9,92.2z M298.9,48l0,0.2
	c0.1,1.2,0,2.6-0.3,4c-0.1,0.2-1.5,5.5-6.4,5.5c-0.8,0-1.7-0.1-2.6-0.4c-0.1,0-8.4-2.4-6.1-16.6c0.2,0,0.5,0,0.9,0
	c3,0,10.3,0.4,13.3,4.3C298.3,45.8,298.7,46.8,298.9,48z M306.3,87.7c-1.6-1.6-1.6-4.2,0-5.7c0.8-0.8,1.8-1.2,2.9-1.2
	c1.1,0,2.1,0.4,2.9,1.2c0.3,0.3,0.6,0.8,0.8,1.3c0.3,0.5,0.3,1.1,0.3,1.7l0,0.1c-0.1,1-0.5,1.9-1.1,2.6
	C310.5,89.2,307.8,89.2,306.3,87.7z M296.2,24.4C296.2,24.4,296.2,24.4,296.2,24.4c0.1,0,0.1,0,0.2,0c0.1,0,0.1,0,0.2,0
	c0.3,0,0.7,0.1,1,0.2l0.3,0.1c1.2,0.4,2.3,0.9,3.3,1.8c0,0,1.4,1.2,2.1,3c0.8,2.3,0.3,4.7-1.7,7c-0.1,0.1-2.3,2.8-6.7,2.8
	c-2.9,0-6.1-1.2-9.5-3.6C286.3,33.7,290.6,24.7,296.2,24.4z M288.8,18.1c0.8,1.8,2.7,8.1-6.9,15.5c-1.8-1.6-7.7-7.2-7.3-12.4
	c0.1-2.3,1.5-4.3,4.2-6l0,0c0,0,1.9-1.1,4.2-1.2l0.2,0c0.8,0,1.7,0.3,2.6,0.8c0.3,0.2,0.6,0.4,0.9,0.6c0.6,0.5,1.1,1.1,1.6,1.8
	c0.1,0.1,0.2,0.2,0.3,0.3c0.1,0.1,0.2,0.2,0.3,0.3C288.7,17.8,288.8,17.9,288.8,18.1z M290.9,24.7c0.3-0.8,0.4-1.6,0.5-2.2l0-0.1
	c0.2-0.6,2-4.6,4.6-4.1c0,0,0,0,0,0c0.1,0.1,0.4,0.2,0.7,0.5c0.1,0.1,0.2,0.2,0.2,0.3c0.1,0.3,0,1.6-3.3,4.1c0,0,0,0,0,0
	C292.7,23.5,291.8,24,290.9,24.7z M299.1,43.8c-0.9-1.2-2.1-2-3.3-2.6c0.8-0.1,1.4-0.3,2.1-0.5l0,0l0.1,0c0.1,0,0.2,0,0.3,0
	c0.1,0,0.3,0,0.4-0.1c0.1,0,0.3,0,0.5,0c1.2,0.1,4,0.7,4.7,2.9c0.1,0.5-0.1,0.8-0.4,1.2c-0.8,0.8-2.4,1.2-3.5,1c0-0.1,0-0.1-0.1-0.2
	C299.7,45,299.5,44.3,299.1,43.8z M34.1,110.9l-0.2-3.5c3.1,2.4,6.3,4.2,9.3,5.4l0.1,0.1c1.3,1.2,1.9,2.3,1.9,3.5c0,1.2-0.9,2-1,2
	c-0.6,0.5-1.1,0.7-1.9,0.6C38.9,118.4,34.5,111.6,34.1,110.9z M1.1,159.8c5.7-6.6,10.1-19.2,10.3-19.7c0.1-0.4,0.3-0.8,0.4-1.2
	l0.3-0.9c0.1-0.3,0.2-0.5,0.2-0.8c0.2-0.7,0.4-1.4,0.5-2.2c0.1-0.6,0.2-1.1,0.3-1.7c0.1-0.7,0.2-1.4,0.3-2.1
	c0.1-0.8,0.2-1.7,0.3-2.8c0-0.5,0.1-0.9,0.1-1.4c0.1-1.3,0.1-2.6,0-4.2l0-0.3c-0.4-7.9-2.4-16-6.1-24.2c-7.7-16.9-5.8-34.9-5.7-35.7
	c2.7-19.4,10.6-28.4,16.9-32.5c3.6-2.4,6.6-3,7.4-3.2l0.2,0c0,0,0.1,0,0.1,0c0.2,0,20.7-4.6,32.6,9.2c0.5,0.5,12.2,12.5,2.3,25.1
	C48.6,71.4,36.6,59.7,36,59.2c-5.6-4.8-8.8-11.4-9.7-19.8c2.2-1.5,4.5-2.7,7.2-3.4c-0.4,3.8-0.4,13.4,6.9,19.3
	c0.1,0.1,7.7,6.6,15.6,1l0.2-0.2c5.6-7.9-1-15.4-1-15.5c-7.4-9.3-20.7-6.8-20.8-6.8c-22.9,4.9-19.4,31-19.4,31.3
	c2.1,11.5,7.2,17.4,14.9,17.1c1,0,1.9-0.3,3-0.7c0.1,0,0.2-0.1,0.3-0.2l0.2-0.1c0.5-0.2,1-0.5,1.6-0.9c0.4-0.3,0.7-0.5,1.1-0.9
	c0.2-0.2,0.4-0.4,0.7-0.6c0.5-0.5,0.9-0.9,1.3-1.3c0,0,0.1-0.2,0.1-0.2c1.7-2.1,2.9-4.2,3.5-5.4c3.1,3.5,4.4,6.9,3.8,10.1
	c-1.1,6.2-9,9.8-9,9.8c-0.2,0.1-0.3,0.4-0.2,0.6l0.3,0.8c0.1,0.2,0.4,0.4,0.6,0.3c0.9-0.3,1.8-0.5,2.8-0.6c0,0,0.1,0,0.1,0
	c2.2-0.1,3.7,0.6,4.5,1.1c-0.9,1.3-3.3,4.3-8.7,6.1c-0.8,0.2-1.5,0.4-2.4,0.5l-0.5,0c-5.5,0.2-7.9-4.8-8-5L24.8,95
	c-1.3-2.4-3.6-6.8-6.2-7.3c-0.8-0.2-1.6,0-2.3,0.5c-1,0.8-1.5,1.7-1.4,2.7c0.1,2.6,3.6,4.8,5.5,6.1c0.3,0.2,0.6,0.4,0.7,0.5
	c0.3,0.2,0.6,0.4,1,0.7c1.5,1,4,2.7,5.6,4.9c6.4,8.7,5.8,14.8,5.1,17.1l-9.5-7.1c-0.2-0.1-0.5-0.1-0.6,0c-0.2,0.2-0.2,0.4,0,0.6
	l2.2,2.7c7.4,9.3,4.6,21.5,3.7,24.8c-4.3-1.1-6-6-6.1-6.2c-0.1-0.2-0.3-0.4-0.6-0.3l-0.9,0.3c-0.3,0.1-0.4,0.3-0.3,0.6
	c3.4,12-1,18.4-2.5,20.1c-2.4-2.1-2.4-7-2.4-7.2c0-0.2-0.2-0.5-0.4-0.5l-0.9-0.1c-0.2,0-0.5,0.1-0.5,0.4
	C11.6,158.4,4.4,159.8,1.1,159.8z M44.9,100c2.4-1.1,4.2-1.4,5.3-0.8c0.7,0.4,0.9,1.1,0.9,1.1c0.3,2.4-2,3.5-3,3.9
	c-4.9,1.5-9.7,1.1-14.5-1.1l0-0.6c0.1,0,0.2,0,0.4,0l0.2,0C40,102.1,44.8,100,44.9,100z M27.3,25c0.4-1.4,1-2.8,1.8-4.3
	c0.7-1.2,1.4-2.4,2.3-3.6l0.1-0.1c1.1-1.4,2.3-2.7,3.7-3.9l-0.3-0.4h0l0.5,0.2c0.6-0.5,1.3-1,1.9-1.5c0.3-0.3,0.7-0.5,1.1-0.8
	c0.5-0.3,0.9-0.6,1.4-0.9c0.7-0.5,1.5-0.9,2.2-1.3c0.3-0.2,0.6-0.3,0.8-0.5c1.3-0.7,2.4-1.2,3.7-1.7c4.7-1.9,10.1-3.3,16.1-4.1
	C62.7,2,81.3,0,98.3,7.7c21.1,9.6,36.1,5.8,41.6,3.7c0.2-0.1,6.2-2.1,12.1-5.2c0,0,0.1-0.1,0.1-0.1c1.1-0.6,2.1-1.1,3-1.7
	c0.5-0.3,0.9-0.6,1.3-0.9l0.7-0.5c0.3-0.2,0.6-0.4,0.9-0.6c0.6-0.5,1.2-0.9,1.7-1.4c0,3.3-1.4,10.5-11.5,12.9
	c-0.2,0.1-0.4,0.2-0.4,0.5c0,0,0,0,0,0.1l0.1,0.9c0,0.2,0.2,0.4,0.5,0.4c0.1,0,5.1-0.1,7.2,2.4c-1.8,1.5-8.1,5.9-20.1,2.5
	c-0.3-0.1-0.5,0.1-0.6,0.3l-0.3,0.9c-0.1,0.2,0.1,0.5,0.3,0.6c0.2,0.1,5.1,1.7,6.2,6c-3.3,0.9-15.6,3.7-24.8-3.6l-2.7-2.2
	c-0.2-0.2-0.5-0.1-0.6,0c-0.2,0.2-0.2,0.4-0.1,0.6l7.1,9.5c-2.4,0.7-8.4,1.4-17.2-5.1c-2.2-1.6-3.9-4.1-4.9-5.6
	c-0.3-0.4-0.5-0.8-0.7-1c-0.1-0.1-0.3-0.4-0.5-0.7c-1.2-1.9-3.5-5.4-6.1-5.5c-1,0-1.9,0.4-2.7,1.4c-0.5,0.7-0.7,1.4-0.5,2.3
	c0.6,2.6,5,5,7.3,6.2l0.7,0.4c0.2,0.1,5,2.5,5,7.7c0,0.1,0,0.2,0,0.2l0,0.5c-0.1,0.9-0.2,1.6-0.5,2.4c-1.7,5.4-4.7,7.8-6.1,8.7
	c-0.3-0.4-0.6-1.2-0.9-2.2l-0.5,0.1l0.4-0.3C93,42,93,41.4,93,40.7c0-0.9,0.1-1.9,0.6-3.2c0-0.1,0-0.1,0-0.2c0.1-0.2,0-0.5-0.3-0.6
	l-0.8-0.3c-0.2-0.1-0.5,0-0.6,0.2c-0.1,0.3-3.7,7.9-9.8,9c-3.2,0.6-6.6-0.7-10.1-3.9c0.5-0.3,1.3-0.7,2.2-1.2
	c0.1-0.1,0.3-0.2,0.4-0.3l0.3-0.2c0.3-0.2,0.7-0.4,1-0.7c0.4-0.3,0.8-0.6,1.2-0.9c0.2-0.2,0.4-0.3,0.6-0.5c0.4-0.3,0.8-0.7,1.3-1.2
	c0.1-0.1,0.3-0.3,0.4-0.5c0.4-0.5,0.8-1,1.1-1.5c0.1-0.2,0.2-0.3,0.3-0.5l0.1-0.2c0.3-0.5,0.5-1,0.7-1.5c0.2-0.6,0.4-1.3,0.5-2.2
	c0,0,0.1-0.2,0.1-0.3c0-0.1,0-0.1,0-0.2c0-0.2,0-0.3,0-0.5c0-0.1,0-0.2,0-0.3c0-0.1,0-0.3,0-0.5c-0.4-7-6.3-11.7-17-13.6
	c-0.7-0.1-17.6-2.3-26.6,9.3C33.2,24.1,29,24.6,27.3,25z M111.3,44.7c0,0.1,0.1,0.2,0.1,0.2c0.3,1.5,0.6,4.2-1.9,5.5
	c-0.1,0-0.7,0.2-1.4,0c-0.8-0.3-1.4-1.2-2-2.6c1.4-5.3,0.6-9.9-0.7-13.4C108.1,37.8,110.1,41.3,111.3,44.7z M118.2,44.4
	c0,0-0.8,0.9-2,0.9c-1.1,0-2.2-0.6-3.5-1.9l-0.1-0.1c-1.2-3.1-3-6.3-5.5-9.4l3.4,0.2c0,0,0,0,0.1,0c0,0,0,0,0.1,0c0,0,0,0,0.1,0
	c2.8,1.7,7.7,5.4,8.1,8.3C118.9,43.2,118.7,43.8,118.2,44.4C118.2,44.4,118.2,44.3,118.2,44.4z M103,33.5c2.3,4.8,2.7,9.7,1.2,14.6
	c-0.4,1-1.5,3.4-3.9,3.1c0,0-0.7-0.1-1.1-0.9c-0.2-0.4-0.3-1.1-0.2-1.9c0-0.1,0-0.3,0.1-0.4c0.1-0.6,0.4-1.4,0.8-2.4
	c0-0.1,0.1-0.2,0.1-0.3c0-0.1,0-0.1,0.1-0.2c0.1-0.2,2.2-5.1,2.5-11c0-0.1,0-0.1,0-0.2c0-0.1,0-0.3,0-0.4L103,33.5z M34.3,105.5
	c3.5,1.3,8.1,2.1,13.4,0.7c1.4,0.5,2.3,1.2,2.6,2c0.3,0.7,0.1,1.3,0,1.4c-1.4,2.5-4.1,2.3-5.5,2c-0.1,0-0.1-0.1-0.3-0.1
	C41.2,110.2,37.7,108.2,34.3,105.5z M193.7,87.8c-1.6,1.6-4.2,1.6-5.7,0c-0.7-0.7-1.2-1.7-1.2-2.8c0-0.2,0-0.3,0.1-0.5l0.1-0.3
	c0.2-0.9,0.5-1.7,1.1-2.2c1.6-1.6,4.2-1.6,5.7,0C195.2,83.6,195.2,86.2,193.7,87.8z M172.3,174.6c-29.9-18.2-48.1-12.7-48.3-12.7
	l0.1,0.5l-0.3-0.4c-2.8,0.6-12.4,1.9-18.2-5c0,0-2.1-2.6-2.2-6.4c0-0.1,0-0.2,0-0.3c0-0.9,0.2-1.9,0.4-2.8c0,0,0-0.1,0-0.1
	c0.6-1.9,1.6-3.5,3.1-4.8c4.3-3.7,11.1-3.6,14.4-2.7c0,0,0,0,0.1,0c0,0,0,0,0,0C121.6,139.9,137.6,142.8,172.3,174.6z M210.7,105.6
	c-0.7-0.1-1.3-0.1-2-0.1c-5.8-8.3-12-13.8-14.4-15.9c0.2-0.2,0.5-0.3,0.7-0.5c0.2-0.2,0.3-0.4,0.4-0.5
	C197.5,90.4,206.2,98.1,210.7,105.6z M181.5,126.4c0,7.5-4,14.7-4.1,15.1c-0.1,0.2-0.1,0.4-0.2,0.5c0,0.1-0.1,0.3-0.1,0.3
	c-0.1,0.2-0.2,0.4-0.2,0.4c0,0.1,0,0.1,0,0.2c0,0,0,0.1,0,0.1c-2.1,5.4-3.2,10.7-3.2,15.6c0,4.1,0.7,8.1,2,12
	C160,144.3,163,127.4,163.6,125c0,0,0-0.1,0-0.1c0,0,0.1-0.2,0.1-0.6c1.4-5.9,6.7-8.8,6.7-8.8c2-0.9,3.9-1,5.5-0.4
	c2.8,1.1,4.1,4.2,4.2,4.3C181,121.5,181.5,123.8,181.5,126.4z M112.5,112.6c0.3-0.2,0.6-0.4,1-0.7c2.8-1.4,7.1-1.5,7.1-1.5
	c10.8,0.1,16.7,10.5,17.3,11.6c0.4,2,3.8,16.5,31.3,47.4c-30.9-27.5-45.4-30.9-47.4-31.3c-1-0.5-11.5-6.4-11.6-17.2
	c0-0.3,0.1-1.6,0.3-3.1C111,115.4,111.7,113.6,112.5,112.6z M162.4,119.1c0,2.2-0.3,4-0.5,4.8l0,0.2c0,0,0,0,0,0
	c-0.1,0.3-0.8,2.9-0.8,7.5c0,7.1,1.9,21.6,13.7,41c-15.2-16.5-23.5-28.4-27.9-35.7c-3.8-6.4-5.6-10.7-6.5-13.2l-0.6-2.3
	c-0.3-1.2-0.5-2.7-0.5-4.3c0-1,0.1-3.7,1.1-6.4l0.1-0.2c0-0.1,0.1-0.2,0.1-0.3c0.2-0.4,0.4-0.8,0.7-1.3c0.2-0.4,0.5-0.8,0.8-1.2
	l0.1-0.1c0.2-0.2,0.3-0.5,0.5-0.7c0.4-0.5,0.9-0.9,1.4-1.2c0.1-0.1,0.2-0.2,0.3-0.3c0.1-0.1,0.2-0.2,0.3-0.3
	c0.2-0.2,0.5-0.3,0.8-0.4c0.2-0.1,0.3-0.1,0.5-0.2c0.1-0.1,0.3-0.1,0.4-0.2c0.2-0.1,0.5-0.2,0.8-0.3c5.6-1.7,9.6,1.6,9.8,1.7
	C161.4,109.6,162.4,115.1,162.4,119.1z M232,15.4c0.6-0.2,1.2,0,1.7,0.5c0.5,0.5,0.9,1.4,0.4,2.4c-0.8,1.9-2.3,3.5-2.7,4
	c-0.9,0.2-1.7,0.5-2.5,0.9c-0.7,0.3-1.4,0.8-2.1,1.5c0.1-0.2,0.1-0.5,0.2-0.7c0,0,0.1-0.1,0.1-0.2c0.3-1,1.3-3.5,2.6-5.6
	c0,0,0-0.1,0.1-0.1C230.1,17.4,231.1,15.7,232,15.4z M173.5,42.5L173.5,42.5c-0.3-0.1-0.4-0.1-0.6,0l-0.1,0.1
	c-0.5-4.9-0.4-12.9,3-13.7c0.1,0,1.1-0.2,1.9,0.3c0.7,0.5,1.1,1.3,1.3,2.6C179.1,31.9,179.7,36.9,173.5,42.5z M125,163.6
	c2.4-0.6,19.3-3.6,45.7,12.2c-7-2.3-16.5-3.3-27.8,1.1c0,0,0,0,0,0c-0.1,0-0.3,0-0.4,0.1l-0.2,0.1c-0.1,0.1-0.3,0.1-0.4,0.1
	c-0.2,0.1-0.4,0.1-0.6,0.2c-0.1,0.1-12.6,6.9-21.9,2.7c-0.2-0.1-4.6-2-4.7-6.3l0-0.2c0-1.1,0.3-2.1,0.7-3.2c0-0.1,2.9-5.3,8.8-6.7
	c0.4-0.1,0.6-0.1,0.6-0.1C124.9,163.6,124.9,163.6,125,163.6z M165.8,181.3c-8.2,0.9-12.7,6.9-14,11.8c-0.1,0.2-0.1,0.4-0.1,0.6
	c0,0.1,0,0.1,0,0.2c-2.6,2.6-5.3,3.8-8,3.7c-4.1-0.2-7-3.7-7-3.7c-1.2-2-1.6-4-1.1-6.1c1.2-4.7,6.5-8.3,7.5-8.9
	c13.5-5.3,24.2-2.8,30.9,0.3c3.6,1.7,6.9,3.9,9.8,6.5c0.3,0.3,0.6,0.6,0.9,0.9c0.4,0.4,0.7,0.7,1.1,1.1c0,0,2.6,3.4,5,8.6l-3.3,0.2
	C184.4,188.2,177,180.1,165.8,181.3z M234.7,23.9c5.1,0.8,6.2,4.3,6.2,7.1c0,0.8-0.1,1.3-0.1,1.3c-0.6,3.1-1.9,5.1-4,6.2
	c-4.9,2.3-12.5-1.2-14.7-2.3C225.9,22.4,234.3,23.9,234.7,23.9z M235.6,40.9c2.1-0.2,6-0.1,7.3,1.2c0.4,0.4,0.5,0.8,0.4,1.3
	c0,0.2-0.1,0.4-0.6,0.6c-1.8,0.8-6.3-0.3-8.4-2.1c-0.1,0-0.1-0.1-0.2-0.1c-0.3-0.2-0.6-0.5-1-0.7c0.8,0,1.5-0.1,2.3-0.3
	C235.4,40.9,235.5,40.9,235.6,40.9z M190.9,79C190.8,79,190.8,79,190.9,79c-1.6,0-3.1,0.6-4.2,1.7c-0.4,0.4-0.8,0.9-1,1.5
	c-1.9,0.1-10.3,0-14.9-9.9c-0.1-0.2-6.9-18.6-8.1-21.4c-0.6-1.4-1.9-3.6-3.3-5.8c0-0.1-0.1-0.2-0.2-0.3c0,0,0,0,0,0
	c-2.3-3.3-4.7-6-7.1-8.1c1.6,0,5,0.9,10.2,6.7l1.5,1.7c0.2,0.2,0.4,0.2,0.6,0.1c0.2-0.1,0.3-0.4,0.2-0.6l-1.3-3.8
	c2.2,0.6,5.7,2.5,6.2,8c0,0.6,0.1,1,0.1,1c0.1,0.2,0.3,0.4,0.5,0.4l0.9-0.1c0.3,0,0.4-0.3,0.4-0.5c0-0.3,0-0.6-0.1-0.8
	c0-0.9,0.4-2.7,2.2-4.3c1.2,0.9,4.5,4.1,1.8,13.3c-0.1,0.3-1.5,7.3,1.1,11.1c0.9,1.3,2.2,2.1,3.9,2.3c0.1,0,2,0.1,3.3-1.2
	c0.9-0.9,1.2-2.2,0.9-3.9c0-0.2-0.8-5.3-7.6-7.2c0.1-0.4,0.1-0.7,0.1-0.7c0.5-1.8,0.8-3.4,0.9-5.2c4.3,0.3,5.3,4.3,5.3,4.3l0.3,1.3
	c0.1,0.2,0.2,0.3,0.4,0.4c0.2,0,0.4-0.1,0.5-0.3l0.5-1.2c1.3-3.1,3-4.8,4.9-5.2c1.8-0.4,3.6,0.6,4.7,1.3c-1.4,0.9-3.8,2.7-4.9,5.6
	c-0.8,2-1.1,3.9-1.1,5.6c0,2.3,0.6,4.3,1.3,5.6C189.9,70.6,192.3,75.7,190.9,79z M105.4,208.7c0,0.6,0,1.3,0.1,2
	c-7.5-4.5-15.3-13.3-17-15.2c0.2-0.1,0.4-0.2,0.5-0.4c0.2-0.2,0.4-0.5,0.6-0.7C91.6,196.7,97.1,202.8,105.4,208.7z M186.9,15.4
	c0.2,0.1,0.4,0,0.5-0.1l0.8-0.9c0,0,2.3-2.3,5-2.2c1.1,0.1,2.1,0.5,3,1.3c-2.7,0.2-7.1,1.4-9.5,6c-0.2,0.3-1.1,2.2-2,5
	c-0.7,2.5-2.9,4.6-4.6,4.5c-0.4-0.6-0.8-1.1-1.3-1.5c-0.3-0.2-0.7-0.4-1.1-0.5c-0.3-0.8-0.8-3.4,2.1-6.7c3.8-4.3,5.2-8.4,4.3-12.1
	c0.4,0.1,0.9,0.4,1.3,0.8c1,1,1.4,2.5,1.3,4.6l-0.1,1.2C186.6,15.1,186.7,15.3,186.9,15.4z M238,182.3c1.3,1.5,3.1,4.2,3.1,7.7
	c0,3.2-1.5,6.4-4.5,9.6c-0.1,0.1-9.1,9.7-24.1,0c-0.2-0.1-0.5-0.1-0.6,0.1l-0.5,0.7c-0.1,0.1-0.1,0.2-0.1,0.3c0,0.1,0.1,0.3,0.2,0.4
	c4.8,4.4,7.4,5.8,11.9,8.5l0.4,0.2c1,0.6,2.1,1.2,3.4,2c6.7,4,10.2,12.6,10.2,25.5c-12.9,0-21.5-3.4-25.5-10.2
	c-0.8-1.4-1.5-2.6-2.1-3.7l-0.1-0.1c-2.6-4.6-4.1-7.1-8.5-11.9c-0.2-0.2-0.5-0.2-0.7-0.1l-0.7,0.5c-0.2,0.2-0.2,0.4-0.1,0.7
	c2.9,4.5,4.4,8.8,4.4,13c0,6.7-3.9,10.6-4.4,11.1c-3.4,3.2-6.9,4.7-10.3,4.5c-3.2-0.2-5.7-1.9-7.1-3.1c5.8-1.5,9.5-7.5,9.6-7.7
	c3.3-5.2,5-11,5-17.1c0-10.2-4.8-19.3-7.5-23.7c3,1.9,8.1,4.6,14.2,6.2c9.8,2.5,18.8,1.3,26.6-3.7
	C230.5,191.8,236.5,188.1,238,182.3z M237.2,82.7c2.3-1.7,5.1-1.8,6.7-1.7c-1.4,1.8-4,5.5-5.9,11.2c-1.3,3.8-2.3,8.8-2.3,15.1
	c0,6.2,1,13.5,4,22c5.7,16.4,5.4,30.2-1.1,40.8c-4.4,7.3-17.4,20.5-34.8,17.9c-11.3-1.7-22-9.7-20.7-21.8
	c0.8-7.3,6.1-11.2,10.4-12.4c4.3-1.2,8.4,0.1,10.7,3.2c1.3,1.7,1.9,3.6,1.9,5.5c0,3-1.6,5.4-2.9,6.6c-2.1,1.7-4.4,1.2-5.6-0.2
	c-0.9-1-1.2-2.7,0.6-4.2c0.1-0.1,0.2-0.2,0.2-0.3c0-0.1,0-0.3-0.1-0.4l-0.6-0.7c-0.2-0.2-0.5-0.2-0.7,0c-2.6,2.3-2.3,5.1-0.8,6.8
	c0.9,1,2.1,1.7,3.5,1.9c3,3.1,6.3,4.7,10,4.7c7.2,0,12.8-6,13.1-6.3c11.8-13.9,4.3-27.2,4.3-27.3c-10.3-18-29.9-15.8-34.9-14.8
	c-0.1-1.3,0.2-2.6,1-3.6c2.7-3.7,10-4.5,10-4.6c0.2,0,0.4-0.2,0.4-0.4c0-0.1,0-0.1,0-0.2c0-0.1,0-0.1-0.1-0.2l0-0.5
	c0-0.3-0.2-0.5-0.5-0.5c-9.2-0.1-12.5-4.1-13.5-5.9c10-5.9,19.7,2.9,20.1,3.2c0.2,0.1,0.4,0.2,0.6,0.1c0.2,0.1,0.4,0,0.5-0.1
	c0.1-0.1,0.2-0.3,0.1-0.5l0.1-0.1c0.2-0.2,0.2-0.5,0-0.7c-2-2.3-2.3-5.3-2.4-6.9c3.3-0.2,5.7,0.5,7.3,2c2.2,2.2,2,5.5,2,5.5
	c-0.1,4.1,0.7,6.8,2.3,8.1c1.3,1.1,2.7,0.8,2.9,0.8c0.3-0.1,0.5-0.3,0.6-0.4c0,0,0.1-0.1,0.1-0.1c0.3-0.2,0.6-0.4,0.7-0.5
	c0,0,0.1-0.1,0.2-0.1c0.2-0.1,0.5-0.2,0.6-0.5c1.1-2.3-0.7-5.9-0.7-5.9c-0.8-2-6.4-8.6-6.4-8.6c-3.3-4.8-2.9-10.8-2.5-13.2
	c6.2,1.6,7.8,6.2,8,6.7c0.1,0.2,0.3,0.4,0.6,0.3c0.1,0.2,0.3,0.2,0.5,0.1c0.2-0.1,0.3-0.2,0.3-0.4l0,0c0.1,0,0.2-0.2,0.3-0.3
	c0.1-0.1,0.1-0.3,0-0.4c-2.8-9.3,0.6-15,2.3-17.1c1.9,3.7,2.7,10.7,2.7,10.8c0,0.3,0.2,0.4,0.5,0.4h0c0.1,0.2,0.3,0.3,0.5,0.3
	c0.2,0,0.3-0.1,0.4-0.3c0.2,0,0.4-0.2,0.4-0.4C232.6,88.6,234.3,84.8,237.2,82.7z M215.3,0.8C227.4,4.1,228,15.3,228,17.1
	c0,0,0,0.1,0,0.1c-0.4,0.6-0.7,1.3-1.1,2.1c-0.3-0.9-0.7-1.7-1.2-2.4c0-0.1,0-0.1,0-0.2c0-3.6-1.7-7.3-4.7-10.1
	c-3.5-3.3-8.1-4.8-13.1-4.4c-9.9,0.9-15.7,7.2-16.7,8.4c-1.1,0.3-2.1,0.8-2.7,1.3c-0.1-0.7-0.3-1.3-0.5-1.9
	C190,7.8,201.4-3,215.3,0.8z M45.1,172.8c0.4-0.3,0.8-0.6,1.3-1c0.2-0.1,0.4-0.2,0.6-0.3l0.1-0.1c0.6-0.2,1.1-0.3,1.5-0.3
	c0.3,0,0.6,0,0.9,0.1c0.3,0,0.5-0.2,0.5-0.4l0.1-0.9c0-0.3-0.1-0.5-0.4-0.5c0,0-0.4-0.1-1-0.1c-5.6-0.5-7.4-4-8.1-6.2l3.8,1.3
	c0.2,0.1,0.5,0,0.6-0.2c0.1-0.2,0.1-0.5-0.1-0.6l-1.7-1.5c-5.8-5.2-6.8-8.5-6.7-10.1c2.1,2.5,4.8,4.9,8.1,7.1
	c0.1,0.1,0.1,0.1,0.2,0.2c2.2,1.5,4.4,2.8,5.9,3.4c2.8,1.2,21.2,8,21.3,8c10.1,4.7,10.1,13.1,10,14.9c-0.6,0.3-1.1,0.6-1.5,1
	c-1.1,1.1-1.7,2.6-1.7,4.2c0,0,0,0,0,0c-3.3,1.4-8.5-1.1-8.5-1.1c-2.5-1.3-6.7-2.1-11.3-0.2c-2.9,1.2-4.7,3.5-5.6,4.9
	c-0.6-0.9-1.5-2.6-1.3-4.3c0.2-1.3,1-2.5,2.3-3.5c0.8-0.6,1.9-1.2,3.1-1.8c0,0,0,0,0.1,0l0.9-0.4c0.2-0.1,0.3-0.3,0.3-0.5
	c0-0.2-0.2-0.4-0.4-0.4l-1.3-0.3c-0.2,0-4-1-4.4-5.3c1.8-0.1,3.5-0.4,5.2-0.9c0,0,0.3-0.1,0.8-0.1c1.9,6.5,6.7,7.5,7.3,7.6
	c1,0.1,1.9,0,2.8-0.4c0.3-0.1,0.6-0.2,0.8-0.4c0.1,0,0.2-0.1,0.3-0.2c0.1-0.1,0.2-0.2,0.3-0.4c0.4-0.5,0.7-1.1,0.8-1.6
	c0-0.1,0-0.1,0-0.2c0,0,0-0.1,0-0.1c0-0.1,0-0.2,0-0.2c0.1-0.4,0.1-0.8,0-0.9c-0.2-1.6-1-2.9-2.3-3.8c-3.9-2.7-11.1-1.1-11.2-1.1
	c-9.1,2.6-12.3-0.6-13.2-1.8c0.2-0.2,0.3-0.3,0.5-0.5L45.1,172.8C45,172.8,45.1,172.8,45.1,172.8z M47.4,133.2
	c3.2-12.8,10.3-22.4,21.1-28.4c1.4-0.8,2.8-1.5,4.2-2c9.8-4,17.1-2.2,21.5,0c7.5,3.7,12.3,11.4,13.1,17c1.1,7.5-1.3,13.6-7,18.2
	c-4.3,3.5-12.7,3.8-17.9,0.7c-1.6-1-3.7-2.8-4.3-5.9c-0.1-0.5-0.1-0.9-0.1-1.4c0-0.5,0-1.1,0.1-1.6c0-0.1,0-0.3,0-0.4
	c0-0.1,0-0.2,0-0.3c0.1-0.4,0.2-0.7,0.3-1c0.1-0.2,0.1-0.4,0.2-0.6l0.1-0.3c0.2-0.6,0.4-1.2,0.6-1.7c0.4-0.7,0.9-1.3,1.3-1.8
	l0.2-0.3c0.2-0.2,0.3-0.4,0.5-0.6c0.5-0.4,1-0.8,1.5-1.1c0.5-0.3,0.9-0.5,1.4-0.7c0.3-0.1,0.6-0.2,0.9-0.3c1-0.3,1.8-0.4,2.5-0.4
	c3.2,0,5.6,1.5,6.1,3.8c0.3,1.6-0.3,3.7-1.5,4.8c-0.9,0.8-2,1.1-3.2,0.7c-0.1,0-0.3,0-0.4,0c-0.1,0.1-0.2,0.2-0.2,0.3l-0.2,0.9
	c-0.1,0.3,0.1,0.5,0.3,0.6c2.4,0.7,4-0.3,5-1.1c1.6-1.5,2.5-4.2,2.1-6.5c-0.1-0.3-0.2-0.5-0.3-0.7l0,0c0.6-1.3,0.9-2.5,0.8-3.7
	c-0.1-3.8-3.4-6.1-3.5-6.2c-0.3-0.3-7.8-7-22.9,2.8c-13.6,8.9-16.7,21.6-17.2,23.9c-0.6,0.4-1.4,0.8-2.1,1.3
	c-0.1,0.1-0.2,0.2-0.2,0.3c0,0.1,0,0.3,0.1,0.4l0.5,0.7c0.2,0.2,0.5,0.3,0.7,0.1c0.8-0.6,1.6-1.1,2.3-1.5c0,0,0.1,0,0.1,0l0.3-0.1
	c0.1-0.1,0.2-0.1,0.3-0.1c0.1,0,0.2-0.1,0.3-0.1c0.8-0.4,1.5-0.5,2.1-0.7c1.4-0.3,2.6-0.2,3.6,0.1c3.1,1,5,4.2,5.8,6.1
	c-4.2-0.2-7.4,0.9-9.6,3.3c-3.4,3.7-3.2,9.4-2.9,12.4c-1.2-0.5-2.1-0.8-2.6-1c-1.2-0.5-3.3-1.7-5.4-3.1c-0.2-1.2-1.2-8.2-0.2-16.9
	c0-0.4,0.1-0.8,0.2-1.3l0-0.3c0.1-0.7,0.2-1.5,0.3-2.2c0.2-1,0.4-2,0.7-3.1l0.1-0.4C47.3,133.5,47.3,133.3,47.4,133.2z M29.1,177.8
	c-0.4-0.7-0.4-1.4-0.4-1.7c0.1-0.6,0.4-1.1,1-1.6c0.4-0.3,0.9-0.6,1.6-0.9c0.3-0.1,0.6-0.3,1-0.4l0.2-0.1c2.9-0.7,6.8-0.6,9.9-0.3
	l-0.1,0.1c-0.1,0.1-0.1,0.2-0.1,0.3c0,0.1,0,0.1,0,0.2l0,0.1c-5.5,6.2-10.6,5.6-10.7,5.6C30.5,178.9,29.6,178.5,29.1,177.8z
	 M17.1,228C17,228,17,228,17.1,228c-1.3,0-13-0.4-16.4-12.8c-0.7-2.4-0.8-5-0.6-8c0-0.3,0.1-0.6,0.1-0.9c0-0.5,0.1-1,0.2-1.5
	c0,0,0-0.1,0-0.1c0-0.1,0-0.1,0.1-0.2c1.9-8.8,8-15.1,9.4-16.5c0.6,0.2,1.2,0.4,1.9,0.5c-0.4,0.7-0.8,1.6-1.1,2.5
	c-0.4,0.4-7.7,6.3-8.6,16.9c-0.4,4.9,1.1,9.7,4.4,13.1c2.9,3,6.7,4.8,10.3,4.7c0.8,0.6,1.6,1,2.4,1.2
	C18.4,227.3,17.7,227.7,17.1,228z M219,37.7h-0.3c-0.2,0-0.4,0.1-0.5,0.4l-0.1,0.3c0,0-0.1,0.2-0.1,0.6c-0.1-0.1-0.2-0.1-0.3-0.1
	l-0.3,0c0,0-1.7-0.1-4.1,0c1-0.5,2.1-1.2,3.1-1.9l0.3-0.2c0.2-0.1,0.2-0.4,0.2-0.6l-0.1-0.3c0,0-0.2-0.6-0.6-1.5
	c0.5,0.4,1,0.8,1.6,1.2l0.3,0.2c0.2,0.1,0.4,0.1,0.6,0l0.3-0.2c0,0,0.9-0.8,2.2-2c-0.3,0.9-0.6,1.8-0.9,2.8c0,0,0,0,0,0l-0.1,0.3
	c-0.1,0.2,0,0.4,0.2,0.5l0.3,0.2c0,0,0.2,0.1,0.5,0.3C220.4,37.8,219.7,37.7,219,37.7z M208.6,22.4c0.1,0.8,0.2,1.5,0.4,2.3
	c-0.8-0.6-1.7-1.1-2.6-1.5c0,0,0,0-0.1-0.1c-3.2-2.5-3.3-3.7-3.3-4.1c0.1-0.5,0.7-0.8,0.7-0.8h0C206.5,17.6,208.4,21.9,208.6,22.4z
	 M219.2,45.4c0-2.5,0.4-4.7,0.6-5.7c15.6,0.2,16.5,8.5,16.6,8.9c0.1,0.4,0.1,0.9,0.1,1.3c0,5.7-6.3,6.4-7,6.4
	c-3.2,0.2-5.6-0.5-7.3-2C220.2,52.4,219.2,49.4,219.2,45.4z M218.1,33.7c-6.3-4.9-7.7-9.3-7.7-12.1c0-2.3,0.9-3.8,1-3.9
	c1.1-1.9,2.5-3.1,4.2-3.5c2.9-0.7,5.7,1,5.7,1.1c2.8,1.7,4.2,3.9,4.2,6.4C225.5,26.8,219.9,32.2,218.1,33.7z M214.6,35.9
	c-10.8,7.4-16,1-16.2,0.7c-1.4-1.6-2-3.2-2-4.9c0-3,2.4-5.1,2.5-5.2c2.1-1.8,4.1-2.4,6.2-1.9C210,26,213.6,33.6,214.6,35.9z
	 M190.8,61.8C209.1,78.3,216,89,218.2,93.3c-1-0.5-2.1-0.8-3.2-1l-0.3-0.1c-2.1-3.6-8.3-12.4-23.7-23.6
	C190.3,66.6,190.2,64.2,190.8,61.8z M201.3,40.7c0,0,0.1,0,0.1,0.1c0.2,0.1,0.3,0.1,0.5,0.2c0.6,0.2,1.3,0.3,2.1,0.3
	c-0.8,0.5-1.6,1-2.2,1.6c-0.9,0.8-1.6,1.8-2,3.1c-1.1,0.2-2.5-0.3-3.3-1c-0.6-0.5-0.5-1-0.5-1.3C196.8,40.9,200.9,40.7,201.3,40.7z
	 M196.1,190.9c-5.2-2.4-8.5-5-8.5-5c-0.5-0.5-0.9-0.9-1.3-1.3c-0.3-0.3-0.6-0.6-0.9-1c-3.7-4.1-9.8-12.8-9.8-25
	c0-4.9,1.1-10.1,3.2-15.4c0.9-1.5,4.4-6.4,8.9-7.5c2.1-0.5,4.1-0.2,6,1c0,0,3.5,2.9,3.8,7c0.1,2.7-1.1,5.4-3.7,8c-0.1,0-0.1,0-0.2,0
	c-0.2,0-0.4,0-0.6,0.1c-4.9,1.3-10.9,5.7-11.8,14c-0.1,0.7-0.1,1.5-0.1,2.2c0,8.5,5.7,15.8,15.2,19.6L196.1,190.9z M219.6,54.1
	c0,0.1,1.8,5.1-0.5,6c-0.8,0.4-1.5,0.3-2.1-0.2c-0.7-0.6-1.1-1.8-1.1-3.1c0-0.7,0.1-1.4,0.3-2c0.8-1.2,1.4-2.7,1.8-4.4
	c0.4,1.3,0.8,2.4,1.5,3.3c0,0,0,0,0,0C219.6,53.9,219.6,54,219.6,54.1z M210.4,57.3c-2.1,0.6-4,0.5-5.5-0.3
	c-2.6-1.5-3.5-4.7-3.5-4.8c-0.3-1.1-0.4-2.1-0.4-3c0-2.1,0.7-3.8,2.1-5.1c3.7-3.4,11.1-3.5,13.4-3.5c0.3,1.7,0.4,3.3,0.4,4.8
	C216.9,55.5,210.7,57.2,210.4,57.3z M157.8,46.3c1.4,2.1,2.6,4.1,3.1,5.4c0.2,0.5,0.6,1.4,1,2.6c-3-0.4-8.6-0.5-12.4,2.9
	c-2.2,2-3.3,4.9-3.3,8.6c0,0.3,0,0.6,0,1c-1.9-0.9-5-2.7-6.1-5.8c-0.9-2.6,0-5.7,2.5-9.1c0.2-0.2,0.1-0.5-0.1-0.7l-0.7-0.5
	c-0.1-0.1-0.2-0.1-0.4-0.1c-0.1,0-0.2,0.1-0.3,0.2c-0.4,0.6-0.7,1.1-1,1.6c-0.1,0.1-0.2,0.3-0.2,0.4c-2,0.4-15,3.4-24,17.2
	c-3.6,5.4-5.4,10.5-5.4,15c0,5.2,2.4,7.8,2.4,7.8c0,0.1,3.9,5.7,9.9,2.8c0,0,0.1,0,0.1,0c0.2,0.1,0.4,0.2,0.7,0.3
	c2.2,0.4,5-0.4,6.5-2.1c0.9-1,1.8-2.6,1.2-5c0-0.1-0.1-0.2-0.2-0.3c-0.1-0.1-0.2-0.1-0.4,0l-0.9,0.2c-0.1,0-0.2,0.1-0.3,0.2
	c-0.1,0.1-0.1,0.2,0,0.4c0.3,1.3,0.1,2.4-0.7,3.2c-1.1,1.2-3.1,1.8-4.8,1.5c-2.3-0.4-3.8-2.9-3.8-6.1c0-3.7,2.2-8.4,8.5-9.6
	c5.4-1,8.3,1.7,9.8,4.2c3.1,5.2,2.8,13.5-0.7,17.8c-4.6,5.7-10.7,8-18.2,7c-5.6-0.8-13.3-5.5-17-13c-2.6-5.3-4.4-14.1,2.2-25.9
	C120.1,40.9,154.8,45.8,157.8,46.3z M32.3,240.8c0,0-3.3,0.6-5.7-1.2c-1.4-1-2.4-2.7-2.7-5c0,0-0.1-0.3-0.1-0.9c0-0.2,0-0.5,0.1-0.8
	c0-0.2,0.1-0.4,0.1-0.6c0,0,0,0,0,0l0.1-0.5c0,0,0-0.1,0-0.1c0.8-3.2,3.6-7.2,12.1-9.6c0.8,1.6,3,6.5,3,10.8
	C39.2,237.4,36.9,239.9,32.3,240.8C32.3,240.8,32.3,240.8,32.3,240.8z M43.2,243.2c-0.5,0.1-1-0.1-1.3-0.4c-0.9-0.9-1.3-3.1-1.3-5.2
	c0-0.6,0-1.3,0.1-1.8l0.1-0.7c0,0,0-0.1,0-0.1c0-0.1,0-0.2,0-0.3c0.1-0.5,0.2-1,0.2-1.5c0.2,0.3,0.4,0.6,0.6,0.9
	c0,0.1,0,0.1,0.1,0.2c1.8,2.2,2.9,6.6,2.1,8.4v0C43.7,243.1,43.4,243.2,43.2,243.2z M39.5,219.8c2.2-0.5,9.6-1.6,13.8,1.6
	c2.2,1.7,3.1,4.4,2.9,8.1c0,0.2-0.3,3.8-2.7,5.8c-1.3,1-3,1.4-5.1,1.1C48,236.3,39.8,235.4,39.5,219.8z M18.2,234.1
	c-1,0.4-1.9,0.1-2.4-0.4c-0.2-0.2-0.4-0.5-0.5-0.7l0-0.2c0-0.2-0.1-0.5,0-0.7c0.2-0.6,1-1.5,3.4-2.9c0,0,0,0,0.1,0
	c1.7-0.9,3.6-1.7,4.9-2.1c0,0,0.1,0,0.1,0c0.2-0.1,0.5-0.1,0.7-0.2c-1.1,1.4-1.8,2.9-2.2,4.5C21.8,231.8,20.2,233.3,18.2,234.1z
	 M54,219.6C54,219.6,54,219.6,54,219.6c-1-0.7-2.1-1.2-3.4-1.6c1.5-0.4,2.9-1,4-1.7c0,0,0.1,0,0.1,0c1.9-0.6,4.2-0.3,5.1,0.7
	c0.5,0.5,0.6,1.2,0.2,2.1C59.1,221.4,54.1,219.6,54,219.6z M129.1,239.7c-27.4-9.5-43.8,0.8-48.2,4.2c-0.1-1.2,0-2.8,0.6-4.6
	c0.3-0.8,0.7-1.5,1.1-2.1c2.1-2.9,5.9-4.6,11.4-5c0.3,0,0.4-0.2,0.4-0.5v0c0.2,0,0.4-0.2,0.4-0.5c0,0,0,0,0,0c0-0.2-0.2-0.4-0.4-0.5
	c0-0.2-0.2-0.4-0.4-0.4c-0.3,0-7.2-0.8-10.8-2.7c2.1-1.7,7.7-5.1,17.1-2.3c0.3,0.1,0.5-0.1,0.6-0.3l0-0.1c0.2,0,0.4-0.1,0.5-0.3
	c0.1-0.2,0-0.5-0.3-0.6c0-0.2-0.2-0.4-0.4-0.4c-0.5-0.2-5-1.8-6.7-8c2.4-0.3,8.4-0.8,13.1,2.5c0.1,0.1,6.6,5.7,8.6,6.4
	c0.6,0.3,3.8,1.8,6,0.7c0.3-0.2,0.5-0.4,0.6-0.6c0-0.1,0.1-0.2,0.1-0.2c0.3-0.2,0.5-0.5,0.7-1c0.1-0.1,0.3-0.2,0.3-0.5
	c0-0.2,0-0.8-0.1-1.5c0-0.2-0.1-0.4-0.2-0.5c0-0.1,0-0.1-0.1-0.2c-0.1-0.2-0.1-0.4-0.3-0.7c-1.3-1.7-4.1-2.4-8.2-2.3
	c0,0-3.3,0.2-5.5-2c-0.6-0.6-1.1-1.5-1.5-2.8l-0.1-0.3c-0.1-0.1-0.1-0.3-0.1-0.5c-0.3-1.2-0.4-2.4-0.3-3.8c1.4,0,4.6,0.3,6.9,2.4
	c0.2,0.2,0.5,0.2,0.7,0l0.2-0.2c0.2,0.1,0.4,0,0.5-0.1c0.2-0.2,0.2-0.4,0.1-0.6c0-0.1,0-0.3-0.1-0.4c-0.1-0.1-9.2-9.9-3.2-20.1
	c1.7,1,5.7,4.4,5.9,13.5c0,0.3,0.2,0.5,0.5,0.5l0.9,0c0.3,0,0.5-0.2,0.5-0.4c0-0.1,0.8-7.3,4.6-10c1-0.8,2.3-1.1,3.6-1
	c-0.9,5-3.2,24.6,14.8,34.9c0.1,0.1,13.5,7.5,27.4-4.3c0.3-0.2,6.3-5.9,6.3-13c0-3.7-1.6-7-4.7-10c-0.2-1.4-0.9-2.6-1.9-3.5
	c-1.7-1.5-4.5-1.8-6.8,0.8c-0.2,0.2-0.2,0.5,0,0.7l0.7,0.6c0.1,0.1,0.2,0.1,0.4,0.1c0.1,0,0.2-0.1,0.3-0.2c1.6-1.8,3.2-1.5,4.2-0.6
	c1.4,1.2,1.9,3.6,0.2,5.6c-2,2.4-7,4.7-12.1,1c-3.1-2.3-4.4-6.4-3.2-10.7c1.2-4.3,5.1-9.6,12.4-10.4c12.1-1.3,20.1,9.4,21.8,20.7
	c2.6,17.4-10.6,30.3-17.9,34.8C159.2,245.1,145.5,245.4,129.1,239.7z M14.3,188.3l0.9-0.8c0.1-0.1,0.2-0.4,0.1-0.5
	c-0.1-0.2-0.3-0.3-0.5-0.3l-1.2,0.1c-2.1,0.1-3.6-0.3-4.6-1.3c-0.4-0.4-0.7-0.9-0.8-1.4c2.3,0.6,4.8,0.2,7.5-1.2
	c1.8-0.9,3.3-1.8,4.7-3.1c0.1-0.1,0.2-0.2,0.4-0.3c0.1-0.1,0.2-0.1,0.3-0.2c0.5-0.4,1-0.8,1.6-1c0.2-0.1,0.4-0.2,0.6-0.3
	c1.9-0.8,3.3-0.5,3.8-0.3c0.1,0.4,0.3,0.8,0.5,1.1c0.3,0.5,0.8,1,1.5,1.3c0.1,1.7-2,3.9-4.5,4.6c-3.2,0.9-5,2-5,2
	c-4.7,2.4-5.8,6.9-6.1,9.5c-0.8-1-1.3-2-1.3-3C12,190.6,14.2,188.4,14.3,188.3z M37.3,220.2c-0.1-0.2-0.3-0.3-0.5-0.2l-0.3,0.1
	c-1,0.3-1.9,0.5-2.9,0.9c1.3-1.2,2-2.2,2-2.2l0.2-0.3c0.1-0.2,0.1-0.4,0-0.6l-0.2-0.3c-0.4-0.6-0.8-1.1-1.3-1.6
	c0.9,0.4,1.5,0.6,1.5,0.6l0.3,0.1c0.2,0.1,0.4,0,0.6-0.2l0.2-0.3c0.7-1,1.4-2,1.9-3c-0.1,1-0.1,1.8-0.1,2.3c0,1.1,0,1.7,0,1.7l0,0.3
	c0,0.1,0.1,0.2,0.1,0.3c-0.3,0.1-0.5,0.1-0.6,0.1l-0.3,0.1c-0.2,0.1-0.4,0.3-0.4,0.5v0.4c0,0.7,0,1.3,0.1,1.9
	c-0.2-0.3-0.3-0.5-0.3-0.5L37.3,220.2z M92.2,215.1c0.2,1.1,0.5,2.1,1,3.2c-4.7-2.5-15.2-9.4-31.5-27.4c2.4-0.6,4.8-0.5,6.8,0.2
	c11.2,15.4,20,21.6,23.6,23.7L92.2,215.1z M48,201.1l0.2,0c1.2-0.1,2.6,0,4,0.3c0.2,0.1,5.5,1.5,5.5,6.4c0,0.8-0.1,1.7-0.4,2.6
	c0,0.1-2.4,8.4-16.6,6.1c0-0.2,0-0.5,0-0.9c0-3,0.4-10.3,4.3-13.3C45.8,201.7,46.8,201.3,48,201.1z M87.7,193.7
	c-1.6,1.6-4.2,1.6-5.7,0c-0.8-0.8-1.2-1.8-1.2-2.9s0.4-2.1,1.2-2.9c0.3-0.3,0.8-0.6,1.3-0.8c0.5-0.3,1.1-0.3,1.7-0.3l0.1,0
	c1,0.1,1.9,0.5,2.6,1.1C89.2,189.5,89.2,192.2,87.7,193.7z M24.4,203.8C24.4,203.8,24.4,203.8,24.4,203.8c0-0.1,0-0.1,0-0.2
	c0-0.1,0-0.1,0-0.2c0-0.3,0.1-0.6,0.2-1l0.1-0.3c0.4-1.2,0.9-2.3,1.8-3.3c0,0,1.2-1.4,3-2.1c2.3-0.8,4.7-0.3,7,1.7
	c0.1,0.1,2.8,2.3,2.8,6.7c0,2.9-1.2,6.1-3.6,9.5C33.7,213.7,24.7,209.4,24.4,203.8z M18.1,211.2c1.8-0.8,8.1-2.7,15.5,6.9
	c-1.6,1.8-7.2,7.7-12.4,7.3c-2.3-0.1-4.3-1.5-6-4.2l0,0c0,0-1.1-1.9-1.2-4.2l0-0.2c0-0.8,0.3-1.7,0.8-2.6c0.2-0.3,0.4-0.6,0.6-0.9
	c0.5-0.6,1.1-1.1,1.8-1.6c0.1-0.1,0.2-0.2,0.3-0.3c0.1-0.1,0.2-0.2,0.3-0.3C17.8,211.3,17.9,211.2,18.1,211.2z M24.7,209.1
	c-0.8-0.3-1.6-0.4-2.2-0.5l-0.1,0c-0.6-0.2-4.6-2-4.1-4.6c0,0,0,0,0,0c0.1-0.1,0.2-0.4,0.5-0.7c0.1-0.1,0.2-0.2,0.3-0.2
	c0.3-0.1,1.6,0,4.1,3.3c0,0,0,0,0,0C23.5,207.3,24,208.2,24.7,209.1z M43.8,200.9c-1.2,0.9-2,2.1-2.6,3.3c-0.1-0.8-0.3-1.4-0.5-2.1
	l0,0l0-0.1c0-0.1,0-0.2,0-0.3c0-0.1,0-0.3-0.1-0.4c0-0.1,0-0.3,0-0.5c0.1-1.2,0.7-4,2.9-4.7c0.5-0.1,0.8,0.1,1.2,0.4
	c0.8,0.8,1.2,2.4,1,3.5c-0.1,0-0.1,0-0.2,0.1C45,200.3,44.3,200.5,43.8,200.9z M110.9,465.9l-3.5,0.2c2.4-3.1,4.2-6.3,5.4-9.3
	l0.1-0.1c1.2-1.3,2.3-1.9,3.5-1.9c1.2,0,2,0.9,2,1c0.5,0.6,0.7,1.1,0.6,1.9C118.4,461.1,111.6,465.5,110.9,465.9z M159.8,498.9
	c-6.6-5.7-19.2-10.1-19.7-10.3c-0.4-0.1-0.8-0.3-1.2-0.4l-0.9-0.3c-0.3-0.1-0.5-0.2-0.8-0.2c-0.7-0.2-1.4-0.4-2.2-0.5
	c-0.6-0.1-1.1-0.2-1.7-0.3c-0.7-0.1-1.4-0.2-2.1-0.3c-0.8-0.1-1.7-0.2-2.8-0.3c-0.5,0-0.9-0.1-1.4-0.1c-1.3-0.1-2.6-0.1-4.2,0
	l-0.3,0c-7.9,0.4-16,2.4-24.2,6.1c-16.9,7.7-34.9,5.8-35.7,5.7c-19.4-2.7-28.4-10.6-32.5-16.9c-2.4-3.6-3-6.6-3.2-7.4l0-0.2
	c0,0,0-0.1,0-0.1c0-0.2-4.6-20.7,9.2-32.6c0.5-0.5,12.5-12.2,25.1-2.3c10.1,12.8-1.6,24.8-2.1,25.3c-4.8,5.6-11.4,8.8-19.8,9.7
	c-1.5-2.2-2.7-4.5-3.4-7.2c3.8,0.4,13.4,0.4,19.3-6.9c0.1-0.1,6.6-7.7,1-15.6l-0.2-0.2c-7.9-5.6-15.4,1-15.5,1
	c-9.3,7.4-6.8,20.7-6.8,20.8c4.9,22.9,31,19.4,31.3,19.4c11.5-2.1,17.4-7.2,17.1-14.9c0-1-0.3-1.9-0.7-3c0-0.1-0.1-0.2-0.2-0.3
	l-0.1-0.2c-0.2-0.5-0.5-1-0.9-1.6c-0.3-0.4-0.5-0.7-0.9-1.1c-0.2-0.2-0.4-0.4-0.6-0.7c-0.5-0.5-0.9-0.9-1.3-1.3c0,0-0.2-0.1-0.2-0.1
	c-2.1-1.7-4.2-2.9-5.4-3.5c3.5-3.1,6.9-4.4,10.1-3.8c6.2,1.1,9.8,9,9.8,9c0.1,0.2,0.4,0.3,0.6,0.2l0.8-0.3c0.2-0.1,0.4-0.4,0.3-0.6
	c-0.3-0.9-0.5-1.8-0.6-2.8c0,0,0-0.1,0-0.1c-0.1-2.2,0.6-3.7,1.1-4.5c1.3,0.9,4.3,3.3,6.1,8.7c0.2,0.8,0.4,1.5,0.5,2.4l0,0.5
	c0.2,5.5-4.8,7.9-5,8l-0.7,0.4c-2.4,1.3-6.8,3.6-7.3,6.2c-0.2,0.8,0,1.6,0.5,2.3c0.8,1,1.7,1.5,2.7,1.4c2.6-0.1,4.8-3.6,6.1-5.5
	c0.2-0.3,0.4-0.6,0.5-0.7c0.2-0.3,0.4-0.6,0.7-1c1-1.5,2.7-4,4.9-5.6c8.7-6.4,14.8-5.8,17.1-5.1l-7.1,9.5c-0.1,0.2-0.1,0.5,0.1,0.6
	c0.2,0.2,0.4,0.2,0.6,0l2.7-2.2c9.3-7.4,21.5-4.6,24.8-3.7c-1.1,4.3-6,6-6.2,6.1c-0.2,0.1-0.4,0.3-0.3,0.6l0.3,0.9
	c0.1,0.3,0.3,0.4,0.6,0.3c12-3.4,18.4,1,20.1,2.5c-2.1,2.4-7,2.4-7.2,2.4c-0.2,0-0.5,0.2-0.5,0.4l-0.1,0.9c0,0.2,0.1,0.5,0.4,0.5
	C158.4,488.4,159.8,495.6,159.8,498.9z M100,455.1c-1.1-2.4-1.4-4.2-0.8-5.3c0.4-0.7,1.1-0.9,1.1-0.9c2.4-0.3,3.5,2,3.9,3
	c1.5,4.9,1.1,9.7-1.1,14.5l-0.6,0c0-0.1,0-0.2,0-0.4l0-0.2C102.1,460,100,455.2,100,455.1z M25,472.7c-1.4-0.4-2.8-1-4.3-1.8
	c-1.2-0.7-2.4-1.4-3.6-2.3l-0.1-0.1c-1.4-1.1-2.7-2.3-3.9-3.7l-0.4,0.3v0l0.2-0.5c-0.5-0.6-1-1.3-1.5-1.9c-0.3-0.3-0.5-0.7-0.8-1.1
	c-0.3-0.5-0.6-0.9-0.9-1.4c-0.5-0.7-0.9-1.5-1.3-2.2c-0.2-0.3-0.3-0.6-0.5-0.8c-0.7-1.3-1.2-2.4-1.7-3.7c-1.9-4.7-3.3-10.1-4.1-16.1
	c0-0.2-2.1-18.7,5.7-35.8c9.6-21.1,5.8-36.1,3.7-41.6c-0.1-0.2-2.1-6.2-5.2-12.1c0,0-0.1-0.1-0.1-0.1c-0.6-1.1-1.1-2.1-1.7-3
	c-0.3-0.5-0.6-0.9-0.9-1.3l-0.5-0.7c-0.2-0.3-0.4-0.6-0.6-0.9c-0.5-0.6-0.9-1.2-1.4-1.7c3.3,0,10.5,1.4,12.9,11.5
	c0.1,0.2,0.2,0.4,0.5,0.4c0,0,0,0,0.1,0l0.9-0.1c0.2,0,0.4-0.2,0.4-0.5c0-0.1-0.1-5.1,2.4-7.2c1.5,1.8,5.9,8.1,2.5,20.1
	c-0.1,0.3,0.1,0.5,0.3,0.6l0.9,0.3c0.2,0.1,0.5-0.1,0.6-0.3c0.1-0.2,1.7-5.1,6-6.2c0.9,3.3,3.7,15.6-3.6,24.8l-2.2,2.7
	c-0.2,0.2-0.1,0.5,0,0.6c0.2,0.2,0.4,0.2,0.6,0.1l9.5-7.1c0.7,2.4,1.4,8.4-5.1,17.2c-1.6,2.2-4.1,3.9-5.6,4.9
	c-0.4,0.3-0.8,0.5-1,0.7c-0.1,0.1-0.4,0.3-0.7,0.5c-1.9,1.2-5.4,3.5-5.5,6.1c0,1,0.4,1.9,1.4,2.7c0.7,0.5,1.4,0.7,2.3,0.5
	c2.6-0.6,5-5,6.2-7.3l0.4-0.7c0.1-0.2,2.5-5,7.7-5c0.1,0,0.2,0,0.2,0l0.5,0c0.9,0.1,1.6,0.2,2.4,0.5c5.4,1.7,7.8,4.7,8.7,6.1
	c-0.4,0.3-1.2,0.6-2.2,0.9l0.1,0.5l-0.3-0.4c-0.5,0.1-1.1,0.2-1.8,0.1c-0.9,0-1.9-0.1-3.2-0.6c-0.1,0-0.1,0-0.2,0
	c-0.2-0.1-0.5,0-0.6,0.3l-0.3,0.8c-0.1,0.2,0,0.5,0.2,0.6c0.3,0.1,7.9,3.7,9,9.8c0.6,3.2-0.7,6.6-3.9,10.1c-0.3-0.5-0.7-1.3-1.2-2.2
	c-0.1-0.1-0.2-0.3-0.3-0.4l-0.2-0.3c-0.2-0.3-0.4-0.7-0.7-1c-0.3-0.4-0.6-0.8-0.9-1.2c-0.2-0.2-0.3-0.4-0.5-0.6
	c-0.3-0.4-0.7-0.8-1.2-1.3c-0.1-0.1-0.3-0.3-0.5-0.4c-0.5-0.4-1-0.8-1.5-1.1c-0.2-0.1-0.3-0.2-0.5-0.3l-0.2-0.1
	c-0.5-0.3-1-0.5-1.5-0.7c-0.6-0.2-1.3-0.4-2.2-0.5c0,0-0.2-0.1-0.3-0.1c-0.1,0-0.1,0-0.2,0c-0.2,0-0.3,0-0.5,0c-0.1,0-0.2,0-0.3,0
	c-0.1,0-0.3,0-0.5,0c-7,0.4-11.7,6.3-13.6,17c-0.1,0.7-2.3,17.6,9.3,26.6C24.1,466.8,24.6,471,25,472.7z M44.7,388.7
	c0.1,0,0.2-0.1,0.2-0.1c1.5-0.3,4.2-0.6,5.5,1.9c0,0.1,0.3,0.7,0,1.4c-0.3,0.8-1.2,1.4-2.6,2c-5.3-1.4-9.9-0.6-13.4,0.7
	C37.8,391.9,41.3,389.9,44.7,388.7z M44.4,381.8c0,0,0.9,0.8,0.9,2c0,1.1-0.6,2.2-1.9,3.5l-0.1,0.1c-3.1,1.2-6.3,3-9.4,5.5l0.2-3.4
	c0,0,0,0,0-0.1c0,0,0,0,0-0.1c0,0,0,0,0-0.1c1.7-2.8,5.4-7.7,8.3-8.1C43.2,381.1,43.8,381.3,44.4,381.8
	C44.4,381.8,44.3,381.8,44.4,381.8z M33.5,397c4.8-2.3,9.7-2.7,14.6-1.2c1,0.4,3.4,1.5,3.1,3.9c0,0-0.1,0.7-0.9,1.1
	c-0.4,0.2-1.1,0.3-1.9,0.2c-0.1,0-0.3,0-0.4-0.1c-0.6-0.1-1.4-0.4-2.4-0.8c-0.1,0-0.2-0.1-0.3-0.1c-0.1,0-0.1,0-0.2-0.1
	c-0.2-0.1-5.1-2.2-11-2.5c-0.1,0-0.1,0-0.2,0c-0.1,0-0.3,0-0.4,0L33.5,397z M105.5,465.7c1.3-3.5,2.1-8.1,0.7-13.4
	c0.5-1.4,1.2-2.3,2-2.6c0.7-0.3,1.2-0.1,1.4,0c2.5,1.4,2.3,4.1,2,5.5c0,0.1-0.1,0.1-0.1,0.3C110.2,458.8,108.2,462.3,105.5,465.7z
	 M87.8,306.3c1.6,1.6,1.6,4.2,0,5.7c-0.7,0.7-1.7,1.2-2.8,1.2c-0.2,0-0.3,0-0.5-0.1l-0.3-0.1c-0.9-0.2-1.7-0.5-2.2-1.1
	c-1.6-1.6-1.6-4.2,0-5.7C83.6,304.8,86.2,304.8,87.8,306.3z M174.6,327.7c-18.2,29.9-12.7,48.1-12.7,48.3l0.5-0.1l-0.4,0.3
	c0.6,2.8,1.9,12.4-5,18.2c0,0-2.6,2.1-6.4,2.2c-0.1,0-0.2,0-0.3,0c-0.9,0-1.9-0.2-2.8-0.4c0,0-0.1,0-0.1,0c-1.9-0.6-3.5-1.6-4.8-3.1
	c-3.7-4.3-3.6-11.1-2.7-14.4c0,0,0,0,0-0.1c0,0,0,0,0,0C139.9,378.4,142.8,362.4,174.6,327.7z M105.6,289.3c-0.1,0.7-0.1,1.3-0.1,2
	c-8.3,5.8-13.8,12-15.9,14.4c-0.2-0.2-0.3-0.5-0.5-0.7c-0.2-0.2-0.4-0.3-0.5-0.4C90.4,302.5,98.1,293.8,105.6,289.3z M126.4,318.5
	c7.5,0,14.7,4,15.1,4.1c0.2,0.1,0.4,0.1,0.5,0.2c0.1,0,0.3,0.1,0.3,0.1c0.2,0.1,0.4,0.2,0.4,0.2c0.1,0,0.1,0,0.2,0c0,0,0.1,0,0.1,0
	c5.4,2.1,10.7,3.2,15.6,3.2c4.1,0,8.1-0.7,12-2C144.3,340,127.4,337,125,336.4c0,0-0.1,0-0.1,0c0,0-0.2-0.1-0.6-0.1
	c-5.9-1.4-8.8-6.7-8.8-6.7c-0.9-2-1-3.9-0.4-5.5c1.1-2.8,4.2-4.1,4.3-4.2C121.5,319,123.8,318.5,126.4,318.5z M112.6,387.5
	c-0.2-0.3-0.4-0.6-0.7-1c-1.4-2.8-1.5-7.1-1.5-7.1c0.1-10.8,10.5-16.7,11.6-17.3c2-0.4,16.5-3.8,47.4-31.3
	c-27.5,30.9-30.9,45.4-31.3,47.4c-0.5,1-6.4,11.5-17.2,11.6c-0.3,0-1.6-0.1-3.1-0.3C115.4,389,113.6,388.3,112.6,387.5z
	 M119.1,337.6c2.2,0,4,0.3,4.8,0.5l0.2,0c0,0,0,0,0,0c0.3,0.1,2.9,0.8,7.5,0.8c7.1,0,21.6-1.9,41-13.7
	c-16.5,15.2-28.4,23.5-35.7,27.9c-6.4,3.8-10.7,5.6-13.2,6.5l-2.3,0.6c-1.2,0.3-2.7,0.5-4.3,0.5c-1,0-3.7-0.1-6.4-1.1l-0.2-0.1
	c-0.1,0-0.2-0.1-0.3-0.1c-0.4-0.2-0.8-0.4-1.3-0.7c-0.4-0.2-0.8-0.5-1.2-0.8l-0.1-0.1c-0.2-0.2-0.5-0.3-0.7-0.5
	c-0.5-0.4-0.9-0.9-1.2-1.4c-0.1-0.1-0.2-0.2-0.3-0.3c-0.1-0.1-0.2-0.2-0.3-0.3c-0.2-0.2-0.3-0.5-0.4-0.8c-0.1-0.2-0.1-0.3-0.2-0.5
	c-0.1-0.1-0.1-0.3-0.2-0.4c-0.1-0.2-0.2-0.5-0.3-0.8c-1.7-5.6,1.6-9.6,1.7-9.8C109.6,338.6,115.1,337.6,119.1,337.6z M15.4,268
	c-0.2-0.6,0-1.2,0.5-1.7c0.5-0.5,1.4-0.9,2.4-0.4c1.9,0.8,3.5,2.3,4,2.7c0.2,0.9,0.5,1.7,0.9,2.5c0.3,0.7,0.8,1.4,1.5,2.1
	c-0.2-0.1-0.5-0.1-0.7-0.2c0,0-0.1-0.1-0.2-0.1c-1-0.3-3.5-1.3-5.6-2.6c0,0-0.1,0-0.1-0.1C17.4,269.9,15.7,268.9,15.4,268z
	 M42.5,326.5L42.5,326.5c-0.1,0.3-0.1,0.4,0,0.6l0.1,0.1c-4.9,0.5-12.9,0.4-13.7-3c0-0.1-0.2-1.1,0.3-1.9c0.5-0.7,1.3-1.1,2.6-1.3
	C31.9,320.9,36.9,320.3,42.5,326.5z M163.6,375c-0.6-2.4-3.6-19.3,12.2-45.7c-2.3,7-3.3,16.5,1.1,27.8c0,0,0,0,0,0
	c0,0.1,0,0.3,0.1,0.4l0.1,0.2c0.1,0.1,0.1,0.3,0.1,0.4c0.1,0.2,0.1,0.4,0.2,0.6c0.1,0.1,6.9,12.6,2.7,21.9c-0.1,0.2-2,4.6-6.3,4.7
	l-0.2,0c-1.1,0-2.1-0.3-3.2-0.7c-0.1,0-5.3-2.9-6.7-8.8c-0.1-0.4-0.1-0.6-0.1-0.6C163.6,375.1,163.6,375.1,163.6,375z M181.3,334.2
	c0.9,8.2,6.9,12.7,11.8,14c0.2,0.1,0.4,0.1,0.6,0.1c0.1,0,0.1,0,0.2,0c2.6,2.6,3.8,5.3,3.7,8c-0.2,4.1-3.7,7-3.7,7
	c-2,1.2-4,1.6-6.1,1.1c-4.7-1.2-8.3-6.5-8.9-7.5c-5.3-13.5-2.8-24.2,0.3-30.9c1.7-3.6,3.9-6.9,6.5-9.8c0.3-0.3,0.6-0.6,0.9-0.9
	c0.4-0.4,0.7-0.7,1.1-1.1c0,0,3.4-2.6,8.6-5l0.2,3.3C188.2,315.6,180.1,323,181.3,334.2z M23.9,265.3c0.8-5.1,4.3-6.2,7.1-6.2
	c0.8,0,1.3,0.1,1.3,0.1c3.1,0.6,5.1,1.9,6.2,4c2.3,4.9-1.2,12.5-2.3,14.7C22.4,274.1,23.9,265.7,23.9,265.3z M40.9,264.4
	c-0.2-2.1-0.1-6,1.2-7.3c0.4-0.4,0.8-0.5,1.3-0.4c0.2,0,0.4,0.1,0.6,0.6c0.8,1.8-0.3,6.3-2.1,8.4c0,0.1-0.1,0.1-0.1,0.2
	c-0.2,0.3-0.5,0.6-0.7,1c0-0.8-0.1-1.5-0.3-2.3C40.9,264.6,40.9,264.5,40.9,264.4z M79,309.1C79,309.2,79,309.2,79,309.1
	c0,1.6,0.6,3.1,1.7,4.2c0.4,0.4,0.9,0.8,1.5,1c0.1,1.9,0,10.3-9.9,14.9c-0.2,0.1-18.6,6.9-21.4,8.1c-1.4,0.6-3.6,1.9-5.8,3.3
	c-0.1,0-0.2,0.1-0.3,0.2c0,0,0,0,0,0c-3.3,2.3-6,4.7-8.1,7.1c0-1.6,0.9-5,6.7-10.2l1.7-1.5c0.2-0.2,0.2-0.4,0.1-0.6
	c-0.1-0.2-0.4-0.3-0.6-0.2l-3.8,1.3c0.6-2.2,2.5-5.7,8-6.2c0.6,0,1-0.1,1-0.1c0.2-0.1,0.4-0.3,0.4-0.5l-0.1-0.9
	c0-0.3-0.3-0.4-0.5-0.4c-0.3,0-0.6,0-0.8,0.1c-0.9,0-2.7-0.4-4.3-2.2c0.9-1.2,4.1-4.5,13.3-1.8c0.3,0.1,7.3,1.5,11.1-1.1
	c1.3-0.9,2.1-2.2,2.3-3.9c0-0.1,0.1-2-1.2-3.3c-0.9-0.9-2.2-1.2-3.9-0.9c-0.2,0-5.3,0.8-7.2,7.6c-0.4-0.1-0.7-0.1-0.7-0.1
	c-1.8-0.5-3.4-0.8-5.2-0.9c0.3-4.3,4.3-5.3,4.3-5.3l1.3-0.3c0.2,0,0.3-0.2,0.4-0.4c0-0.2-0.1-0.4-0.3-0.5l-1.2-0.5
	c-3.1-1.3-4.8-3-5.2-4.9c-0.4-1.8,0.6-3.6,1.3-4.7c0.9,1.4,2.7,3.8,5.6,4.9c2,0.8,3.9,1.1,5.6,1.1c2.3,0,4.3-0.6,5.6-1.3
	C70.6,310.1,75.7,307.7,79,309.1z M208.7,394.6c0.6,0,1.3,0,2-0.1c-4.5,7.5-13.3,15.3-15.2,17c-0.1-0.2-0.2-0.4-0.4-0.5
	c-0.2-0.2-0.5-0.4-0.7-0.6C196.7,408.4,202.8,402.9,208.7,394.6z M15.4,313.1c0.1-0.2,0-0.4-0.1-0.5l-0.9-0.8c0,0-2.3-2.3-2.2-5
	c0.1-1.1,0.5-2.1,1.3-3c0.2,2.7,1.4,7.1,6,9.5c0.3,0.2,2.2,1.1,5,2c2.5,0.7,4.6,2.9,4.5,4.6c-0.6,0.4-1.1,0.8-1.5,1.3
	c-0.2,0.3-0.4,0.7-0.5,1.1c-0.8,0.3-3.4,0.8-6.7-2.1c-4.3-3.8-8.4-5.2-12.1-4.3c0.1-0.4,0.4-0.9,0.8-1.3c1-1,2.5-1.4,4.6-1.3
	l1.2,0.1C15.1,313.4,15.3,313.3,15.4,313.1z M182.3,262c1.5-1.3,4.2-3.1,7.7-3.1c3.2,0,6.4,1.5,9.6,4.5c0.1,0.1,9.7,9.1,0,24.1
	c-0.1,0.2-0.1,0.5,0.1,0.6l0.7,0.5c0.1,0.1,0.2,0.1,0.3,0.1c0.1,0,0.3-0.1,0.4-0.2c4.4-4.8,5.8-7.4,8.5-11.9l0.2-0.4
	c0.6-1,1.2-2.1,2-3.4c4-6.7,12.6-10.2,25.5-10.2c0,12.9-3.4,21.5-10.2,25.5c-1.4,0.8-2.6,1.5-3.7,2.1l-0.1,0.1
	c-4.6,2.6-7.1,4.1-11.9,8.5c-0.2,0.2-0.2,0.5-0.1,0.7l0.5,0.7c0.2,0.2,0.4,0.2,0.7,0.1c4.5-2.9,8.8-4.4,13-4.4
	c6.7,0,10.6,3.9,11.1,4.4c3.2,3.4,4.7,6.9,4.5,10.3c-0.2,3.2-1.9,5.7-3.1,7.1c-1.5-5.8-7.5-9.5-7.7-9.6c-5.2-3.3-11-5-17.1-5
	c-10.2,0-19.3,4.8-23.7,7.5c1.9-3,4.6-8.1,6.2-14.2c2.5-9.8,1.3-18.8-3.7-26.6C191.8,269.5,188.1,263.5,182.3,262z M82.7,262.8
	c-1.7-2.3-1.8-5.1-1.7-6.7c1.8,1.4,5.5,4,11.2,5.9c3.8,1.3,8.8,2.3,15.1,2.3c6.2,0,13.5-1,22-4c16.4-5.7,30.2-5.4,40.8,1.1
	c7.3,4.4,20.5,17.4,17.9,34.8c-1.7,11.3-9.7,22-21.8,20.7c-7.3-0.8-11.2-6.1-12.4-10.4c-1.2-4.3,0.1-8.4,3.2-10.7
	c1.7-1.3,3.6-1.9,5.5-1.9c3,0,5.4,1.6,6.6,2.9c1.7,2.1,1.2,4.4-0.2,5.6c-1,0.9-2.7,1.2-4.2-0.6c-0.1-0.1-0.2-0.2-0.3-0.2
	c-0.1,0-0.3,0-0.4,0.1l-0.7,0.6c-0.2,0.2-0.2,0.5,0,0.7c2.3,2.6,5.1,2.3,6.8,0.8c1-0.9,1.7-2.1,1.9-3.5c3.1-3,4.7-6.3,4.7-10
	c0-7.2-6-12.8-6.3-13.1c-13.9-11.8-27.2-4.3-27.3-4.3c-18,10.3-15.8,29.9-14.8,34.9c-1.3,0.1-2.6-0.2-3.6-1c-3.7-2.7-4.5-10-4.6-10
	c0-0.2-0.2-0.4-0.4-0.4c-0.1,0-0.1,0-0.2,0c-0.1,0-0.1,0-0.2,0.1l-0.5,0c-0.3,0-0.5,0.2-0.5,0.5c-0.1,9.2-4.1,12.5-5.9,13.5
	c-5.9-10,2.9-19.7,3.2-20.1c0.1-0.2,0.2-0.4,0.1-0.6c0.1-0.2,0-0.4-0.1-0.5c-0.1-0.1-0.3-0.2-0.5-0.1l-0.1-0.1
	c-0.2-0.2-0.5-0.2-0.7,0c-2.3,2-5.3,2.3-6.9,2.4c-0.2-3.3,0.5-5.7,2-7.3c2.2-2.2,5.5-2,5.5-2c4.1,0.1,6.8-0.7,8.1-2.3
	c1.1-1.3,0.8-2.7,0.8-2.9c-0.1-0.3-0.3-0.5-0.4-0.6c0,0-0.1-0.1-0.1-0.1c-0.2-0.3-0.4-0.6-0.5-0.7c0,0-0.1-0.1-0.1-0.2
	c-0.1-0.2-0.2-0.5-0.5-0.6c-2.3-1.1-5.9,0.7-5.9,0.7c-2,0.8-8.6,6.4-8.6,6.4c-4.8,3.3-10.8,2.9-13.2,2.5c1.6-6.2,6.2-7.8,6.7-8
	c0.2-0.1,0.4-0.3,0.3-0.6c0.2-0.1,0.2-0.3,0.1-0.5c-0.1-0.2-0.2-0.3-0.4-0.3l0-0.1c0-0.1-0.2-0.2-0.3-0.3c-0.1-0.1-0.3-0.1-0.4,0
	c-9.3,2.8-15-0.6-17.1-2.3c3.7-1.9,10.7-2.7,10.8-2.7c0.3,0,0.4-0.2,0.4-0.5v0c0.2-0.1,0.3-0.3,0.3-0.5c0-0.2-0.1-0.3-0.3-0.4
	c0-0.2-0.2-0.4-0.4-0.4C88.6,267.4,84.8,265.7,82.7,262.8z M0.8,284.7C4.1,272.6,15.3,272,17.1,272c0,0,0.1,0,0.1,0
	c0.6,0.4,1.3,0.7,2.1,1.1c-0.9,0.3-1.7,0.7-2.4,1.2c-0.1,0-0.1,0-0.2,0c-3.6,0-7.3,1.7-10.1,4.7c-3.3,3.5-4.8,8.1-4.4,13.1
	c0.9,9.9,7.2,15.7,8.4,16.7c0.3,1.1,0.8,2.1,1.3,2.7c-0.7,0.1-1.3,0.3-1.9,0.5C7.8,310-3,298.6,0.8,284.7z M172.8,454.9
	c-0.3-0.4-0.6-0.8-1-1.3c-0.1-0.2-0.2-0.4-0.3-0.6l-0.1-0.1c-0.2-0.6-0.3-1.1-0.3-1.5c0-0.3,0-0.6,0.1-0.9c0-0.3-0.2-0.5-0.4-0.5
	l-0.9-0.1c-0.3,0-0.5,0.1-0.5,0.4c0,0-0.1,0.4-0.1,1c-0.5,5.6-4,7.4-6.2,8.1l1.3-3.8c0.1-0.2,0-0.5-0.2-0.6
	c-0.2-0.1-0.5-0.1-0.6,0.1l-1.5,1.7c-5.2,5.8-8.5,6.8-10.1,6.7c2.5-2.1,4.9-4.8,7.1-8.1c0.1-0.1,0.1-0.1,0.2-0.2
	c1.5-2.2,2.8-4.4,3.4-5.9c1.2-2.8,8-21.2,8-21.3c4.7-10.1,13.1-10.1,14.9-10c0.3,0.6,0.6,1.1,1,1.5c1.1,1.1,2.6,1.7,4.2,1.7
	c0,0,0,0,0,0c1.4,3.3-1.1,8.5-1.1,8.5c-1.3,2.5-2.1,6.7-0.2,11.3c1.2,2.9,3.5,4.7,4.9,5.6c-0.9,0.6-2.6,1.5-4.3,1.3
	c-1.3-0.2-2.5-1-3.5-2.3c-0.6-0.8-1.2-1.9-1.8-3.1c0,0,0,0,0-0.1l-0.4-0.9c-0.1-0.2-0.3-0.3-0.5-0.3c-0.2,0-0.4,0.2-0.4,0.4
	l-0.3,1.3c0,0.2-1,4-5.3,4.4c-0.1-1.8-0.4-3.5-0.9-5.2c0,0-0.1-0.3-0.1-0.8c6.5-1.9,7.5-6.7,7.6-7.2c0.1-1,0-1.9-0.4-2.8
	c-0.1-0.3-0.2-0.6-0.4-0.8c0-0.1-0.1-0.2-0.2-0.3c-0.1-0.1-0.2-0.2-0.4-0.3c-0.5-0.4-1.1-0.7-1.6-0.8c-0.1,0-0.1,0-0.2,0
	c0,0-0.1,0-0.1,0c-0.1,0-0.2,0-0.2,0c-0.4-0.1-0.8-0.1-0.9,0c-1.6,0.2-2.9,1-3.8,2.3c-2.7,3.9-1.1,11.1-1.1,11.2
	c2.6,9.1-0.6,12.3-1.8,13.2c-0.2-0.2-0.3-0.3-0.5-0.5L172.8,454.9C172.8,455,172.8,454.9,172.8,454.9z M133.2,452.6
	c-12.8-3.2-22.4-10.3-28.4-21.1c-0.8-1.4-1.5-2.8-2-4.2c-4-9.8-2.2-17.1,0-21.5c3.7-7.5,11.4-12.3,17-13.1c7.5-1.1,13.6,1.3,18.2,7
	c3.5,4.3,3.8,12.7,0.7,17.9c-1,1.6-2.8,3.7-5.9,4.3c-0.5,0.1-0.9,0.1-1.4,0.1c-0.5,0-1.1,0-1.6-0.1c-0.1,0-0.3,0-0.4,0
	c-0.1,0-0.2,0-0.3,0c-0.4-0.1-0.7-0.2-1-0.3c-0.2-0.1-0.4-0.1-0.6-0.2l-0.3-0.1c-0.6-0.2-1.2-0.4-1.7-0.6c-0.7-0.4-1.3-0.9-1.8-1.3
	l-0.3-0.2c-0.2-0.2-0.4-0.3-0.6-0.5c-0.4-0.5-0.8-1-1.1-1.5c-0.3-0.5-0.5-0.9-0.7-1.4c-0.1-0.3-0.2-0.6-0.3-0.9
	c-0.3-1-0.4-1.8-0.4-2.5c0-3.2,1.5-5.6,3.8-6.1c1.6-0.3,3.7,0.3,4.8,1.5c0.8,0.9,1.1,2,0.7,3.2c0,0.1,0,0.3,0,0.4
	c0.1,0.1,0.2,0.2,0.3,0.2l0.9,0.2c0.3,0.1,0.5-0.1,0.6-0.3c0.7-2.4-0.3-4-1.1-5c-1.5-1.6-4.2-2.5-6.5-2.1c-0.3,0.1-0.5,0.2-0.7,0.3
	l0,0c-1.3-0.6-2.5-0.9-3.7-0.8c-3.8,0.1-6.1,3.4-6.2,3.5c-0.3,0.3-7,7.8,2.8,22.9c8.9,13.6,21.6,16.7,23.9,17.2
	c0.4,0.6,0.8,1.4,1.3,2.1c0.1,0.1,0.2,0.2,0.3,0.2c0.1,0,0.3,0,0.4-0.1l0.7-0.5c0.2-0.2,0.3-0.5,0.1-0.7c-0.6-0.8-1.1-1.6-1.5-2.3
	c0,0,0-0.1,0-0.1l-0.1-0.3c-0.1-0.1-0.1-0.2-0.1-0.3c0-0.1-0.1-0.2-0.1-0.3c-0.4-0.8-0.5-1.5-0.7-2.1c-0.3-1.4-0.2-2.6,0.1-3.6
	c1-3.1,4.2-5,6.1-5.8c-0.2,4.2,0.9,7.4,3.3,9.6c3.7,3.4,9.4,3.2,12.4,2.9c-0.5,1.2-0.8,2.1-1,2.6c-0.5,1.2-1.7,3.3-3.1,5.4
	c-1.2,0.2-8.2,1.2-16.9,0.2c-0.4,0-0.8-0.1-1.3-0.2l-0.3,0c-0.7-0.1-1.5-0.2-2.2-0.3c-1-0.2-2-0.4-3.1-0.7l-0.4-0.1
	C133.5,452.7,133.3,452.7,133.2,452.6z M177.8,470.9c-0.7,0.4-1.4,0.4-1.7,0.4c-0.6-0.1-1.1-0.4-1.6-1c-0.3-0.4-0.6-0.9-0.9-1.6
	c-0.1-0.3-0.3-0.6-0.4-1l-0.1-0.2c-0.7-2.9-0.6-6.8-0.3-9.9l0.1,0.1c0.1,0.1,0.2,0.1,0.3,0.1c0.1,0,0.1,0,0.2,0l0.1,0
	c6.2,5.5,5.6,10.6,5.6,10.7C178.9,469.5,178.5,470.4,177.8,470.9z M228,482.9C228,483,228,483,228,482.9c0,1.3-0.4,13-12.8,16.4
	c-2.4,0.7-5,0.8-8,0.6c-0.3,0-0.6-0.1-0.9-0.1c-0.5,0-1-0.1-1.5-0.2c0,0-0.1,0-0.1,0c-0.1,0-0.1,0-0.2-0.1c-8.8-1.9-15.1-8-16.5-9.4
	c0.2-0.6,0.4-1.2,0.5-1.9c0.7,0.4,1.6,0.8,2.5,1.1c0.4,0.4,6.3,7.7,16.9,8.6c4.9,0.4,9.7-1.1,13.1-4.4c3-2.9,4.8-6.7,4.7-10.3
	c0.6-0.8,1-1.6,1.2-2.4C227.3,481.6,227.7,482.3,228,482.9z M37.7,281v0.3c0,0.2,0.1,0.4,0.4,0.5l0.3,0.1c0,0,0.2,0.1,0.6,0.1
	c-0.1,0.1-0.1,0.2-0.1,0.3l0,0.3c0,0-0.1,1.7,0,4.1c-0.5-1-1.2-2.1-1.9-3.1l-0.2-0.3c-0.1-0.2-0.4-0.2-0.6-0.2l-0.3,0.1
	c0,0-0.6,0.2-1.5,0.6c0.4-0.5,0.8-1,1.2-1.6l0.2-0.3c0.1-0.2,0.1-0.4,0-0.6l-0.2-0.3c0,0-0.8-0.9-2-2.2c0.9,0.3,1.8,0.6,2.8,0.9
	c0,0,0,0,0,0l0.3,0.1c0.2,0.1,0.4,0,0.5-0.2l0.2-0.3c0,0,0.1-0.2,0.3-0.5C37.8,279.6,37.7,280.3,37.7,281z M22.4,291.4
	c0.8-0.1,1.5-0.2,2.3-0.4c-0.6,0.8-1.1,1.7-1.5,2.6c0,0,0,0-0.1,0.1c-2.5,3.2-3.7,3.3-4.1,3.3c-0.5-0.1-0.8-0.7-0.8-0.7v0
	C17.6,293.5,21.9,291.6,22.4,291.4z M45.4,280.8c-2.5,0-4.7-0.4-5.7-0.6c0.2-15.6,8.5-16.5,8.9-16.6c0.4-0.1,0.9-0.1,1.3-0.1
	c5.7,0,6.4,6.3,6.4,7c0.2,3.2-0.5,5.6-2,7.3C52.4,279.8,49.4,280.8,45.4,280.8z M33.7,281.9c-4.9,6.3-9.3,7.7-12.1,7.7
	c-2.3,0-3.8-0.9-3.9-1c-1.9-1.1-3.1-2.5-3.5-4.2c-0.7-2.9,1-5.7,1.1-5.7c1.7-2.8,3.9-4.2,6.4-4.2C26.8,274.5,32.2,280.1,33.7,281.9z
	 M35.9,285.4c7.4,10.8,1,16,0.7,16.2c-1.6,1.4-3.2,2-4.9,2c-3,0-5.1-2.4-5.2-2.5c-1.8-2.1-2.4-4.1-1.9-6.2
	C26,290,33.6,286.4,35.9,285.4z M61.8,309.2C78.3,290.9,89,284,93.3,281.8c-0.5,1-0.8,2.1-1,3.2l-0.1,0.3
	c-3.6,2.1-12.4,8.3-23.6,23.7C66.6,309.7,64.2,309.8,61.8,309.2z M40.7,298.7c0,0,0-0.1,0.1-0.1c0.1-0.2,0.1-0.3,0.2-0.5
	c0.2-0.6,0.3-1.3,0.3-2.1c0.5,0.8,1,1.6,1.6,2.2c0.8,0.9,1.8,1.6,3.1,2c0.2,1.1-0.3,2.5-1,3.3c-0.5,0.6-1,0.5-1.3,0.5
	C40.9,303.2,40.7,299.1,40.7,298.7z M190.9,303.9c-2.4,5.2-5,8.5-5,8.5c-0.5,0.5-0.9,0.9-1.3,1.3c-0.3,0.3-0.6,0.6-1,0.9
	c-4.1,3.7-12.8,9.8-25,9.8c-4.9,0-10.1-1.1-15.4-3.2c-1.5-0.9-6.4-4.4-7.5-8.9c-0.5-2.1-0.2-4.1,1-6c0,0,2.9-3.5,7-3.8
	c2.7-0.1,5.4,1.1,8,3.7c0,0.1,0,0.1,0,0.2c0,0.2,0,0.4,0.1,0.6c1.3,4.9,5.7,10.9,14,11.8c0.7,0.1,1.5,0.1,2.2,0.1
	c8.5,0,15.8-5.7,19.6-15.2L190.9,303.9z M54.1,280.4c0.1,0,5.1-1.8,6,0.5c0.4,0.8,0.3,1.5-0.2,2.1c-0.6,0.7-1.8,1.1-3.1,1.1
	c-0.7,0-1.4-0.1-2-0.3c-1.2-0.8-2.7-1.4-4.4-1.8c1.3-0.4,2.4-0.8,3.3-1.5c0,0,0,0,0,0C53.9,280.4,54,280.4,54.1,280.4z M57.3,289.6
	c0.6,2.1,0.5,4-0.3,5.5c-1.5,2.6-4.7,3.5-4.8,3.5c-1.1,0.3-2.1,0.4-3,0.4c-2.1,0-3.8-0.7-5.1-2.1c-3.4-3.7-3.5-11.1-3.5-13.4
	c1.7-0.3,3.3-0.4,4.8-0.4C55.5,283.1,57.2,289.3,57.3,289.6z M46.3,342.2c2.1-1.4,4.1-2.6,5.4-3.1c0.5-0.2,1.4-0.6,2.6-1
	c-0.4,3-0.5,8.6,2.9,12.4c2,2.2,4.9,3.3,8.6,3.3c0.3,0,0.6,0,1,0c-0.9,1.9-2.7,5-5.8,6.1c-2.6,0.9-5.7,0-9.1-2.5
	c-0.2-0.2-0.5-0.1-0.7,0.1l-0.5,0.7c-0.1,0.1-0.1,0.2-0.1,0.4c0,0.1,0.1,0.2,0.2,0.3c0.6,0.4,1.1,0.7,1.6,1c0.1,0.1,0.3,0.2,0.4,0.2
	c0.4,2,3.4,15,17.2,24c5.4,3.6,10.5,5.4,15,5.4c5.2,0,7.8-2.4,7.8-2.4c0.1,0,5.7-3.9,2.8-9.9c0,0,0-0.1,0-0.1
	c0.1-0.2,0.2-0.4,0.3-0.7c0.4-2.2-0.4-5-2.1-6.5c-1-0.9-2.6-1.8-5-1.2c-0.1,0-0.2,0.1-0.3,0.2c-0.1,0.1-0.1,0.2,0,0.4l0.2,0.9
	c0,0.1,0.1,0.2,0.2,0.3c0.1,0.1,0.2,0.1,0.4,0c1.3-0.3,2.4-0.1,3.2,0.7c1.2,1.1,1.8,3.1,1.5,4.8c-0.4,2.3-2.9,3.8-6.1,3.8
	c-3.7,0-8.4-2.2-9.6-8.5c-1-5.4,1.7-8.3,4.2-9.8c5.2-3.1,13.5-2.8,17.8,0.7c5.7,4.6,8,10.7,7,18.2c-0.8,5.6-5.5,13.3-13,17
	c-5.3,2.6-14.1,4.4-25.9-2.2C40.9,379.9,45.8,345.2,46.3,342.2z M240.8,467.7c0,0,0.6,3.3-1.2,5.7c-1,1.4-2.7,2.4-5,2.7
	c0,0-0.3,0.1-0.9,0.1c-0.2,0-0.5,0-0.8-0.1c-0.2,0-0.4-0.1-0.6-0.1c0,0,0,0,0,0l-0.5-0.1c0,0-0.1,0-0.1,0c-3.2-0.8-7.2-3.6-9.6-12.1
	c1.6-0.8,6.5-3,10.8-3C237.4,460.8,239.9,463.1,240.8,467.7C240.8,467.7,240.8,467.7,240.8,467.7z M243.2,456.8
	c0.1,0.5-0.1,1-0.4,1.3c-0.9,0.9-3.1,1.3-5.2,1.3c-0.6,0-1.3,0-1.8-0.1l-0.7-0.1c0,0-0.1,0-0.1,0c-0.1,0-0.2,0-0.3,0
	c-0.5-0.1-1-0.2-1.5-0.2c0.3-0.2,0.6-0.4,0.9-0.6c0.1,0,0.1,0,0.2-0.1c2.2-1.8,6.6-2.9,8.4-2.1h0
	C243.1,456.3,243.2,456.6,243.2,456.8z M219.8,460.5c-0.5-2.2-1.6-9.6,1.6-13.8c1.7-2.2,4.4-3.1,8.1-2.9c0.2,0,3.8,0.3,5.8,2.7
	c1,1.3,1.4,3,1.1,5.1C236.3,452,235.4,460.2,219.8,460.5z M234.1,481.8c0.4,1,0.1,1.9-0.4,2.4c-0.2,0.2-0.5,0.4-0.7,0.5l-0.2,0
	c-0.2,0-0.5,0.1-0.7,0c-0.6-0.2-1.5-1-2.9-3.4c0,0,0,0,0-0.1c-0.9-1.7-1.7-3.6-2.1-4.9c0,0,0-0.1,0-0.1c0-0.2-0.1-0.5-0.2-0.7
	c1.4,1.1,2.9,1.8,4.5,2.2C231.8,478.2,233.3,479.8,234.1,481.8z M219.6,446C219.6,446,219.6,446,219.6,446c-0.7,1-1.2,2.1-1.6,3.4
	c-0.4-1.5-1-2.9-1.7-4c0,0,0-0.1,0-0.1c-0.6-1.9-0.3-4.2,0.7-5.1c0.5-0.5,1.2-0.6,2.1-0.2C221.4,440.9,219.6,445.9,219.6,446z
	 M239.7,370.9c-9.5,27.4,0.8,43.8,4.2,48.2c-1.2,0.1-2.8,0-4.6-0.6c-0.8-0.3-1.5-0.7-2.1-1.1c-2.9-2.1-4.6-5.9-5-11.4
	c0-0.3-0.2-0.4-0.5-0.5h0c0-0.2-0.2-0.4-0.5-0.4c0,0,0,0,0,0c-0.2,0-0.4,0.2-0.5,0.4c-0.2,0-0.4,0.2-0.4,0.4c0,0.3-0.8,7.2-2.7,10.8
	c-1.7-2.1-5.1-7.7-2.3-17.1c0.1-0.3-0.1-0.5-0.3-0.6l-0.1,0c0-0.2-0.1-0.4-0.3-0.5c-0.2-0.1-0.5,0-0.6,0.3c-0.2,0-0.4,0.2-0.4,0.4
	c-0.2,0.5-1.8,5-8,6.7c-0.3-2.4-0.8-8.4,2.5-13.1c0.1-0.1,5.7-6.6,6.4-8.6c0.3-0.6,1.8-3.8,0.7-6c-0.2-0.3-0.4-0.5-0.6-0.6
	c-0.1,0-0.2-0.1-0.2-0.1c-0.2-0.3-0.5-0.5-1-0.7c-0.1-0.1-0.2-0.3-0.5-0.3c-0.2,0-0.8,0-1.5,0.1c-0.2,0-0.4,0.1-0.5,0.2
	c-0.1,0-0.1,0-0.2,0.1c-0.2,0.1-0.4,0.1-0.7,0.3c-1.7,1.3-2.4,4.1-2.3,8.2c0,0,0.2,3.3-2,5.5c-0.6,0.6-1.5,1.1-2.8,1.5l-0.3,0.1
	c-0.1,0.1-0.3,0.1-0.5,0.1c-1.2,0.3-2.4,0.4-3.8,0.3c0-1.4,0.3-4.6,2.4-6.9c0.2-0.2,0.2-0.5,0-0.7l-0.2-0.2c0.1-0.2,0-0.4-0.1-0.5
	c-0.2-0.2-0.4-0.2-0.6-0.1c-0.1,0-0.3,0-0.4,0.1c-0.1,0.1-9.9,9.2-20.1,3.2c1-1.7,4.4-5.7,13.5-5.9c0.3,0,0.5-0.2,0.5-0.5l0-0.9
	c0-0.3-0.2-0.5-0.4-0.5c-0.1,0-7.3-0.8-10-4.6c-0.8-1-1.1-2.3-1-3.6c5,0.9,24.6,3.2,34.9-14.8c0.1-0.1,7.5-13.5-4.3-27.4
	c-0.2-0.3-5.9-6.3-13-6.3c-3.7,0-7,1.6-10,4.7c-1.4,0.2-2.6,0.9-3.5,1.9c-1.5,1.7-1.8,4.5,0.8,6.8c0.2,0.2,0.5,0.2,0.7,0l0.6-0.7
	c0.1-0.1,0.1-0.2,0.1-0.4c0-0.1-0.1-0.2-0.2-0.3c-1.8-1.6-1.5-3.2-0.6-4.2c1.2-1.4,3.6-1.9,5.6-0.2c2.4,2,4.7,7,1,12.1
	c-2.3,3.1-6.4,4.4-10.7,3.2c-4.3-1.2-9.6-5.1-10.4-12.4c-1.3-12.1,9.4-20.1,20.7-21.8c17.4-2.6,30.3,10.6,34.8,17.9
	C245.1,340.8,245.4,354.5,239.7,370.9z M188.3,485.7l-0.8-0.9c-0.1-0.1-0.4-0.2-0.5-0.1c-0.2,0.1-0.3,0.3-0.3,0.5l0.1,1.2
	c0.1,2.1-0.3,3.6-1.3,4.6c-0.4,0.4-0.9,0.7-1.4,0.8c0.6-2.3,0.2-4.8-1.2-7.5c-0.9-1.8-1.8-3.3-3.1-4.7c-0.1-0.1-0.2-0.2-0.3-0.4
	c-0.1-0.1-0.1-0.2-0.2-0.3c-0.4-0.5-0.8-1-1-1.6c-0.1-0.2-0.2-0.4-0.3-0.6c-0.8-1.9-0.5-3.3-0.3-3.8c0.4-0.1,0.8-0.3,1.1-0.5
	c0.5-0.3,1-0.8,1.3-1.5c1.7-0.1,3.9,2,4.6,4.5c0.9,3.2,2,5,2,5c2.4,4.7,6.9,5.8,9.5,6.1c-1,0.8-2,1.3-3,1.3
	C190.6,488,188.4,485.8,188.3,485.7z M220.2,462.7c-0.2,0.1-0.3,0.3-0.2,0.5l0.1,0.3c0.3,1,0.5,1.9,0.9,2.9c-1.2-1.3-2.2-2-2.2-2
	l-0.3-0.2c-0.2-0.1-0.4-0.1-0.6,0l-0.3,0.2c-0.6,0.4-1.1,0.8-1.6,1.3c0.4-0.9,0.6-1.5,0.6-1.5l0.1-0.3c0.1-0.2,0-0.4-0.2-0.6
	l-0.3-0.2c-1-0.7-2-1.4-3-1.9c1,0.1,1.8,0.1,2.3,0.1c1.1,0,1.7,0,1.7,0l0.3,0c0.1,0,0.2-0.1,0.3-0.1c0.1,0.3,0.1,0.5,0.1,0.6
	l0.1,0.3c0.1,0.2,0.3,0.4,0.5,0.4h0.4c0.7,0,1.3,0,1.9-0.1c-0.3,0.2-0.5,0.3-0.5,0.3L220.2,462.7z M215.1,407.8
	c1.1-0.2,2.1-0.5,3.2-1c-2.5,4.7-9.4,15.2-27.4,31.5c-0.6-2.4-0.5-4.8,0.2-6.8c15.4-11.2,21.6-20,23.7-23.6L215.1,407.8z M201.1,452
	l0-0.2c-0.1-1.2,0-2.6,0.3-4c0.1-0.2,1.5-5.5,6.4-5.5c0.8,0,1.7,0.1,2.6,0.4c0.1,0,8.4,2.4,6.1,16.6c-0.2,0-0.5,0-0.9,0
	c-3,0-10.3-0.4-13.3-4.3C201.7,454.2,201.3,453.2,201.1,452z M193.7,412.3c1.6,1.6,1.6,4.2,0,5.7c-0.8,0.8-1.8,1.2-2.9,1.2
	c-1.1,0-2.1-0.4-2.9-1.2c-0.3-0.3-0.6-0.8-0.8-1.3c-0.3-0.5-0.3-1.1-0.3-1.7l0-0.1c0.1-1,0.5-1.9,1.1-2.6
	C189.5,410.8,192.2,410.8,193.7,412.3z M203.8,475.6C203.8,475.6,203.8,475.6,203.8,475.6c-0.1,0-0.1,0-0.2,0c-0.1,0-0.1,0-0.2,0
	c-0.3,0-0.6-0.1-1-0.2l-0.3-0.1c-1.2-0.4-2.3-0.9-3.3-1.8c0,0-1.4-1.2-2.1-3c-0.8-2.3-0.3-4.7,1.7-7c0.1-0.1,2.3-2.8,6.7-2.8
	c2.9,0,6.1,1.2,9.5,3.6C213.7,466.3,209.4,475.3,203.8,475.6z M211.2,481.9c-0.8-1.8-2.7-8.1,6.9-15.5c1.8,1.6,7.7,7.2,7.3,12.4
	c-0.1,2.3-1.5,4.3-4.2,6l0,0c0,0-1.9,1.1-4.2,1.2l-0.2,0c-0.8,0-1.7-0.3-2.6-0.8c-0.3-0.2-0.6-0.4-0.9-0.6c-0.6-0.5-1.1-1.1-1.6-1.8
	c-0.1-0.1-0.2-0.2-0.3-0.3c-0.1-0.1-0.2-0.2-0.3-0.3C211.3,482.2,211.2,482.1,211.2,481.9z M209.1,475.3c-0.3,0.8-0.4,1.6-0.5,2.2
	l0,0.1c-0.2,0.6-2,4.6-4.6,4.1c0,0,0,0,0,0c-0.1-0.1-0.4-0.2-0.7-0.5c-0.1-0.1-0.2-0.2-0.2-0.3c-0.1-0.3,0-1.6,3.3-4.1c0,0,0,0,0,0
	C207.3,476.5,208.2,476,209.1,475.3z M200.9,456.2c0.9,1.2,2.1,2,3.3,2.6c-0.8,0.1-1.4,0.3-2.1,0.5l0,0l-0.1,0c-0.1,0-0.2,0-0.3,0
	c-0.1,0-0.3,0-0.4,0.1c-0.1,0-0.3,0-0.5,0c-1.2-0.1-4-0.7-4.7-2.9c-0.1-0.5,0.1-0.8,0.4-1.2c0.8-0.8,2.4-1.2,3.5-1
	c0,0.1,0,0.1,0.1,0.2C200.3,455,200.5,455.7,200.9,456.2z M465.9,389.1l0.2,3.5c-3.1-2.4-6.3-4.2-9.3-5.4l-0.1-0.1
	c-1.3-1.2-1.9-2.3-1.9-3.5c0-1.2,0.9-2,1-2c0.6-0.5,1.1-0.7,1.9-0.6C461.1,381.6,465.5,388.4,465.9,389.1z M498.9,340.2
	c-5.7,6.6-10.1,19.2-10.3,19.7c-0.1,0.4-0.3,0.8-0.4,1.2l-0.3,0.9c-0.1,0.3-0.2,0.5-0.2,0.8c-0.2,0.7-0.4,1.4-0.5,2.2
	c-0.1,0.6-0.2,1.1-0.3,1.7c-0.1,0.7-0.2,1.4-0.3,2.1c-0.1,0.8-0.2,1.7-0.3,2.8c0,0.5-0.1,0.9-0.1,1.4c-0.1,1.3-0.1,2.6,0,4.2l0,0.3
	c0.4,7.9,2.4,16,6.1,24.2c7.7,16.9,5.8,34.9,5.7,35.7c-2.7,19.4-10.6,28.4-16.9,32.5c-3.6,2.4-6.6,3-7.4,3.2l-0.2,0c0,0-0.1,0-0.1,0
	c-0.2,0-20.7,4.6-32.6-9.2c-0.5-0.5-12.2-12.5-2.3-25.1c12.8-10.1,24.8,1.6,25.3,2.1c5.6,4.8,8.8,11.4,9.7,19.8
	c-2.2,1.5-4.5,2.7-7.2,3.4c0.4-3.8,0.4-13.4-6.9-19.3c-0.1-0.1-7.7-6.6-15.6-1l-0.2,0.2c-5.6,7.9,1,15.4,1,15.5
	c7.4,9.3,20.7,6.8,20.8,6.8c22.9-4.9,19.4-31,19.4-31.3c-2.1-11.5-7.2-17.4-14.9-17.1c-1,0-1.9,0.3-3,0.7c-0.1,0-0.2,0.1-0.3,0.2
	l-0.2,0.1c-0.5,0.2-1,0.5-1.6,0.9c-0.4,0.3-0.7,0.5-1.1,0.9c-0.2,0.2-0.4,0.4-0.7,0.6c-0.5,0.5-0.9,0.9-1.3,1.3c0,0-0.1,0.2-0.1,0.2
	c-1.7,2.1-2.9,4.2-3.5,5.4c-3.1-3.5-4.4-6.9-3.8-10.1c1.1-6.2,9-9.8,9-9.8c0.2-0.1,0.3-0.4,0.2-0.6l-0.3-0.8
	c-0.1-0.2-0.4-0.4-0.6-0.3c-0.9,0.3-1.8,0.5-2.8,0.6c0,0-0.1,0-0.1,0c-2.2,0.1-3.7-0.6-4.5-1.1c0.9-1.3,3.3-4.3,8.7-6.1
	c0.8-0.2,1.5-0.4,2.4-0.5l0.5,0c5.5-0.2,7.9,4.8,8,5l0.4,0.7c1.3,2.4,3.6,6.8,6.2,7.3c0.8,0.2,1.6,0,2.3-0.5c1-0.8,1.5-1.7,1.4-2.7
	c-0.1-2.6-3.6-4.8-5.5-6.1c-0.3-0.2-0.6-0.4-0.7-0.5c-0.3-0.2-0.6-0.4-1-0.7c-1.5-1-4-2.7-5.6-4.9c-6.4-8.7-5.8-14.8-5.1-17.1
	l9.5,7.1c0.2,0.1,0.5,0.1,0.6,0c0.2-0.2,0.2-0.4,0-0.6l-2.2-2.7c-7.4-9.3-4.6-21.5-3.7-24.8c4.3,1.1,6,6,6,6.2
	c0.1,0.2,0.3,0.4,0.6,0.3l0.9-0.3c0.3-0.1,0.4-0.3,0.3-0.6c-3.4-12,1-18.4,2.5-20.1c2.4,2.1,2.4,7,2.4,7.2c0,0.2,0.2,0.5,0.4,0.5
	l0.9,0.1c0.2,0,0.5-0.1,0.5-0.4C488.4,341.6,495.6,340.2,498.9,340.2z M455.1,400c-2.4,1.1-4.2,1.4-5.3,0.8
	c-0.7-0.4-0.9-1.1-0.9-1.1c-0.3-2.4,2-3.5,3-3.9c4.9-1.5,9.7-1.1,14.5,1.1l0,0.6c-0.1,0-0.2,0-0.4,0l-0.2,0
	C460,397.9,455.2,400,455.1,400z M472.7,475c-0.4,1.4-1,2.8-1.8,4.3c-0.7,1.2-1.4,2.4-2.3,3.6l-0.1,0.1c-1.1,1.4-2.3,2.7-3.7,3.9
	l0.3,0.4l0,0l-0.5-0.2c-0.6,0.5-1.3,1-1.9,1.5c-0.4,0.3-0.7,0.5-1.1,0.8c-0.5,0.3-0.9,0.6-1.4,0.9c-0.7,0.5-1.5,0.9-2.2,1.3
	c-0.3,0.2-0.6,0.3-0.8,0.5c-1.3,0.7-2.4,1.2-3.7,1.7c-4.7,1.9-10.1,3.3-16.1,4.1c-0.2,0-18.7,2.1-35.8-5.7
	c-21.1-9.6-36.1-5.8-41.6-3.7c-0.2,0.1-6.2,2.1-12.1,5.2c0,0-0.1,0.1-0.1,0.1c-1.1,0.6-2.1,1.1-3,1.7c-0.5,0.3-0.9,0.6-1.3,0.9
	l-0.7,0.5c-0.3,0.2-0.6,0.4-0.9,0.6c-0.6,0.5-1.2,0.9-1.7,1.4c0-3.3,1.4-10.5,11.5-12.9c0.2-0.1,0.4-0.2,0.4-0.5c0,0,0,0,0-0.1
	l-0.1-0.9c0-0.2-0.2-0.4-0.5-0.4c-0.1,0-5.1,0.1-7.2-2.4c1.8-1.5,8.1-5.9,20.1-2.5c0.3,0.1,0.5-0.1,0.6-0.3l0.3-0.9
	c0.1-0.2-0.1-0.5-0.3-0.6c-0.2-0.1-5.1-1.7-6.2-6c3.3-0.9,15.6-3.7,24.8,3.6l2.7,2.2c0.2,0.2,0.5,0.1,0.6,0c0.2-0.2,0.2-0.4,0.1-0.6
	l-7.1-9.5c2.4-0.7,8.4-1.4,17.2,5.1c2.2,1.6,3.9,4.1,4.9,5.6c0.3,0.4,0.5,0.8,0.7,1c0.1,0.1,0.3,0.4,0.5,0.7
	c1.2,1.9,3.5,5.4,6.1,5.5c1,0,1.9-0.4,2.7-1.4c0.5-0.7,0.7-1.4,0.5-2.3c-0.6-2.6-5-5-7.3-6.2l-0.7-0.4c-0.2-0.1-5-2.5-5-7.7
	c0-0.1,0-0.2,0-0.2l0-0.5c0.1-0.9,0.2-1.6,0.5-2.4c1.7-5.4,4.7-7.8,6.1-8.7c0.3,0.4,0.6,1.2,0.9,2.2l0.5-0.1l-0.4,0.3
	c0.1,0.5,0.2,1.1,0.1,1.8c0,0.9-0.1,1.9-0.6,3.2c0,0.1,0,0.1,0,0.2c-0.1,0.2,0.1,0.5,0.3,0.6l0.8,0.3c0.2,0.1,0.5,0,0.6-0.2
	c0.1-0.3,3.7-7.9,9.8-9c3.2-0.6,6.6,0.7,10.1,3.9c-0.5,0.3-1.3,0.7-2.2,1.2c-0.1,0.1-0.3,0.2-0.4,0.3l-0.3,0.2
	c-0.3,0.2-0.7,0.4-1,0.7c-0.4,0.3-0.8,0.6-1.2,0.9c-0.2,0.2-0.4,0.3-0.6,0.5c-0.4,0.3-0.8,0.7-1.3,1.2c-0.1,0.1-0.3,0.3-0.4,0.5
	c-0.4,0.5-0.8,1-1.1,1.5c-0.1,0.2-0.2,0.3-0.3,0.5l-0.1,0.2c-0.3,0.5-0.5,1-0.7,1.5c-0.2,0.6-0.4,1.3-0.5,2.2c0,0-0.1,0.2-0.1,0.3
	c0,0.1,0,0.1,0,0.2c0,0.2,0,0.3,0,0.5c0,0.1,0,0.2,0,0.3c0,0.1,0,0.3,0,0.5c0.4,7,6.3,11.7,17,13.6c0.7,0.1,17.6,2.3,26.6-9.3
	C466.8,475.9,471,475.4,472.7,475z M388.7,455.3c0-0.1-0.1-0.2-0.1-0.2c-0.3-1.5-0.6-4.2,1.9-5.5c0.1,0,0.7-0.3,1.4,0
	c0.8,0.3,1.4,1.2,2,2.6c-1.4,5.3-0.6,9.9,0.7,13.4C391.9,462.2,389.9,458.7,388.7,455.3z M381.8,455.6c0,0,0.8-0.9,2-0.9
	c1.1,0,2.2,0.6,3.5,1.9l0.1,0.1c1.2,3.1,3,6.3,5.5,9.4l-3.4-0.2c0,0,0,0-0.1,0c0,0,0,0-0.1,0c0,0,0,0-0.1,0
	c-2.8-1.7-7.7-5.4-8.1-8.3C381.1,456.8,381.3,456.2,381.8,455.6C381.8,455.6,381.8,455.7,381.8,455.6z M397,466.5
	c-2.3-4.8-2.7-9.7-1.2-14.6c0.4-1,1.5-3.4,3.9-3.1c0,0,0.7,0.1,1.1,0.9c0.2,0.4,0.3,1.1,0.2,1.9c0,0.1,0,0.3-0.1,0.4
	c-0.1,0.6-0.4,1.4-0.8,2.4c0,0.1-0.1,0.2-0.1,0.3c0,0.1,0,0.1-0.1,0.2c-0.1,0.2-2.2,5.1-2.5,11c0,0.1,0,0.1,0,0.2c0,0.1,0,0.3,0,0.4
	L397,466.5z M465.7,394.5c-3.5-1.3-8.1-2.1-13.4-0.7c-1.4-0.5-2.3-1.2-2.6-2c-0.3-0.7-0.1-1.3,0-1.4c1.4-2.5,4.1-2.3,5.5-2
	c0.1,0,0.1,0.1,0.3,0.1C458.8,389.8,462.3,391.8,465.7,394.5z M306.3,412.2c1.6-1.6,4.2-1.6,5.7,0c0.7,0.7,1.2,1.7,1.2,2.8
	c0,0.2,0,0.3-0.1,0.5l-0.1,0.3c-0.2,0.9-0.5,1.7-1.1,2.2c-1.6,1.6-4.2,1.6-5.7,0C304.8,416.4,304.8,413.8,306.3,412.2z M327.7,325.4
	c29.9,18.2,48.1,12.7,48.3,12.7l-0.1-0.5l0.3,0.4c2.8-0.6,12.4-1.9,18.2,5c0,0,2.1,2.6,2.2,6.4c0,0.1,0,0.2,0,0.3
	c0,0.9-0.2,1.9-0.4,2.8c0,0,0,0.1,0,0.1c-0.6,1.9-1.6,3.5-3.1,4.8c-4.3,3.7-11.1,3.6-14.4,2.7c0,0,0,0-0.1,0c0,0,0,0,0,0
	C378.4,360.1,362.4,357.2,327.7,325.4z M289.3,394.4c0.7,0.1,1.3,0.1,2,0.1c5.8,8.3,12,13.8,14.4,15.9c-0.2,0.2-0.5,0.3-0.7,0.5
	c-0.2,0.2-0.3,0.4-0.4,0.5C302.5,409.6,293.8,401.9,289.3,394.4z M318.5,373.6c0-7.5,4-14.7,4.1-15.1c0.1-0.2,0.1-0.4,0.2-0.5
	c0-0.1,0.1-0.3,0.1-0.3c0.1-0.2,0.2-0.4,0.2-0.4c0-0.1,0-0.1,0-0.2c0,0,0-0.1,0-0.1c2.1-5.4,3.2-10.7,3.2-15.6c0-4.1-0.7-8.1-2-12
	c15.7,26.3,12.7,43.2,12.1,45.6c0,0,0,0.1,0,0.1c0,0-0.1,0.2-0.1,0.6c-1.4,5.9-6.7,8.8-6.7,8.8c-2,0.9-3.9,1-5.5,0.4
	c-2.8-1.1-4.1-4.2-4.2-4.3C319,378.5,318.5,376.2,318.5,373.6z M387.5,387.4c-0.3,0.2-0.6,0.4-1,0.7c-2.8,1.4-7.1,1.5-7.1,1.5
	c-10.8-0.1-16.7-10.5-17.3-11.6c-0.4-2-3.8-16.5-31.3-47.4c30.9,27.5,45.4,30.9,47.4,31.3c1,0.5,11.5,6.4,11.6,17.2
	c0,0.3-0.1,1.6-0.3,3.1C389,384.6,388.3,386.4,387.5,387.4z M337.6,380.9c0-2.2,0.3-4,0.5-4.8l0-0.2c0,0,0,0,0,0
	c0.1-0.3,0.8-2.9,0.8-7.5c0-7.1-1.9-21.6-13.7-41c15.2,16.5,23.5,28.4,27.9,35.7c3.8,6.4,5.6,10.7,6.5,13.2l0.6,2.3
	c0.3,1.2,0.5,2.7,0.5,4.3c0,1-0.1,3.7-1.1,6.4l-0.1,0.2c0,0.1-0.1,0.2-0.1,0.3c-0.2,0.4-0.4,0.8-0.7,1.3c-0.2,0.4-0.5,0.8-0.8,1.2
	l-0.1,0.1c-0.2,0.2-0.3,0.5-0.5,0.7c-0.4,0.5-0.9,0.9-1.4,1.2c-0.1,0.1-0.2,0.2-0.3,0.3c-0.1,0.1-0.2,0.2-0.3,0.3
	c-0.2,0.2-0.5,0.3-0.8,0.4c-0.2,0.1-0.3,0.1-0.5,0.2c-0.1,0.1-0.3,0.1-0.4,0.2c-0.2,0.1-0.5,0.2-0.8,0.3c-5.6,1.7-9.6-1.6-9.8-1.7
	C338.6,390.4,337.6,384.9,337.6,380.9z M268,484.6c-0.6,0.2-1.2,0-1.7-0.5c-0.5-0.5-0.9-1.4-0.4-2.4c0.8-1.9,2.3-3.5,2.7-4
	c0.9-0.2,1.7-0.5,2.5-0.9c0.7-0.3,1.4-0.8,2.1-1.5c-0.1,0.2-0.1,0.5-0.2,0.7c0,0-0.1,0.1-0.1,0.2c-0.3,1-1.3,3.5-2.6,5.6
	c0,0,0,0.1-0.1,0.1C269.9,482.6,268.9,484.3,268,484.6z M326.5,457.5L326.5,457.5c0.3,0.1,0.4,0.1,0.6,0l0.1-0.1
	c0.5,4.9,0.4,12.9-3,13.7c-0.1,0-1.1,0.2-1.9-0.3c-0.7-0.5-1.1-1.3-1.3-2.6C320.9,468.1,320.3,463.1,326.5,457.5z M375,336.4
	c-2.4,0.6-19.3,3.6-45.7-12.2c7,2.3,16.5,3.3,27.8-1.1c0,0,0,0,0,0c0.1,0,0.3,0,0.4-0.1l0.2-0.1c0.1-0.1,0.3-0.1,0.4-0.1
	c0.2-0.1,0.4-0.1,0.6-0.2c0.1-0.1,12.6-6.9,21.9-2.7c0.2,0.1,4.6,2,4.7,6.3l0,0.2c0,1.1-0.3,2.1-0.7,3.2c0,0.1-2.9,5.3-8.8,6.7
	c-0.4,0.1-0.6,0.1-0.6,0.1C375.1,336.4,375.1,336.4,375,336.4z M334.2,318.7c8.2-0.9,12.7-6.9,14-11.8c0.1-0.2,0.1-0.4,0.1-0.6
	c0-0.1,0-0.1,0-0.2c2.6-2.6,5.3-3.8,8-3.7c4.1,0.2,7,3.7,7,3.7c1.2,2,1.6,4,1.1,6.1c-1.2,4.7-6.5,8.3-7.5,8.9
	c-13.5,5.3-24.2,2.8-30.9-0.3c-3.6-1.7-6.9-3.9-9.8-6.5c-0.3-0.3-0.6-0.6-0.9-0.9c-0.4-0.4-0.7-0.7-1.1-1.1c0,0-2.6-3.4-5-8.6
	l3.3-0.2C315.6,311.8,323,319.9,334.2,318.7z M265.3,476.1c-5.1-0.8-6.2-4.3-6.2-7.1c0-0.8,0.1-1.3,0.1-1.3c0.6-3.1,1.9-5.1,4-6.2
	c4.9-2.3,12.5,1.2,14.7,2.3C274.1,477.6,265.7,476.1,265.3,476.1z M264.4,459.1c-2.1,0.2-6,0.1-7.3-1.2c-0.4-0.4-0.5-0.8-0.4-1.3
	c0-0.2,0.1-0.4,0.6-0.6c1.8-0.8,6.3,0.3,8.4,2.1c0.1,0,0.1,0.1,0.2,0.1c0.3,0.2,0.6,0.5,1,0.7c-0.8,0-1.5,0.1-2.3,0.3
	C264.6,459.1,264.5,459.1,264.4,459.1z M309.1,421C309.2,421,309.2,421,309.1,421c1.6,0,3.1-0.6,4.2-1.7c0.4-0.4,0.8-0.9,1-1.5
	c1.9-0.1,10.3,0,14.9,9.9c0.1,0.2,6.9,18.6,8.1,21.4c0.6,1.4,1.9,3.6,3.3,5.8c0,0.1,0.1,0.2,0.2,0.3c0,0,0,0,0,0
	c2.3,3.3,4.7,6,7.1,8.1c-1.6,0-5-0.9-10.2-6.7l-1.5-1.7c-0.2-0.2-0.4-0.2-0.6-0.1c-0.2,0.1-0.3,0.4-0.2,0.6l1.3,3.8
	c-2.2-0.6-5.7-2.5-6.2-8c0-0.6-0.1-1-0.1-1c-0.1-0.2-0.3-0.4-0.5-0.4l-0.9,0.1c-0.3,0-0.4,0.3-0.4,0.5c0,0.3,0,0.6,0.1,0.8
	c0,0.9-0.4,2.7-2.2,4.3c-1.2-0.9-4.5-4.1-1.8-13.3c0.1-0.3,1.5-7.3-1.1-11.1c-0.9-1.3-2.2-2.1-3.9-2.3c-0.1,0-2-0.1-3.3,1.2
	c-0.9,0.9-1.2,2.2-0.9,3.9c0,0.2,0.8,5.3,7.6,7.2c-0.1,0.4-0.1,0.7-0.1,0.7c-0.5,1.8-0.8,3.4-0.9,5.2c-4.3-0.3-5.3-4.3-5.3-4.3
	l-0.3-1.3c-0.1-0.2-0.2-0.3-0.4-0.4c-0.2,0-0.4,0.1-0.5,0.3l-0.5,1.2c-1.3,3.1-3,4.8-4.9,5.2c-1.8,0.4-3.6-0.6-4.7-1.3
	c1.4-0.9,3.8-2.7,4.9-5.6c0.8-2,1.1-3.9,1.1-5.6c0-2.3-0.6-4.3-1.3-5.6C310.1,429.4,307.7,424.3,309.1,421z M394.6,291.3
	c0-0.6,0-1.3-0.1-2c7.5,4.5,15.3,13.3,17,15.2c-0.2,0.1-0.4,0.2-0.5,0.4c-0.2,0.2-0.4,0.5-0.6,0.7
	C408.4,303.3,402.9,297.2,394.6,291.3z M313.1,484.6c-0.2-0.1-0.4,0-0.5,0.1l-0.8,0.9c0,0-2.3,2.3-5,2.2c-1.1-0.1-2.1-0.5-3-1.3
	c2.7-0.2,7.1-1.4,9.5-6c0.2-0.3,1.1-2.2,2-5c0.7-2.5,2.9-4.6,4.6-4.5c0.4,0.6,0.8,1.1,1.3,1.5c0.3,0.2,0.7,0.4,1.1,0.5
	c0.3,0.8,0.8,3.4-2.1,6.7c-3.8,4.3-5.2,8.4-4.3,12.1c-0.4-0.1-0.9-0.4-1.3-0.8c-1-1-1.4-2.5-1.3-4.6l0.1-1.2
	C313.4,484.9,313.3,484.7,313.1,484.6z M262,317.7c-1.3-1.5-3.1-4.2-3.1-7.7c0-3.2,1.5-6.4,4.5-9.6c0.1-0.1,9.1-9.7,24.1,0
	c0.2,0.1,0.5,0.1,0.6-0.1l0.5-0.7c0.1-0.1,0.1-0.2,0.1-0.3c0-0.1-0.1-0.3-0.2-0.4c-4.8-4.4-7.4-5.8-11.9-8.5l-0.4-0.2
	c-1-0.6-2.1-1.2-3.4-2c-6.7-4-10.2-12.6-10.2-25.5c12.9,0,21.5,3.4,25.5,10.2c0.8,1.4,1.5,2.6,2.1,3.7l0.1,0.1
	c2.6,4.6,4.1,7.1,8.5,11.9c0.2,0.2,0.5,0.2,0.7,0.1l0.7-0.5c0.2-0.2,0.2-0.4,0.1-0.6c-2.9-4.5-4.4-8.8-4.4-13
	c0-6.7,3.9-10.6,4.4-11.1c3.4-3.2,6.9-4.7,10.3-4.5c3.2,0.2,5.7,1.9,7.1,3.1c-5.8,1.5-9.5,7.5-9.6,7.7c-3.3,5.2-5,11-5,17.1
	c0,10.2,4.8,19.3,7.5,23.7c-3-1.9-8.1-4.6-14.2-6.2c-9.8-2.5-18.8-1.3-26.6,3.7C269.5,308.2,263.5,311.9,262,317.7z M262.8,417.3
	c-2.3,1.7-5.1,1.8-6.7,1.7c1.4-1.8,4-5.5,5.9-11.2c1.3-3.8,2.3-8.8,2.3-15.1c0-6.2-1-13.5-4-22c-5.7-16.4-5.4-30.2,1.1-40.8
	c4.4-7.3,17.4-20.5,34.8-17.9c11.3,1.7,22,9.7,20.7,21.8c-0.8,7.3-6.1,11.2-10.4,12.4c-4.3,1.2-8.4-0.1-10.7-3.2
	c-1.3-1.7-1.9-3.6-1.9-5.5c0-3,1.6-5.4,2.9-6.6c2.1-1.7,4.4-1.2,5.6,0.2c0.9,1,1.2,2.7-0.6,4.2c-0.1,0.1-0.2,0.2-0.2,0.3
	c0,0.1,0,0.3,0.1,0.4l0.6,0.7c0.2,0.2,0.5,0.2,0.7,0c2.6-2.3,2.3-5.1,0.8-6.8c-0.9-1-2.1-1.7-3.5-1.9c-3-3.1-6.3-4.7-10-4.7
	c-7.2,0-12.8,6-13.1,6.3c-11.8,13.9-4.3,27.2-4.3,27.3c10.3,18,29.9,15.8,34.9,14.8c0.1,1.3-0.2,2.6-1,3.6c-2.7,3.7-10,4.5-10,4.6
	c-0.2,0-0.4,0.2-0.4,0.4c0,0.1,0,0.1,0,0.2c0,0.1,0,0.1,0.1,0.2l0,0.5c0,0.3,0.2,0.5,0.5,0.5c9.2,0.1,12.5,4.1,13.5,5.9
	c-10,5.9-19.7-2.9-20.1-3.2c-0.2-0.1-0.4-0.2-0.6-0.1c-0.2-0.1-0.4,0-0.5,0.1c-0.1,0.1-0.2,0.3-0.1,0.5l-0.1,0.1
	c-0.2,0.2-0.2,0.5,0,0.7c2,2.3,2.3,5.3,2.4,6.9c-3.3,0.2-5.7-0.5-7.3-2c-2.2-2.2-2-5.5-2-5.5c0.1-4.1-0.7-6.8-2.3-8.1
	c-1.3-1.1-2.7-0.8-2.9-0.8c-0.3,0.1-0.5,0.3-0.6,0.4c0,0-0.1,0.1-0.1,0.1c-0.3,0.2-0.6,0.4-0.7,0.5c0,0-0.1,0.1-0.2,0.1
	c-0.2,0.1-0.5,0.2-0.6,0.5c-1.1,2.3,0.7,5.9,0.7,5.9c0.8,2,6.4,8.6,6.4,8.6c3.3,4.8,2.9,10.8,2.5,13.2c-6.2-1.6-7.8-6.2-8-6.7
	c-0.1-0.2-0.3-0.4-0.5-0.3c-0.1-0.2-0.3-0.2-0.5-0.1c-0.2,0.1-0.3,0.2-0.3,0.4l-0.1,0c-0.1,0-0.2,0.2-0.3,0.3
	c-0.1,0.1-0.1,0.3,0,0.4c2.8,9.3-0.6,15-2.3,17.1c-1.9-3.7-2.7-10.7-2.7-10.8c0-0.3-0.2-0.4-0.5-0.4h0c-0.1-0.2-0.3-0.3-0.5-0.3
	c-0.2,0-0.3,0.1-0.4,0.3c-0.2,0-0.4,0.2-0.4,0.4C267.4,411.4,265.7,415.2,262.8,417.3z M284.7,499.2c-12.1-3.3-12.7-14.5-12.8-16.3
	c0,0,0-0.1,0-0.1c0.4-0.6,0.7-1.3,1.1-2.1c0.3,0.9,0.7,1.7,1.2,2.4c0,0.1,0,0.1,0,0.2c0,3.6,1.7,7.3,4.7,10.1
	c3.5,3.3,8.1,4.8,13.1,4.4c9.9-0.9,15.7-7.2,16.7-8.4c1.1-0.3,2.1-0.8,2.7-1.3c0.1,0.7,0.3,1.3,0.5,1.9
	C310,492.2,298.6,503,284.7,499.2z M454.9,327.2c-0.4,0.3-0.8,0.6-1.3,1c-0.2,0.1-0.4,0.2-0.6,0.3l-0.1,0.1
	c-0.6,0.2-1.1,0.3-1.5,0.3c-0.3,0-0.6,0-0.9-0.1c-0.3,0-0.5,0.2-0.5,0.4l-0.1,0.9c0,0.3,0.1,0.5,0.4,0.5c0,0,0.4,0.1,1,0.1
	c5.6,0.5,7.4,4,8.1,6.2l-3.8-1.3c-0.2-0.1-0.5,0-0.6,0.2c-0.1,0.2-0.1,0.5,0.1,0.6l1.7,1.5c5.8,5.2,6.8,8.5,6.7,10.1
	c-2.1-2.5-4.8-4.9-8.1-7.1c-0.1-0.1-0.1-0.1-0.2-0.2c-2.2-1.5-4.4-2.8-5.9-3.4c-2.8-1.2-21.2-8-21.3-8c-10.1-4.7-10.1-13.1-10-14.9
	c0.6-0.3,1.1-0.6,1.5-1c1.1-1.1,1.7-2.6,1.7-4.2c0,0,0,0,0,0c3.3-1.4,8.5,1.1,8.5,1.1c2.5,1.3,6.7,2.1,11.3,0.2
	c2.9-1.2,4.7-3.5,5.6-4.9c0.6,0.9,1.5,2.6,1.3,4.3c-0.2,1.3-1,2.5-2.3,3.5c-0.8,0.6-1.9,1.2-3.1,1.8c0,0,0,0,0,0l-0.9,0.4
	c-0.2,0.1-0.3,0.3-0.3,0.5c0,0.2,0.2,0.4,0.4,0.4l1.3,0.3c0.2,0,4,1,4.4,5.3c-1.8,0.1-3.5,0.4-5.2,0.9c0,0-0.3,0.1-0.8,0.1
	c-1.9-6.5-6.7-7.5-7.2-7.6c-1-0.1-1.9,0-2.8,0.4c-0.3,0.1-0.6,0.2-0.8,0.4c-0.1,0-0.2,0.1-0.3,0.2c-0.1,0.1-0.2,0.2-0.3,0.4
	c-0.4,0.5-0.7,1.1-0.8,1.6c0,0.1,0,0.1,0,0.2c0,0,0,0.1,0,0.1c0,0.1,0,0.2,0,0.2c-0.1,0.4-0.1,0.8,0,0.9c0.2,1.6,1,2.9,2.3,3.8
	c3.9,2.7,11.1,1.1,11.2,1.1c9.1-2.6,12.3,0.6,13.2,1.8c-0.2,0.2-0.3,0.3-0.5,0.5L454.9,327.2C455,327.2,454.9,327.2,454.9,327.2z
	 M452.6,366.8c-3.2,12.8-10.3,22.4-21.1,28.4c-1.4,0.8-2.8,1.5-4.2,2c-9.8,4-17.1,2.2-21.5,0c-7.5-3.7-12.3-11.4-13.1-17
	c-1.1-7.5,1.3-13.6,7-18.2c4.3-3.5,12.7-3.8,17.9-0.7c1.6,1,3.7,2.8,4.3,5.9c0.1,0.5,0.1,0.9,0.1,1.4c0,0.5,0,1.1-0.1,1.6
	c0,0.1,0,0.3,0,0.4c0,0.1,0,0.2,0,0.3c-0.1,0.4-0.2,0.7-0.3,1c-0.1,0.2-0.1,0.4-0.2,0.6l-0.1,0.3c-0.2,0.6-0.4,1.2-0.6,1.7
	c-0.4,0.7-0.9,1.3-1.3,1.8l-0.2,0.3c-0.2,0.2-0.3,0.4-0.5,0.6c-0.5,0.4-1,0.8-1.5,1.1c-0.5,0.3-0.9,0.5-1.4,0.7
	c-0.3,0.1-0.6,0.2-0.9,0.3c-1,0.3-1.8,0.4-2.5,0.4c-3.2,0-5.6-1.5-6.1-3.8c-0.3-1.6,0.3-3.7,1.5-4.8c0.9-0.8,2-1.1,3.2-0.7
	c0.1,0,0.3,0,0.4,0c0.1-0.1,0.2-0.2,0.2-0.3l0.2-0.9c0.1-0.3-0.1-0.5-0.3-0.6c-2.4-0.7-4,0.3-5,1.1c-1.6,1.5-2.5,4.2-2.1,6.5
	c0.1,0.3,0.2,0.5,0.3,0.7l0,0c-0.6,1.3-0.9,2.5-0.8,3.7c0.1,3.8,3.4,6.1,3.5,6.2c0.3,0.3,7.8,7,22.9-2.8
	c13.6-8.9,16.7-21.6,17.2-23.9c0.6-0.4,1.4-0.8,2.1-1.3c0.1-0.1,0.2-0.2,0.2-0.3c0-0.1,0-0.3-0.1-0.4l-0.5-0.7
	c-0.2-0.2-0.5-0.3-0.7-0.1c-0.8,0.6-1.6,1.1-2.3,1.5c0,0-0.1,0-0.1,0l-0.3,0.1c-0.1,0.1-0.2,0.1-0.3,0.1c-0.1,0-0.2,0.1-0.3,0.1
	c-0.8,0.4-1.5,0.5-2.1,0.7c-1.4,0.3-2.6,0.2-3.6-0.1c-3.1-1-5-4.2-5.8-6.1c4.2,0.2,7.4-0.9,9.6-3.3c3.4-3.7,3.2-9.4,2.9-12.4
	c1.2,0.5,2.1,0.8,2.6,1c1.2,0.5,3.3,1.7,5.4,3.1c0.2,1.2,1.2,8.2,0.2,16.9c0,0.4-0.1,0.8-0.2,1.3l0,0.3c-0.1,0.7-0.2,1.5-0.3,2.2
	c-0.2,1-0.4,2-0.7,3.1l-0.1,0.4C452.7,366.5,452.7,366.7,452.6,366.8z M470.9,322.2c0.5,0.7,0.4,1.4,0.4,1.7c-0.1,0.6-0.4,1.1-1,1.6
	c-0.4,0.3-0.9,0.6-1.6,0.9c-0.3,0.1-0.6,0.3-1,0.4l-0.2,0.1c-2.9,0.7-6.8,0.6-9.9,0.3l0.1-0.1c0.1-0.1,0.1-0.2,0.1-0.3
	c0-0.1,0-0.1,0-0.2l0-0.1c5.5-6.2,10.6-5.6,10.7-5.6C469.5,321.1,470.4,321.5,470.9,322.2z M482.9,272C483,272,483,272,482.9,272
	c1.3,0,13,0.4,16.4,12.8c0.7,2.4,0.8,5,0.6,8c0,0.3-0.1,0.6-0.1,0.9c0,0.5-0.1,1-0.2,1.5c0,0,0,0.1,0,0.1c0,0.1,0,0.1-0.1,0.2
	c-1.9,8.8-8,15.1-9.4,16.5c-0.6-0.2-1.2-0.4-1.9-0.5c0.4-0.7,0.8-1.6,1.1-2.5c0.4-0.4,7.7-6.3,8.6-16.9c0.4-4.9-1.1-9.7-4.4-13.1
	c-2.9-3-6.7-4.8-10.3-4.7c-0.8-0.6-1.6-1-2.4-1.2C481.6,272.7,482.3,272.3,482.9,272z M281,462.3h0.3c0.2,0,0.4-0.1,0.5-0.4l0.1-0.3
	c0,0,0.1-0.2,0.1-0.6c0.1,0.1,0.2,0.1,0.3,0.1l0.3,0c0,0,1.7,0.1,4.1,0c-1,0.5-2.1,1.2-3.1,1.9l-0.3,0.2c-0.2,0.1-0.2,0.4-0.2,0.6
	l0.1,0.3c0,0,0.2,0.6,0.6,1.5c-0.5-0.4-1-0.8-1.6-1.2l-0.3-0.2c-0.2-0.1-0.4-0.1-0.6,0l-0.3,0.2c0,0-0.9,0.8-2.2,2
	c0.3-0.9,0.6-1.8,0.9-2.8c0,0,0,0,0,0l0.1-0.3c0.1-0.2,0-0.4-0.2-0.5l-0.3-0.2c0,0-0.2-0.1-0.5-0.3
	C279.6,462.2,280.3,462.3,281,462.3z M291.4,477.6c-0.1-0.8-0.2-1.5-0.4-2.3c0.8,0.6,1.7,1.1,2.6,1.5c0,0,0,0,0.1,0.1
	c3.2,2.5,3.3,3.7,3.3,4.1c-0.1,0.5-0.7,0.8-0.7,0.8h0C293.5,482.4,291.6,478.1,291.4,477.6z M280.8,454.6c0,2.5-0.4,4.7-0.6,5.7
	c-15.6-0.2-16.5-8.5-16.6-8.9c-0.1-0.4-0.1-0.9-0.1-1.3c0-5.7,6.3-6.4,7-6.4c3.2-0.2,5.6,0.5,7.3,2
	C279.8,447.6,280.8,450.6,280.8,454.6z M281.9,466.3c6.3,4.9,7.7,9.3,7.7,12.1c0,2.3-0.9,3.8-1,3.9c-1.1,1.9-2.5,3.1-4.2,3.5
	c-2.9,0.7-5.7-1-5.7-1.1c-2.8-1.7-4.2-3.9-4.2-6.4C274.5,473.2,280.1,467.8,281.9,466.3z M285.4,464.1c10.8-7.4,16-1,16.2-0.7
	c1.4,1.6,2,3.2,2,4.9c0,3-2.4,5.1-2.5,5.2c-2.1,1.8-4.1,2.4-6.2,1.9C290,474,286.4,466.4,285.4,464.1z M309.2,438.2
	c-18.4-16.5-25.2-27.3-27.5-31.5c1,0.5,2.1,0.8,3.2,1l0.3,0.1c2.1,3.6,8.3,12.4,23.7,23.6C309.7,433.4,309.8,435.8,309.2,438.2z
	 M298.7,459.3c0,0-0.1,0-0.1-0.1c-0.2-0.1-0.3-0.1-0.5-0.2c-0.6-0.2-1.3-0.3-2.1-0.3c0.8-0.5,1.6-1,2.2-1.6c0.9-0.8,1.6-1.8,2-3.1
	c1-0.2,2.5,0.3,3.3,1c0.6,0.5,0.5,1,0.5,1.3C303.2,459.1,299.1,459.3,298.7,459.3z M303.9,309.1c5.2,2.4,8.5,5,8.5,5
	c0.5,0.5,0.9,0.9,1.3,1.3c0.3,0.3,0.6,0.6,0.9,1c3.7,4.1,9.8,12.8,9.8,25c0,4.9-1.1,10.1-3.2,15.4c-0.9,1.5-4.4,6.4-8.9,7.5
	c-2.1,0.5-4.1,0.2-6-1c0,0-3.5-2.9-3.8-7c-0.1-2.7,1.1-5.4,3.7-8c0.1,0,0.1,0,0.2,0c0.2,0,0.4,0,0.6-0.1c4.9-1.3,10.9-5.7,11.8-14
	c0.1-0.7,0.1-1.5,0.1-2.2c0-8.5-5.7-15.8-15.2-19.6L303.9,309.1z M280.4,445.9c0-0.1-1.8-5.1,0.5-6c0.8-0.4,1.5-0.3,2.1,0.2
	c0.7,0.6,1.1,1.8,1.1,3.1c0,0.7-0.1,1.4-0.3,2c-0.8,1.2-1.4,2.7-1.8,4.4c-0.4-1.3-0.8-2.4-1.5-3.3c0,0,0,0,0,0
	C280.4,446.1,280.4,446,280.4,445.9z M289.6,442.7c2.1-0.6,4-0.5,5.5,0.3c2.6,1.5,3.5,4.7,3.5,4.8c0.3,1.1,0.4,2.1,0.4,3
	c0,2.1-0.7,3.8-2.1,5.1c-3.7,3.4-11.1,3.5-13.4,3.5c-0.3-1.7-0.4-3.3-0.4-4.8C283.1,444.5,289.3,442.8,289.6,442.7z M342.2,453.7
	c-1.4-2.1-2.6-4.1-3.1-5.4c-0.2-0.5-0.6-1.4-1-2.6c3,0.4,8.6,0.5,12.4-2.9c2.2-2,3.3-4.9,3.3-8.6c0-0.3,0-0.6,0-1
	c1.9,0.9,5,2.7,6.1,5.8c0.9,2.6,0,5.7-2.5,9.1c-0.2,0.2-0.1,0.5,0.1,0.7l0.7,0.5c0.1,0.1,0.2,0.1,0.4,0.1c0.1,0,0.2-0.1,0.3-0.2
	c0.4-0.6,0.7-1.1,1-1.6c0.1-0.1,0.2-0.3,0.2-0.4c2-0.4,15-3.4,24-17.2c3.6-5.4,5.4-10.5,5.4-15c0-5.2-2.4-7.8-2.4-7.8
	c0-0.1-3.9-5.7-9.9-2.8c0,0-0.1,0-0.1,0c-0.2-0.1-0.4-0.2-0.7-0.3c-2.2-0.4-5,0.4-6.5,2.1c-0.9,1-1.8,2.6-1.2,5
	c0,0.1,0.1,0.2,0.2,0.3c0.1,0.1,0.2,0.1,0.4,0l0.9-0.2c0.1,0,0.2-0.1,0.3-0.2c0.1-0.1,0.1-0.2,0-0.4c-0.3-1.3-0.1-2.4,0.7-3.2
	c1.1-1.2,3.1-1.8,4.8-1.5c2.3,0.4,3.8,2.9,3.8,6.1c0,3.7-2.2,8.4-8.5,9.6c-5.4,1-8.3-1.7-9.8-4.2c-3.1-5.2-2.8-13.5,0.7-17.8
	c4.6-5.7,10.7-8,18.2-7c5.6,0.8,13.3,5.5,17,13c2.6,5.3,4.4,14.1-2.2,25.9C379.9,459.1,345.2,454.2,342.2,453.7z M467.7,259.2
	c0,0,3.3-0.6,5.7,1.2c1.4,1,2.4,2.7,2.7,5c0,0,0.1,0.3,0.1,0.9c0,0.2,0,0.5-0.1,0.8c0,0.2-0.1,0.4-0.1,0.6c0,0,0,0,0,0l-0.1,0.5
	c0,0,0,0.1,0,0.1c-0.8,3.2-3.6,7.2-12.1,9.6c-0.8-1.6-3-6.5-3-10.8C460.8,262.6,463.1,260.1,467.7,259.2
	C467.7,259.2,467.7,259.2,467.7,259.2z M456.8,256.8c0.5-0.1,1,0.1,1.3,0.4c0.9,0.9,1.3,3.1,1.3,5.2c0,0.6,0,1.3-0.1,1.8l-0.1,0.7
	c0,0,0,0.1,0,0.1c0,0.1,0,0.2,0,0.3c-0.1,0.5-0.2,1-0.2,1.5c-0.2-0.3-0.4-0.6-0.6-0.9c0-0.1,0-0.1-0.1-0.2c-1.8-2.2-2.8-6.6-2.1-8.4
	v0C456.3,256.9,456.6,256.8,456.8,256.8z M460.5,280.2c-2.2,0.5-9.6,1.6-13.8-1.6c-2.2-1.7-3.1-4.4-2.9-8.1c0-0.2,0.3-3.8,2.7-5.8
	c1.3-1,3-1.4,5.1-1.1C452,263.7,460.2,264.6,460.5,280.2z M481.8,265.9c1-0.4,1.9-0.1,2.4,0.4c0.2,0.2,0.4,0.5,0.5,0.7l0,0.2
	c0,0.2,0.1,0.5,0,0.7c-0.2,0.6-1,1.5-3.4,2.9c0,0,0,0-0.1,0c-1.7,0.9-3.6,1.7-4.9,2.1c0,0-0.1,0-0.1,0c-0.2,0.1-0.5,0.1-0.7,0.2
	c1.1-1.4,1.8-2.9,2.2-4.5C478.2,268.2,479.8,266.7,481.8,265.9z M446,280.4C446,280.4,446,280.4,446,280.4c1,0.7,2.1,1.2,3.4,1.6
	c-1.5,0.4-2.9,1-4,1.7c0,0-0.1,0-0.1,0c-1.9,0.6-4.2,0.3-5.1-0.7c-0.5-0.5-0.6-1.2-0.2-2.1C440.9,278.6,445.9,280.4,446,280.4z
	 M370.9,260.3c27.4,9.5,43.8-0.8,48.2-4.2c0.1,1.2,0,2.8-0.6,4.6c-0.3,0.8-0.7,1.5-1.1,2.1c-2.1,2.9-5.9,4.6-11.4,5
	c-0.3,0-0.4,0.2-0.5,0.5v0c-0.2,0-0.4,0.2-0.4,0.5c0,0,0,0,0,0c0,0.2,0.2,0.4,0.4,0.5c0,0.2,0.2,0.4,0.4,0.4c0.3,0,7.2,0.8,10.8,2.7
	c-2.1,1.7-7.7,5.1-17.1,2.3c-0.3-0.1-0.5,0.1-0.6,0.3l0,0.1c-0.2,0-0.4,0.1-0.5,0.3c-0.1,0.2,0,0.5,0.3,0.6c0,0.2,0.2,0.4,0.4,0.4
	c0.5,0.2,5,1.8,6.7,8c-2.4,0.3-8.4,0.8-13.1-2.5c-0.1-0.1-6.6-5.7-8.6-6.4c-0.6-0.3-3.8-1.8-6-0.7c-0.3,0.2-0.5,0.4-0.6,0.6
	c0,0.1-0.1,0.2-0.1,0.2c-0.3,0.2-0.5,0.5-0.7,1c-0.1,0.1-0.3,0.2-0.3,0.5c0,0.2,0,0.8,0.1,1.5c0,0.2,0.1,0.4,0.2,0.5
	c0,0.1,0,0.1,0.1,0.2c0.1,0.2,0.1,0.4,0.3,0.7c1.3,1.7,4.1,2.4,8.2,2.3c0,0,3.3-0.2,5.5,2c0.6,0.6,1.1,1.5,1.5,2.8l0.1,0.3
	c0.1,0.1,0.1,0.3,0.1,0.5c0.3,1.2,0.4,2.4,0.3,3.8c-1.4,0-4.6-0.3-6.9-2.4c-0.2-0.2-0.5-0.2-0.7,0l-0.2,0.2c-0.2-0.1-0.4,0-0.5,0.1
	c-0.2,0.2-0.2,0.4-0.1,0.6c0,0.1,0,0.3,0.1,0.4c0.1,0.1,9.2,9.9,3.2,20.1c-1.7-1-5.7-4.4-5.9-13.5c0-0.3-0.2-0.5-0.5-0.5l-0.9,0
	c-0.3,0-0.5,0.2-0.5,0.4c0,0.1-0.8,7.3-4.6,10c-1,0.8-2.3,1.1-3.6,1c0.9-5,3.2-24.6-14.8-34.9c-0.1-0.1-13.5-7.5-27.4,4.3
	c-0.3,0.2-6.3,5.9-6.3,13c0,3.7,1.6,7,4.7,10c0.2,1.4,0.9,2.6,1.9,3.5c1.7,1.5,4.5,1.8,6.8-0.8c0.2-0.2,0.2-0.5,0-0.7l-0.7-0.6
	c-0.1-0.1-0.2-0.1-0.4-0.1c-0.1,0-0.2,0.1-0.3,0.2c-1.6,1.8-3.2,1.5-4.2,0.6c-1.4-1.2-1.9-3.6-0.2-5.6c2-2.4,7-4.7,12.1-1
	c3.1,2.3,4.4,6.4,3.2,10.7c-1.2,4.3-5.1,9.6-12.4,10.4c-12.1,1.3-20.1-9.4-21.8-20.7c-2.6-17.4,10.6-30.3,17.9-34.8
	C340.8,254.9,354.5,254.6,370.9,260.3z M485.7,311.7l-0.9,0.8c-0.1,0.1-0.2,0.4-0.1,0.5c0.1,0.2,0.3,0.3,0.5,0.3l1.2-0.1
	c2.1-0.1,3.6,0.3,4.6,1.3c0.4,0.4,0.7,0.9,0.8,1.4c-2.3-0.6-4.8-0.2-7.5,1.2c-1.8,0.9-3.3,1.8-4.7,3.1c-0.1,0.1-0.2,0.2-0.4,0.3
	c-0.1,0.1-0.2,0.1-0.3,0.2c-0.5,0.4-1,0.8-1.6,1c-0.2,0.1-0.4,0.2-0.6,0.3c-1.9,0.8-3.3,0.5-3.8,0.3c-0.1-0.4-0.3-0.8-0.5-1.1
	c-0.3-0.5-0.8-1-1.5-1.3c-0.1-1.7,2-3.9,4.5-4.6c3.2-0.9,5-2,5-2c4.7-2.4,5.8-6.9,6.1-9.5c0.8,1,1.3,2,1.3,3
	C488,309.4,485.8,311.6,485.7,311.7z M462.7,279.8c0.1,0.2,0.3,0.3,0.5,0.2l0.3-0.1c1-0.3,1.9-0.5,2.9-0.9c-1.3,1.2-2,2.2-2,2.2
	l-0.2,0.3c-0.1,0.2-0.1,0.4,0,0.6l0.2,0.3c0.4,0.6,0.8,1.1,1.3,1.6c-0.9-0.4-1.5-0.6-1.5-0.6l-0.3-0.1c-0.2-0.1-0.4,0-0.6,0.2
	l-0.2,0.3c-0.7,1-1.4,2-1.9,3c0.1-1,0.1-1.8,0.1-2.3c0-1.1,0-1.7,0-1.7l0-0.3c0-0.1-0.1-0.2-0.1-0.3c0.3-0.1,0.5-0.1,0.6-0.1
	l0.3-0.1c0.2-0.1,0.4-0.3,0.4-0.5v-0.4c0-0.7,0-1.3-0.1-1.9c0.2,0.3,0.3,0.5,0.3,0.5L462.7,279.8z M407.8,284.9
	c-0.2-1.1-0.5-2.1-1-3.2c4.7,2.5,15.2,9.4,31.5,27.4c-2.4,0.6-4.8,0.5-6.8-0.2c-11.2-15.4-20-21.6-23.6-23.7L407.8,284.9z
	 M452,298.9l-0.2,0c-1.2,0.1-2.6,0-4-0.3c-0.2-0.1-5.5-1.5-5.5-6.4c0-0.8,0.1-1.7,0.4-2.6c0-0.1,2.4-8.4,16.6-6.1c0,0.2,0,0.5,0,0.9
	c0,3-0.4,10.3-4.3,13.3C454.2,298.3,453.2,298.7,452,298.9z M412.3,306.3c1.6-1.6,4.2-1.6,5.7,0c0.8,0.8,1.2,1.8,1.2,2.9
	c0,1.1-0.4,2.1-1.2,2.9c-0.3,0.3-0.8,0.6-1.3,0.8c-0.5,0.3-1.1,0.3-1.7,0.3l-0.1,0c-1-0.1-1.9-0.5-2.6-1.1
	C410.8,310.5,410.8,307.8,412.3,306.3z M475.6,296.2C475.6,296.2,475.6,296.2,475.6,296.2c0,0.1,0,0.1,0,0.2c0,0.1,0,0.1,0,0.2
	c0,0.3-0.1,0.7-0.2,1l-0.1,0.3c-0.4,1.2-0.9,2.3-1.8,3.3c0,0-1.2,1.4-3,2.1c-2.3,0.8-4.7,0.3-7-1.7c-0.1-0.1-2.8-2.3-2.8-6.7
	c0-2.9,1.2-6.1,3.6-9.5C466.3,286.3,475.3,290.6,475.6,296.2z M481.9,288.8c-1.8,0.8-8.1,2.7-15.5-6.9c1.6-1.8,7.2-7.7,12.4-7.3
	c2.3,0.1,4.3,1.5,6,4.2l0,0c0,0,1.1,1.9,1.2,4.2l0,0.2c0,0.8-0.3,1.7-0.8,2.6c-0.2,0.3-0.4,0.6-0.6,0.9c-0.5,0.6-1.1,1.1-1.8,1.6
	c-0.1,0.1-0.2,0.2-0.3,0.3c-0.1,0.1-0.2,0.2-0.3,0.3C482.2,288.7,482.1,288.8,481.9,288.8z M475.3,290.9c0.8,0.3,1.6,0.4,2.2,0.5
	l0.1,0c0.6,0.2,4.6,2,4.1,4.6c0,0,0,0,0,0c-0.1,0.1-0.2,0.4-0.5,0.7c-0.1,0.1-0.2,0.2-0.3,0.2c-0.3,0.1-1.6,0-4.1-3.3c0,0,0,0,0,0
	C476.5,292.7,476,291.8,475.3,290.9z M456.2,299.1c1.2-0.9,2-2.1,2.6-3.3c0.1,0.8,0.3,1.4,0.5,2.1l0,0l0,0.1c0,0.1,0,0.2,0,0.3
	c0,0.1,0,0.3,0.1,0.4c0,0.1,0,0.3,0,0.5c-0.1,1.2-0.7,4-2.9,4.7c-0.5,0.1-0.8-0.1-1.2-0.4c-0.8-0.8-1.2-2.4-1-3.5
	c0.1,0,0.1,0,0.2-0.1C455,299.7,455.7,299.5,456.2,299.1z"/>
</svg>
